/**
 * Created by pawelszymanski on 23.02.17.
 */


var asturia = {
  "header": {
  "PPQ": 384,
    "timeSignature": [
    3,
    4
  ],
    "bpm": 60
},
  "startTime": 0,
  "duration": 49.333333333333336,
  "tracks": [
  {
    "startTime": 0,
    "duration": 0,
    "length": 0,
    "id": 0
  },
  {
    "startTime": 0,
    "duration": 49.333333333333336,
    "length": 105,
    "id": 1,
    "instrumentNumber": 22,
    "instrument": "harmonica",
    "instrumentFamily": "organ",
    "channelNumber": 0,
    "isPercussion": false,
    "notes": [
      {
        "name": "A3",
        "midi": 57,
        "time": 0,
        "velocity": 0.7874015748031497,
        "duration": 0.3333333333333333
      },
      {
        "name": "F#4",
        "midi": 66,
        "time": 0.5,
        "velocity": 0.7874015748031497,
        "duration": 0.6666666666666665
      },
      {
        "name": "F#4",
        "midi": 66,
        "time": 1.4999999999999998,
        "velocity": 0.7874015748031497,
        "duration": 0.33333333333333326
      },
      {
        "name": "F#4",
        "midi": 66,
        "time": 1.9999999999999998,
        "velocity": 0.7874015748031497,
        "duration": 0.5000000000000002
      },
      {
        "name": "F#4",
        "midi": 66,
        "time": 2.75,
        "velocity": 0.7874015748031497,
        "duration": 0.16666666666666652
      },
      {
        "name": "F#4",
        "midi": 66,
        "time": 3,
        "velocity": 0.7874015748031497,
        "duration": 0.16666666666666652
      },
      {
        "name": "G4",
        "midi": 67,
        "time": 3.25,
        "velocity": 0.7874015748031497,
        "duration": 0.16666666666666652
      },
      {
        "name": "A4",
        "midi": 69,
        "time": 3.5,
        "velocity": 0.7874015748031497,
        "duration": 0.666666666666667
      },
      {
        "name": "B4",
        "midi": 71,
        "time": 4.5,
        "velocity": 0.7874015748031497,
        "duration": 0.33333333333333304
      },
      {
        "name": "A4",
        "midi": 69,
        "time": 5,
        "velocity": 0.7874015748031497,
        "duration": 0.666666666666667
      },
      {
        "name": "A4",
        "midi": 69,
        "time": 6,
        "velocity": 0.7874015748031497,
        "duration": 0.33333333333333304
      },
      {
        "name": "B4",
        "midi": 71,
        "time": 6.5,
        "velocity": 0.7874015748031497,
        "duration": 0.666666666666667
      },
      {
        "name": "G4",
        "midi": 67,
        "time": 7.5,
        "velocity": 0.7874015748031497,
        "duration": 0.33333333333333304
      },
      {
        "name": "B4",
        "midi": 71,
        "time": 8,
        "velocity": 0.7874015748031497,
        "duration": 0.3333333333333339
      },
      {
        "name": "A4",
        "midi": 69,
        "time": 8.5,
        "velocity": 0.7874015748031497,
        "duration": 0.3333333333333339
      },
      {
        "name": "G#4",
        "midi": 68,
        "time": 9,
        "velocity": 0.7874015748031497,
        "duration": 0.3333333333333339
      },
      {
        "name": "A4",
        "midi": 69,
        "time": 9.5,
        "velocity": 0.7874015748031497,
        "duration": 0.6666666666666661
      },
      {
        "name": "G4",
        "midi": 67,
        "time": 10.5,
        "velocity": 0.7874015748031497,
        "duration": 0.16666666666666607
      },
      {
        "name": "A4",
        "midi": 69,
        "time": 10.75,
        "velocity": 0.7874015748031497,
        "duration": 0.16666666666666607
      },
      {
        "name": "G4",
        "midi": 67,
        "time": 11,
        "velocity": 0.7874015748031497,
        "duration": 0.16666666666666607
      },
      {
        "name": "F#4",
        "midi": 66,
        "time": 11.25,
        "velocity": 0.7874015748031497,
        "duration": 0.6666666666666661
      },
      {
        "name": "A3",
        "midi": 57,
        "time": 12.25,
        "velocity": 0.7874015748031497,
        "duration": 0.3333333333333339
      },
      {
        "name": "F#4",
        "midi": 66,
        "time": 12.5,
        "velocity": 0.7874015748031497,
        "duration": 0.6666666666666679
      },
      {
        "name": "F#4",
        "midi": 66,
        "time": 13.500000000000002,
        "velocity": 0.7874015748031497,
        "duration": 0.6666666666666661
      },
      {
        "name": "F#4",
        "midi": 66,
        "time": 14.750000000000002,
        "velocity": 0.7874015748031497,
        "duration": 0.16666666666666607
      },
      {
        "name": "F#4",
        "midi": 66,
        "time": 15.000000000000002,
        "velocity": 0.7874015748031497,
        "duration": 0.16666666666666607
      },
      {
        "name": "G4",
        "midi": 67,
        "time": 15.250000000000002,
        "velocity": 0.7874015748031497,
        "duration": 0.16666666666666607
      },
      {
        "name": "A4",
        "midi": 69,
        "time": 15.500000000000002,
        "velocity": 0.7874015748031497,
        "duration": 0.6666666666666661
      },
      {
        "name": "B4",
        "midi": 71,
        "time": 16.5,
        "velocity": 0.7874015748031497,
        "duration": 0.33333333333333215
      },
      {
        "name": "A4",
        "midi": 69,
        "time": 17,
        "velocity": 0.7874015748031497,
        "duration": 0.6666666666666679
      },
      {
        "name": "A4",
        "midi": 69,
        "time": 18,
        "velocity": 0.7874015748031497,
        "duration": 0.33333333333333215
      },
      {
        "name": "B4",
        "midi": 71,
        "time": 18.5,
        "velocity": 0.7874015748031497,
        "duration": 0.6666666666666679
      },
      {
        "name": "G4",
        "midi": 67,
        "time": 19.5,
        "velocity": 0.7874015748031497,
        "duration": 0.33333333333333215
      },
      {
        "name": "B4",
        "midi": 71,
        "time": 20,
        "velocity": 0.7874015748031497,
        "duration": 0.33333333333333215
      },
      {
        "name": "A4",
        "midi": 69,
        "time": 20.5,
        "velocity": 0.7874015748031497,
        "duration": 0.33333333333333215
      },
      {
        "name": "G#4",
        "midi": 68,
        "time": 21,
        "velocity": 0.7874015748031497,
        "duration": 0.33333333333333215
      },
      {
        "name": "A4",
        "midi": 69,
        "time": 21.5,
        "velocity": 0.7874015748031497,
        "duration": 0.6666666666666679
      },
      {
        "name": "G4",
        "midi": 67,
        "time": 22.25,
        "velocity": 0.7874015748031497,
        "duration": 0.16666666666666785
      },
      {
        "name": "A4",
        "midi": 69,
        "time": 22.5,
        "velocity": 0.7874015748031497,
        "duration": 0.16666666666666785
      },
      {
        "name": "G4",
        "midi": 67,
        "time": 22.75,
        "velocity": 0.7874015748031497,
        "duration": 0.16666666666666785
      },
      {
        "name": "F#4",
        "midi": 66,
        "time": 23,
        "velocity": 0.7874015748031497,
        "duration": 0.6666666666666679
      },
      {
        "name": "D4",
        "midi": 62,
        "time": 24.5,
        "velocity": 0.7874015748031497,
        "duration": 0.33333333333333215
      },
      {
        "name": "D4",
        "midi": 62,
        "time": 25,
        "velocity": 0.7874015748031497,
        "duration": 0.16666666666666785
      },
      {
        "name": "D4",
        "midi": 62,
        "time": 25.25,
        "velocity": 0.7874015748031497,
        "duration": 0.16666666666666785
      },
      {
        "name": "B4",
        "midi": 71,
        "time": 25.5,
        "velocity": 0.7874015748031497,
        "duration": 0.33333333333333215
      },
      {
        "name": "B4",
        "midi": 71,
        "time": 26,
        "velocity": 0.7874015748031497,
        "duration": 0.16666666666666785
      },
      {
        "name": "B4",
        "midi": 71,
        "time": 26.25,
        "velocity": 0.7874015748031497,
        "duration": 0.16666666666666785
      },
      {
        "name": "B4",
        "midi": 71,
        "time": 26.5,
        "velocity": 0.7874015748031497,
        "duration": 0.33333333333333215
      },
      {
        "name": "B4",
        "midi": 71,
        "time": 27,
        "velocity": 0.7874015748031497,
        "duration": 0.33333333333333215
      },
      {
        "name": "D5",
        "midi": 74,
        "time": 27.5,
        "velocity": 0.7874015748031497,
        "duration": 0.33333333333333215
      },
      {
        "name": "C#5",
        "midi": 73,
        "time": 28,
        "velocity": 0.7874015748031497,
        "duration": 0.16666666666666785
      },
      {
        "name": "B4",
        "midi": 71,
        "time": 28.25,
        "velocity": 0.7874015748031497,
        "duration": 0.16666666666666785
      },
      {
        "name": "A4",
        "midi": 69,
        "time": 28.5,
        "velocity": 0.7874015748031497,
        "duration": 0.33333333333333215
      },
      {
        "name": "F#4",
        "midi": 66,
        "time": 29,
        "velocity": 0.7874015748031497,
        "duration": 0.16666666666666785
      },
      {
        "name": "G4",
        "midi": 67,
        "time": 29.25,
        "velocity": 0.7874015748031497,
        "duration": 0.16666666666666785
      },
      {
        "name": "A4",
        "midi": 69,
        "time": 29.5,
        "velocity": 0.7874015748031497,
        "duration": 0.33333333333333215
      },
      {
        "name": "A4",
        "midi": 69,
        "time": 30,
        "velocity": 0.7874015748031497,
        "duration": 0.33333333333333215
      },
      {
        "name": "B4",
        "midi": 71,
        "time": 30.5,
        "velocity": 0.7874015748031497,
        "duration": 0.33333333333333215
      },
      {
        "name": "A4",
        "midi": 69,
        "time": 31,
        "velocity": 0.7874015748031497,
        "duration": 0.16666666666666785
      },
      {
        "name": "A4",
        "midi": 69,
        "time": 31.25,
        "velocity": 0.7874015748031497,
        "duration": 0.16666666666666785
      },
      {
        "name": "G4",
        "midi": 67,
        "time": 31.5,
        "velocity": 0.7874015748031497,
        "duration": 0.33333333333333215
      },
      {
        "name": "E4",
        "midi": 64,
        "time": 32,
        "velocity": 0.7874015748031497,
        "duration": 0.1666666666666643
      },
      {
        "name": "F#4",
        "midi": 66,
        "time": 32.25,
        "velocity": 0.7874015748031497,
        "duration": 0.1666666666666643
      },
      {
        "name": "G4",
        "midi": 67,
        "time": 32.5,
        "velocity": 0.7874015748031497,
        "duration": 0.3333333333333357
      },
      {
        "name": "G4",
        "midi": 67,
        "time": 33,
        "velocity": 0.7874015748031497,
        "duration": 0.3333333333333357
      },
      {
        "name": "A4",
        "midi": 69,
        "time": 33.5,
        "velocity": 0.7874015748031497,
        "duration": 0.3333333333333357
      },
      {
        "name": "A4",
        "midi": 69,
        "time": 34,
        "velocity": 0.7874015748031497,
        "duration": 0.1666666666666643
      },
      {
        "name": "A4",
        "midi": 69,
        "time": 34.25,
        "velocity": 0.7874015748031497,
        "duration": 0.1666666666666643
      },
      {
        "name": "B4",
        "midi": 71,
        "time": 34.5,
        "velocity": 0.7874015748031497,
        "duration": 0.3333333333333357
      },
      {
        "name": "A4",
        "midi": 69,
        "time": 35,
        "velocity": 0.7874015748031497,
        "duration": 0.1666666666666643
      },
      {
        "name": "G4",
        "midi": 67,
        "time": 35.25,
        "velocity": 0.7874015748031497,
        "duration": 0.1666666666666643
      },
      {
        "name": "F#4",
        "midi": 66,
        "time": 35.5,
        "velocity": 0.7874015748031497,
        "duration": 0.3333333333333357
      },
      {
        "name": "F#4",
        "midi": 66,
        "time": 36,
        "velocity": 0.7874015748031497,
        "duration": 0.3333333333333357
      },
      {
        "name": "D4",
        "midi": 62,
        "time": 37.5,
        "velocity": 0.7874015748031497,
        "duration": 0.3333333333333357
      },
      {
        "name": "D4",
        "midi": 62,
        "time": 38,
        "velocity": 0.7874015748031497,
        "duration": 0.1666666666666643
      },
      {
        "name": "D4",
        "midi": 62,
        "time": 38.25,
        "velocity": 0.7874015748031497,
        "duration": 0.1666666666666643
      },
      {
        "name": "B4",
        "midi": 71,
        "time": 38.5,
        "velocity": 0.7874015748031497,
        "duration": 0.3333333333333357
      },
      {
        "name": "B4",
        "midi": 71,
        "time": 39,
        "velocity": 0.7874015748031497,
        "duration": 0.1666666666666643
      },
      {
        "name": "B4",
        "midi": 71,
        "time": 39.25,
        "velocity": 0.7874015748031497,
        "duration": 0.1666666666666643
      },
      {
        "name": "B4",
        "midi": 71,
        "time": 39.5,
        "velocity": 0.7874015748031497,
        "duration": 0.3333333333333357
      },
      {
        "name": "B4",
        "midi": 71,
        "time": 40,
        "velocity": 0.7874015748031497,
        "duration": 0.3333333333333357
      },
      {
        "name": "D5",
        "midi": 74,
        "time": 40.5,
        "velocity": 0.7874015748031497,
        "duration": 0.3333333333333357
      },
      {
        "name": "C#5",
        "midi": 73,
        "time": 41,
        "velocity": 0.7874015748031497,
        "duration": 0.1666666666666643
      },
      {
        "name": "B4",
        "midi": 71,
        "time": 41.25,
        "velocity": 0.7874015748031497,
        "duration": 0.1666666666666643
      },
      {
        "name": "A4",
        "midi": 69,
        "time": 41.5,
        "velocity": 0.7874015748031497,
        "duration": 0.3333333333333357
      },
      {
        "name": "F#4",
        "midi": 66,
        "time": 42,
        "velocity": 0.7874015748031497,
        "duration": 0.1666666666666643
      },
      {
        "name": "G4",
        "midi": 67,
        "time": 42.25,
        "velocity": 0.7874015748031497,
        "duration": 0.1666666666666643
      },
      {
        "name": "A4",
        "midi": 69,
        "time": 42.5,
        "velocity": 0.7874015748031497,
        "duration": 0.3333333333333357
      },
      {
        "name": "A4",
        "midi": 69,
        "time": 43,
        "velocity": 0.7874015748031497,
        "duration": 0.3333333333333357
      },
      {
        "name": "B4",
        "midi": 71,
        "time": 43.5,
        "velocity": 0.7874015748031497,
        "duration": 0.3333333333333357
      },
      {
        "name": "A4",
        "midi": 69,
        "time": 44,
        "velocity": 0.7874015748031497,
        "duration": 0.1666666666666643
      },
      {
        "name": "A4",
        "midi": 69,
        "time": 44.25,
        "velocity": 0.7874015748031497,
        "duration": 0.1666666666666643
      },
      {
        "name": "G4",
        "midi": 67,
        "time": 44.5,
        "velocity": 0.7874015748031497,
        "duration": 0.3333333333333357
      },
      {
        "name": "E4",
        "midi": 64,
        "time": 45,
        "velocity": 0.7874015748031497,
        "duration": 0.1666666666666643
      },
      {
        "name": "F#4",
        "midi": 66,
        "time": 45.25,
        "velocity": 0.7874015748031497,
        "duration": 0.1666666666666643
      },
      {
        "name": "G4",
        "midi": 67,
        "time": 45.5,
        "velocity": 0.7874015748031497,
        "duration": 0.3333333333333357
      },
      {
        "name": "G4",
        "midi": 67,
        "time": 46,
        "velocity": 0.7874015748031497,
        "duration": 0.3333333333333357
      },
      {
        "name": "A4",
        "midi": 69,
        "time": 46.5,
        "velocity": 0.7874015748031497,
        "duration": 0.3333333333333357
      },
      {
        "name": "A4",
        "midi": 69,
        "time": 47,
        "velocity": 0.7874015748031497,
        "duration": 0.1666666666666643
      },
      {
        "name": "A4",
        "midi": 69,
        "time": 47.25,
        "velocity": 0.7874015748031497,
        "duration": 0.1666666666666643
      },
      {
        "name": "B4",
        "midi": 71,
        "time": 47.5,
        "velocity": 0.7874015748031497,
        "duration": 0.3333333333333357
      },
      {
        "name": "A4",
        "midi": 69,
        "time": 48,
        "velocity": 0.7874015748031497,
        "duration": 0.1666666666666643
      },
      {
        "name": "G4",
        "midi": 67,
        "time": 48.25,
        "velocity": 0.7874015748031497,
        "duration": 0.1666666666666643
      },
      {
        "name": "F#4",
        "midi": 66,
        "time": 48.5,
        "velocity": 0.7874015748031497,
        "duration": 0.3333333333333357
      },
      {
        "name": "F#4",
        "midi": 66,
        "time": 49,
        "velocity": 0.7874015748031497,
        "duration": 0.3333333333333357
      }
    ],
    "controlChanges": {
      "7": [
        {
          "number": 7,
          "time": 0,
          "value": 1
        }
      ]
    }
  },
  {
    "startTime": 0.5,
    "duration": 49.16666666666667,
    "length": 80,
    "id": 2,
    "instrumentNumber": 23,
    "instrument": "tango accordion",
    "instrumentFamily": "organ",
    "channelNumber": 1,
    "isPercussion": false,
    "notes": [
      {
        "name": "D3",
        "midi": 50,
        "time": 0.5,
        "velocity": 0.7874015748031497,
        "duration": 1
      },
      {
        "name": "A2",
        "midi": 45,
        "time": 0.5,
        "velocity": 0.7874015748031497,
        "duration": 1
      },
      {
        "name": "D3",
        "midi": 50,
        "time": 2,
        "velocity": 0.7874015748031497,
        "duration": 1
      },
      {
        "name": "A2",
        "midi": 45,
        "time": 2,
        "velocity": 0.7874015748031497,
        "duration": 1
      },
      {
        "name": "D3",
        "midi": 50,
        "time": 3.5,
        "velocity": 0.7874015748031497,
        "duration": 1
      },
      {
        "name": "A2",
        "midi": 45,
        "time": 3.5,
        "velocity": 0.7874015748031497,
        "duration": 1
      },
      {
        "name": "D3",
        "midi": 50,
        "time": 5,
        "velocity": 0.7874015748031497,
        "duration": 1
      },
      {
        "name": "A2",
        "midi": 45,
        "time": 5,
        "velocity": 0.7874015748031497,
        "duration": 1
      },
      {
        "name": "D3",
        "midi": 50,
        "time": 6.5,
        "velocity": 0.7874015748031497,
        "duration": 1
      },
      {
        "name": "G2",
        "midi": 43,
        "time": 6.5,
        "velocity": 0.7874015748031497,
        "duration": 1
      },
      {
        "name": "D3",
        "midi": 50,
        "time": 8,
        "velocity": 0.7874015748031497,
        "duration": 1
      },
      {
        "name": "G2",
        "midi": 43,
        "time": 8,
        "velocity": 0.7874015748031497,
        "duration": 1
      },
      {
        "name": "D3",
        "midi": 50,
        "time": 9.5,
        "velocity": 0.7874015748031497,
        "duration": 1
      },
      {
        "name": "A2",
        "midi": 45,
        "time": 9.5,
        "velocity": 0.7874015748031497,
        "duration": 1
      },
      {
        "name": "D3",
        "midi": 50,
        "time": 11.25,
        "velocity": 0.7874015748031497,
        "duration": 0.6666666666666661
      },
      {
        "name": "A2",
        "midi": 45,
        "time": 11.25,
        "velocity": 0.7874015748031497,
        "duration": 0.6666666666666661
      },
      {
        "name": "D3",
        "midi": 50,
        "time": 12.5,
        "velocity": 0.7874015748031497,
        "duration": 1
      },
      {
        "name": "A2",
        "midi": 45,
        "time": 12.5,
        "velocity": 0.7874015748031497,
        "duration": 1
      },
      {
        "name": "D3",
        "midi": 50,
        "time": 14,
        "velocity": 0.7874015748031497,
        "duration": 1
      },
      {
        "name": "A2",
        "midi": 45,
        "time": 14,
        "velocity": 0.7874015748031497,
        "duration": 1
      },
      {
        "name": "D3",
        "midi": 50,
        "time": 15.5,
        "velocity": 0.7874015748031497,
        "duration": 1
      },
      {
        "name": "A2",
        "midi": 45,
        "time": 15.5,
        "velocity": 0.7874015748031497,
        "duration": 1
      },
      {
        "name": "D3",
        "midi": 50,
        "time": 17,
        "velocity": 0.7874015748031497,
        "duration": 1
      },
      {
        "name": "A2",
        "midi": 45,
        "time": 17,
        "velocity": 0.7874015748031497,
        "duration": 1
      },
      {
        "name": "D3",
        "midi": 50,
        "time": 18.5,
        "velocity": 0.7874015748031497,
        "duration": 1
      },
      {
        "name": "G2",
        "midi": 43,
        "time": 18.5,
        "velocity": 0.7874015748031497,
        "duration": 1
      },
      {
        "name": "D3",
        "midi": 50,
        "time": 20,
        "velocity": 0.7874015748031497,
        "duration": 1
      },
      {
        "name": "G2",
        "midi": 43,
        "time": 20,
        "velocity": 0.7874015748031497,
        "duration": 1
      },
      {
        "name": "D3",
        "midi": 50,
        "time": 21.5,
        "velocity": 0.7874015748031497,
        "duration": 1
      },
      {
        "name": "A2",
        "midi": 45,
        "time": 21.5,
        "velocity": 0.7874015748031497,
        "duration": 1
      },
      {
        "name": "D3",
        "midi": 50,
        "time": 23.25,
        "velocity": 0.7874015748031497,
        "duration": 0.6666666666666679
      },
      {
        "name": "A2",
        "midi": 45,
        "time": 23.25,
        "velocity": 0.7874015748031497,
        "duration": 0.6666666666666679
      },
      {
        "name": "G2",
        "midi": 43,
        "time": 24.5,
        "velocity": 0.7874015748031497,
        "duration": 0.6666666666666679
      },
      {
        "name": "D3",
        "midi": 50,
        "time": 24.5,
        "velocity": 0.7874015748031497,
        "duration": 0.6666666666666679
      },
      {
        "name": "D3",
        "midi": 50,
        "time": 25.5,
        "velocity": 0.7874015748031497,
        "duration": 0.6666666666666679
      },
      {
        "name": "G2",
        "midi": 43,
        "time": 25.5,
        "velocity": 0.7874015748031497,
        "duration": 0.6666666666666679
      },
      {
        "name": "D3",
        "midi": 50,
        "time": 26.5,
        "velocity": 0.7874015748031497,
        "duration": 0.6666666666666679
      },
      {
        "name": "G2",
        "midi": 43,
        "time": 26.5,
        "velocity": 0.7874015748031497,
        "duration": 0.6666666666666679
      },
      {
        "name": "D3",
        "midi": 50,
        "time": 27.5,
        "velocity": 0.7874015748031497,
        "duration": 0.6666666666666679
      },
      {
        "name": "G2",
        "midi": 43,
        "time": 27.5,
        "velocity": 0.7874015748031497,
        "duration": 0.6666666666666679
      },
      {
        "name": "A2",
        "midi": 45,
        "time": 28.5,
        "velocity": 0.7874015748031497,
        "duration": 0.6666666666666679
      },
      {
        "name": "D3",
        "midi": 50,
        "time": 28.5,
        "velocity": 0.7874015748031497,
        "duration": 0.6666666666666679
      },
      {
        "name": "A2",
        "midi": 45,
        "time": 29.5,
        "velocity": 0.7874015748031497,
        "duration": 0.6666666666666679
      },
      {
        "name": "D3",
        "midi": 50,
        "time": 29.5,
        "velocity": 0.7874015748031497,
        "duration": 0.6666666666666679
      },
      {
        "name": "A2",
        "midi": 45,
        "time": 30.5,
        "velocity": 0.7874015748031497,
        "duration": 0.6666666666666679
      },
      {
        "name": "D3",
        "midi": 50,
        "time": 30.5,
        "velocity": 0.7874015748031497,
        "duration": 0.6666666666666679
      },
      {
        "name": "E3",
        "midi": 52,
        "time": 31.5,
        "velocity": 0.7874015748031497,
        "duration": 0.6666666666666643
      },
      {
        "name": "A2",
        "midi": 45,
        "time": 31.5,
        "velocity": 0.7874015748031497,
        "duration": 0.6666666666666643
      },
      {
        "name": "E3",
        "midi": 52,
        "time": 32.5,
        "velocity": 0.7874015748031497,
        "duration": 0.6666666666666643
      },
      {
        "name": "A2",
        "midi": 45,
        "time": 32.5,
        "velocity": 0.7874015748031497,
        "duration": 0.6666666666666643
      },
      {
        "name": "E3",
        "midi": 52,
        "time": 33.5,
        "velocity": 0.7874015748031497,
        "duration": 0.6666666666666643
      },
      {
        "name": "A2",
        "midi": 45,
        "time": 33.5,
        "velocity": 0.7874015748031497,
        "duration": 0.6666666666666643
      },
      {
        "name": "A2",
        "midi": 45,
        "time": 34.5,
        "velocity": 0.7874015748031497,
        "duration": 0.6666666666666643
      },
      {
        "name": "D3",
        "midi": 50,
        "time": 34.5,
        "velocity": 0.7874015748031497,
        "duration": 1.3333333333333357
      },
      {
        "name": "D3",
        "midi": 50,
        "time": 35.5,
        "velocity": 0.7874015748031497,
        "duration": 0.6666666666666714
      },
      {
        "name": "A2",
        "midi": 45,
        "time": 35.5,
        "velocity": 0.7874015748031497,
        "duration": 0.6666666666666714
      },
      {
        "name": "D3",
        "midi": 50,
        "time": 37.50000000000001,
        "velocity": 0.7874015748031497,
        "duration": 0.6666666666666643
      },
      {
        "name": "A2",
        "midi": 45,
        "time": 37.50000000000001,
        "velocity": 0.7874015748031497,
        "duration": 0.6666666666666643
      },
      {
        "name": "D3",
        "midi": 50,
        "time": 38.50000000000001,
        "velocity": 0.7874015748031497,
        "duration": 0.6666666666666643
      },
      {
        "name": "G2",
        "midi": 43,
        "time": 38.50000000000001,
        "velocity": 0.7874015748031497,
        "duration": 0.6666666666666643
      },
      {
        "name": "D3",
        "midi": 50,
        "time": 39.50000000000001,
        "velocity": 0.7874015748031497,
        "duration": 0.6666666666666643
      },
      {
        "name": "G2",
        "midi": 43,
        "time": 39.50000000000001,
        "velocity": 0.7874015748031497,
        "duration": 0.6666666666666643
      },
      {
        "name": "D3",
        "midi": 50,
        "time": 40.50000000000001,
        "velocity": 0.7874015748031497,
        "duration": 0.6666666666666643
      },
      {
        "name": "G2",
        "midi": 43,
        "time": 40.50000000000001,
        "velocity": 0.7874015748031497,
        "duration": 0.6666666666666643
      },
      {
        "name": "D3",
        "midi": 50,
        "time": 41.50000000000001,
        "velocity": 0.7874015748031497,
        "duration": 0.6666666666666643
      },
      {
        "name": "A2",
        "midi": 45,
        "time": 41.50000000000001,
        "velocity": 0.7874015748031497,
        "duration": 0.6666666666666643
      },
      {
        "name": "D3",
        "midi": 50,
        "time": 42.50000000000001,
        "velocity": 0.7874015748031497,
        "duration": 0.6666666666666643
      },
      {
        "name": "A2",
        "midi": 45,
        "time": 42.50000000000001,
        "velocity": 0.7874015748031497,
        "duration": 0.6666666666666643
      },
      {
        "name": "D3",
        "midi": 50,
        "time": 43.50000000000001,
        "velocity": 0.7874015748031497,
        "duration": 0.6666666666666643
      },
      {
        "name": "A2",
        "midi": 45,
        "time": 43.50000000000001,
        "velocity": 0.7874015748031497,
        "duration": 0.6666666666666643
      },
      {
        "name": "E3",
        "midi": 52,
        "time": 44.50000000000001,
        "velocity": 0.7874015748031497,
        "duration": 0.6666666666666643
      },
      {
        "name": "A2",
        "midi": 45,
        "time": 44.50000000000001,
        "velocity": 0.7874015748031497,
        "duration": 0.6666666666666643
      },
      {
        "name": "E3",
        "midi": 52,
        "time": 45.50000000000001,
        "velocity": 0.7874015748031497,
        "duration": 0.6666666666666643
      },
      {
        "name": "A2",
        "midi": 45,
        "time": 45.50000000000001,
        "velocity": 0.7874015748031497,
        "duration": 0.6666666666666643
      },
      {
        "name": "E3",
        "midi": 52,
        "time": 46.50000000000001,
        "velocity": 0.7874015748031497,
        "duration": 0.6666666666666643
      },
      {
        "name": "A2",
        "midi": 45,
        "time": 46.50000000000001,
        "velocity": 0.7874015748031497,
        "duration": 0.6666666666666643
      },
      {
        "name": "A2",
        "midi": 45,
        "time": 47.50000000000001,
        "velocity": 0.7874015748031497,
        "duration": 0.6666666666666643
      },
      {
        "name": "D3",
        "midi": 50,
        "time": 47.50000000000001,
        "velocity": 0.7874015748031497,
        "duration": 0.6666666666666643
      },
      {
        "name": "D3",
        "midi": 50,
        "time": 48.50000000000001,
        "velocity": 0.7874015748031497,
        "duration": 0.6666666666666643
      },
      {
        "name": "A2",
        "midi": 45,
        "time": 48.50000000000001,
        "velocity": 0.7874015748031497,
        "duration": 0.6666666666666643
      }
    ],
    "controlChanges": {
      "7": [
        {
          "number": 7,
          "time": 0,
          "value": 1
        }
      ]
    }
  },
  {
    "startTime": 0,
    "duration": 49.333333333333336,
    "length": 105,
    "id": 3,
    "instrumentNumber": 40,
    "instrument": "violin",
    "instrumentFamily": "strings",
    "channelNumber": 2,
    "isPercussion": false,
    "notes": [
      {
        "name": "A3",
        "midi": 57,
        "time": 0,
        "velocity": 0.7874015748031497,
        "duration": 0.3333333333333333
      },
      {
        "name": "F#4",
        "midi": 66,
        "time": 0.5,
        "velocity": 0.7874015748031497,
        "duration": 0.6666666666666665
      },
      {
        "name": "F#4",
        "midi": 66,
        "time": 1.4999999999999998,
        "velocity": 0.7874015748031497,
        "duration": 0.33333333333333326
      },
      {
        "name": "F#4",
        "midi": 66,
        "time": 1.9999999999999998,
        "velocity": 0.7874015748031497,
        "duration": 0.5000000000000002
      },
      {
        "name": "F#4",
        "midi": 66,
        "time": 2.75,
        "velocity": 0.7874015748031497,
        "duration": 0.16666666666666652
      },
      {
        "name": "F#4",
        "midi": 66,
        "time": 3,
        "velocity": 0.7874015748031497,
        "duration": 0.16666666666666652
      },
      {
        "name": "G4",
        "midi": 67,
        "time": 3.25,
        "velocity": 0.7874015748031497,
        "duration": 0.16666666666666652
      },
      {
        "name": "A4",
        "midi": 69,
        "time": 3.5,
        "velocity": 0.7874015748031497,
        "duration": 0.666666666666667
      },
      {
        "name": "B4",
        "midi": 71,
        "time": 4.5,
        "velocity": 0.7874015748031497,
        "duration": 0.33333333333333304
      },
      {
        "name": "A4",
        "midi": 69,
        "time": 5,
        "velocity": 0.7874015748031497,
        "duration": 0.666666666666667
      },
      {
        "name": "A4",
        "midi": 69,
        "time": 6,
        "velocity": 0.7874015748031497,
        "duration": 0.33333333333333304
      },
      {
        "name": "B4",
        "midi": 71,
        "time": 6.5,
        "velocity": 0.7874015748031497,
        "duration": 0.666666666666667
      },
      {
        "name": "G4",
        "midi": 67,
        "time": 7.5,
        "velocity": 0.7874015748031497,
        "duration": 0.33333333333333304
      },
      {
        "name": "B4",
        "midi": 71,
        "time": 8,
        "velocity": 0.7874015748031497,
        "duration": 0.3333333333333339
      },
      {
        "name": "A4",
        "midi": 69,
        "time": 8.5,
        "velocity": 0.7874015748031497,
        "duration": 0.3333333333333339
      },
      {
        "name": "G#4",
        "midi": 68,
        "time": 9,
        "velocity": 0.7874015748031497,
        "duration": 0.3333333333333339
      },
      {
        "name": "A4",
        "midi": 69,
        "time": 9.5,
        "velocity": 0.7874015748031497,
        "duration": 0.6666666666666661
      },
      {
        "name": "G4",
        "midi": 67,
        "time": 10.5,
        "velocity": 0.7874015748031497,
        "duration": 0.16666666666666607
      },
      {
        "name": "A4",
        "midi": 69,
        "time": 10.75,
        "velocity": 0.7874015748031497,
        "duration": 0.16666666666666607
      },
      {
        "name": "G4",
        "midi": 67,
        "time": 11,
        "velocity": 0.7874015748031497,
        "duration": 0.16666666666666607
      },
      {
        "name": "F#4",
        "midi": 66,
        "time": 11.25,
        "velocity": 0.7874015748031497,
        "duration": 0.6666666666666661
      },
      {
        "name": "A3",
        "midi": 57,
        "time": 12.25,
        "velocity": 0.7874015748031497,
        "duration": 0.3333333333333339
      },
      {
        "name": "F#4",
        "midi": 66,
        "time": 12.5,
        "velocity": 0.7874015748031497,
        "duration": 0.6666666666666679
      },
      {
        "name": "F#4",
        "midi": 66,
        "time": 13.500000000000002,
        "velocity": 0.7874015748031497,
        "duration": 0.6666666666666661
      },
      {
        "name": "F#4",
        "midi": 66,
        "time": 14.750000000000002,
        "velocity": 0.7874015748031497,
        "duration": 0.16666666666666607
      },
      {
        "name": "F#4",
        "midi": 66,
        "time": 15.000000000000002,
        "velocity": 0.7874015748031497,
        "duration": 0.16666666666666607
      },
      {
        "name": "G4",
        "midi": 67,
        "time": 15.250000000000002,
        "velocity": 0.7874015748031497,
        "duration": 0.16666666666666607
      },
      {
        "name": "A4",
        "midi": 69,
        "time": 15.500000000000002,
        "velocity": 0.7874015748031497,
        "duration": 0.6666666666666661
      },
      {
        "name": "B4",
        "midi": 71,
        "time": 16.5,
        "velocity": 0.7874015748031497,
        "duration": 0.33333333333333215
      },
      {
        "name": "A4",
        "midi": 69,
        "time": 17,
        "velocity": 0.7874015748031497,
        "duration": 0.6666666666666679
      },
      {
        "name": "A4",
        "midi": 69,
        "time": 18,
        "velocity": 0.7874015748031497,
        "duration": 0.33333333333333215
      },
      {
        "name": "B4",
        "midi": 71,
        "time": 18.5,
        "velocity": 0.7874015748031497,
        "duration": 0.6666666666666679
      },
      {
        "name": "G4",
        "midi": 67,
        "time": 19.5,
        "velocity": 0.7874015748031497,
        "duration": 0.33333333333333215
      },
      {
        "name": "B4",
        "midi": 71,
        "time": 20,
        "velocity": 0.7874015748031497,
        "duration": 0.33333333333333215
      },
      {
        "name": "A4",
        "midi": 69,
        "time": 20.5,
        "velocity": 0.7874015748031497,
        "duration": 0.33333333333333215
      },
      {
        "name": "G#4",
        "midi": 68,
        "time": 21,
        "velocity": 0.7874015748031497,
        "duration": 0.33333333333333215
      },
      {
        "name": "A4",
        "midi": 69,
        "time": 21.5,
        "velocity": 0.7874015748031497,
        "duration": 0.6666666666666679
      },
      {
        "name": "G4",
        "midi": 67,
        "time": 22.25,
        "velocity": 0.7874015748031497,
        "duration": 0.16666666666666785
      },
      {
        "name": "A4",
        "midi": 69,
        "time": 22.5,
        "velocity": 0.7874015748031497,
        "duration": 0.16666666666666785
      },
      {
        "name": "G4",
        "midi": 67,
        "time": 22.75,
        "velocity": 0.7874015748031497,
        "duration": 0.16666666666666785
      },
      {
        "name": "F#4",
        "midi": 66,
        "time": 23,
        "velocity": 0.7874015748031497,
        "duration": 0.6666666666666679
      },
      {
        "name": "D4",
        "midi": 62,
        "time": 24.5,
        "velocity": 0.7874015748031497,
        "duration": 0.33333333333333215
      },
      {
        "name": "D4",
        "midi": 62,
        "time": 25,
        "velocity": 0.7874015748031497,
        "duration": 0.16666666666666785
      },
      {
        "name": "D4",
        "midi": 62,
        "time": 25.25,
        "velocity": 0.7874015748031497,
        "duration": 0.16666666666666785
      },
      {
        "name": "B4",
        "midi": 71,
        "time": 25.5,
        "velocity": 0.7874015748031497,
        "duration": 0.33333333333333215
      },
      {
        "name": "B4",
        "midi": 71,
        "time": 26,
        "velocity": 0.7874015748031497,
        "duration": 0.16666666666666785
      },
      {
        "name": "B4",
        "midi": 71,
        "time": 26.25,
        "velocity": 0.7874015748031497,
        "duration": 0.16666666666666785
      },
      {
        "name": "B4",
        "midi": 71,
        "time": 26.5,
        "velocity": 0.7874015748031497,
        "duration": 0.33333333333333215
      },
      {
        "name": "B4",
        "midi": 71,
        "time": 27,
        "velocity": 0.7874015748031497,
        "duration": 0.33333333333333215
      },
      {
        "name": "D5",
        "midi": 74,
        "time": 27.5,
        "velocity": 0.7874015748031497,
        "duration": 0.33333333333333215
      },
      {
        "name": "C#5",
        "midi": 73,
        "time": 28,
        "velocity": 0.7874015748031497,
        "duration": 0.16666666666666785
      },
      {
        "name": "B4",
        "midi": 71,
        "time": 28.25,
        "velocity": 0.7874015748031497,
        "duration": 0.16666666666666785
      },
      {
        "name": "A4",
        "midi": 69,
        "time": 28.5,
        "velocity": 0.7874015748031497,
        "duration": 0.33333333333333215
      },
      {
        "name": "F#4",
        "midi": 66,
        "time": 29,
        "velocity": 0.7874015748031497,
        "duration": 0.16666666666666785
      },
      {
        "name": "G4",
        "midi": 67,
        "time": 29.25,
        "velocity": 0.7874015748031497,
        "duration": 0.16666666666666785
      },
      {
        "name": "A4",
        "midi": 69,
        "time": 29.5,
        "velocity": 0.7874015748031497,
        "duration": 0.33333333333333215
      },
      {
        "name": "A4",
        "midi": 69,
        "time": 30,
        "velocity": 0.7874015748031497,
        "duration": 0.33333333333333215
      },
      {
        "name": "B4",
        "midi": 71,
        "time": 30.5,
        "velocity": 0.7874015748031497,
        "duration": 0.33333333333333215
      },
      {
        "name": "A4",
        "midi": 69,
        "time": 31,
        "velocity": 0.7874015748031497,
        "duration": 0.16666666666666785
      },
      {
        "name": "A4",
        "midi": 69,
        "time": 31.25,
        "velocity": 0.7874015748031497,
        "duration": 0.16666666666666785
      },
      {
        "name": "G4",
        "midi": 67,
        "time": 31.5,
        "velocity": 0.7874015748031497,
        "duration": 0.33333333333333215
      },
      {
        "name": "E4",
        "midi": 64,
        "time": 32,
        "velocity": 0.7874015748031497,
        "duration": 0.1666666666666643
      },
      {
        "name": "F#4",
        "midi": 66,
        "time": 32.25,
        "velocity": 0.7874015748031497,
        "duration": 0.1666666666666643
      },
      {
        "name": "G4",
        "midi": 67,
        "time": 32.5,
        "velocity": 0.7874015748031497,
        "duration": 0.3333333333333357
      },
      {
        "name": "G4",
        "midi": 67,
        "time": 33,
        "velocity": 0.7874015748031497,
        "duration": 0.3333333333333357
      },
      {
        "name": "A4",
        "midi": 69,
        "time": 33.5,
        "velocity": 0.7874015748031497,
        "duration": 0.3333333333333357
      },
      {
        "name": "A4",
        "midi": 69,
        "time": 34,
        "velocity": 0.7874015748031497,
        "duration": 0.1666666666666643
      },
      {
        "name": "A4",
        "midi": 69,
        "time": 34.25,
        "velocity": 0.7874015748031497,
        "duration": 0.1666666666666643
      },
      {
        "name": "B4",
        "midi": 71,
        "time": 34.5,
        "velocity": 0.7874015748031497,
        "duration": 0.3333333333333357
      },
      {
        "name": "A4",
        "midi": 69,
        "time": 35,
        "velocity": 0.7874015748031497,
        "duration": 0.1666666666666643
      },
      {
        "name": "G4",
        "midi": 67,
        "time": 35.25,
        "velocity": 0.7874015748031497,
        "duration": 0.1666666666666643
      },
      {
        "name": "F#4",
        "midi": 66,
        "time": 35.5,
        "velocity": 0.7874015748031497,
        "duration": 0.3333333333333357
      },
      {
        "name": "F#4",
        "midi": 66,
        "time": 36,
        "velocity": 0.7874015748031497,
        "duration": 0.3333333333333357
      },
      {
        "name": "D4",
        "midi": 62,
        "time": 37.5,
        "velocity": 0.7874015748031497,
        "duration": 0.3333333333333357
      },
      {
        "name": "D4",
        "midi": 62,
        "time": 38,
        "velocity": 0.7874015748031497,
        "duration": 0.1666666666666643
      },
      {
        "name": "D4",
        "midi": 62,
        "time": 38.25,
        "velocity": 0.7874015748031497,
        "duration": 0.1666666666666643
      },
      {
        "name": "B4",
        "midi": 71,
        "time": 38.5,
        "velocity": 0.7874015748031497,
        "duration": 0.3333333333333357
      },
      {
        "name": "B4",
        "midi": 71,
        "time": 39,
        "velocity": 0.7874015748031497,
        "duration": 0.1666666666666643
      },
      {
        "name": "B4",
        "midi": 71,
        "time": 39.25,
        "velocity": 0.7874015748031497,
        "duration": 0.1666666666666643
      },
      {
        "name": "B4",
        "midi": 71,
        "time": 39.5,
        "velocity": 0.7874015748031497,
        "duration": 0.3333333333333357
      },
      {
        "name": "B4",
        "midi": 71,
        "time": 40,
        "velocity": 0.7874015748031497,
        "duration": 0.3333333333333357
      },
      {
        "name": "D5",
        "midi": 74,
        "time": 40.5,
        "velocity": 0.7874015748031497,
        "duration": 0.3333333333333357
      },
      {
        "name": "C#5",
        "midi": 73,
        "time": 41,
        "velocity": 0.7874015748031497,
        "duration": 0.1666666666666643
      },
      {
        "name": "B4",
        "midi": 71,
        "time": 41.25,
        "velocity": 0.7874015748031497,
        "duration": 0.1666666666666643
      },
      {
        "name": "A4",
        "midi": 69,
        "time": 41.5,
        "velocity": 0.7874015748031497,
        "duration": 0.3333333333333357
      },
      {
        "name": "F#4",
        "midi": 66,
        "time": 42,
        "velocity": 0.7874015748031497,
        "duration": 0.1666666666666643
      },
      {
        "name": "G4",
        "midi": 67,
        "time": 42.25,
        "velocity": 0.7874015748031497,
        "duration": 0.1666666666666643
      },
      {
        "name": "A4",
        "midi": 69,
        "time": 42.5,
        "velocity": 0.7874015748031497,
        "duration": 0.3333333333333357
      },
      {
        "name": "A4",
        "midi": 69,
        "time": 43,
        "velocity": 0.7874015748031497,
        "duration": 0.3333333333333357
      },
      {
        "name": "B4",
        "midi": 71,
        "time": 43.5,
        "velocity": 0.7874015748031497,
        "duration": 0.3333333333333357
      },
      {
        "name": "A4",
        "midi": 69,
        "time": 44,
        "velocity": 0.7874015748031497,
        "duration": 0.1666666666666643
      },
      {
        "name": "A4",
        "midi": 69,
        "time": 44.25,
        "velocity": 0.7874015748031497,
        "duration": 0.1666666666666643
      },
      {
        "name": "G4",
        "midi": 67,
        "time": 44.5,
        "velocity": 0.7874015748031497,
        "duration": 0.3333333333333357
      },
      {
        "name": "E4",
        "midi": 64,
        "time": 45,
        "velocity": 0.7874015748031497,
        "duration": 0.1666666666666643
      },
      {
        "name": "F#4",
        "midi": 66,
        "time": 45.25,
        "velocity": 0.7874015748031497,
        "duration": 0.1666666666666643
      },
      {
        "name": "G4",
        "midi": 67,
        "time": 45.5,
        "velocity": 0.7874015748031497,
        "duration": 0.3333333333333357
      },
      {
        "name": "G4",
        "midi": 67,
        "time": 46,
        "velocity": 0.7874015748031497,
        "duration": 0.3333333333333357
      },
      {
        "name": "A4",
        "midi": 69,
        "time": 46.5,
        "velocity": 0.7874015748031497,
        "duration": 0.3333333333333357
      },
      {
        "name": "A4",
        "midi": 69,
        "time": 47,
        "velocity": 0.7874015748031497,
        "duration": 0.1666666666666643
      },
      {
        "name": "A4",
        "midi": 69,
        "time": 47.25,
        "velocity": 0.7874015748031497,
        "duration": 0.1666666666666643
      },
      {
        "name": "B4",
        "midi": 71,
        "time": 47.5,
        "velocity": 0.7874015748031497,
        "duration": 0.3333333333333357
      },
      {
        "name": "A4",
        "midi": 69,
        "time": 48,
        "velocity": 0.7874015748031497,
        "duration": 0.1666666666666643
      },
      {
        "name": "G4",
        "midi": 67,
        "time": 48.25,
        "velocity": 0.7874015748031497,
        "duration": 0.1666666666666643
      },
      {
        "name": "F#4",
        "midi": 66,
        "time": 48.5,
        "velocity": 0.7874015748031497,
        "duration": 0.3333333333333357
      },
      {
        "name": "F#4",
        "midi": 66,
        "time": 49,
        "velocity": 0.7874015748031497,
        "duration": 0.3333333333333357
      }
    ],
    "controlChanges": {
      "7": [
        {
          "number": 7,
          "time": 0,
          "value": 1
        }
      ]
    }
  },
  {
    "startTime": 0.5,
    "duration": 49.16666666666667,
    "length": 80,
    "id": 4,
    "instrumentNumber": 6,
    "instrument": "harpsichord",
    "instrumentFamily": "piano",
    "channelNumber": 3,
    "isPercussion": false,
    "notes": [
      {
        "name": "D3",
        "midi": 50,
        "time": 0.5,
        "velocity": 0.7874015748031497,
        "duration": 1
      },
      {
        "name": "A2",
        "midi": 45,
        "time": 0.5,
        "velocity": 0.7874015748031497,
        "duration": 1
      },
      {
        "name": "D3",
        "midi": 50,
        "time": 2,
        "velocity": 0.7874015748031497,
        "duration": 1
      },
      {
        "name": "A2",
        "midi": 45,
        "time": 2,
        "velocity": 0.7874015748031497,
        "duration": 1
      },
      {
        "name": "D3",
        "midi": 50,
        "time": 3.5,
        "velocity": 0.7874015748031497,
        "duration": 1
      },
      {
        "name": "A2",
        "midi": 45,
        "time": 3.5,
        "velocity": 0.7874015748031497,
        "duration": 1
      },
      {
        "name": "D3",
        "midi": 50,
        "time": 5,
        "velocity": 0.7874015748031497,
        "duration": 1
      },
      {
        "name": "A2",
        "midi": 45,
        "time": 5,
        "velocity": 0.7874015748031497,
        "duration": 1
      },
      {
        "name": "D3",
        "midi": 50,
        "time": 6.5,
        "velocity": 0.7874015748031497,
        "duration": 1
      },
      {
        "name": "G2",
        "midi": 43,
        "time": 6.5,
        "velocity": 0.7874015748031497,
        "duration": 1
      },
      {
        "name": "D3",
        "midi": 50,
        "time": 8,
        "velocity": 0.7874015748031497,
        "duration": 1
      },
      {
        "name": "G2",
        "midi": 43,
        "time": 8,
        "velocity": 0.7874015748031497,
        "duration": 1
      },
      {
        "name": "D3",
        "midi": 50,
        "time": 9.5,
        "velocity": 0.7874015748031497,
        "duration": 1
      },
      {
        "name": "A2",
        "midi": 45,
        "time": 9.5,
        "velocity": 0.7874015748031497,
        "duration": 1
      },
      {
        "name": "D3",
        "midi": 50,
        "time": 11.25,
        "velocity": 0.7874015748031497,
        "duration": 0.6666666666666661
      },
      {
        "name": "A2",
        "midi": 45,
        "time": 11.25,
        "velocity": 0.7874015748031497,
        "duration": 0.6666666666666661
      },
      {
        "name": "D3",
        "midi": 50,
        "time": 12.5,
        "velocity": 0.7874015748031497,
        "duration": 1
      },
      {
        "name": "A2",
        "midi": 45,
        "time": 12.5,
        "velocity": 0.7874015748031497,
        "duration": 1
      },
      {
        "name": "D3",
        "midi": 50,
        "time": 14,
        "velocity": 0.7874015748031497,
        "duration": 1
      },
      {
        "name": "A2",
        "midi": 45,
        "time": 14,
        "velocity": 0.7874015748031497,
        "duration": 1
      },
      {
        "name": "D3",
        "midi": 50,
        "time": 15.5,
        "velocity": 0.7874015748031497,
        "duration": 1
      },
      {
        "name": "A2",
        "midi": 45,
        "time": 15.5,
        "velocity": 0.7874015748031497,
        "duration": 1
      },
      {
        "name": "D3",
        "midi": 50,
        "time": 17,
        "velocity": 0.7874015748031497,
        "duration": 1
      },
      {
        "name": "A2",
        "midi": 45,
        "time": 17,
        "velocity": 0.7874015748031497,
        "duration": 1
      },
      {
        "name": "D3",
        "midi": 50,
        "time": 18.5,
        "velocity": 0.7874015748031497,
        "duration": 1
      },
      {
        "name": "G2",
        "midi": 43,
        "time": 18.5,
        "velocity": 0.7874015748031497,
        "duration": 1
      },
      {
        "name": "D3",
        "midi": 50,
        "time": 20,
        "velocity": 0.7874015748031497,
        "duration": 1
      },
      {
        "name": "G2",
        "midi": 43,
        "time": 20,
        "velocity": 0.7874015748031497,
        "duration": 1
      },
      {
        "name": "D3",
        "midi": 50,
        "time": 21.5,
        "velocity": 0.7874015748031497,
        "duration": 1
      },
      {
        "name": "A2",
        "midi": 45,
        "time": 21.5,
        "velocity": 0.7874015748031497,
        "duration": 1
      },
      {
        "name": "D3",
        "midi": 50,
        "time": 23.25,
        "velocity": 0.7874015748031497,
        "duration": 0.6666666666666679
      },
      {
        "name": "A2",
        "midi": 45,
        "time": 23.25,
        "velocity": 0.7874015748031497,
        "duration": 0.6666666666666679
      },
      {
        "name": "G2",
        "midi": 43,
        "time": 24.5,
        "velocity": 0.7874015748031497,
        "duration": 0.6666666666666679
      },
      {
        "name": "D3",
        "midi": 50,
        "time": 24.5,
        "velocity": 0.7874015748031497,
        "duration": 0.6666666666666679
      },
      {
        "name": "D3",
        "midi": 50,
        "time": 25.5,
        "velocity": 0.7874015748031497,
        "duration": 0.6666666666666679
      },
      {
        "name": "G2",
        "midi": 43,
        "time": 25.5,
        "velocity": 0.7874015748031497,
        "duration": 0.6666666666666679
      },
      {
        "name": "D3",
        "midi": 50,
        "time": 26.5,
        "velocity": 0.7874015748031497,
        "duration": 0.6666666666666679
      },
      {
        "name": "G2",
        "midi": 43,
        "time": 26.5,
        "velocity": 0.7874015748031497,
        "duration": 0.6666666666666679
      },
      {
        "name": "D3",
        "midi": 50,
        "time": 27.5,
        "velocity": 0.7874015748031497,
        "duration": 0.6666666666666679
      },
      {
        "name": "G2",
        "midi": 43,
        "time": 27.5,
        "velocity": 0.7874015748031497,
        "duration": 0.6666666666666679
      },
      {
        "name": "A2",
        "midi": 45,
        "time": 28.5,
        "velocity": 0.7874015748031497,
        "duration": 0.6666666666666679
      },
      {
        "name": "D3",
        "midi": 50,
        "time": 28.5,
        "velocity": 0.7874015748031497,
        "duration": 0.6666666666666679
      },
      {
        "name": "A2",
        "midi": 45,
        "time": 29.5,
        "velocity": 0.7874015748031497,
        "duration": 0.6666666666666679
      },
      {
        "name": "D3",
        "midi": 50,
        "time": 29.5,
        "velocity": 0.7874015748031497,
        "duration": 0.6666666666666679
      },
      {
        "name": "A2",
        "midi": 45,
        "time": 30.5,
        "velocity": 0.7874015748031497,
        "duration": 0.6666666666666679
      },
      {
        "name": "D3",
        "midi": 50,
        "time": 30.5,
        "velocity": 0.7874015748031497,
        "duration": 0.6666666666666679
      },
      {
        "name": "E3",
        "midi": 52,
        "time": 31.5,
        "velocity": 0.7874015748031497,
        "duration": 0.6666666666666643
      },
      {
        "name": "A2",
        "midi": 45,
        "time": 31.5,
        "velocity": 0.7874015748031497,
        "duration": 0.6666666666666643
      },
      {
        "name": "E3",
        "midi": 52,
        "time": 32.5,
        "velocity": 0.7874015748031497,
        "duration": 0.6666666666666643
      },
      {
        "name": "A2",
        "midi": 45,
        "time": 32.5,
        "velocity": 0.7874015748031497,
        "duration": 0.6666666666666643
      },
      {
        "name": "E3",
        "midi": 52,
        "time": 33.5,
        "velocity": 0.7874015748031497,
        "duration": 0.6666666666666643
      },
      {
        "name": "A2",
        "midi": 45,
        "time": 33.5,
        "velocity": 0.7874015748031497,
        "duration": 0.6666666666666643
      },
      {
        "name": "A2",
        "midi": 45,
        "time": 34.5,
        "velocity": 0.7874015748031497,
        "duration": 0.6666666666666643
      },
      {
        "name": "D3",
        "midi": 50,
        "time": 34.5,
        "velocity": 0.7874015748031497,
        "duration": 1.3333333333333357
      },
      {
        "name": "D3",
        "midi": 50,
        "time": 35.5,
        "velocity": 0.7874015748031497,
        "duration": 0.6666666666666714
      },
      {
        "name": "A2",
        "midi": 45,
        "time": 35.5,
        "velocity": 0.7874015748031497,
        "duration": 0.6666666666666714
      },
      {
        "name": "D3",
        "midi": 50,
        "time": 37.50000000000001,
        "velocity": 0.7874015748031497,
        "duration": 0.6666666666666643
      },
      {
        "name": "A2",
        "midi": 45,
        "time": 37.50000000000001,
        "velocity": 0.7874015748031497,
        "duration": 0.6666666666666643
      },
      {
        "name": "D3",
        "midi": 50,
        "time": 38.50000000000001,
        "velocity": 0.7874015748031497,
        "duration": 0.6666666666666643
      },
      {
        "name": "G2",
        "midi": 43,
        "time": 38.50000000000001,
        "velocity": 0.7874015748031497,
        "duration": 0.6666666666666643
      },
      {
        "name": "D3",
        "midi": 50,
        "time": 39.50000000000001,
        "velocity": 0.7874015748031497,
        "duration": 0.6666666666666643
      },
      {
        "name": "G2",
        "midi": 43,
        "time": 39.50000000000001,
        "velocity": 0.7874015748031497,
        "duration": 0.6666666666666643
      },
      {
        "name": "D3",
        "midi": 50,
        "time": 40.50000000000001,
        "velocity": 0.7874015748031497,
        "duration": 0.6666666666666643
      },
      {
        "name": "G2",
        "midi": 43,
        "time": 40.50000000000001,
        "velocity": 0.7874015748031497,
        "duration": 0.6666666666666643
      },
      {
        "name": "D3",
        "midi": 50,
        "time": 41.50000000000001,
        "velocity": 0.7874015748031497,
        "duration": 0.6666666666666643
      },
      {
        "name": "A2",
        "midi": 45,
        "time": 41.50000000000001,
        "velocity": 0.7874015748031497,
        "duration": 0.6666666666666643
      },
      {
        "name": "D3",
        "midi": 50,
        "time": 42.50000000000001,
        "velocity": 0.7874015748031497,
        "duration": 0.6666666666666643
      },
      {
        "name": "A2",
        "midi": 45,
        "time": 42.50000000000001,
        "velocity": 0.7874015748031497,
        "duration": 0.6666666666666643
      },
      {
        "name": "D3",
        "midi": 50,
        "time": 43.50000000000001,
        "velocity": 0.7874015748031497,
        "duration": 0.6666666666666643
      },
      {
        "name": "A2",
        "midi": 45,
        "time": 43.50000000000001,
        "velocity": 0.7874015748031497,
        "duration": 0.6666666666666643
      },
      {
        "name": "E3",
        "midi": 52,
        "time": 44.50000000000001,
        "velocity": 0.7874015748031497,
        "duration": 0.6666666666666643
      },
      {
        "name": "A2",
        "midi": 45,
        "time": 44.50000000000001,
        "velocity": 0.7874015748031497,
        "duration": 0.6666666666666643
      },
      {
        "name": "E3",
        "midi": 52,
        "time": 45.50000000000001,
        "velocity": 0.7874015748031497,
        "duration": 0.6666666666666643
      },
      {
        "name": "A2",
        "midi": 45,
        "time": 45.50000000000001,
        "velocity": 0.7874015748031497,
        "duration": 0.6666666666666643
      },
      {
        "name": "E3",
        "midi": 52,
        "time": 46.50000000000001,
        "velocity": 0.7874015748031497,
        "duration": 0.6666666666666643
      },
      {
        "name": "A2",
        "midi": 45,
        "time": 46.50000000000001,
        "velocity": 0.7874015748031497,
        "duration": 0.6666666666666643
      },
      {
        "name": "A2",
        "midi": 45,
        "time": 47.50000000000001,
        "velocity": 0.7874015748031497,
        "duration": 0.6666666666666643
      },
      {
        "name": "D3",
        "midi": 50,
        "time": 47.50000000000001,
        "velocity": 0.7874015748031497,
        "duration": 0.6666666666666643
      },
      {
        "name": "D3",
        "midi": 50,
        "time": 48.50000000000001,
        "velocity": 0.7874015748031497,
        "duration": 0.6666666666666643
      },
      {
        "name": "A2",
        "midi": 45,
        "time": 48.50000000000001,
        "velocity": 0.7874015748031497,
        "duration": 0.6666666666666643
      }
    ],
    "controlChanges": {
      "7": [
        {
          "number": 7,
          "time": 0,
          "value": 1
        }
      ]
    }
  },
  {
    "startTime": 24.5,
    "duration": 49.333333333333336,
    "length": 64,
    "id": 5,
    "instrumentNumber": 34,
    "instrument": "electric bass (pick)",
    "instrumentFamily": "bass",
    "channelNumber": 4,
    "isPercussion": false,
    "notes": [
      {
        "name": "D4",
        "midi": 62,
        "time": 24.5,
        "velocity": 0.7874015748031497,
        "duration": 0.33333333333333215
      },
      {
        "name": "D4",
        "midi": 62,
        "time": 25,
        "velocity": 0.7874015748031497,
        "duration": 0.16666666666666785
      },
      {
        "name": "D4",
        "midi": 62,
        "time": 25.25,
        "velocity": 0.7874015748031497,
        "duration": 0.16666666666666785
      },
      {
        "name": "B4",
        "midi": 71,
        "time": 25.5,
        "velocity": 0.7874015748031497,
        "duration": 0.33333333333333215
      },
      {
        "name": "B4",
        "midi": 71,
        "time": 26,
        "velocity": 0.7874015748031497,
        "duration": 0.16666666666666785
      },
      {
        "name": "B4",
        "midi": 71,
        "time": 26.25,
        "velocity": 0.7874015748031497,
        "duration": 0.16666666666666785
      },
      {
        "name": "B4",
        "midi": 71,
        "time": 26.5,
        "velocity": 0.7874015748031497,
        "duration": 0.33333333333333215
      },
      {
        "name": "B4",
        "midi": 71,
        "time": 27,
        "velocity": 0.7874015748031497,
        "duration": 0.33333333333333215
      },
      {
        "name": "D5",
        "midi": 74,
        "time": 27.5,
        "velocity": 0.7874015748031497,
        "duration": 0.33333333333333215
      },
      {
        "name": "C#5",
        "midi": 73,
        "time": 28,
        "velocity": 0.7874015748031497,
        "duration": 0.16666666666666785
      },
      {
        "name": "B4",
        "midi": 71,
        "time": 28.25,
        "velocity": 0.7874015748031497,
        "duration": 0.16666666666666785
      },
      {
        "name": "A4",
        "midi": 69,
        "time": 28.5,
        "velocity": 0.7874015748031497,
        "duration": 0.33333333333333215
      },
      {
        "name": "F#4",
        "midi": 66,
        "time": 29,
        "velocity": 0.7874015748031497,
        "duration": 0.16666666666666785
      },
      {
        "name": "G4",
        "midi": 67,
        "time": 29.25,
        "velocity": 0.7874015748031497,
        "duration": 0.16666666666666785
      },
      {
        "name": "A4",
        "midi": 69,
        "time": 29.5,
        "velocity": 0.7874015748031497,
        "duration": 0.33333333333333215
      },
      {
        "name": "A4",
        "midi": 69,
        "time": 30,
        "velocity": 0.7874015748031497,
        "duration": 0.33333333333333215
      },
      {
        "name": "B4",
        "midi": 71,
        "time": 30.5,
        "velocity": 0.7874015748031497,
        "duration": 0.33333333333333215
      },
      {
        "name": "A4",
        "midi": 69,
        "time": 31,
        "velocity": 0.7874015748031497,
        "duration": 0.16666666666666785
      },
      {
        "name": "A4",
        "midi": 69,
        "time": 31.25,
        "velocity": 0.7874015748031497,
        "duration": 0.16666666666666785
      },
      {
        "name": "G4",
        "midi": 67,
        "time": 31.5,
        "velocity": 0.7874015748031497,
        "duration": 0.33333333333333215
      },
      {
        "name": "E4",
        "midi": 64,
        "time": 32,
        "velocity": 0.7874015748031497,
        "duration": 0.1666666666666643
      },
      {
        "name": "F#4",
        "midi": 66,
        "time": 32.25,
        "velocity": 0.7874015748031497,
        "duration": 0.1666666666666643
      },
      {
        "name": "G4",
        "midi": 67,
        "time": 32.5,
        "velocity": 0.7874015748031497,
        "duration": 0.3333333333333357
      },
      {
        "name": "G4",
        "midi": 67,
        "time": 33,
        "velocity": 0.7874015748031497,
        "duration": 0.3333333333333357
      },
      {
        "name": "A4",
        "midi": 69,
        "time": 33.5,
        "velocity": 0.7874015748031497,
        "duration": 0.3333333333333357
      },
      {
        "name": "A4",
        "midi": 69,
        "time": 34,
        "velocity": 0.7874015748031497,
        "duration": 0.1666666666666643
      },
      {
        "name": "A4",
        "midi": 69,
        "time": 34.25,
        "velocity": 0.7874015748031497,
        "duration": 0.1666666666666643
      },
      {
        "name": "B4",
        "midi": 71,
        "time": 34.5,
        "velocity": 0.7874015748031497,
        "duration": 0.3333333333333357
      },
      {
        "name": "A4",
        "midi": 69,
        "time": 35,
        "velocity": 0.7874015748031497,
        "duration": 0.1666666666666643
      },
      {
        "name": "G4",
        "midi": 67,
        "time": 35.25,
        "velocity": 0.7874015748031497,
        "duration": 0.1666666666666643
      },
      {
        "name": "F#4",
        "midi": 66,
        "time": 35.5,
        "velocity": 0.7874015748031497,
        "duration": 0.3333333333333357
      },
      {
        "name": "F#4",
        "midi": 66,
        "time": 36,
        "velocity": 0.7874015748031497,
        "duration": 0.3333333333333357
      },
      {
        "name": "D4",
        "midi": 62,
        "time": 37.5,
        "velocity": 0.7874015748031497,
        "duration": 0.3333333333333357
      },
      {
        "name": "D4",
        "midi": 62,
        "time": 38,
        "velocity": 0.7874015748031497,
        "duration": 0.1666666666666643
      },
      {
        "name": "D4",
        "midi": 62,
        "time": 38.25,
        "velocity": 0.7874015748031497,
        "duration": 0.1666666666666643
      },
      {
        "name": "B4",
        "midi": 71,
        "time": 38.5,
        "velocity": 0.7874015748031497,
        "duration": 0.3333333333333357
      },
      {
        "name": "B4",
        "midi": 71,
        "time": 39,
        "velocity": 0.7874015748031497,
        "duration": 0.1666666666666643
      },
      {
        "name": "B4",
        "midi": 71,
        "time": 39.25,
        "velocity": 0.7874015748031497,
        "duration": 0.1666666666666643
      },
      {
        "name": "B4",
        "midi": 71,
        "time": 39.5,
        "velocity": 0.7874015748031497,
        "duration": 0.3333333333333357
      },
      {
        "name": "B4",
        "midi": 71,
        "time": 40,
        "velocity": 0.7874015748031497,
        "duration": 0.3333333333333357
      },
      {
        "name": "D5",
        "midi": 74,
        "time": 40.5,
        "velocity": 0.7874015748031497,
        "duration": 0.3333333333333357
      },
      {
        "name": "C#5",
        "midi": 73,
        "time": 41,
        "velocity": 0.7874015748031497,
        "duration": 0.1666666666666643
      },
      {
        "name": "B4",
        "midi": 71,
        "time": 41.25,
        "velocity": 0.7874015748031497,
        "duration": 0.1666666666666643
      },
      {
        "name": "A4",
        "midi": 69,
        "time": 41.5,
        "velocity": 0.7874015748031497,
        "duration": 0.3333333333333357
      },
      {
        "name": "F#4",
        "midi": 66,
        "time": 42,
        "velocity": 0.7874015748031497,
        "duration": 0.1666666666666643
      },
      {
        "name": "G4",
        "midi": 67,
        "time": 42.25,
        "velocity": 0.7874015748031497,
        "duration": 0.1666666666666643
      },
      {
        "name": "A4",
        "midi": 69,
        "time": 42.5,
        "velocity": 0.7874015748031497,
        "duration": 0.3333333333333357
      },
      {
        "name": "A4",
        "midi": 69,
        "time": 43,
        "velocity": 0.7874015748031497,
        "duration": 0.3333333333333357
      },
      {
        "name": "B4",
        "midi": 71,
        "time": 43.5,
        "velocity": 0.7874015748031497,
        "duration": 0.3333333333333357
      },
      {
        "name": "A4",
        "midi": 69,
        "time": 44,
        "velocity": 0.7874015748031497,
        "duration": 0.1666666666666643
      },
      {
        "name": "A4",
        "midi": 69,
        "time": 44.25,
        "velocity": 0.7874015748031497,
        "duration": 0.1666666666666643
      },
      {
        "name": "G4",
        "midi": 67,
        "time": 44.5,
        "velocity": 0.7874015748031497,
        "duration": 0.3333333333333357
      },
      {
        "name": "E4",
        "midi": 64,
        "time": 45,
        "velocity": 0.7874015748031497,
        "duration": 0.1666666666666643
      },
      {
        "name": "F#4",
        "midi": 66,
        "time": 45.25,
        "velocity": 0.7874015748031497,
        "duration": 0.1666666666666643
      },
      {
        "name": "G4",
        "midi": 67,
        "time": 45.5,
        "velocity": 0.7874015748031497,
        "duration": 0.3333333333333357
      },
      {
        "name": "G4",
        "midi": 67,
        "time": 46,
        "velocity": 0.7874015748031497,
        "duration": 0.3333333333333357
      },
      {
        "name": "A4",
        "midi": 69,
        "time": 46.5,
        "velocity": 0.7874015748031497,
        "duration": 0.3333333333333357
      },
      {
        "name": "A4",
        "midi": 69,
        "time": 47,
        "velocity": 0.7874015748031497,
        "duration": 0.1666666666666643
      },
      {
        "name": "A4",
        "midi": 69,
        "time": 47.25,
        "velocity": 0.7874015748031497,
        "duration": 0.1666666666666643
      },
      {
        "name": "B4",
        "midi": 71,
        "time": 47.5,
        "velocity": 0.7874015748031497,
        "duration": 0.3333333333333357
      },
      {
        "name": "A4",
        "midi": 69,
        "time": 48,
        "velocity": 0.7874015748031497,
        "duration": 0.1666666666666643
      },
      {
        "name": "G4",
        "midi": 67,
        "time": 48.25,
        "velocity": 0.7874015748031497,
        "duration": 0.1666666666666643
      },
      {
        "name": "F#4",
        "midi": 66,
        "time": 48.5,
        "velocity": 0.7874015748031497,
        "duration": 0.3333333333333357
      },
      {
        "name": "F#4",
        "midi": 66,
        "time": 49,
        "velocity": 0.7874015748031497,
        "duration": 0.3333333333333357
      }
    ],
    "controlChanges": {
      "7": [
        {
          "number": 7,
          "time": 0,
          "value": 1
        }
      ]
    }
  },
  {
    "startTime": 0,
    "duration": 23.666666666666668,
    "length": 42,
    "id": 6,
    "instrumentNumber": 19,
    "instrument": "church organ",
    "instrumentFamily": "organ",
    "channelNumber": 5,
    "isPercussion": false,
    "notes": [
      {
        "name": "A3",
        "midi": 57,
        "time": 0,
        "velocity": 0.7874015748031497,
        "duration": 0.3333333333333333
      },
      {
        "name": "F#4",
        "midi": 66,
        "time": 0.5,
        "velocity": 0.7874015748031497,
        "duration": 0.6666666666666665
      },
      {
        "name": "F#4",
        "midi": 66,
        "time": 1.4999999999999998,
        "velocity": 0.7874015748031497,
        "duration": 0.33333333333333326
      },
      {
        "name": "F#4",
        "midi": 66,
        "time": 1.9999999999999998,
        "velocity": 0.7874015748031497,
        "duration": 0.5000000000000002
      },
      {
        "name": "F#4",
        "midi": 66,
        "time": 2.75,
        "velocity": 0.7874015748031497,
        "duration": 0.16666666666666652
      },
      {
        "name": "F#4",
        "midi": 66,
        "time": 3,
        "velocity": 0.7874015748031497,
        "duration": 0.16666666666666652
      },
      {
        "name": "G4",
        "midi": 67,
        "time": 3.25,
        "velocity": 0.7874015748031497,
        "duration": 0.16666666666666652
      },
      {
        "name": "A4",
        "midi": 69,
        "time": 3.5,
        "velocity": 0.7874015748031497,
        "duration": 0.666666666666667
      },
      {
        "name": "B4",
        "midi": 71,
        "time": 4.5,
        "velocity": 0.7874015748031497,
        "duration": 0.33333333333333304
      },
      {
        "name": "A4",
        "midi": 69,
        "time": 5,
        "velocity": 0.7874015748031497,
        "duration": 0.666666666666667
      },
      {
        "name": "A4",
        "midi": 69,
        "time": 6,
        "velocity": 0.7874015748031497,
        "duration": 0.33333333333333304
      },
      {
        "name": "B4",
        "midi": 71,
        "time": 6.5,
        "velocity": 0.7874015748031497,
        "duration": 0.666666666666667
      },
      {
        "name": "G4",
        "midi": 67,
        "time": 7.5,
        "velocity": 0.7874015748031497,
        "duration": 0.33333333333333304
      },
      {
        "name": "B4",
        "midi": 71,
        "time": 8,
        "velocity": 0.7874015748031497,
        "duration": 0.3333333333333339
      },
      {
        "name": "A4",
        "midi": 69,
        "time": 8.5,
        "velocity": 0.7874015748031497,
        "duration": 0.3333333333333339
      },
      {
        "name": "G#4",
        "midi": 68,
        "time": 9,
        "velocity": 0.7874015748031497,
        "duration": 0.3333333333333339
      },
      {
        "name": "A4",
        "midi": 69,
        "time": 9.5,
        "velocity": 0.7874015748031497,
        "duration": 0.6666666666666661
      },
      {
        "name": "G4",
        "midi": 67,
        "time": 10.5,
        "velocity": 0.7874015748031497,
        "duration": 0.16666666666666607
      },
      {
        "name": "A4",
        "midi": 69,
        "time": 10.75,
        "velocity": 0.7874015748031497,
        "duration": 0.16666666666666607
      },
      {
        "name": "G4",
        "midi": 67,
        "time": 11,
        "velocity": 0.7874015748031497,
        "duration": 0.16666666666666607
      },
      {
        "name": "F#4",
        "midi": 66,
        "time": 11.25,
        "velocity": 0.7874015748031497,
        "duration": 0.6666666666666661
      },
      {
        "name": "A3",
        "midi": 57,
        "time": 12.25,
        "velocity": 0.7874015748031497,
        "duration": 0.3333333333333339
      },
      {
        "name": "F#4",
        "midi": 66,
        "time": 12.5,
        "velocity": 0.7874015748031497,
        "duration": 0.6666666666666679
      },
      {
        "name": "F#4",
        "midi": 66,
        "time": 13.500000000000002,
        "velocity": 0.7874015748031497,
        "duration": 0.3333333333333339
      },
      {
        "name": "F#4",
        "midi": 66,
        "time": 14.000000000000002,
        "velocity": 0.7874015748031497,
        "duration": 0.5
      },
      {
        "name": "F#4",
        "midi": 66,
        "time": 14.750000000000002,
        "velocity": 0.7874015748031497,
        "duration": 0.16666666666666607
      },
      {
        "name": "F#4",
        "midi": 66,
        "time": 15.000000000000002,
        "velocity": 0.7874015748031497,
        "duration": 0.16666666666666607
      },
      {
        "name": "G4",
        "midi": 67,
        "time": 15.250000000000002,
        "velocity": 0.7874015748031497,
        "duration": 0.16666666666666607
      },
      {
        "name": "A4",
        "midi": 69,
        "time": 15.500000000000002,
        "velocity": 0.7874015748031497,
        "duration": 0.6666666666666661
      },
      {
        "name": "B4",
        "midi": 71,
        "time": 16.5,
        "velocity": 0.7874015748031497,
        "duration": 0.33333333333333215
      },
      {
        "name": "A4",
        "midi": 69,
        "time": 17,
        "velocity": 0.7874015748031497,
        "duration": 0.6666666666666679
      },
      {
        "name": "A4",
        "midi": 69,
        "time": 18,
        "velocity": 0.7874015748031497,
        "duration": 0.33333333333333215
      },
      {
        "name": "B4",
        "midi": 71,
        "time": 18.5,
        "velocity": 0.7874015748031497,
        "duration": 0.6666666666666679
      },
      {
        "name": "G4",
        "midi": 67,
        "time": 19.5,
        "velocity": 0.7874015748031497,
        "duration": 0.33333333333333215
      },
      {
        "name": "B4",
        "midi": 71,
        "time": 20,
        "velocity": 0.7874015748031497,
        "duration": 0.33333333333333215
      },
      {
        "name": "A4",
        "midi": 69,
        "time": 20.5,
        "velocity": 0.7874015748031497,
        "duration": 0.33333333333333215
      },
      {
        "name": "G#4",
        "midi": 68,
        "time": 21,
        "velocity": 0.7874015748031497,
        "duration": 0.33333333333333215
      },
      {
        "name": "A4",
        "midi": 69,
        "time": 21.5,
        "velocity": 0.7874015748031497,
        "duration": 0.6666666666666679
      },
      {
        "name": "G4",
        "midi": 67,
        "time": 22.25,
        "velocity": 0.7874015748031497,
        "duration": 0.16666666666666785
      },
      {
        "name": "A4",
        "midi": 69,
        "time": 22.5,
        "velocity": 0.7874015748031497,
        "duration": 0.16666666666666785
      },
      {
        "name": "G4",
        "midi": 67,
        "time": 22.75,
        "velocity": 0.7874015748031497,
        "duration": 0.16666666666666785
      },
      {
        "name": "F#4",
        "midi": 66,
        "time": 23,
        "velocity": 0.7874015748031497,
        "duration": 0.6666666666666679
      }
    ],
    "controlChanges": {
      "7": [
        {
          "number": 7,
          "time": 0,
          "value": 1
        }
      ]
    }
  }
]
}