var auclaire = {
    "header": {
        "PPQ": 256,
        "timeSignature": [
            4,
            4
        ],
        "bpm": 100
    },
    "startTime": 0,
    "duration": 19.2,
    "tracks": [
        {
            "startTime": 0,
            "duration": 0,
            "length": 0,
            "id": 0
        },
        {
            "startTime": 0,
            "duration": 19.199999999999996,
            "length": 22,
            "id": 1,
            "name": "Flute",
            "instrumentNumber": 73,
            "instrument": "flute",
            "instrumentFamily": "pipe",
            "channelNumber": 1,
            "isPercussion": false,
            "notes": [
                {
                    "name": "F4",
                    "midi": 65,
                    "time": 0,
                    "velocity": 0.5511811023622047,
                    "duration": 0.6
                },
                {
                    "name": "F4",
                    "midi": 65,
                    "time": 0.6,
                    "velocity": 0.6141732283464567,
                    "duration": 0.6
                },
                {
                    "name": "F4",
                    "midi": 65,
                    "time": 1.2,
                    "velocity": 0.5826771653543307,
                    "duration": 0.5999999999999999
                },
                {
                    "name": "G4",
                    "midi": 67,
                    "time": 1.7999999999999998,
                    "velocity": 0.6456692913385826,
                    "duration": 0.6000000000000001
                },
                {
                    "name": "A4",
                    "midi": 69,
                    "time": 2.4,
                    "velocity": 0.6771653543307087,
                    "duration": 1.1999999999999997
                },
                {
                    "name": "G4",
                    "midi": 67,
                    "time": 3.5999999999999996,
                    "velocity": 0.5433070866141733,
                    "duration": 1.2000000000000002
                },
                {
                    "name": "F4",
                    "midi": 65,
                    "time": 4.8,
                    "velocity": 0.5590551181102362,
                    "duration": 0.5999999999999996
                },
                {
                    "name": "A4",
                    "midi": 69,
                    "time": 5.3999999999999995,
                    "velocity": 0.6456692913385826,
                    "duration": 0.5999999999999996
                },
                {
                    "name": "G4",
                    "midi": 67,
                    "time": 5.999999999999999,
                    "velocity": 0.5669291338582677,
                    "duration": 0.5999999999999996
                },
                {
                    "name": "G4",
                    "midi": 67,
                    "time": 6.599999999999999,
                    "velocity": 0.6141732283464567,
                    "duration": 0.5999999999999996
                },
                {
                    "name": "F4",
                    "midi": 65,
                    "time": 7.199999999999998,
                    "velocity": 0.6220472440944882,
                    "duration": 2.3999999999999995
                },
                {
                    "name": "F4",
                    "midi": 65,
                    "time": 9.599999999999998,
                    "velocity": 0.5669291338582677,
                    "duration": 0.5999999999999996
                },
                {
                    "name": "F4",
                    "midi": 65,
                    "time": 10.199999999999998,
                    "velocity": 0.5905511811023622,
                    "duration": 0.5999999999999996
                },
                {
                    "name": "F4",
                    "midi": 65,
                    "time": 10.799999999999997,
                    "velocity": 0.6141732283464567,
                    "duration": 0.5999999999999996
                },
                {
                    "name": "G4",
                    "midi": 67,
                    "time": 11.399999999999997,
                    "velocity": 0.6535433070866141,
                    "duration": 0.5999999999999996
                },
                {
                    "name": "A4",
                    "midi": 69,
                    "time": 11.999999999999996,
                    "velocity": 0.6299212598425197,
                    "duration": 1.1999999999999993
                },
                {
                    "name": "G4",
                    "midi": 67,
                    "time": 13.199999999999996,
                    "velocity": 0.5669291338582677,
                    "duration": 1.1999999999999993
                },
                {
                    "name": "F4",
                    "midi": 65,
                    "time": 14.399999999999995,
                    "velocity": 0.5826771653543307,
                    "duration": 0.5999999999999996
                },
                {
                    "name": "A4",
                    "midi": 69,
                    "time": 14.999999999999995,
                    "velocity": 0.6220472440944882,
                    "duration": 0.5999999999999996
                },
                {
                    "name": "G4",
                    "midi": 67,
                    "time": 15.599999999999994,
                    "velocity": 0.5354330708661418,
                    "duration": 0.6000000000000014
                },
                {
                    "name": "G4",
                    "midi": 67,
                    "time": 16.199999999999996,
                    "velocity": 0.5826771653543307,
                    "duration": 0.6000000000000014
                },
                {
                    "name": "F4",
                    "midi": 65,
                    "time": 16.799999999999997,
                    "velocity": 0.5669291338582677,
                    "duration": 2.3999999999999986
                }
            ],
            "controlChanges": {
                "7": [
                    {
                        "number": 7,
                        "time": 0,
                        "value": 0.7480314960629921
                    }
                ],
                "10": [
                    {
                        "number": 10,
                        "time": 0,
                        "value": 0.5511811023622047
                    }
                ],
                "64": [
                    {
                        "number": 64,
                        "time": 0,
                        "value": 0
                    }
                ],
                "91": [
                    {
                        "number": 91,
                        "time": 0,
                        "value": 0.4094488188976378
                    }
                ],
                "121": [
                    {
                        "number": 121,
                        "time": 0,
                        "value": 0
                    }
                ]
            }
        }
    ]
}