/**
 * Created by peal on 2017-02-23.
 */

var dancing_bear = {
    "header": {
        "PPQ": 480,
        "bpm": 120,
        "timeSignature": [
            4,
            4
        ],
        "name": "The Dancing Bear"
    },
    "startTime": 0,
    "duration": 63.998958333333334,
    "tracks": [
        {
            "startTime": 0,
            "duration": 0,
            "length": 0,
            "id": 0,
            "name": "The Dancing Bear"
        },
        {
            "startTime": 0,
            "duration": 63.998958333333334,
            "length": 202,
            "id": 1,
            "name": "The Dancing Bear",
            "channelNumber": 0,
            "isPercussion": false,
            "notes": [
                {
                    "name": "E4",
                    "midi": 64,
                    "time": 0,
                    "velocity": 0.8267716535433071,
                    "duration": 0.24895833333333334
                },
                {
                    "name": "F#4",
                    "midi": 66,
                    "time": 0.25,
                    "velocity": 0.6299212598425197,
                    "duration": 0.24895833333333334
                },
                {
                    "name": "G4",
                    "midi": 67,
                    "time": 0.5,
                    "velocity": 0.6299212598425197,
                    "duration": 0.2489583333333334
                },
                {
                    "name": "F#4",
                    "midi": 66,
                    "time": 0.7500000000000001,
                    "velocity": 0.6299212598425197,
                    "duration": 0.24895833333333328
                },
                {
                    "name": "E4",
                    "midi": 64,
                    "time": 1,
                    "velocity": 0.7480314960629921,
                    "duration": 0.2489583333333334
                },
                {
                    "name": "F#4",
                    "midi": 66,
                    "time": 1.25,
                    "velocity": 0.6299212598425197,
                    "duration": 0.2489583333333334
                },
                {
                    "name": "G4",
                    "midi": 67,
                    "time": 1.5,
                    "velocity": 0.6299212598425197,
                    "duration": 0.2489583333333334
                },
                {
                    "name": "F#4",
                    "midi": 66,
                    "time": 1.75,
                    "velocity": 0.6299212598425197,
                    "duration": 0.2489583333333334
                },
                {
                    "name": "E4",
                    "midi": 64,
                    "time": 2,
                    "velocity": 0.8267716535433071,
                    "duration": 0.2489583333333334
                },
                {
                    "name": "F#4",
                    "midi": 66,
                    "time": 2.25,
                    "velocity": 0.6299212598425197,
                    "duration": 0.2489583333333334
                },
                {
                    "name": "G4",
                    "midi": 67,
                    "time": 2.5,
                    "velocity": 0.6299212598425197,
                    "duration": 0.2489583333333334
                },
                {
                    "name": "A4",
                    "midi": 69,
                    "time": 2.75,
                    "velocity": 0.6299212598425197,
                    "duration": 0.2489583333333334
                },
                {
                    "name": "G4",
                    "midi": 67,
                    "time": 3,
                    "velocity": 0.7480314960629921,
                    "duration": 0.4989583333333334
                },
                {
                    "name": "E4",
                    "midi": 64,
                    "time": 3.5,
                    "velocity": 0.6299212598425197,
                    "duration": 0.4989583333333334
                },
                {
                    "name": "E4",
                    "midi": 64,
                    "time": 4,
                    "velocity": 0.8267716535433071,
                    "duration": 0.2489583333333334
                },
                {
                    "name": "F#4",
                    "midi": 66,
                    "time": 4.25,
                    "velocity": 0.6299212598425197,
                    "duration": 0.2489583333333334
                },
                {
                    "name": "G4",
                    "midi": 67,
                    "time": 4.5,
                    "velocity": 0.6299212598425197,
                    "duration": 0.2489583333333334
                },
                {
                    "name": "F#4",
                    "midi": 66,
                    "time": 4.75,
                    "velocity": 0.6299212598425197,
                    "duration": 0.2489583333333334
                },
                {
                    "name": "E4",
                    "midi": 64,
                    "time": 5,
                    "velocity": 0.7480314960629921,
                    "duration": 0.2489583333333334
                },
                {
                    "name": "F#4",
                    "midi": 66,
                    "time": 5.25,
                    "velocity": 0.6299212598425197,
                    "duration": 0.2489583333333334
                },
                {
                    "name": "G4",
                    "midi": 67,
                    "time": 5.5,
                    "velocity": 0.6299212598425197,
                    "duration": 0.2489583333333334
                },
                {
                    "name": "F#4",
                    "midi": 66,
                    "time": 5.75,
                    "velocity": 0.6299212598425197,
                    "duration": 0.2489583333333334
                },
                {
                    "name": "E4",
                    "midi": 64,
                    "time": 6,
                    "velocity": 0.8267716535433071,
                    "duration": 0.2489583333333334
                },
                {
                    "name": "F#4",
                    "midi": 66,
                    "time": 6.25,
                    "velocity": 0.6299212598425197,
                    "duration": 0.2489583333333334
                },
                {
                    "name": "G4",
                    "midi": 67,
                    "time": 6.5,
                    "velocity": 0.6299212598425197,
                    "duration": 0.2489583333333334
                },
                {
                    "name": "A4",
                    "midi": 69,
                    "time": 6.75,
                    "velocity": 0.6299212598425197,
                    "duration": 0.2489583333333334
                },
                {
                    "name": "G4",
                    "midi": 67,
                    "time": 7,
                    "velocity": 0.7480314960629921,
                    "duration": 0.4989583333333334
                },
                {
                    "name": "E4",
                    "midi": 64,
                    "time": 7.5,
                    "velocity": 0.6299212598425197,
                    "duration": 0.4989583333333334
                },
                {
                    "name": "E4",
                    "midi": 64,
                    "time": 8,
                    "velocity": 0.8267716535433071,
                    "duration": 0.2489583333333325
                },
                {
                    "name": "F#4",
                    "midi": 66,
                    "time": 8.25,
                    "velocity": 0.6299212598425197,
                    "duration": 0.2489583333333325
                },
                {
                    "name": "G4",
                    "midi": 67,
                    "time": 8.5,
                    "velocity": 0.6299212598425197,
                    "duration": 0.2489583333333325
                },
                {
                    "name": "F#4",
                    "midi": 66,
                    "time": 8.75,
                    "velocity": 0.6299212598425197,
                    "duration": 0.2489583333333325
                },
                {
                    "name": "E4",
                    "midi": 64,
                    "time": 9,
                    "velocity": 0.7480314960629921,
                    "duration": 0.2489583333333325
                },
                {
                    "name": "F#4",
                    "midi": 66,
                    "time": 9.25,
                    "velocity": 0.6299212598425197,
                    "duration": 0.2489583333333325
                },
                {
                    "name": "G4",
                    "midi": 67,
                    "time": 9.5,
                    "velocity": 0.6299212598425197,
                    "duration": 0.2489583333333325
                },
                {
                    "name": "F#4",
                    "midi": 66,
                    "time": 9.75,
                    "velocity": 0.6299212598425197,
                    "duration": 0.2489583333333325
                },
                {
                    "name": "E4",
                    "midi": 64,
                    "time": 10,
                    "velocity": 0.8267716535433071,
                    "duration": 0.2489583333333325
                },
                {
                    "name": "F#4",
                    "midi": 66,
                    "time": 10.25,
                    "velocity": 0.6299212598425197,
                    "duration": 0.2489583333333325
                },
                {
                    "name": "G4",
                    "midi": 67,
                    "time": 10.5,
                    "velocity": 0.6299212598425197,
                    "duration": 0.2489583333333325
                },
                {
                    "name": "A4",
                    "midi": 69,
                    "time": 10.75,
                    "velocity": 0.6299212598425197,
                    "duration": 0.2489583333333325
                },
                {
                    "name": "B4",
                    "midi": 71,
                    "time": 11,
                    "velocity": 0.7480314960629921,
                    "duration": 0.4989583333333325
                },
                {
                    "name": "E5",
                    "midi": 76,
                    "time": 11.5,
                    "velocity": 0.6299212598425197,
                    "duration": 0.4989583333333325
                },
                {
                    "name": "B4",
                    "midi": 71,
                    "time": 12,
                    "velocity": 0.8267716535433071,
                    "duration": 0.4989583333333325
                },
                {
                    "name": "B4",
                    "midi": 71,
                    "time": 12.5,
                    "velocity": 0.6299212598425197,
                    "duration": 0.2489583333333325
                },
                {
                    "name": "C5",
                    "midi": 72,
                    "time": 12.75,
                    "velocity": 0.6299212598425197,
                    "duration": 0.2489583333333325
                },
                {
                    "name": "B4",
                    "midi": 71,
                    "time": 13,
                    "velocity": 0.7480314960629921,
                    "duration": 0.2489583333333325
                },
                {
                    "name": "A4",
                    "midi": 69,
                    "time": 13.25,
                    "velocity": 0.6299212598425197,
                    "duration": 0.2489583333333325
                },
                {
                    "name": "G4",
                    "midi": 67,
                    "time": 13.5,
                    "velocity": 0.6299212598425197,
                    "duration": 0.2489583333333325
                },
                {
                    "name": "F#4",
                    "midi": 66,
                    "time": 13.75,
                    "velocity": 0.6299212598425197,
                    "duration": 0.2489583333333325
                },
                {
                    "name": "G4",
                    "midi": 67,
                    "time": 14,
                    "velocity": 0.8267716535433071,
                    "duration": 0.4989583333333325
                },
                {
                    "name": "E4",
                    "midi": 64,
                    "time": 14.5,
                    "velocity": 0.6299212598425197,
                    "duration": 0.4989583333333325
                },
                {
                    "name": "E4",
                    "midi": 64,
                    "time": 15,
                    "velocity": 0.7480314960629921,
                    "duration": 0.9989583333333325
                },
                {
                    "name": "E4",
                    "midi": 64,
                    "time": 16,
                    "velocity": 0.8267716535433071,
                    "duration": 0.24895833333333428
                },
                {
                    "name": "F#4",
                    "midi": 66,
                    "time": 16.25,
                    "velocity": 0.6299212598425197,
                    "duration": 0.24895833333333428
                },
                {
                    "name": "G4",
                    "midi": 67,
                    "time": 16.5,
                    "velocity": 0.6299212598425197,
                    "duration": 0.24895833333333428
                },
                {
                    "name": "F#4",
                    "midi": 66,
                    "time": 16.75,
                    "velocity": 0.6299212598425197,
                    "duration": 0.24895833333333428
                },
                {
                    "name": "E4",
                    "midi": 64,
                    "time": 17,
                    "velocity": 0.7480314960629921,
                    "duration": 0.24895833333333428
                },
                {
                    "name": "F#4",
                    "midi": 66,
                    "time": 17.25,
                    "velocity": 0.6299212598425197,
                    "duration": 0.24895833333333428
                },
                {
                    "name": "G4",
                    "midi": 67,
                    "time": 17.5,
                    "velocity": 0.6299212598425197,
                    "duration": 0.24895833333333428
                },
                {
                    "name": "F#4",
                    "midi": 66,
                    "time": 17.75,
                    "velocity": 0.6299212598425197,
                    "duration": 0.24895833333333428
                },
                {
                    "name": "E4",
                    "midi": 64,
                    "time": 18,
                    "velocity": 0.8267716535433071,
                    "duration": 0.24895833333333428
                },
                {
                    "name": "F#4",
                    "midi": 66,
                    "time": 18.25,
                    "velocity": 0.6299212598425197,
                    "duration": 0.24895833333333428
                },
                {
                    "name": "G4",
                    "midi": 67,
                    "time": 18.5,
                    "velocity": 0.6299212598425197,
                    "duration": 0.24895833333333428
                },
                {
                    "name": "A4",
                    "midi": 69,
                    "time": 18.75,
                    "velocity": 0.6299212598425197,
                    "duration": 0.24895833333333428
                },
                {
                    "name": "G4",
                    "midi": 67,
                    "time": 19,
                    "velocity": 0.7480314960629921,
                    "duration": 0.4989583333333343
                },
                {
                    "name": "E4",
                    "midi": 64,
                    "time": 19.5,
                    "velocity": 0.6299212598425197,
                    "duration": 0.4989583333333343
                },
                {
                    "name": "E4",
                    "midi": 64,
                    "time": 20,
                    "velocity": 0.8267716535433071,
                    "duration": 0.24895833333333428
                },
                {
                    "name": "F#4",
                    "midi": 66,
                    "time": 20.25,
                    "velocity": 0.6299212598425197,
                    "duration": 0.24895833333333428
                },
                {
                    "name": "G4",
                    "midi": 67,
                    "time": 20.5,
                    "velocity": 0.6299212598425197,
                    "duration": 0.24895833333333428
                },
                {
                    "name": "F#4",
                    "midi": 66,
                    "time": 20.75,
                    "velocity": 0.6299212598425197,
                    "duration": 0.24895833333333428
                },
                {
                    "name": "E4",
                    "midi": 64,
                    "time": 21,
                    "velocity": 0.7480314960629921,
                    "duration": 0.24895833333333428
                },
                {
                    "name": "F#4",
                    "midi": 66,
                    "time": 21.25,
                    "velocity": 0.6299212598425197,
                    "duration": 0.24895833333333428
                },
                {
                    "name": "G4",
                    "midi": 67,
                    "time": 21.5,
                    "velocity": 0.6299212598425197,
                    "duration": 0.24895833333333428
                },
                {
                    "name": "F#4",
                    "midi": 66,
                    "time": 21.75,
                    "velocity": 0.6299212598425197,
                    "duration": 0.24895833333333428
                },
                {
                    "name": "E4",
                    "midi": 64,
                    "time": 22,
                    "velocity": 0.8267716535433071,
                    "duration": 0.24895833333333428
                },
                {
                    "name": "F#4",
                    "midi": 66,
                    "time": 22.25,
                    "velocity": 0.6299212598425197,
                    "duration": 0.24895833333333428
                },
                {
                    "name": "G4",
                    "midi": 67,
                    "time": 22.5,
                    "velocity": 0.6299212598425197,
                    "duration": 0.24895833333333428
                },
                {
                    "name": "A4",
                    "midi": 69,
                    "time": 22.75,
                    "velocity": 0.6299212598425197,
                    "duration": 0.24895833333333428
                },
                {
                    "name": "G4",
                    "midi": 67,
                    "time": 23,
                    "velocity": 0.7480314960629921,
                    "duration": 0.4989583333333343
                },
                {
                    "name": "E4",
                    "midi": 64,
                    "time": 23.5,
                    "velocity": 0.6299212598425197,
                    "duration": 0.4989583333333343
                },
                {
                    "name": "E4",
                    "midi": 64,
                    "time": 24,
                    "velocity": 0.8267716535433071,
                    "duration": 0.24895833333333428
                },
                {
                    "name": "F#4",
                    "midi": 66,
                    "time": 24.25,
                    "velocity": 0.6299212598425197,
                    "duration": 0.24895833333333428
                },
                {
                    "name": "G4",
                    "midi": 67,
                    "time": 24.5,
                    "velocity": 0.6299212598425197,
                    "duration": 0.24895833333333428
                },
                {
                    "name": "F#4",
                    "midi": 66,
                    "time": 24.75,
                    "velocity": 0.6299212598425197,
                    "duration": 0.24895833333333428
                },
                {
                    "name": "E4",
                    "midi": 64,
                    "time": 25,
                    "velocity": 0.7480314960629921,
                    "duration": 0.24895833333333428
                },
                {
                    "name": "F#4",
                    "midi": 66,
                    "time": 25.25,
                    "velocity": 0.6299212598425197,
                    "duration": 0.24895833333333428
                },
                {
                    "name": "G4",
                    "midi": 67,
                    "time": 25.5,
                    "velocity": 0.6299212598425197,
                    "duration": 0.24895833333333428
                },
                {
                    "name": "F#4",
                    "midi": 66,
                    "time": 25.75,
                    "velocity": 0.6299212598425197,
                    "duration": 0.24895833333333428
                },
                {
                    "name": "E4",
                    "midi": 64,
                    "time": 26,
                    "velocity": 0.8267716535433071,
                    "duration": 0.24895833333333428
                },
                {
                    "name": "F#4",
                    "midi": 66,
                    "time": 26.25,
                    "velocity": 0.6299212598425197,
                    "duration": 0.24895833333333428
                },
                {
                    "name": "G4",
                    "midi": 67,
                    "time": 26.5,
                    "velocity": 0.6299212598425197,
                    "duration": 0.24895833333333428
                },
                {
                    "name": "A4",
                    "midi": 69,
                    "time": 26.75,
                    "velocity": 0.6299212598425197,
                    "duration": 0.24895833333333428
                },
                {
                    "name": "B4",
                    "midi": 71,
                    "time": 27,
                    "velocity": 0.7480314960629921,
                    "duration": 0.4989583333333343
                },
                {
                    "name": "E5",
                    "midi": 76,
                    "time": 27.5,
                    "velocity": 0.6299212598425197,
                    "duration": 0.4989583333333343
                },
                {
                    "name": "B4",
                    "midi": 71,
                    "time": 28,
                    "velocity": 0.8267716535433071,
                    "duration": 0.4989583333333343
                },
                {
                    "name": "B4",
                    "midi": 71,
                    "time": 28.5,
                    "velocity": 0.6299212598425197,
                    "duration": 0.24895833333333428
                },
                {
                    "name": "C5",
                    "midi": 72,
                    "time": 28.75,
                    "velocity": 0.6299212598425197,
                    "duration": 0.24895833333333428
                },
                {
                    "name": "B4",
                    "midi": 71,
                    "time": 29,
                    "velocity": 0.7480314960629921,
                    "duration": 0.24895833333333428
                },
                {
                    "name": "A4",
                    "midi": 69,
                    "time": 29.25,
                    "velocity": 0.6299212598425197,
                    "duration": 0.24895833333333428
                },
                {
                    "name": "G4",
                    "midi": 67,
                    "time": 29.5,
                    "velocity": 0.6299212598425197,
                    "duration": 0.24895833333333428
                },
                {
                    "name": "F#4",
                    "midi": 66,
                    "time": 29.75,
                    "velocity": 0.6299212598425197,
                    "duration": 0.24895833333333428
                },
                {
                    "name": "G4",
                    "midi": 67,
                    "time": 30,
                    "velocity": 0.8267716535433071,
                    "duration": 0.4989583333333343
                },
                {
                    "name": "E4",
                    "midi": 64,
                    "time": 30.5,
                    "velocity": 0.6299212598425197,
                    "duration": 0.4989583333333343
                },
                {
                    "name": "E4",
                    "midi": 64,
                    "time": 31,
                    "velocity": 0.7480314960629921,
                    "duration": 0.9989583333333343
                },
                {
                    "name": "E5",
                    "midi": 76,
                    "time": 32,
                    "velocity": 0.8267716535433071,
                    "duration": 0.4989583333333343
                },
                {
                    "name": "E5",
                    "midi": 76,
                    "time": 32.5,
                    "velocity": 0.6299212598425197,
                    "duration": 0.24895833333333428
                },
                {
                    "name": "F#5",
                    "midi": 78,
                    "time": 32.75,
                    "velocity": 0.6299212598425197,
                    "duration": 0.24895833333333428
                },
                {
                    "name": "G5",
                    "midi": 79,
                    "time": 33,
                    "velocity": 0.7480314960629921,
                    "duration": 0.24895833333333428
                },
                {
                    "name": "F#5",
                    "midi": 78,
                    "time": 33.25,
                    "velocity": 0.6299212598425197,
                    "duration": 0.24895833333333428
                },
                {
                    "name": "E5",
                    "midi": 76,
                    "time": 33.5,
                    "velocity": 0.6299212598425197,
                    "duration": 0.24895833333333428
                },
                {
                    "name": "F#5",
                    "midi": 78,
                    "time": 33.75,
                    "velocity": 0.6299212598425197,
                    "duration": 0.24895833333333428
                },
                {
                    "name": "G5",
                    "midi": 79,
                    "time": 34,
                    "velocity": 0.8267716535433071,
                    "duration": 0.24895833333333428
                },
                {
                    "name": "F#5",
                    "midi": 78,
                    "time": 34.25,
                    "velocity": 0.6299212598425197,
                    "duration": 0.24895833333333428
                },
                {
                    "name": "E5",
                    "midi": 76,
                    "time": 34.5,
                    "velocity": 0.6299212598425197,
                    "duration": 0.4989583333333343
                },
                {
                    "name": "E5",
                    "midi": 76,
                    "time": 35,
                    "velocity": 0.7480314960629921,
                    "duration": 0.9989583333333343
                },
                {
                    "name": "C#5",
                    "midi": 73,
                    "time": 36,
                    "velocity": 0.8267716535433071,
                    "duration": 0.4989583333333343
                },
                {
                    "name": "E5",
                    "midi": 76,
                    "time": 36.010416666666664,
                    "velocity": 0.8267716535433071,
                    "duration": 0.48854166666667
                },
                {
                    "name": "E5",
                    "midi": 76,
                    "time": 36.5,
                    "velocity": 0.6299212598425197,
                    "duration": 0.24895833333333428
                },
                {
                    "name": "F#5",
                    "midi": 78,
                    "time": 36.75,
                    "velocity": 0.6299212598425197,
                    "duration": 0.24895833333333428
                },
                {
                    "name": "G5",
                    "midi": 79,
                    "time": 37,
                    "velocity": 0.7480314960629921,
                    "duration": 0.24895833333333428
                },
                {
                    "name": "F#5",
                    "midi": 78,
                    "time": 37.25,
                    "velocity": 0.6299212598425197,
                    "duration": 0.24895833333333428
                },
                {
                    "name": "E5",
                    "midi": 76,
                    "time": 37.5,
                    "velocity": 0.6299212598425197,
                    "duration": 0.24895833333333428
                },
                {
                    "name": "F#5",
                    "midi": 78,
                    "time": 37.75,
                    "velocity": 0.6299212598425197,
                    "duration": 0.24895833333333428
                },
                {
                    "name": "G5",
                    "midi": 79,
                    "time": 38,
                    "velocity": 0.8267716535433071,
                    "duration": 0.24895833333333428
                },
                {
                    "name": "F#5",
                    "midi": 78,
                    "time": 38.25,
                    "velocity": 0.6299212598425197,
                    "duration": 0.24895833333333428
                },
                {
                    "name": "E5",
                    "midi": 76,
                    "time": 38.5,
                    "velocity": 0.6299212598425197,
                    "duration": 0.4989583333333343
                },
                {
                    "name": "E5",
                    "midi": 76,
                    "time": 39,
                    "velocity": 0.7480314960629921,
                    "duration": 0.9989583333333343
                },
                {
                    "name": "C5",
                    "midi": 72,
                    "time": 40,
                    "velocity": 0.8267716535433071,
                    "duration": 0.4989583333333343
                },
                {
                    "name": "E5",
                    "midi": 76,
                    "time": 40.010416666666664,
                    "velocity": 0.8267716535433071,
                    "duration": 0.48854166666667
                },
                {
                    "name": "E5",
                    "midi": 76,
                    "time": 40.5,
                    "velocity": 0.6299212598425197,
                    "duration": 0.24895833333333428
                },
                {
                    "name": "F#5",
                    "midi": 78,
                    "time": 40.75,
                    "velocity": 0.6299212598425197,
                    "duration": 0.24895833333333428
                },
                {
                    "name": "G5",
                    "midi": 79,
                    "time": 41,
                    "velocity": 0.7480314960629921,
                    "duration": 0.24895833333333428
                },
                {
                    "name": "F#5",
                    "midi": 78,
                    "time": 41.25,
                    "velocity": 0.6299212598425197,
                    "duration": 0.24895833333333428
                },
                {
                    "name": "E5",
                    "midi": 76,
                    "time": 41.5,
                    "velocity": 0.6299212598425197,
                    "duration": 0.24895833333333428
                },
                {
                    "name": "F#5",
                    "midi": 78,
                    "time": 41.75,
                    "velocity": 0.6299212598425197,
                    "duration": 0.24895833333333428
                },
                {
                    "name": "G5",
                    "midi": 79,
                    "time": 42,
                    "velocity": 0.8267716535433071,
                    "duration": 0.24895833333333428
                },
                {
                    "name": "F#5",
                    "midi": 78,
                    "time": 42.25,
                    "velocity": 0.6299212598425197,
                    "duration": 0.24895833333333428
                },
                {
                    "name": "E5",
                    "midi": 76,
                    "time": 42.5,
                    "velocity": 0.6299212598425197,
                    "duration": 0.4989583333333343
                },
                {
                    "name": "E5",
                    "midi": 76,
                    "time": 43,
                    "velocity": 0.7480314960629921,
                    "duration": 0.4989583333333343
                },
                {
                    "name": "D5",
                    "midi": 74,
                    "time": 43.5,
                    "velocity": 0.6299212598425197,
                    "duration": 0.24895833333333428
                },
                {
                    "name": "C5",
                    "midi": 72,
                    "time": 43.75,
                    "velocity": 0.6299212598425197,
                    "duration": 0.24895833333333428
                },
                {
                    "name": "B4",
                    "midi": 71,
                    "time": 44,
                    "velocity": 0.8267716535433071,
                    "duration": 0.24895833333333428
                },
                {
                    "name": "A4",
                    "midi": 69,
                    "time": 44.25,
                    "velocity": 0.6299212598425197,
                    "duration": 0.24895833333333428
                },
                {
                    "name": "B4",
                    "midi": 71,
                    "time": 44.5,
                    "velocity": 0.6299212598425197,
                    "duration": 0.24895833333333428
                },
                {
                    "name": "C5",
                    "midi": 72,
                    "time": 44.75,
                    "velocity": 0.6299212598425197,
                    "duration": 0.24895833333333428
                },
                {
                    "name": "B4",
                    "midi": 71,
                    "time": 45,
                    "velocity": 0.7480314960629921,
                    "duration": 0.24895833333333428
                },
                {
                    "name": "C5",
                    "midi": 72,
                    "time": 45.25,
                    "velocity": 0.6299212598425197,
                    "duration": 0.24895833333333428
                },
                {
                    "name": "B4",
                    "midi": 71,
                    "time": 45.5,
                    "velocity": 0.6299212598425197,
                    "duration": 0.24895833333333428
                },
                {
                    "name": "A4",
                    "midi": 69,
                    "time": 45.75,
                    "velocity": 0.6299212598425197,
                    "duration": 0.24895833333333428
                },
                {
                    "name": "G4",
                    "midi": 67,
                    "time": 46,
                    "velocity": 0.8267716535433071,
                    "duration": 0.24895833333333428
                },
                {
                    "name": "F#4",
                    "midi": 66,
                    "time": 46.25,
                    "velocity": 0.6299212598425197,
                    "duration": 0.24895833333333428
                },
                {
                    "name": "E4",
                    "midi": 64,
                    "time": 46.5,
                    "velocity": 0.6299212598425197,
                    "duration": 0.4989583333333343
                },
                {
                    "name": "E4",
                    "midi": 64,
                    "time": 47,
                    "velocity": 0.7480314960629921,
                    "duration": 0.9989583333333343
                },
                {
                    "name": "E5",
                    "midi": 76,
                    "time": 48,
                    "velocity": 0.8267716535433071,
                    "duration": 0.4989583333333343
                },
                {
                    "name": "E5",
                    "midi": 76,
                    "time": 48.5,
                    "velocity": 0.6299212598425197,
                    "duration": 0.24895833333333428
                },
                {
                    "name": "F#5",
                    "midi": 78,
                    "time": 48.75,
                    "velocity": 0.6299212598425197,
                    "duration": 0.24895833333333428
                },
                {
                    "name": "G5",
                    "midi": 79,
                    "time": 49,
                    "velocity": 0.7480314960629921,
                    "duration": 0.24895833333333428
                },
                {
                    "name": "F#5",
                    "midi": 78,
                    "time": 49.25,
                    "velocity": 0.6299212598425197,
                    "duration": 0.24895833333333428
                },
                {
                    "name": "E5",
                    "midi": 76,
                    "time": 49.5,
                    "velocity": 0.6299212598425197,
                    "duration": 0.24895833333333428
                },
                {
                    "name": "F#5",
                    "midi": 78,
                    "time": 49.75,
                    "velocity": 0.6299212598425197,
                    "duration": 0.24895833333333428
                },
                {
                    "name": "G5",
                    "midi": 79,
                    "time": 50,
                    "velocity": 0.8267716535433071,
                    "duration": 0.24895833333333428
                },
                {
                    "name": "F#5",
                    "midi": 78,
                    "time": 50.25,
                    "velocity": 0.6299212598425197,
                    "duration": 0.24895833333333428
                },
                {
                    "name": "E5",
                    "midi": 76,
                    "time": 50.5,
                    "velocity": 0.6299212598425197,
                    "duration": 0.4989583333333343
                },
                {
                    "name": "E5",
                    "midi": 76,
                    "time": 51,
                    "velocity": 0.7480314960629921,
                    "duration": 0.9989583333333343
                },
                {
                    "name": "C#5",
                    "midi": 73,
                    "time": 52,
                    "velocity": 0.8267716535433071,
                    "duration": 0.4989583333333343
                },
                {
                    "name": "E5",
                    "midi": 76,
                    "time": 52.010416666666664,
                    "velocity": 0.8267716535433071,
                    "duration": 0.48854166666667
                },
                {
                    "name": "E5",
                    "midi": 76,
                    "time": 52.5,
                    "velocity": 0.6299212598425197,
                    "duration": 0.24895833333333428
                },
                {
                    "name": "F#5",
                    "midi": 78,
                    "time": 52.75,
                    "velocity": 0.6299212598425197,
                    "duration": 0.24895833333333428
                },
                {
                    "name": "G5",
                    "midi": 79,
                    "time": 53,
                    "velocity": 0.7480314960629921,
                    "duration": 0.24895833333333428
                },
                {
                    "name": "F#5",
                    "midi": 78,
                    "time": 53.25,
                    "velocity": 0.6299212598425197,
                    "duration": 0.24895833333333428
                },
                {
                    "name": "E5",
                    "midi": 76,
                    "time": 53.5,
                    "velocity": 0.6299212598425197,
                    "duration": 0.24895833333333428
                },
                {
                    "name": "F#5",
                    "midi": 78,
                    "time": 53.75,
                    "velocity": 0.6299212598425197,
                    "duration": 0.24895833333333428
                },
                {
                    "name": "G5",
                    "midi": 79,
                    "time": 54,
                    "velocity": 0.8267716535433071,
                    "duration": 0.24895833333333428
                },
                {
                    "name": "F#5",
                    "midi": 78,
                    "time": 54.25,
                    "velocity": 0.6299212598425197,
                    "duration": 0.24895833333333428
                },
                {
                    "name": "E5",
                    "midi": 76,
                    "time": 54.5,
                    "velocity": 0.6299212598425197,
                    "duration": 0.4989583333333343
                },
                {
                    "name": "E5",
                    "midi": 76,
                    "time": 55,
                    "velocity": 0.7480314960629921,
                    "duration": 0.9989583333333343
                },
                {
                    "name": "C5",
                    "midi": 72,
                    "time": 56,
                    "velocity": 0.8267716535433071,
                    "duration": 0.4989583333333343
                },
                {
                    "name": "E5",
                    "midi": 76,
                    "time": 56.010416666666664,
                    "velocity": 0.8267716535433071,
                    "duration": 0.48854166666667
                },
                {
                    "name": "E5",
                    "midi": 76,
                    "time": 56.5,
                    "velocity": 0.6299212598425197,
                    "duration": 0.24895833333333428
                },
                {
                    "name": "F#5",
                    "midi": 78,
                    "time": 56.75,
                    "velocity": 0.6299212598425197,
                    "duration": 0.24895833333333428
                },
                {
                    "name": "G5",
                    "midi": 79,
                    "time": 57,
                    "velocity": 0.7480314960629921,
                    "duration": 0.24895833333333428
                },
                {
                    "name": "F#5",
                    "midi": 78,
                    "time": 57.25,
                    "velocity": 0.6299212598425197,
                    "duration": 0.24895833333333428
                },
                {
                    "name": "E5",
                    "midi": 76,
                    "time": 57.5,
                    "velocity": 0.6299212598425197,
                    "duration": 0.24895833333333428
                },
                {
                    "name": "F#5",
                    "midi": 78,
                    "time": 57.75,
                    "velocity": 0.6299212598425197,
                    "duration": 0.24895833333333428
                },
                {
                    "name": "G5",
                    "midi": 79,
                    "time": 58,
                    "velocity": 0.8267716535433071,
                    "duration": 0.24895833333333428
                },
                {
                    "name": "F#5",
                    "midi": 78,
                    "time": 58.25,
                    "velocity": 0.6299212598425197,
                    "duration": 0.24895833333333428
                },
                {
                    "name": "E5",
                    "midi": 76,
                    "time": 58.5,
                    "velocity": 0.6299212598425197,
                    "duration": 0.4989583333333343
                },
                {
                    "name": "E5",
                    "midi": 76,
                    "time": 59,
                    "velocity": 0.7480314960629921,
                    "duration": 0.4989583333333343
                },
                {
                    "name": "D5",
                    "midi": 74,
                    "time": 59.5,
                    "velocity": 0.6299212598425197,
                    "duration": 0.24895833333333428
                },
                {
                    "name": "C5",
                    "midi": 72,
                    "time": 59.75,
                    "velocity": 0.6299212598425197,
                    "duration": 0.24895833333333428
                },
                {
                    "name": "B4",
                    "midi": 71,
                    "time": 60,
                    "velocity": 0.8267716535433071,
                    "duration": 0.24895833333333428
                },
                {
                    "name": "A4",
                    "midi": 69,
                    "time": 60.25,
                    "velocity": 0.6299212598425197,
                    "duration": 0.24895833333333428
                },
                {
                    "name": "B4",
                    "midi": 71,
                    "time": 60.5,
                    "velocity": 0.6299212598425197,
                    "duration": 0.24895833333333428
                },
                {
                    "name": "C5",
                    "midi": 72,
                    "time": 60.75,
                    "velocity": 0.6299212598425197,
                    "duration": 0.24895833333333428
                },
                {
                    "name": "B4",
                    "midi": 71,
                    "time": 61,
                    "velocity": 0.7480314960629921,
                    "duration": 0.24895833333333428
                },
                {
                    "name": "C5",
                    "midi": 72,
                    "time": 61.25,
                    "velocity": 0.6299212598425197,
                    "duration": 0.24895833333333428
                },
                {
                    "name": "B4",
                    "midi": 71,
                    "time": 61.5,
                    "velocity": 0.6299212598425197,
                    "duration": 0.24895833333333428
                },
                {
                    "name": "A4",
                    "midi": 69,
                    "time": 61.75,
                    "velocity": 0.6299212598425197,
                    "duration": 0.24895833333333428
                },
                {
                    "name": "G4",
                    "midi": 67,
                    "time": 62,
                    "velocity": 0.8267716535433071,
                    "duration": 0.24895833333333428
                },
                {
                    "name": "F#4",
                    "midi": 66,
                    "time": 62.25,
                    "velocity": 0.6299212598425197,
                    "duration": 0.24895833333333428
                },
                {
                    "name": "E4",
                    "midi": 64,
                    "time": 62.5,
                    "velocity": 0.6299212598425197,
                    "duration": 0.4989583333333343
                },
                {
                    "name": "E4",
                    "midi": 64,
                    "time": 63,
                    "velocity": 0.7480314960629921,
                    "duration": 0.9989583333333343
                }
            ]
        },
        {
            "startTime": 0,
            "duration": 63.748958333333334,
            "length": 264,
            "id": 2,
            "channelNumber": 1,
            "isPercussion": false,
            "notes": [
                {
                    "name": "E2",
                    "midi": 40,
                    "time": 0,
                    "velocity": 0.6299212598425197,
                    "duration": 0.24895833333333334
                },
                {
                    "name": "E3",
                    "midi": 52,
                    "time": 0.5,
                    "velocity": 0.5905511811023622,
                    "duration": 0.2489583333333334
                },
                {
                    "name": "G3",
                    "midi": 55,
                    "time": 0.5,
                    "velocity": 0.5905511811023622,
                    "duration": 0.2489583333333334
                },
                {
                    "name": "B3",
                    "midi": 59,
                    "time": 0.5,
                    "velocity": 0.5905511811023622,
                    "duration": 0.2489583333333334
                },
                {
                    "name": "E2",
                    "midi": 40,
                    "time": 1,
                    "velocity": 0.6299212598425197,
                    "duration": 0.2489583333333334
                },
                {
                    "name": "E3",
                    "midi": 52,
                    "time": 1.5,
                    "velocity": 0.5905511811023622,
                    "duration": 0.2489583333333334
                },
                {
                    "name": "G3",
                    "midi": 55,
                    "time": 1.5,
                    "velocity": 0.5905511811023622,
                    "duration": 0.2489583333333334
                },
                {
                    "name": "B3",
                    "midi": 59,
                    "time": 1.5,
                    "velocity": 0.5905511811023622,
                    "duration": 0.2489583333333334
                },
                {
                    "name": "E2",
                    "midi": 40,
                    "time": 2,
                    "velocity": 0.6299212598425197,
                    "duration": 0.2489583333333334
                },
                {
                    "name": "E3",
                    "midi": 52,
                    "time": 2.5,
                    "velocity": 0.5905511811023622,
                    "duration": 0.2489583333333334
                },
                {
                    "name": "G3",
                    "midi": 55,
                    "time": 2.5,
                    "velocity": 0.5905511811023622,
                    "duration": 0.2489583333333334
                },
                {
                    "name": "B3",
                    "midi": 59,
                    "time": 2.5,
                    "velocity": 0.5905511811023622,
                    "duration": 0.2489583333333334
                },
                {
                    "name": "E2",
                    "midi": 40,
                    "time": 3,
                    "velocity": 0.6299212598425197,
                    "duration": 0.2489583333333334
                },
                {
                    "name": "E3",
                    "midi": 52,
                    "time": 3.5,
                    "velocity": 0.5905511811023622,
                    "duration": 0.2489583333333334
                },
                {
                    "name": "G3",
                    "midi": 55,
                    "time": 3.5,
                    "velocity": 0.5905511811023622,
                    "duration": 0.2489583333333334
                },
                {
                    "name": "B3",
                    "midi": 59,
                    "time": 3.5,
                    "velocity": 0.5905511811023622,
                    "duration": 0.2489583333333334
                },
                {
                    "name": "A2",
                    "midi": 45,
                    "time": 4,
                    "velocity": 0.6299212598425197,
                    "duration": 0.2489583333333334
                },
                {
                    "name": "A3",
                    "midi": 57,
                    "time": 4.5,
                    "velocity": 0.5905511811023622,
                    "duration": 0.2489583333333334
                },
                {
                    "name": "C#4",
                    "midi": 61,
                    "time": 4.5,
                    "velocity": 0.5905511811023622,
                    "duration": 0.2489583333333334
                },
                {
                    "name": "E4",
                    "midi": 64,
                    "time": 4.5,
                    "velocity": 0.5905511811023622,
                    "duration": 0.2489583333333334
                },
                {
                    "name": "A2",
                    "midi": 45,
                    "time": 5,
                    "velocity": 0.6299212598425197,
                    "duration": 0.2489583333333334
                },
                {
                    "name": "A3",
                    "midi": 57,
                    "time": 5.5,
                    "velocity": 0.5905511811023622,
                    "duration": 0.2489583333333334
                },
                {
                    "name": "C#4",
                    "midi": 61,
                    "time": 5.5,
                    "velocity": 0.5905511811023622,
                    "duration": 0.2489583333333334
                },
                {
                    "name": "E4",
                    "midi": 64,
                    "time": 5.5,
                    "velocity": 0.5905511811023622,
                    "duration": 0.2489583333333334
                },
                {
                    "name": "A2",
                    "midi": 45,
                    "time": 6,
                    "velocity": 0.6299212598425197,
                    "duration": 0.2489583333333334
                },
                {
                    "name": "A3",
                    "midi": 57,
                    "time": 6.5,
                    "velocity": 0.5905511811023622,
                    "duration": 0.2489583333333334
                },
                {
                    "name": "C#4",
                    "midi": 61,
                    "time": 6.5,
                    "velocity": 0.5905511811023622,
                    "duration": 0.2489583333333334
                },
                {
                    "name": "E4",
                    "midi": 64,
                    "time": 6.5,
                    "velocity": 0.5905511811023622,
                    "duration": 0.2489583333333334
                },
                {
                    "name": "A2",
                    "midi": 45,
                    "time": 7,
                    "velocity": 0.6299212598425197,
                    "duration": 0.2489583333333334
                },
                {
                    "name": "A3",
                    "midi": 57,
                    "time": 7.5,
                    "velocity": 0.5905511811023622,
                    "duration": 0.2489583333333334
                },
                {
                    "name": "C#4",
                    "midi": 61,
                    "time": 7.5,
                    "velocity": 0.5905511811023622,
                    "duration": 0.2489583333333334
                },
                {
                    "name": "E4",
                    "midi": 64,
                    "time": 7.5,
                    "velocity": 0.5905511811023622,
                    "duration": 0.2489583333333334
                },
                {
                    "name": "E2",
                    "midi": 40,
                    "time": 8,
                    "velocity": 0.6299212598425197,
                    "duration": 0.2489583333333325
                },
                {
                    "name": "E3",
                    "midi": 52,
                    "time": 8.5,
                    "velocity": 0.5905511811023622,
                    "duration": 0.2489583333333325
                },
                {
                    "name": "G3",
                    "midi": 55,
                    "time": 8.5,
                    "velocity": 0.5905511811023622,
                    "duration": 0.2489583333333325
                },
                {
                    "name": "B3",
                    "midi": 59,
                    "time": 8.5,
                    "velocity": 0.5905511811023622,
                    "duration": 0.2489583333333325
                },
                {
                    "name": "E2",
                    "midi": 40,
                    "time": 9,
                    "velocity": 0.6299212598425197,
                    "duration": 0.2489583333333325
                },
                {
                    "name": "E3",
                    "midi": 52,
                    "time": 9.5,
                    "velocity": 0.5905511811023622,
                    "duration": 0.2489583333333325
                },
                {
                    "name": "G3",
                    "midi": 55,
                    "time": 9.5,
                    "velocity": 0.5905511811023622,
                    "duration": 0.2489583333333325
                },
                {
                    "name": "B3",
                    "midi": 59,
                    "time": 9.5,
                    "velocity": 0.5905511811023622,
                    "duration": 0.2489583333333325
                },
                {
                    "name": "E2",
                    "midi": 40,
                    "time": 10,
                    "velocity": 0.6299212598425197,
                    "duration": 0.2489583333333325
                },
                {
                    "name": "E3",
                    "midi": 52,
                    "time": 10.5,
                    "velocity": 0.5905511811023622,
                    "duration": 0.2489583333333325
                },
                {
                    "name": "G3",
                    "midi": 55,
                    "time": 10.5,
                    "velocity": 0.5905511811023622,
                    "duration": 0.2489583333333325
                },
                {
                    "name": "B3",
                    "midi": 59,
                    "time": 10.5,
                    "velocity": 0.5905511811023622,
                    "duration": 0.2489583333333325
                },
                {
                    "name": "E2",
                    "midi": 40,
                    "time": 11,
                    "velocity": 0.6299212598425197,
                    "duration": 0.2489583333333325
                },
                {
                    "name": "E3",
                    "midi": 52,
                    "time": 11.5,
                    "velocity": 0.5905511811023622,
                    "duration": 0.2489583333333325
                },
                {
                    "name": "G3",
                    "midi": 55,
                    "time": 11.5,
                    "velocity": 0.5905511811023622,
                    "duration": 0.2489583333333325
                },
                {
                    "name": "B3",
                    "midi": 59,
                    "time": 11.5,
                    "velocity": 0.5905511811023622,
                    "duration": 0.2489583333333325
                },
                {
                    "name": "B2",
                    "midi": 47,
                    "time": 12,
                    "velocity": 0.6299212598425197,
                    "duration": 0.2489583333333325
                },
                {
                    "name": "B3",
                    "midi": 59,
                    "time": 12.5,
                    "velocity": 0.5905511811023622,
                    "duration": 0.2489583333333325
                },
                {
                    "name": "D#4",
                    "midi": 63,
                    "time": 12.5,
                    "velocity": 0.5905511811023622,
                    "duration": 0.2489583333333325
                },
                {
                    "name": "F#4",
                    "midi": 66,
                    "time": 12.5,
                    "velocity": 0.5905511811023622,
                    "duration": 0.2489583333333325
                },
                {
                    "name": "A4",
                    "midi": 69,
                    "time": 12.5,
                    "velocity": 0.5905511811023622,
                    "duration": 0.2489583333333325
                },
                {
                    "name": "B2",
                    "midi": 47,
                    "time": 13,
                    "velocity": 0.6299212598425197,
                    "duration": 0.2489583333333325
                },
                {
                    "name": "B3",
                    "midi": 59,
                    "time": 13.5,
                    "velocity": 0.5905511811023622,
                    "duration": 0.2489583333333325
                },
                {
                    "name": "D#4",
                    "midi": 63,
                    "time": 13.5,
                    "velocity": 0.5905511811023622,
                    "duration": 0.2489583333333325
                },
                {
                    "name": "F#4",
                    "midi": 66,
                    "time": 13.5,
                    "velocity": 0.5905511811023622,
                    "duration": 0.2489583333333325
                },
                {
                    "name": "A4",
                    "midi": 69,
                    "time": 13.5,
                    "velocity": 0.5905511811023622,
                    "duration": 0.2489583333333325
                },
                {
                    "name": "E2",
                    "midi": 40,
                    "time": 14,
                    "velocity": 0.6299212598425197,
                    "duration": 0.2489583333333325
                },
                {
                    "name": "E3",
                    "midi": 52,
                    "time": 14.5,
                    "velocity": 0.5905511811023622,
                    "duration": 0.2489583333333325
                },
                {
                    "name": "G3",
                    "midi": 55,
                    "time": 14.5,
                    "velocity": 0.5905511811023622,
                    "duration": 0.2489583333333325
                },
                {
                    "name": "B3",
                    "midi": 59,
                    "time": 14.5,
                    "velocity": 0.5905511811023622,
                    "duration": 0.2489583333333325
                },
                {
                    "name": "E2",
                    "midi": 40,
                    "time": 15,
                    "velocity": 0.6299212598425197,
                    "duration": 0.2489583333333325
                },
                {
                    "name": "E3",
                    "midi": 52,
                    "time": 15.5,
                    "velocity": 0.5905511811023622,
                    "duration": 0.2489583333333325
                },
                {
                    "name": "G3",
                    "midi": 55,
                    "time": 15.5,
                    "velocity": 0.5905511811023622,
                    "duration": 0.2489583333333325
                },
                {
                    "name": "B3",
                    "midi": 59,
                    "time": 15.5,
                    "velocity": 0.5905511811023622,
                    "duration": 0.2489583333333325
                },
                {
                    "name": "E2",
                    "midi": 40,
                    "time": 16,
                    "velocity": 0.6299212598425197,
                    "duration": 0.24895833333333428
                },
                {
                    "name": "E3",
                    "midi": 52,
                    "time": 16.5,
                    "velocity": 0.5905511811023622,
                    "duration": 0.24895833333333428
                },
                {
                    "name": "G3",
                    "midi": 55,
                    "time": 16.5,
                    "velocity": 0.5905511811023622,
                    "duration": 0.24895833333333428
                },
                {
                    "name": "B3",
                    "midi": 59,
                    "time": 16.5,
                    "velocity": 0.5905511811023622,
                    "duration": 0.24895833333333428
                },
                {
                    "name": "E2",
                    "midi": 40,
                    "time": 17,
                    "velocity": 0.6299212598425197,
                    "duration": 0.24895833333333428
                },
                {
                    "name": "E3",
                    "midi": 52,
                    "time": 17.5,
                    "velocity": 0.5905511811023622,
                    "duration": 0.24895833333333428
                },
                {
                    "name": "G3",
                    "midi": 55,
                    "time": 17.5,
                    "velocity": 0.5905511811023622,
                    "duration": 0.24895833333333428
                },
                {
                    "name": "B3",
                    "midi": 59,
                    "time": 17.5,
                    "velocity": 0.5905511811023622,
                    "duration": 0.24895833333333428
                },
                {
                    "name": "E2",
                    "midi": 40,
                    "time": 18,
                    "velocity": 0.6299212598425197,
                    "duration": 0.24895833333333428
                },
                {
                    "name": "E3",
                    "midi": 52,
                    "time": 18.5,
                    "velocity": 0.5905511811023622,
                    "duration": 0.24895833333333428
                },
                {
                    "name": "G3",
                    "midi": 55,
                    "time": 18.5,
                    "velocity": 0.5905511811023622,
                    "duration": 0.24895833333333428
                },
                {
                    "name": "B3",
                    "midi": 59,
                    "time": 18.5,
                    "velocity": 0.5905511811023622,
                    "duration": 0.24895833333333428
                },
                {
                    "name": "E2",
                    "midi": 40,
                    "time": 19,
                    "velocity": 0.6299212598425197,
                    "duration": 0.24895833333333428
                },
                {
                    "name": "E3",
                    "midi": 52,
                    "time": 19.5,
                    "velocity": 0.5905511811023622,
                    "duration": 0.24895833333333428
                },
                {
                    "name": "G3",
                    "midi": 55,
                    "time": 19.5,
                    "velocity": 0.5905511811023622,
                    "duration": 0.24895833333333428
                },
                {
                    "name": "B3",
                    "midi": 59,
                    "time": 19.5,
                    "velocity": 0.5905511811023622,
                    "duration": 0.24895833333333428
                },
                {
                    "name": "A2",
                    "midi": 45,
                    "time": 20,
                    "velocity": 0.6299212598425197,
                    "duration": 0.24895833333333428
                },
                {
                    "name": "A3",
                    "midi": 57,
                    "time": 20.5,
                    "velocity": 0.5905511811023622,
                    "duration": 0.24895833333333428
                },
                {
                    "name": "C#4",
                    "midi": 61,
                    "time": 20.5,
                    "velocity": 0.5905511811023622,
                    "duration": 0.24895833333333428
                },
                {
                    "name": "E4",
                    "midi": 64,
                    "time": 20.5,
                    "velocity": 0.5905511811023622,
                    "duration": 0.24895833333333428
                },
                {
                    "name": "A2",
                    "midi": 45,
                    "time": 21,
                    "velocity": 0.6299212598425197,
                    "duration": 0.24895833333333428
                },
                {
                    "name": "A3",
                    "midi": 57,
                    "time": 21.5,
                    "velocity": 0.5905511811023622,
                    "duration": 0.24895833333333428
                },
                {
                    "name": "C#4",
                    "midi": 61,
                    "time": 21.5,
                    "velocity": 0.5905511811023622,
                    "duration": 0.24895833333333428
                },
                {
                    "name": "E4",
                    "midi": 64,
                    "time": 21.5,
                    "velocity": 0.5905511811023622,
                    "duration": 0.24895833333333428
                },
                {
                    "name": "A2",
                    "midi": 45,
                    "time": 22,
                    "velocity": 0.6299212598425197,
                    "duration": 0.24895833333333428
                },
                {
                    "name": "A3",
                    "midi": 57,
                    "time": 22.5,
                    "velocity": 0.5905511811023622,
                    "duration": 0.24895833333333428
                },
                {
                    "name": "C#4",
                    "midi": 61,
                    "time": 22.5,
                    "velocity": 0.5905511811023622,
                    "duration": 0.24895833333333428
                },
                {
                    "name": "E4",
                    "midi": 64,
                    "time": 22.5,
                    "velocity": 0.5905511811023622,
                    "duration": 0.24895833333333428
                },
                {
                    "name": "A2",
                    "midi": 45,
                    "time": 23,
                    "velocity": 0.6299212598425197,
                    "duration": 0.24895833333333428
                },
                {
                    "name": "A3",
                    "midi": 57,
                    "time": 23.5,
                    "velocity": 0.5905511811023622,
                    "duration": 0.24895833333333428
                },
                {
                    "name": "C#4",
                    "midi": 61,
                    "time": 23.5,
                    "velocity": 0.5905511811023622,
                    "duration": 0.24895833333333428
                },
                {
                    "name": "E4",
                    "midi": 64,
                    "time": 23.5,
                    "velocity": 0.5905511811023622,
                    "duration": 0.24895833333333428
                },
                {
                    "name": "E2",
                    "midi": 40,
                    "time": 24,
                    "velocity": 0.6299212598425197,
                    "duration": 0.24895833333333428
                },
                {
                    "name": "E3",
                    "midi": 52,
                    "time": 24.5,
                    "velocity": 0.5905511811023622,
                    "duration": 0.24895833333333428
                },
                {
                    "name": "G3",
                    "midi": 55,
                    "time": 24.5,
                    "velocity": 0.5905511811023622,
                    "duration": 0.24895833333333428
                },
                {
                    "name": "B3",
                    "midi": 59,
                    "time": 24.5,
                    "velocity": 0.5905511811023622,
                    "duration": 0.24895833333333428
                },
                {
                    "name": "E2",
                    "midi": 40,
                    "time": 25,
                    "velocity": 0.6299212598425197,
                    "duration": 0.24895833333333428
                },
                {
                    "name": "E3",
                    "midi": 52,
                    "time": 25.5,
                    "velocity": 0.5905511811023622,
                    "duration": 0.24895833333333428
                },
                {
                    "name": "G3",
                    "midi": 55,
                    "time": 25.5,
                    "velocity": 0.5905511811023622,
                    "duration": 0.24895833333333428
                },
                {
                    "name": "B3",
                    "midi": 59,
                    "time": 25.5,
                    "velocity": 0.5905511811023622,
                    "duration": 0.24895833333333428
                },
                {
                    "name": "E2",
                    "midi": 40,
                    "time": 26,
                    "velocity": 0.6299212598425197,
                    "duration": 0.24895833333333428
                },
                {
                    "name": "E3",
                    "midi": 52,
                    "time": 26.5,
                    "velocity": 0.5905511811023622,
                    "duration": 0.24895833333333428
                },
                {
                    "name": "G3",
                    "midi": 55,
                    "time": 26.5,
                    "velocity": 0.5905511811023622,
                    "duration": 0.24895833333333428
                },
                {
                    "name": "B3",
                    "midi": 59,
                    "time": 26.5,
                    "velocity": 0.5905511811023622,
                    "duration": 0.24895833333333428
                },
                {
                    "name": "E2",
                    "midi": 40,
                    "time": 27,
                    "velocity": 0.6299212598425197,
                    "duration": 0.24895833333333428
                },
                {
                    "name": "E3",
                    "midi": 52,
                    "time": 27.5,
                    "velocity": 0.5905511811023622,
                    "duration": 0.24895833333333428
                },
                {
                    "name": "G3",
                    "midi": 55,
                    "time": 27.5,
                    "velocity": 0.5905511811023622,
                    "duration": 0.24895833333333428
                },
                {
                    "name": "B3",
                    "midi": 59,
                    "time": 27.5,
                    "velocity": 0.5905511811023622,
                    "duration": 0.24895833333333428
                },
                {
                    "name": "B2",
                    "midi": 47,
                    "time": 28,
                    "velocity": 0.6299212598425197,
                    "duration": 0.24895833333333428
                },
                {
                    "name": "B3",
                    "midi": 59,
                    "time": 28.5,
                    "velocity": 0.5905511811023622,
                    "duration": 0.24895833333333428
                },
                {
                    "name": "D#4",
                    "midi": 63,
                    "time": 28.5,
                    "velocity": 0.5905511811023622,
                    "duration": 0.24895833333333428
                },
                {
                    "name": "F#4",
                    "midi": 66,
                    "time": 28.5,
                    "velocity": 0.5905511811023622,
                    "duration": 0.24895833333333428
                },
                {
                    "name": "A4",
                    "midi": 69,
                    "time": 28.5,
                    "velocity": 0.5905511811023622,
                    "duration": 0.24895833333333428
                },
                {
                    "name": "B2",
                    "midi": 47,
                    "time": 29,
                    "velocity": 0.6299212598425197,
                    "duration": 0.24895833333333428
                },
                {
                    "name": "B3",
                    "midi": 59,
                    "time": 29.5,
                    "velocity": 0.5905511811023622,
                    "duration": 0.24895833333333428
                },
                {
                    "name": "D#4",
                    "midi": 63,
                    "time": 29.5,
                    "velocity": 0.5905511811023622,
                    "duration": 0.24895833333333428
                },
                {
                    "name": "F#4",
                    "midi": 66,
                    "time": 29.5,
                    "velocity": 0.5905511811023622,
                    "duration": 0.24895833333333428
                },
                {
                    "name": "A4",
                    "midi": 69,
                    "time": 29.5,
                    "velocity": 0.5905511811023622,
                    "duration": 0.24895833333333428
                },
                {
                    "name": "E2",
                    "midi": 40,
                    "time": 30,
                    "velocity": 0.6299212598425197,
                    "duration": 0.24895833333333428
                },
                {
                    "name": "E3",
                    "midi": 52,
                    "time": 30.5,
                    "velocity": 0.5905511811023622,
                    "duration": 0.24895833333333428
                },
                {
                    "name": "G3",
                    "midi": 55,
                    "time": 30.5,
                    "velocity": 0.5905511811023622,
                    "duration": 0.24895833333333428
                },
                {
                    "name": "B3",
                    "midi": 59,
                    "time": 30.5,
                    "velocity": 0.5905511811023622,
                    "duration": 0.24895833333333428
                },
                {
                    "name": "E2",
                    "midi": 40,
                    "time": 31,
                    "velocity": 0.6299212598425197,
                    "duration": 0.24895833333333428
                },
                {
                    "name": "E3",
                    "midi": 52,
                    "time": 31.5,
                    "velocity": 0.5905511811023622,
                    "duration": 0.24895833333333428
                },
                {
                    "name": "G3",
                    "midi": 55,
                    "time": 31.5,
                    "velocity": 0.5905511811023622,
                    "duration": 0.24895833333333428
                },
                {
                    "name": "B3",
                    "midi": 59,
                    "time": 31.5,
                    "velocity": 0.5905511811023622,
                    "duration": 0.24895833333333428
                },
                {
                    "name": "E2",
                    "midi": 40,
                    "time": 32,
                    "velocity": 0.6299212598425197,
                    "duration": 0.24895833333333428
                },
                {
                    "name": "E3",
                    "midi": 52,
                    "time": 32.5,
                    "velocity": 0.5905511811023622,
                    "duration": 0.24895833333333428
                },
                {
                    "name": "G3",
                    "midi": 55,
                    "time": 32.5,
                    "velocity": 0.5905511811023622,
                    "duration": 0.24895833333333428
                },
                {
                    "name": "B3",
                    "midi": 59,
                    "time": 32.5,
                    "velocity": 0.5905511811023622,
                    "duration": 0.24895833333333428
                },
                {
                    "name": "E2",
                    "midi": 40,
                    "time": 33,
                    "velocity": 0.6299212598425197,
                    "duration": 0.24895833333333428
                },
                {
                    "name": "E3",
                    "midi": 52,
                    "time": 33.5,
                    "velocity": 0.5905511811023622,
                    "duration": 0.24895833333333428
                },
                {
                    "name": "G3",
                    "midi": 55,
                    "time": 33.5,
                    "velocity": 0.5905511811023622,
                    "duration": 0.24895833333333428
                },
                {
                    "name": "B3",
                    "midi": 59,
                    "time": 33.5,
                    "velocity": 0.5905511811023622,
                    "duration": 0.24895833333333428
                },
                {
                    "name": "E2",
                    "midi": 40,
                    "time": 34,
                    "velocity": 0.6299212598425197,
                    "duration": 0.24895833333333428
                },
                {
                    "name": "E3",
                    "midi": 52,
                    "time": 34.5,
                    "velocity": 0.5905511811023622,
                    "duration": 0.24895833333333428
                },
                {
                    "name": "G3",
                    "midi": 55,
                    "time": 34.5,
                    "velocity": 0.5905511811023622,
                    "duration": 0.24895833333333428
                },
                {
                    "name": "B3",
                    "midi": 59,
                    "time": 34.5,
                    "velocity": 0.5905511811023622,
                    "duration": 0.24895833333333428
                },
                {
                    "name": "E2",
                    "midi": 40,
                    "time": 35,
                    "velocity": 0.6299212598425197,
                    "duration": 0.24895833333333428
                },
                {
                    "name": "E3",
                    "midi": 52,
                    "time": 35.5,
                    "velocity": 0.5905511811023622,
                    "duration": 0.24895833333333428
                },
                {
                    "name": "G3",
                    "midi": 55,
                    "time": 35.5,
                    "velocity": 0.5905511811023622,
                    "duration": 0.24895833333333428
                },
                {
                    "name": "B3",
                    "midi": 59,
                    "time": 35.5,
                    "velocity": 0.5905511811023622,
                    "duration": 0.24895833333333428
                },
                {
                    "name": "A2",
                    "midi": 45,
                    "time": 36,
                    "velocity": 0.6299212598425197,
                    "duration": 0.24895833333333428
                },
                {
                    "name": "A3",
                    "midi": 57,
                    "time": 36.5,
                    "velocity": 0.5905511811023622,
                    "duration": 0.24895833333333428
                },
                {
                    "name": "C#4",
                    "midi": 61,
                    "time": 36.5,
                    "velocity": 0.5905511811023622,
                    "duration": 0.24895833333333428
                },
                {
                    "name": "E4",
                    "midi": 64,
                    "time": 36.5,
                    "velocity": 0.5905511811023622,
                    "duration": 0.24895833333333428
                },
                {
                    "name": "A2",
                    "midi": 45,
                    "time": 37,
                    "velocity": 0.6299212598425197,
                    "duration": 0.24895833333333428
                },
                {
                    "name": "A3",
                    "midi": 57,
                    "time": 37.5,
                    "velocity": 0.5905511811023622,
                    "duration": 0.24895833333333428
                },
                {
                    "name": "C#4",
                    "midi": 61,
                    "time": 37.5,
                    "velocity": 0.5905511811023622,
                    "duration": 0.24895833333333428
                },
                {
                    "name": "E4",
                    "midi": 64,
                    "time": 37.5,
                    "velocity": 0.5905511811023622,
                    "duration": 0.24895833333333428
                },
                {
                    "name": "A2",
                    "midi": 45,
                    "time": 38,
                    "velocity": 0.6299212598425197,
                    "duration": 0.24895833333333428
                },
                {
                    "name": "A3",
                    "midi": 57,
                    "time": 38.5,
                    "velocity": 0.5905511811023622,
                    "duration": 0.24895833333333428
                },
                {
                    "name": "C#4",
                    "midi": 61,
                    "time": 38.5,
                    "velocity": 0.5905511811023622,
                    "duration": 0.24895833333333428
                },
                {
                    "name": "E4",
                    "midi": 64,
                    "time": 38.5,
                    "velocity": 0.5905511811023622,
                    "duration": 0.24895833333333428
                },
                {
                    "name": "A2",
                    "midi": 45,
                    "time": 39,
                    "velocity": 0.6299212598425197,
                    "duration": 0.24895833333333428
                },
                {
                    "name": "A3",
                    "midi": 57,
                    "time": 39.5,
                    "velocity": 0.5905511811023622,
                    "duration": 0.24895833333333428
                },
                {
                    "name": "C#4",
                    "midi": 61,
                    "time": 39.5,
                    "velocity": 0.5905511811023622,
                    "duration": 0.24895833333333428
                },
                {
                    "name": "E4",
                    "midi": 64,
                    "time": 39.5,
                    "velocity": 0.5905511811023622,
                    "duration": 0.24895833333333428
                },
                {
                    "name": "C2",
                    "midi": 36,
                    "time": 40,
                    "velocity": 0.6299212598425197,
                    "duration": 0.24895833333333428
                },
                {
                    "name": "C3",
                    "midi": 48,
                    "time": 40.5,
                    "velocity": 0.5905511811023622,
                    "duration": 0.24895833333333428
                },
                {
                    "name": "E3",
                    "midi": 52,
                    "time": 40.5,
                    "velocity": 0.5905511811023622,
                    "duration": 0.24895833333333428
                },
                {
                    "name": "G3",
                    "midi": 55,
                    "time": 40.5,
                    "velocity": 0.5905511811023622,
                    "duration": 0.24895833333333428
                },
                {
                    "name": "C2",
                    "midi": 36,
                    "time": 41,
                    "velocity": 0.6299212598425197,
                    "duration": 0.24895833333333428
                },
                {
                    "name": "C3",
                    "midi": 48,
                    "time": 41.5,
                    "velocity": 0.5905511811023622,
                    "duration": 0.24895833333333428
                },
                {
                    "name": "E3",
                    "midi": 52,
                    "time": 41.5,
                    "velocity": 0.5905511811023622,
                    "duration": 0.24895833333333428
                },
                {
                    "name": "G3",
                    "midi": 55,
                    "time": 41.5,
                    "velocity": 0.5905511811023622,
                    "duration": 0.24895833333333428
                },
                {
                    "name": "C2",
                    "midi": 36,
                    "time": 42,
                    "velocity": 0.6299212598425197,
                    "duration": 0.24895833333333428
                },
                {
                    "name": "C3",
                    "midi": 48,
                    "time": 42.5,
                    "velocity": 0.5905511811023622,
                    "duration": 0.24895833333333428
                },
                {
                    "name": "E3",
                    "midi": 52,
                    "time": 42.5,
                    "velocity": 0.5905511811023622,
                    "duration": 0.24895833333333428
                },
                {
                    "name": "G3",
                    "midi": 55,
                    "time": 42.5,
                    "velocity": 0.5905511811023622,
                    "duration": 0.24895833333333428
                },
                {
                    "name": "C2",
                    "midi": 36,
                    "time": 43,
                    "velocity": 0.6299212598425197,
                    "duration": 0.24895833333333428
                },
                {
                    "name": "C3",
                    "midi": 48,
                    "time": 43.5,
                    "velocity": 0.5905511811023622,
                    "duration": 0.24895833333333428
                },
                {
                    "name": "E3",
                    "midi": 52,
                    "time": 43.5,
                    "velocity": 0.5905511811023622,
                    "duration": 0.24895833333333428
                },
                {
                    "name": "G3",
                    "midi": 55,
                    "time": 43.5,
                    "velocity": 0.5905511811023622,
                    "duration": 0.24895833333333428
                },
                {
                    "name": "B2",
                    "midi": 47,
                    "time": 44,
                    "velocity": 0.6299212598425197,
                    "duration": 0.24895833333333428
                },
                {
                    "name": "B3",
                    "midi": 59,
                    "time": 44.5,
                    "velocity": 0.5905511811023622,
                    "duration": 0.24895833333333428
                },
                {
                    "name": "D#4",
                    "midi": 63,
                    "time": 44.5,
                    "velocity": 0.5905511811023622,
                    "duration": 0.24895833333333428
                },
                {
                    "name": "F#4",
                    "midi": 66,
                    "time": 44.5,
                    "velocity": 0.5905511811023622,
                    "duration": 0.24895833333333428
                },
                {
                    "name": "A4",
                    "midi": 69,
                    "time": 44.5,
                    "velocity": 0.5905511811023622,
                    "duration": 0.24895833333333428
                },
                {
                    "name": "B2",
                    "midi": 47,
                    "time": 45,
                    "velocity": 0.6299212598425197,
                    "duration": 0.24895833333333428
                },
                {
                    "name": "B3",
                    "midi": 59,
                    "time": 45.5,
                    "velocity": 0.5905511811023622,
                    "duration": 0.24895833333333428
                },
                {
                    "name": "D#4",
                    "midi": 63,
                    "time": 45.5,
                    "velocity": 0.5905511811023622,
                    "duration": 0.24895833333333428
                },
                {
                    "name": "F#4",
                    "midi": 66,
                    "time": 45.5,
                    "velocity": 0.5905511811023622,
                    "duration": 0.24895833333333428
                },
                {
                    "name": "A4",
                    "midi": 69,
                    "time": 45.5,
                    "velocity": 0.5905511811023622,
                    "duration": 0.24895833333333428
                },
                {
                    "name": "E2",
                    "midi": 40,
                    "time": 46,
                    "velocity": 0.6299212598425197,
                    "duration": 0.24895833333333428
                },
                {
                    "name": "E3",
                    "midi": 52,
                    "time": 46.5,
                    "velocity": 0.5905511811023622,
                    "duration": 0.24895833333333428
                },
                {
                    "name": "G3",
                    "midi": 55,
                    "time": 46.5,
                    "velocity": 0.5905511811023622,
                    "duration": 0.24895833333333428
                },
                {
                    "name": "B3",
                    "midi": 59,
                    "time": 46.5,
                    "velocity": 0.5905511811023622,
                    "duration": 0.24895833333333428
                },
                {
                    "name": "E2",
                    "midi": 40,
                    "time": 47,
                    "velocity": 0.6299212598425197,
                    "duration": 0.24895833333333428
                },
                {
                    "name": "E3",
                    "midi": 52,
                    "time": 47.5,
                    "velocity": 0.5905511811023622,
                    "duration": 0.24895833333333428
                },
                {
                    "name": "G3",
                    "midi": 55,
                    "time": 47.5,
                    "velocity": 0.5905511811023622,
                    "duration": 0.24895833333333428
                },
                {
                    "name": "B3",
                    "midi": 59,
                    "time": 47.5,
                    "velocity": 0.5905511811023622,
                    "duration": 0.24895833333333428
                },
                {
                    "name": "E2",
                    "midi": 40,
                    "time": 48,
                    "velocity": 0.6299212598425197,
                    "duration": 0.24895833333333428
                },
                {
                    "name": "E3",
                    "midi": 52,
                    "time": 48.5,
                    "velocity": 0.5905511811023622,
                    "duration": 0.24895833333333428
                },
                {
                    "name": "G3",
                    "midi": 55,
                    "time": 48.5,
                    "velocity": 0.5905511811023622,
                    "duration": 0.24895833333333428
                },
                {
                    "name": "B3",
                    "midi": 59,
                    "time": 48.5,
                    "velocity": 0.5905511811023622,
                    "duration": 0.24895833333333428
                },
                {
                    "name": "E2",
                    "midi": 40,
                    "time": 49,
                    "velocity": 0.6299212598425197,
                    "duration": 0.24895833333333428
                },
                {
                    "name": "E3",
                    "midi": 52,
                    "time": 49.5,
                    "velocity": 0.5905511811023622,
                    "duration": 0.24895833333333428
                },
                {
                    "name": "G3",
                    "midi": 55,
                    "time": 49.5,
                    "velocity": 0.5905511811023622,
                    "duration": 0.24895833333333428
                },
                {
                    "name": "B3",
                    "midi": 59,
                    "time": 49.5,
                    "velocity": 0.5905511811023622,
                    "duration": 0.24895833333333428
                },
                {
                    "name": "E2",
                    "midi": 40,
                    "time": 50,
                    "velocity": 0.6299212598425197,
                    "duration": 0.24895833333333428
                },
                {
                    "name": "E3",
                    "midi": 52,
                    "time": 50.5,
                    "velocity": 0.5905511811023622,
                    "duration": 0.24895833333333428
                },
                {
                    "name": "G3",
                    "midi": 55,
                    "time": 50.5,
                    "velocity": 0.5905511811023622,
                    "duration": 0.24895833333333428
                },
                {
                    "name": "B3",
                    "midi": 59,
                    "time": 50.5,
                    "velocity": 0.5905511811023622,
                    "duration": 0.24895833333333428
                },
                {
                    "name": "E2",
                    "midi": 40,
                    "time": 51,
                    "velocity": 0.6299212598425197,
                    "duration": 0.24895833333333428
                },
                {
                    "name": "E3",
                    "midi": 52,
                    "time": 51.5,
                    "velocity": 0.5905511811023622,
                    "duration": 0.24895833333333428
                },
                {
                    "name": "G3",
                    "midi": 55,
                    "time": 51.5,
                    "velocity": 0.5905511811023622,
                    "duration": 0.24895833333333428
                },
                {
                    "name": "B3",
                    "midi": 59,
                    "time": 51.5,
                    "velocity": 0.5905511811023622,
                    "duration": 0.24895833333333428
                },
                {
                    "name": "A2",
                    "midi": 45,
                    "time": 52,
                    "velocity": 0.6299212598425197,
                    "duration": 0.24895833333333428
                },
                {
                    "name": "A3",
                    "midi": 57,
                    "time": 52.5,
                    "velocity": 0.5905511811023622,
                    "duration": 0.24895833333333428
                },
                {
                    "name": "C#4",
                    "midi": 61,
                    "time": 52.5,
                    "velocity": 0.5905511811023622,
                    "duration": 0.24895833333333428
                },
                {
                    "name": "E4",
                    "midi": 64,
                    "time": 52.5,
                    "velocity": 0.5905511811023622,
                    "duration": 0.24895833333333428
                },
                {
                    "name": "A2",
                    "midi": 45,
                    "time": 53,
                    "velocity": 0.6299212598425197,
                    "duration": 0.24895833333333428
                },
                {
                    "name": "A3",
                    "midi": 57,
                    "time": 53.5,
                    "velocity": 0.5905511811023622,
                    "duration": 0.24895833333333428
                },
                {
                    "name": "C#4",
                    "midi": 61,
                    "time": 53.5,
                    "velocity": 0.5905511811023622,
                    "duration": 0.24895833333333428
                },
                {
                    "name": "E4",
                    "midi": 64,
                    "time": 53.5,
                    "velocity": 0.5905511811023622,
                    "duration": 0.24895833333333428
                },
                {
                    "name": "A2",
                    "midi": 45,
                    "time": 54,
                    "velocity": 0.6299212598425197,
                    "duration": 0.24895833333333428
                },
                {
                    "name": "A3",
                    "midi": 57,
                    "time": 54.5,
                    "velocity": 0.5905511811023622,
                    "duration": 0.24895833333333428
                },
                {
                    "name": "C#4",
                    "midi": 61,
                    "time": 54.5,
                    "velocity": 0.5905511811023622,
                    "duration": 0.24895833333333428
                },
                {
                    "name": "E4",
                    "midi": 64,
                    "time": 54.5,
                    "velocity": 0.5905511811023622,
                    "duration": 0.24895833333333428
                },
                {
                    "name": "A2",
                    "midi": 45,
                    "time": 55,
                    "velocity": 0.6299212598425197,
                    "duration": 0.24895833333333428
                },
                {
                    "name": "A3",
                    "midi": 57,
                    "time": 55.5,
                    "velocity": 0.5905511811023622,
                    "duration": 0.24895833333333428
                },
                {
                    "name": "C#4",
                    "midi": 61,
                    "time": 55.5,
                    "velocity": 0.5905511811023622,
                    "duration": 0.24895833333333428
                },
                {
                    "name": "E4",
                    "midi": 64,
                    "time": 55.5,
                    "velocity": 0.5905511811023622,
                    "duration": 0.24895833333333428
                },
                {
                    "name": "C2",
                    "midi": 36,
                    "time": 56,
                    "velocity": 0.6299212598425197,
                    "duration": 0.24895833333333428
                },
                {
                    "name": "C3",
                    "midi": 48,
                    "time": 56.5,
                    "velocity": 0.5905511811023622,
                    "duration": 0.24895833333333428
                },
                {
                    "name": "E3",
                    "midi": 52,
                    "time": 56.5,
                    "velocity": 0.5905511811023622,
                    "duration": 0.24895833333333428
                },
                {
                    "name": "G3",
                    "midi": 55,
                    "time": 56.5,
                    "velocity": 0.5905511811023622,
                    "duration": 0.24895833333333428
                },
                {
                    "name": "C2",
                    "midi": 36,
                    "time": 57,
                    "velocity": 0.6299212598425197,
                    "duration": 0.24895833333333428
                },
                {
                    "name": "C3",
                    "midi": 48,
                    "time": 57.5,
                    "velocity": 0.5905511811023622,
                    "duration": 0.24895833333333428
                },
                {
                    "name": "E3",
                    "midi": 52,
                    "time": 57.5,
                    "velocity": 0.5905511811023622,
                    "duration": 0.24895833333333428
                },
                {
                    "name": "G3",
                    "midi": 55,
                    "time": 57.5,
                    "velocity": 0.5905511811023622,
                    "duration": 0.24895833333333428
                },
                {
                    "name": "C2",
                    "midi": 36,
                    "time": 58,
                    "velocity": 0.6299212598425197,
                    "duration": 0.24895833333333428
                },
                {
                    "name": "C3",
                    "midi": 48,
                    "time": 58.5,
                    "velocity": 0.5905511811023622,
                    "duration": 0.24895833333333428
                },
                {
                    "name": "E3",
                    "midi": 52,
                    "time": 58.5,
                    "velocity": 0.5905511811023622,
                    "duration": 0.24895833333333428
                },
                {
                    "name": "G3",
                    "midi": 55,
                    "time": 58.5,
                    "velocity": 0.5905511811023622,
                    "duration": 0.24895833333333428
                },
                {
                    "name": "C2",
                    "midi": 36,
                    "time": 59,
                    "velocity": 0.6299212598425197,
                    "duration": 0.24895833333333428
                },
                {
                    "name": "C3",
                    "midi": 48,
                    "time": 59.5,
                    "velocity": 0.5905511811023622,
                    "duration": 0.24895833333333428
                },
                {
                    "name": "E3",
                    "midi": 52,
                    "time": 59.5,
                    "velocity": 0.5905511811023622,
                    "duration": 0.24895833333333428
                },
                {
                    "name": "G3",
                    "midi": 55,
                    "time": 59.5,
                    "velocity": 0.5905511811023622,
                    "duration": 0.24895833333333428
                },
                {
                    "name": "B2",
                    "midi": 47,
                    "time": 60,
                    "velocity": 0.6299212598425197,
                    "duration": 0.24895833333333428
                },
                {
                    "name": "B3",
                    "midi": 59,
                    "time": 60.5,
                    "velocity": 0.5905511811023622,
                    "duration": 0.24895833333333428
                },
                {
                    "name": "D#4",
                    "midi": 63,
                    "time": 60.5,
                    "velocity": 0.5905511811023622,
                    "duration": 0.24895833333333428
                },
                {
                    "name": "F#4",
                    "midi": 66,
                    "time": 60.5,
                    "velocity": 0.5905511811023622,
                    "duration": 0.24895833333333428
                },
                {
                    "name": "A4",
                    "midi": 69,
                    "time": 60.5,
                    "velocity": 0.5905511811023622,
                    "duration": 0.24895833333333428
                },
                {
                    "name": "B2",
                    "midi": 47,
                    "time": 61,
                    "velocity": 0.6299212598425197,
                    "duration": 0.24895833333333428
                },
                {
                    "name": "B3",
                    "midi": 59,
                    "time": 61.5,
                    "velocity": 0.5905511811023622,
                    "duration": 0.24895833333333428
                },
                {
                    "name": "D#4",
                    "midi": 63,
                    "time": 61.5,
                    "velocity": 0.5905511811023622,
                    "duration": 0.24895833333333428
                },
                {
                    "name": "F#4",
                    "midi": 66,
                    "time": 61.5,
                    "velocity": 0.5905511811023622,
                    "duration": 0.24895833333333428
                },
                {
                    "name": "A4",
                    "midi": 69,
                    "time": 61.5,
                    "velocity": 0.5905511811023622,
                    "duration": 0.24895833333333428
                },
                {
                    "name": "E2",
                    "midi": 40,
                    "time": 62,
                    "velocity": 0.6299212598425197,
                    "duration": 0.24895833333333428
                },
                {
                    "name": "E3",
                    "midi": 52,
                    "time": 62.5,
                    "velocity": 0.5905511811023622,
                    "duration": 0.24895833333333428
                },
                {
                    "name": "G3",
                    "midi": 55,
                    "time": 62.5,
                    "velocity": 0.5905511811023622,
                    "duration": 0.24895833333333428
                },
                {
                    "name": "B3",
                    "midi": 59,
                    "time": 62.5,
                    "velocity": 0.5905511811023622,
                    "duration": 0.24895833333333428
                },
                {
                    "name": "E2",
                    "midi": 40,
                    "time": 63,
                    "velocity": 0.6299212598425197,
                    "duration": 0.24895833333333428
                },
                {
                    "name": "E3",
                    "midi": 52,
                    "time": 63.5,
                    "velocity": 0.5905511811023622,
                    "duration": 0.24895833333333428
                },
                {
                    "name": "G3",
                    "midi": 55,
                    "time": 63.5,
                    "velocity": 0.5905511811023622,
                    "duration": 0.24895833333333428
                },
                {
                    "name": "B3",
                    "midi": 59,
                    "time": 63.5,
                    "velocity": 0.5905511811023622,
                    "duration": 0.24895833333333428
                }
            ]
        }
    ]
}
