/**
 * Created by pawelszymanski on 21.02.17.
 */

var castles_music = {
  "header": {
  "PPQ": 384,
    "timeSignature": [
    4,
    4
  ],
    "bpm": 84.000084000084,
    "name": "Seq. Luis T. Rivera"
},
  "startTime": 0,
  "duration": 163.3406104687495,
  "tracks": [
  {
    "startTime": 0,
    "duration": 0,
    "length": 0,
    "id": 0
  },
  {
    "startTime": 17.14284,
    "duration": 163.3406104687487,
    "length": 543,
    "id": 1,
    "name": "Guitar",
    "instrumentNumber": 24,
    "instrument": "acoustic guitar (nylon)",
    "instrumentFamily": "guitar",
    "channelNumber": 0,
    "isPercussion": false,
    "notes": [
      {
        "name": "C4",
        "midi": 60,
        "time": 17.14284,
        "velocity": 0.7874015748031497,
        "duration": 1.9122004687500116
      },
      {
        "name": "A4",
        "midi": 69,
        "time": 17.14284,
        "velocity": 0.7874015748031497,
        "duration": 0.23809500000000128
      },
      {
        "name": "A4",
        "midi": 69,
        "time": 17.4999825,
        "velocity": 0.7874015748031497,
        "duration": 0.11904750000000064
      },
      {
        "name": "G4",
        "midi": 67,
        "time": 17.678553750000003,
        "velocity": 0.7874015748031497,
        "duration": 0.11904750000000064
      },
      {
        "name": "A4",
        "midi": 69,
        "time": 17.857125000000003,
        "velocity": 0.7874015748031497,
        "duration": 0.11904750000000064
      },
      {
        "name": "G4",
        "midi": 67,
        "time": 18.035696250000004,
        "velocity": 0.7874015748031497,
        "duration": 0.11904750000000064
      },
      {
        "name": "A4",
        "midi": 69,
        "time": 18.214267500000005,
        "velocity": 0.7874015748031497,
        "duration": 0.23809500000000128
      },
      {
        "name": "A4",
        "midi": 69,
        "time": 18.571410000000007,
        "velocity": 0.7874015748031497,
        "duration": 0.11904750000000064
      },
      {
        "name": "A4",
        "midi": 69,
        "time": 18.74998125000001,
        "velocity": 0.7874015748031497,
        "duration": 0.11904750000000064
      },
      {
        "name": "G4",
        "midi": 67,
        "time": 18.92855250000001,
        "velocity": 0.7874015748031497,
        "duration": 0.11904750000000064
      },
      {
        "name": "A4",
        "midi": 69,
        "time": 19.10712375000001,
        "velocity": 0.7874015748031497,
        "duration": 0.476189999999999
      },
      {
        "name": "G4",
        "midi": 67,
        "time": 19.64283750000001,
        "velocity": 0.7874015748031497,
        "duration": 0.11904750000000064
      },
      {
        "name": "G4",
        "midi": 67,
        "time": 19.82140875000001,
        "velocity": 0.7874015748031497,
        "duration": 0.11904750000000064
      },
      {
        "name": "C4",
        "midi": 60,
        "time": 19.99998000000001,
        "velocity": 0.7874015748031497,
        "duration": 1.9122004687500045
      },
      {
        "name": "A4",
        "midi": 69,
        "time": 19.99998000000001,
        "velocity": 0.7874015748031497,
        "duration": 0.11904750000000064
      },
      {
        "name": "G4",
        "midi": 67,
        "time": 20.178551250000012,
        "velocity": 0.7874015748031497,
        "duration": 0.11904750000000064
      },
      {
        "name": "A4",
        "midi": 69,
        "time": 20.357122500000013,
        "velocity": 0.7874015748031497,
        "duration": 0.23809500000000128
      },
      {
        "name": "A4",
        "midi": 69,
        "time": 21.071407500000014,
        "velocity": 0.7874015748031497,
        "duration": 0.11904750000000064
      },
      {
        "name": "G4",
        "midi": 67,
        "time": 21.249978750000015,
        "velocity": 0.7874015748031497,
        "duration": 0.11904750000000064
      },
      {
        "name": "A4",
        "midi": 69,
        "time": 21.428550000000016,
        "velocity": 0.7874015748031497,
        "duration": 0.11904750000000064
      },
      {
        "name": "G4",
        "midi": 67,
        "time": 21.607121250000016,
        "velocity": 0.7874015748031497,
        "duration": 0.11904750000000064
      },
      {
        "name": "A4",
        "midi": 69,
        "time": 21.785692500000017,
        "velocity": 0.7874015748031497,
        "duration": 0.23809499999999773
      },
      {
        "name": "G4",
        "midi": 67,
        "time": 22.678548750000015,
        "velocity": 0.7874015748031497,
        "duration": 0.11904750000000064
      },
      {
        "name": "D4",
        "midi": 62,
        "time": 22.857120000000016,
        "velocity": 0.7874015748031497,
        "duration": 1.912200468750008
      },
      {
        "name": "B4",
        "midi": 71,
        "time": 22.857120000000016,
        "velocity": 0.7874015748031497,
        "duration": 0.11904750000000064
      },
      {
        "name": "B4",
        "midi": 71,
        "time": 23.035691250000017,
        "velocity": 0.7874015748031497,
        "duration": 0.11904750000000064
      },
      {
        "name": "B4",
        "midi": 71,
        "time": 23.214262500000018,
        "velocity": 0.7874015748031497,
        "duration": 0.23809500000000128
      },
      {
        "name": "B4",
        "midi": 71,
        "time": 23.74997625000002,
        "velocity": 0.7874015748031497,
        "duration": 0.23809500000000128
      },
      {
        "name": "A4",
        "midi": 69,
        "time": 24.107118750000023,
        "velocity": 0.7874015748031497,
        "duration": 0.11904750000000064
      },
      {
        "name": "G4",
        "midi": 67,
        "time": 24.285690000000024,
        "velocity": 0.7874015748031497,
        "duration": 0.7142850000000003
      },
      {
        "name": "E4",
        "midi": 64,
        "time": 24.821403750000023,
        "velocity": 0.7874015748031497,
        "duration": 0.11904750000000064
      },
      {
        "name": "G4",
        "midi": 67,
        "time": 24.999975000000024,
        "velocity": 0.7874015748031497,
        "duration": 0.23809500000000128
      },
      {
        "name": "E4",
        "midi": 64,
        "time": 25.357117500000026,
        "velocity": 0.7874015748031497,
        "duration": 0.23809500000000128
      },
      {
        "name": "B4",
        "midi": 71,
        "time": 25.714260000000028,
        "velocity": 0.7874015748031497,
        "duration": 0.11904750000000064
      },
      {
        "name": "C4",
        "midi": 60,
        "time": 25.714260000000028,
        "velocity": 0.7874015748031497,
        "duration": 0.47619000000000256
      },
      {
        "name": "F4",
        "midi": 65,
        "time": 25.89283125000003,
        "velocity": 0.7874015748031497,
        "duration": 0.11904750000000064
      },
      {
        "name": "G4",
        "midi": 67,
        "time": 26.07140250000003,
        "velocity": 0.7874015748031497,
        "duration": 0.11904750000000064
      },
      {
        "name": "E4",
        "midi": 64,
        "time": 26.24997375000003,
        "velocity": 0.7874015748031497,
        "duration": 0.11904750000000064
      },
      {
        "name": "E4",
        "midi": 64,
        "time": 26.42854500000003,
        "velocity": 0.7874015748031497,
        "duration": 0.11904750000000064
      },
      {
        "name": "G4",
        "midi": 67,
        "time": 26.42854500000003,
        "velocity": 0.7874015748031497,
        "duration": 0.11904750000000064
      },
      {
        "name": "G4",
        "midi": 67,
        "time": 26.607116250000033,
        "velocity": 0.7874015748031497,
        "duration": 0.11904750000000064
      },
      {
        "name": "G4",
        "midi": 67,
        "time": 26.785687500000034,
        "velocity": 0.7874015748031497,
        "duration": 0.23809500000000128
      },
      {
        "name": "D4",
        "midi": 62,
        "time": 27.142830000000036,
        "velocity": 0.7874015748031497,
        "duration": 0.9523800000000016
      },
      {
        "name": "B4",
        "midi": 71,
        "time": 27.142830000000036,
        "velocity": 0.7874015748031497,
        "duration": 0.9523800000000016
      },
      {
        "name": "C4",
        "midi": 60,
        "time": 28.571400000000036,
        "velocity": 0.7874015748031497,
        "duration": 0.11904750000000064
      },
      {
        "name": "D4",
        "midi": 62,
        "time": 28.749971250000037,
        "velocity": 0.7874015748031497,
        "duration": 0.11904750000000064
      },
      {
        "name": "F4",
        "midi": 65,
        "time": 28.928542500000038,
        "velocity": 0.7874015748031497,
        "duration": 0.11904750000000064
      },
      {
        "name": "F4",
        "midi": 65,
        "time": 29.10711375000004,
        "velocity": 0.7874015748031497,
        "duration": 0.11904750000000064
      },
      {
        "name": "C4",
        "midi": 60,
        "time": 29.28568500000004,
        "velocity": 0.7874015748031497,
        "duration": 0.11904750000000064
      },
      {
        "name": "D4",
        "midi": 62,
        "time": 29.46425625000004,
        "velocity": 0.7874015748031497,
        "duration": 0.11904750000000064
      },
      {
        "name": "F4",
        "midi": 65,
        "time": 29.642827500000042,
        "velocity": 0.7874015748031497,
        "duration": 0.23809500000000128
      },
      {
        "name": "D4",
        "midi": 62,
        "time": 30.714255000000044,
        "velocity": 0.7874015748031497,
        "duration": 0.9523800000000016
      },
      {
        "name": "G4",
        "midi": 67,
        "time": 30.714255000000044,
        "velocity": 0.7874015748031497,
        "duration": 0.9523800000000016
      },
      {
        "name": "B4",
        "midi": 71,
        "time": 30.714255000000044,
        "velocity": 0.7874015748031497,
        "duration": 0.9523800000000016
      },
      {
        "name": "B4",
        "midi": 71,
        "time": 32.32139625000005,
        "velocity": 0.7874015748031497,
        "duration": 0.11904750000000064
      },
      {
        "name": "D5",
        "midi": 74,
        "time": 32.49996750000005,
        "velocity": 0.7874015748031497,
        "duration": 0.23809500000000128
      },
      {
        "name": "C4",
        "midi": 60,
        "time": 32.85711000000005,
        "velocity": 0.7874015748031497,
        "duration": 1.912200468750001
      },
      {
        "name": "B4",
        "midi": 71,
        "time": 32.85711000000005,
        "velocity": 0.7874015748031497,
        "duration": 0.11904750000000064
      },
      {
        "name": "A4",
        "midi": 69,
        "time": 33.035681250000046,
        "velocity": 0.7874015748031497,
        "duration": 0.11904750000000064
      },
      {
        "name": "A4",
        "midi": 69,
        "time": 33.21425250000004,
        "velocity": 0.7874015748031497,
        "duration": 0.23809500000000128
      },
      {
        "name": "A4",
        "midi": 69,
        "time": 33.571395000000045,
        "velocity": 0.7874015748031497,
        "duration": 0.23809500000000128
      },
      {
        "name": "G4",
        "midi": 67,
        "time": 33.92853750000005,
        "velocity": 0.7874015748031497,
        "duration": 0.11904750000000064
      },
      {
        "name": "A4",
        "midi": 69,
        "time": 34.107108750000044,
        "velocity": 0.7874015748031497,
        "duration": 0.23809500000000128
      },
      {
        "name": "G4",
        "midi": 67,
        "time": 34.464251250000046,
        "velocity": 0.7874015748031497,
        "duration": 0.23809500000000128
      },
      {
        "name": "B4",
        "midi": 71,
        "time": 34.82139375000005,
        "velocity": 0.7874015748031497,
        "duration": 0.23809500000000128
      },
      {
        "name": "G4",
        "midi": 67,
        "time": 35.53567875000005,
        "velocity": 0.7874015748031497,
        "duration": 0.11904750000000064
      },
      {
        "name": "C4",
        "midi": 60,
        "time": 35.71425000000005,
        "velocity": 0.7874015748031497,
        "duration": 1.9122004687499867
      },
      {
        "name": "A4",
        "midi": 69,
        "time": 35.71425000000005,
        "velocity": 0.7874015748031497,
        "duration": 0.11904750000000064
      },
      {
        "name": "A4",
        "midi": 69,
        "time": 35.89282125000005,
        "velocity": 0.7874015748031497,
        "duration": 0.11904750000000064
      },
      {
        "name": "A4",
        "midi": 69,
        "time": 36.071392500000044,
        "velocity": 0.7874015748031497,
        "duration": 0.11904750000000064
      },
      {
        "name": "A4",
        "midi": 69,
        "time": 36.24996375000004,
        "velocity": 0.7874015748031497,
        "duration": 0.11904750000000064
      },
      {
        "name": "A4",
        "midi": 69,
        "time": 36.42853500000004,
        "velocity": 0.7874015748031497,
        "duration": 0.23809500000000128
      },
      {
        "name": "A4",
        "midi": 69,
        "time": 36.78567750000004,
        "velocity": 0.7874015748031497,
        "duration": 0.23809500000000128
      },
      {
        "name": "A4",
        "midi": 69,
        "time": 37.14282000000004,
        "velocity": 0.7874015748031497,
        "duration": 0.11904750000000064
      },
      {
        "name": "G4",
        "midi": 67,
        "time": 37.32139125000004,
        "velocity": 0.7874015748031497,
        "duration": 0.11904750000000064
      },
      {
        "name": "A4",
        "midi": 69,
        "time": 37.49996250000004,
        "velocity": 0.7874015748031497,
        "duration": 0.23809500000000128
      },
      {
        "name": "A4",
        "midi": 69,
        "time": 37.85710500000004,
        "velocity": 0.7874015748031497,
        "duration": 0.7142849999999967
      },
      {
        "name": "G4",
        "midi": 67,
        "time": 38.39281875000004,
        "velocity": 0.7874015748031497,
        "duration": 0.11904750000000064
      },
      {
        "name": "D4",
        "midi": 62,
        "time": 38.57139000000004,
        "velocity": 0.7874015748031497,
        "duration": 1.9122004687499938
      },
      {
        "name": "B4",
        "midi": 71,
        "time": 38.57139000000004,
        "velocity": 0.7874015748031497,
        "duration": 0.11904750000000064
      },
      {
        "name": "B4",
        "midi": 71,
        "time": 38.749961250000034,
        "velocity": 0.7874015748031497,
        "duration": 0.11904750000000064
      },
      {
        "name": "B4",
        "midi": 71,
        "time": 38.92853250000003,
        "velocity": 0.7874015748031497,
        "duration": 0.11904750000000064
      },
      {
        "name": "B4",
        "midi": 71,
        "time": 39.10710375000003,
        "velocity": 0.7874015748031497,
        "duration": 0.11904750000000064
      },
      {
        "name": "B4",
        "midi": 71,
        "time": 39.285675000000026,
        "velocity": 0.7874015748031497,
        "duration": 0.23809500000000128
      },
      {
        "name": "G4",
        "midi": 67,
        "time": 39.64281750000003,
        "velocity": 0.7874015748031497,
        "duration": 0.23809500000000128
      },
      {
        "name": "B4",
        "midi": 71,
        "time": 39.99996000000003,
        "velocity": 0.7874015748031497,
        "duration": 0.23809500000000128
      },
      {
        "name": "G4",
        "midi": 67,
        "time": 40.35710250000003,
        "velocity": 0.7874015748031497,
        "duration": 0.11904750000000064
      },
      {
        "name": "B4",
        "midi": 71,
        "time": 40.53567375000003,
        "velocity": 0.7874015748031497,
        "duration": 0.23809500000000128
      },
      {
        "name": "G4",
        "midi": 67,
        "time": 40.89281625000003,
        "velocity": 0.7874015748031497,
        "duration": 0.11904750000000064
      },
      {
        "name": "G4",
        "midi": 67,
        "time": 41.07138750000003,
        "velocity": 0.7874015748031497,
        "duration": 0.11904750000000064
      },
      {
        "name": "C5",
        "midi": 72,
        "time": 41.249958750000026,
        "velocity": 0.7874015748031497,
        "duration": 0.11904750000000064
      },
      {
        "name": "C4",
        "midi": 60,
        "time": 41.42853000000002,
        "velocity": 0.7874015748031497,
        "duration": 0.47619000000000256
      },
      {
        "name": "G4",
        "midi": 67,
        "time": 41.42853000000002,
        "velocity": 0.7874015748031497,
        "duration": 0.23809500000000128
      },
      {
        "name": "A4",
        "midi": 69,
        "time": 41.785672500000025,
        "velocity": 0.7874015748031497,
        "duration": 0.11904750000000064
      },
      {
        "name": "G4",
        "midi": 67,
        "time": 41.96424375000002,
        "velocity": 0.7874015748031497,
        "duration": 0.11904750000000064
      },
      {
        "name": "E4",
        "midi": 64,
        "time": 42.14281500000002,
        "velocity": 0.7874015748031497,
        "duration": 0.23809500000000128
      },
      {
        "name": "G4",
        "midi": 67,
        "time": 42.14281500000002,
        "velocity": 0.7874015748031497,
        "duration": 0.23809500000000128
      },
      {
        "name": "E4",
        "midi": 64,
        "time": 42.49995750000002,
        "velocity": 0.7874015748031497,
        "duration": 0.23809500000000128
      },
      {
        "name": "D4",
        "midi": 62,
        "time": 42.857100000000024,
        "velocity": 0.7874015748031497,
        "duration": 0.9523800000000051
      },
      {
        "name": "B4",
        "midi": 71,
        "time": 42.857100000000024,
        "velocity": 0.7874015748031497,
        "duration": 0.23809500000000128
      },
      {
        "name": "B4",
        "midi": 71,
        "time": 43.214242500000026,
        "velocity": 0.7874015748031497,
        "duration": 0.23809500000000128
      },
      {
        "name": "A4",
        "midi": 69,
        "time": 43.57138500000003,
        "velocity": 0.7874015748031497,
        "duration": 0.23809500000000128
      },
      {
        "name": "G4",
        "midi": 67,
        "time": 43.92852750000003,
        "velocity": 0.7874015748031497,
        "duration": 0.23809500000000128
      },
      {
        "name": "A4",
        "midi": 69,
        "time": 44.28567000000003,
        "velocity": 0.7874015748031497,
        "duration": 0.23809500000000128
      },
      {
        "name": "B4",
        "midi": 71,
        "time": 44.64281250000003,
        "velocity": 0.7874015748031497,
        "duration": 0.23809500000000128
      },
      {
        "name": "A4",
        "midi": 69,
        "time": 44.999955000000035,
        "velocity": 0.7874015748031497,
        "duration": 0.11904750000000064
      },
      {
        "name": "G4",
        "midi": 67,
        "time": 45.17852625000003,
        "velocity": 0.7874015748031497,
        "duration": 0.11904750000000064
      },
      {
        "name": "E4",
        "midi": 64,
        "time": 45.35709750000003,
        "velocity": 0.7874015748031497,
        "duration": 0.23809500000000128
      },
      {
        "name": "B3",
        "midi": 59,
        "time": 46.42852500000003,
        "velocity": 0.7874015748031497,
        "duration": 0.47619000000000256
      },
      {
        "name": "D4",
        "midi": 62,
        "time": 46.42852500000003,
        "velocity": 0.7874015748031497,
        "duration": 0.47619000000000256
      },
      {
        "name": "D4",
        "midi": 62,
        "time": 47.14281000000003,
        "velocity": 0.7874015748031497,
        "duration": 0.952379999999998
      },
      {
        "name": "B3",
        "midi": 59,
        "time": 47.14281000000003,
        "velocity": 0.7874015748031497,
        "duration": 0.952379999999998
      },
      {
        "name": "G4",
        "midi": 67,
        "time": 47.85709500000003,
        "velocity": 0.7874015748031497,
        "duration": 0.23809500000000128
      },
      {
        "name": "G4",
        "midi": 67,
        "time": 48.21423750000003,
        "velocity": 0.7874015748031497,
        "duration": 0.23809500000000128
      },
      {
        "name": "B4",
        "midi": 71,
        "time": 48.57138000000003,
        "velocity": 0.7874015748031497,
        "duration": 0.23809500000000128
      },
      {
        "name": "D5",
        "midi": 74,
        "time": 48.928522500000035,
        "velocity": 0.7874015748031497,
        "duration": 0.23809500000000128
      },
      {
        "name": "D5",
        "midi": 74,
        "time": 49.28566500000004,
        "velocity": 0.7874015748031497,
        "duration": 0.11904750000000064
      },
      {
        "name": "E5",
        "midi": 76,
        "time": 49.464236250000035,
        "velocity": 0.7874015748031497,
        "duration": 0.23809500000000128
      },
      {
        "name": "B4",
        "midi": 71,
        "time": 49.82137875000004,
        "velocity": 0.7874015748031497,
        "duration": 0.23809500000000128
      },
      {
        "name": "A4",
        "midi": 69,
        "time": 50.17852125000004,
        "velocity": 0.7874015748031497,
        "duration": 0.7142849999999967
      },
      {
        "name": "D5",
        "midi": 74,
        "time": 51.24994875000004,
        "velocity": 0.7874015748031497,
        "duration": 0.1785712499999974
      },
      {
        "name": "C5",
        "midi": 72,
        "time": 51.428520000000034,
        "velocity": 0.7874015748031497,
        "duration": 0.23809500000000128
      },
      {
        "name": "D5",
        "midi": 74,
        "time": 51.785662500000036,
        "velocity": 0.7874015748031497,
        "duration": 0.23809500000000128
      },
      {
        "name": "A#4",
        "midi": 70,
        "time": 52.14280500000004,
        "velocity": 0.7874015748031497,
        "duration": 0.952379999999998
      },
      {
        "name": "B4",
        "midi": 71,
        "time": 53.928517500000034,
        "velocity": 0.7874015748031497,
        "duration": 0.23809500000000128
      },
      {
        "name": "B3",
        "midi": 59,
        "time": 54.285660000000036,
        "velocity": 0.7874015748031497,
        "duration": 0.9523800000000051
      },
      {
        "name": "A4",
        "midi": 69,
        "time": 54.285660000000036,
        "velocity": 0.7874015748031497,
        "duration": 0.23809500000000128
      },
      {
        "name": "G4",
        "midi": 67,
        "time": 54.64280250000004,
        "velocity": 0.7874015748031497,
        "duration": 0.23809500000000128
      },
      {
        "name": "G4",
        "midi": 67,
        "time": 54.99994500000004,
        "velocity": 0.7874015748031497,
        "duration": 0.47619000000000256
      },
      {
        "name": "C4",
        "midi": 60,
        "time": 55.71423000000004,
        "velocity": 0.7874015748031497,
        "duration": 0.11904750000000064
      },
      {
        "name": "D4",
        "midi": 62,
        "time": 55.89280125000004,
        "velocity": 0.7874015748031497,
        "duration": 0.11904750000000064
      },
      {
        "name": "F4",
        "midi": 65,
        "time": 56.07137250000004,
        "velocity": 0.7874015748031497,
        "duration": 0.11904750000000064
      },
      {
        "name": "F4",
        "midi": 65,
        "time": 56.249943750000035,
        "velocity": 0.7874015748031497,
        "duration": 0.11904750000000064
      },
      {
        "name": "A#3",
        "midi": 58,
        "time": 56.42851500000003,
        "velocity": 0.7874015748031497,
        "duration": 0.23809500000000128
      },
      {
        "name": "G4",
        "midi": 67,
        "time": 56.785657500000035,
        "velocity": 0.7874015748031497,
        "duration": 0.23809500000000128
      },
      {
        "name": "D4",
        "midi": 62,
        "time": 57.49994250000004,
        "velocity": 0.7874015748031497,
        "duration": 0.23809500000000128
      },
      {
        "name": "G4",
        "midi": 67,
        "time": 57.49994250000004,
        "velocity": 0.7874015748031497,
        "duration": 0.23809500000000128
      },
      {
        "name": "B4",
        "midi": 71,
        "time": 57.49994250000004,
        "velocity": 0.7874015748031497,
        "duration": 0.23809500000000128
      },
      {
        "name": "C4",
        "midi": 60,
        "time": 57.85708500000004,
        "velocity": 0.7874015748031497,
        "duration": 0.11904750000000064
      },
      {
        "name": "D4",
        "midi": 62,
        "time": 58.03565625000004,
        "velocity": 0.7874015748031497,
        "duration": 0.11904750000000064
      },
      {
        "name": "F4",
        "midi": 65,
        "time": 58.214227500000035,
        "velocity": 0.7874015748031497,
        "duration": 0.11904750000000064
      },
      {
        "name": "F4",
        "midi": 65,
        "time": 58.39279875000003,
        "velocity": 0.7874015748031497,
        "duration": 0.11904750000000064
      },
      {
        "name": "D4",
        "midi": 62,
        "time": 58.57137000000003,
        "velocity": 0.7874015748031497,
        "duration": 0.11904750000000064
      },
      {
        "name": "E4",
        "midi": 64,
        "time": 58.74994125000003,
        "velocity": 0.7874015748031497,
        "duration": 0.11904750000000064
      },
      {
        "name": "G4",
        "midi": 67,
        "time": 58.928512500000025,
        "velocity": 0.7874015748031497,
        "duration": 0.23809500000000128
      },
      {
        "name": "D4",
        "midi": 62,
        "time": 59.28565500000003,
        "velocity": 0.7874015748031497,
        "duration": 0.11904750000000064
      },
      {
        "name": "G4",
        "midi": 67,
        "time": 59.464226250000024,
        "velocity": 0.7874015748031497,
        "duration": 0.11904750000000064
      },
      {
        "name": "B4",
        "midi": 71,
        "time": 59.64279750000002,
        "velocity": 0.7874015748031497,
        "duration": 0.11904750000000064
      },
      {
        "name": "B4",
        "midi": 71,
        "time": 59.82136875000002,
        "velocity": 0.7874015748031497,
        "duration": 0.11904750000000064
      },
      {
        "name": "C4",
        "midi": 60,
        "time": 59.99994000000002,
        "velocity": 0.7874015748031497,
        "duration": 1.9122004687499867
      },
      {
        "name": "A4",
        "midi": 69,
        "time": 59.99994000000002,
        "velocity": 0.7874015748031497,
        "duration": 0.23809500000000128
      },
      {
        "name": "A4",
        "midi": 69,
        "time": 60.35708250000002,
        "velocity": 0.7874015748031497,
        "duration": 0.11904750000000064
      },
      {
        "name": "G4",
        "midi": 67,
        "time": 60.535653750000016,
        "velocity": 0.7874015748031497,
        "duration": 0.11904750000000064
      },
      {
        "name": "A4",
        "midi": 69,
        "time": 60.71422500000001,
        "velocity": 0.7874015748031497,
        "duration": 0.11904750000000064
      },
      {
        "name": "G4",
        "midi": 67,
        "time": 60.89279625000001,
        "velocity": 0.7874015748031497,
        "duration": 0.11904750000000064
      },
      {
        "name": "A4",
        "midi": 69,
        "time": 61.07136750000001,
        "velocity": 0.7874015748031497,
        "duration": 0.23809500000000128
      },
      {
        "name": "A4",
        "midi": 69,
        "time": 61.42851000000001,
        "velocity": 0.7874015748031497,
        "duration": 0.11904750000000064
      },
      {
        "name": "A4",
        "midi": 69,
        "time": 61.60708125000001,
        "velocity": 0.7874015748031497,
        "duration": 0.11904750000000064
      },
      {
        "name": "G4",
        "midi": 67,
        "time": 61.785652500000005,
        "velocity": 0.7874015748031497,
        "duration": 0.11904750000000064
      },
      {
        "name": "A4",
        "midi": 69,
        "time": 61.96422375,
        "velocity": 0.7874015748031497,
        "duration": 0.47619000000000256
      },
      {
        "name": "G4",
        "midi": 67,
        "time": 62.4999375,
        "velocity": 0.7874015748031497,
        "duration": 0.11904750000000064
      },
      {
        "name": "G4",
        "midi": 67,
        "time": 62.67850875,
        "velocity": 0.7874015748031497,
        "duration": 0.11904750000000064
      },
      {
        "name": "C4",
        "midi": 60,
        "time": 62.857079999999996,
        "velocity": 0.7874015748031497,
        "duration": 1.9122004687499583
      },
      {
        "name": "A4",
        "midi": 69,
        "time": 62.857079999999996,
        "velocity": 0.7874015748031497,
        "duration": 0.11904750000000064
      },
      {
        "name": "G4",
        "midi": 67,
        "time": 63.035651249999994,
        "velocity": 0.7874015748031497,
        "duration": 0.11904750000000064
      },
      {
        "name": "A4",
        "midi": 69,
        "time": 63.21422249999999,
        "velocity": 0.7874015748031497,
        "duration": 0.23809500000000128
      },
      {
        "name": "A4",
        "midi": 69,
        "time": 63.928507499999995,
        "velocity": 0.7874015748031497,
        "duration": 0.11904749999999353
      },
      {
        "name": "G4",
        "midi": 67,
        "time": 64.10707874999999,
        "velocity": 0.7874015748031497,
        "duration": 0.11904749999999353
      },
      {
        "name": "A4",
        "midi": 69,
        "time": 64.28564999999998,
        "velocity": 0.7874015748031497,
        "duration": 0.11904749999999353
      },
      {
        "name": "G4",
        "midi": 67,
        "time": 64.46422124999997,
        "velocity": 0.7874015748031497,
        "duration": 0.11904749999999353
      },
      {
        "name": "A4",
        "midi": 69,
        "time": 64.64279249999996,
        "velocity": 0.7874015748031497,
        "duration": 0.23809500000000128
      },
      {
        "name": "G4",
        "midi": 67,
        "time": 65.53564874999995,
        "velocity": 0.7874015748031497,
        "duration": 0.11904749999999353
      },
      {
        "name": "D4",
        "midi": 62,
        "time": 65.71421999999994,
        "velocity": 0.7874015748031497,
        "duration": 1.9122004687499583
      },
      {
        "name": "B4",
        "midi": 71,
        "time": 65.71421999999994,
        "velocity": 0.7874015748031497,
        "duration": 0.11904749999999353
      },
      {
        "name": "B4",
        "midi": 71,
        "time": 65.89279124999993,
        "velocity": 0.7874015748031497,
        "duration": 0.11904749999999353
      },
      {
        "name": "B4",
        "midi": 71,
        "time": 66.07136249999992,
        "velocity": 0.7874015748031497,
        "duration": 0.23809500000000128
      },
      {
        "name": "B4",
        "midi": 71,
        "time": 66.60707624999992,
        "velocity": 0.7874015748031497,
        "duration": 0.23809500000000128
      },
      {
        "name": "A4",
        "midi": 69,
        "time": 66.96421874999992,
        "velocity": 0.7874015748031497,
        "duration": 0.11904749999999353
      },
      {
        "name": "G4",
        "midi": 67,
        "time": 67.1427899999999,
        "velocity": 0.7874015748031497,
        "duration": 0.7142849999999896
      },
      {
        "name": "E4",
        "midi": 64,
        "time": 67.6785037499999,
        "velocity": 0.7874015748031497,
        "duration": 0.11904749999999353
      },
      {
        "name": "G4",
        "midi": 67,
        "time": 67.8570749999999,
        "velocity": 0.7874015748031497,
        "duration": 0.23809500000000128
      },
      {
        "name": "E4",
        "midi": 64,
        "time": 68.21421749999989,
        "velocity": 0.7874015748031497,
        "duration": 0.23809500000000128
      },
      {
        "name": "B4",
        "midi": 71,
        "time": 68.57135999999988,
        "velocity": 0.7874015748031497,
        "duration": 0.11904749999999353
      },
      {
        "name": "C4",
        "midi": 60,
        "time": 68.57135999999988,
        "velocity": 0.7874015748031497,
        "duration": 0.47618999999997413
      },
      {
        "name": "F4",
        "midi": 65,
        "time": 68.74993124999988,
        "velocity": 0.7874015748031497,
        "duration": 0.11904749999999353
      },
      {
        "name": "G4",
        "midi": 67,
        "time": 68.92850249999987,
        "velocity": 0.7874015748031497,
        "duration": 0.11904749999999353
      },
      {
        "name": "E4",
        "midi": 64,
        "time": 69.10707374999986,
        "velocity": 0.7874015748031497,
        "duration": 0.11904749999999353
      },
      {
        "name": "E4",
        "midi": 64,
        "time": 69.28564499999985,
        "velocity": 0.7874015748031497,
        "duration": 0.11904749999999353
      },
      {
        "name": "G4",
        "midi": 67,
        "time": 69.28564499999985,
        "velocity": 0.7874015748031497,
        "duration": 0.11904749999999353
      },
      {
        "name": "G4",
        "midi": 67,
        "time": 69.46421624999984,
        "velocity": 0.7874015748031497,
        "duration": 0.11904749999999353
      },
      {
        "name": "G4",
        "midi": 67,
        "time": 69.64278749999983,
        "velocity": 0.7874015748031497,
        "duration": 0.23809500000000128
      },
      {
        "name": "D4",
        "midi": 62,
        "time": 69.99992999999982,
        "velocity": 0.7874015748031497,
        "duration": 0.9523800000000051
      },
      {
        "name": "B4",
        "midi": 71,
        "time": 69.99992999999982,
        "velocity": 0.7874015748031497,
        "duration": 0.9523800000000051
      },
      {
        "name": "C4",
        "midi": 60,
        "time": 71.42849999999983,
        "velocity": 0.7874015748031497,
        "duration": 0.11904749999999353
      },
      {
        "name": "D4",
        "midi": 62,
        "time": 71.60707124999982,
        "velocity": 0.7874015748031497,
        "duration": 0.11904749999999353
      },
      {
        "name": "F4",
        "midi": 65,
        "time": 71.78564249999981,
        "velocity": 0.7874015748031497,
        "duration": 0.11904749999999353
      },
      {
        "name": "F4",
        "midi": 65,
        "time": 71.9642137499998,
        "velocity": 0.7874015748031497,
        "duration": 0.11904749999999353
      },
      {
        "name": "C4",
        "midi": 60,
        "time": 72.14278499999979,
        "velocity": 0.7874015748031497,
        "duration": 0.11904749999999353
      },
      {
        "name": "D4",
        "midi": 62,
        "time": 72.32135624999978,
        "velocity": 0.7874015748031497,
        "duration": 0.11904749999999353
      },
      {
        "name": "F4",
        "midi": 65,
        "time": 72.49992749999977,
        "velocity": 0.7874015748031497,
        "duration": 0.23809500000000128
      },
      {
        "name": "D4",
        "midi": 62,
        "time": 73.57135499999977,
        "velocity": 0.7874015748031497,
        "duration": 0.9523800000000051
      },
      {
        "name": "G4",
        "midi": 67,
        "time": 73.57135499999977,
        "velocity": 0.7874015748031497,
        "duration": 0.9523800000000051
      },
      {
        "name": "B4",
        "midi": 71,
        "time": 73.57135499999977,
        "velocity": 0.7874015748031497,
        "duration": 0.9523800000000051
      },
      {
        "name": "B4",
        "midi": 71,
        "time": 75.17849624999977,
        "velocity": 0.7874015748031497,
        "duration": 0.11904749999999353
      },
      {
        "name": "D5",
        "midi": 74,
        "time": 75.35706749999976,
        "velocity": 0.7874015748031497,
        "duration": 0.23809500000000128
      },
      {
        "name": "C4",
        "midi": 60,
        "time": 75.71420999999975,
        "velocity": 0.7874015748031497,
        "duration": 1.9122004687499583
      },
      {
        "name": "B4",
        "midi": 71,
        "time": 75.71420999999975,
        "velocity": 0.7874015748031497,
        "duration": 0.11904749999999353
      },
      {
        "name": "A4",
        "midi": 69,
        "time": 75.89278124999974,
        "velocity": 0.7874015748031497,
        "duration": 0.11904749999999353
      },
      {
        "name": "A4",
        "midi": 69,
        "time": 76.07135249999973,
        "velocity": 0.7874015748031497,
        "duration": 0.23809500000000128
      },
      {
        "name": "A4",
        "midi": 69,
        "time": 76.42849499999973,
        "velocity": 0.7874015748031497,
        "duration": 0.23809500000000128
      },
      {
        "name": "G4",
        "midi": 67,
        "time": 76.78563749999972,
        "velocity": 0.7874015748031497,
        "duration": 0.11904749999999353
      },
      {
        "name": "A4",
        "midi": 69,
        "time": 76.96420874999971,
        "velocity": 0.7874015748031497,
        "duration": 0.23809500000000128
      },
      {
        "name": "G4",
        "midi": 67,
        "time": 77.32135124999971,
        "velocity": 0.7874015748031497,
        "duration": 0.23809500000000128
      },
      {
        "name": "B4",
        "midi": 71,
        "time": 77.67849374999972,
        "velocity": 0.7874015748031497,
        "duration": 0.23809500000000128
      },
      {
        "name": "G4",
        "midi": 67,
        "time": 78.39277874999972,
        "velocity": 0.7874015748031497,
        "duration": 0.11904749999999353
      },
      {
        "name": "C4",
        "midi": 60,
        "time": 78.57134999999971,
        "velocity": 0.7874015748031497,
        "duration": 1.9122004687499299
      },
      {
        "name": "A4",
        "midi": 69,
        "time": 78.57134999999971,
        "velocity": 0.7874015748031497,
        "duration": 0.11904749999999353
      },
      {
        "name": "A4",
        "midi": 69,
        "time": 78.7499212499997,
        "velocity": 0.7874015748031497,
        "duration": 0.11904749999999353
      },
      {
        "name": "A4",
        "midi": 69,
        "time": 78.92849249999969,
        "velocity": 0.7874015748031497,
        "duration": 0.11904749999999353
      },
      {
        "name": "A4",
        "midi": 69,
        "time": 79.10706374999968,
        "velocity": 0.7874015748031497,
        "duration": 0.11904749999999353
      },
      {
        "name": "A4",
        "midi": 69,
        "time": 79.28563499999967,
        "velocity": 0.7874015748031497,
        "duration": 0.23809500000000128
      },
      {
        "name": "A4",
        "midi": 69,
        "time": 79.64277749999967,
        "velocity": 0.7874015748031497,
        "duration": 0.23809500000000128
      },
      {
        "name": "A4",
        "midi": 69,
        "time": 79.99991999999966,
        "velocity": 0.7874015748031497,
        "duration": 0.11904749999999353
      },
      {
        "name": "G4",
        "midi": 67,
        "time": 80.17849124999965,
        "velocity": 0.7874015748031497,
        "duration": 0.11904749999999353
      },
      {
        "name": "A4",
        "midi": 69,
        "time": 80.35706249999964,
        "velocity": 0.7874015748031497,
        "duration": 0.23809500000000128
      },
      {
        "name": "A4",
        "midi": 69,
        "time": 80.71420499999964,
        "velocity": 0.7874015748031497,
        "duration": 0.7142849999999896
      },
      {
        "name": "G4",
        "midi": 67,
        "time": 81.24991874999964,
        "velocity": 0.7874015748031497,
        "duration": 0.11904749999999353
      },
      {
        "name": "D4",
        "midi": 62,
        "time": 81.42848999999963,
        "velocity": 0.7874015748031497,
        "duration": 1.912200468749944
      },
      {
        "name": "B4",
        "midi": 71,
        "time": 81.42848999999963,
        "velocity": 0.7874015748031497,
        "duration": 0.11904749999999353
      },
      {
        "name": "B4",
        "midi": 71,
        "time": 81.60706124999962,
        "velocity": 0.7874015748031497,
        "duration": 0.11904749999999353
      },
      {
        "name": "B4",
        "midi": 71,
        "time": 81.78563249999961,
        "velocity": 0.7874015748031497,
        "duration": 0.11904749999999353
      },
      {
        "name": "B4",
        "midi": 71,
        "time": 81.9642037499996,
        "velocity": 0.7874015748031497,
        "duration": 0.11904749999999353
      },
      {
        "name": "B4",
        "midi": 71,
        "time": 82.14277499999959,
        "velocity": 0.7874015748031497,
        "duration": 0.23809500000000128
      },
      {
        "name": "G4",
        "midi": 67,
        "time": 82.49991749999958,
        "velocity": 0.7874015748031497,
        "duration": 0.23809500000000128
      },
      {
        "name": "B4",
        "midi": 71,
        "time": 82.85705999999958,
        "velocity": 0.7874015748031497,
        "duration": 0.23809500000000128
      },
      {
        "name": "G4",
        "midi": 67,
        "time": 83.21420249999957,
        "velocity": 0.7874015748031497,
        "duration": 0.11904749999999353
      },
      {
        "name": "B4",
        "midi": 71,
        "time": 83.39277374999958,
        "velocity": 0.7874015748031497,
        "duration": 0.23809500000000128
      },
      {
        "name": "G4",
        "midi": 67,
        "time": 83.74991624999957,
        "velocity": 0.7874015748031497,
        "duration": 0.11904749999999353
      },
      {
        "name": "G4",
        "midi": 67,
        "time": 83.92848749999956,
        "velocity": 0.7874015748031497,
        "duration": 0.11904749999999353
      },
      {
        "name": "C5",
        "midi": 72,
        "time": 84.10705874999955,
        "velocity": 0.7874015748031497,
        "duration": 0.11904749999999353
      },
      {
        "name": "C4",
        "midi": 60,
        "time": 84.28562999999954,
        "velocity": 0.7874015748031497,
        "duration": 0.47618999999998834
      },
      {
        "name": "G4",
        "midi": 67,
        "time": 84.28562999999954,
        "velocity": 0.7874015748031497,
        "duration": 0.23809500000000128
      },
      {
        "name": "A4",
        "midi": 69,
        "time": 84.64277249999954,
        "velocity": 0.7874015748031497,
        "duration": 0.11904749999999353
      },
      {
        "name": "G4",
        "midi": 67,
        "time": 84.82134374999953,
        "velocity": 0.7874015748031497,
        "duration": 0.11904749999999353
      },
      {
        "name": "E4",
        "midi": 64,
        "time": 84.99991499999952,
        "velocity": 0.7874015748031497,
        "duration": 0.23809500000000128
      },
      {
        "name": "G4",
        "midi": 67,
        "time": 84.99991499999952,
        "velocity": 0.7874015748031497,
        "duration": 0.23809500000000128
      },
      {
        "name": "E4",
        "midi": 64,
        "time": 85.35705749999951,
        "velocity": 0.7874015748031497,
        "duration": 0.23809500000000128
      },
      {
        "name": "D4",
        "midi": 62,
        "time": 85.71419999999951,
        "velocity": 0.7874015748031497,
        "duration": 0.9523799999999909
      },
      {
        "name": "B4",
        "midi": 71,
        "time": 85.71419999999951,
        "velocity": 0.7874015748031497,
        "duration": 0.23809500000000128
      },
      {
        "name": "B4",
        "midi": 71,
        "time": 86.0713424999995,
        "velocity": 0.7874015748031497,
        "duration": 0.23809500000000128
      },
      {
        "name": "A4",
        "midi": 69,
        "time": 86.4284849999995,
        "velocity": 0.7874015748031497,
        "duration": 0.23809500000000128
      },
      {
        "name": "G4",
        "midi": 67,
        "time": 86.78562749999949,
        "velocity": 0.7874015748031497,
        "duration": 0.23809500000000128
      },
      {
        "name": "A4",
        "midi": 69,
        "time": 87.14276999999949,
        "velocity": 0.7874015748031497,
        "duration": 0.23809500000000128
      },
      {
        "name": "B4",
        "midi": 71,
        "time": 87.49991249999948,
        "velocity": 0.7874015748031497,
        "duration": 0.23809500000000128
      },
      {
        "name": "A4",
        "midi": 69,
        "time": 87.85705499999948,
        "velocity": 0.7874015748031497,
        "duration": 0.11904749999999353
      },
      {
        "name": "G4",
        "midi": 67,
        "time": 88.03562624999947,
        "velocity": 0.7874015748031497,
        "duration": 0.11904749999999353
      },
      {
        "name": "E4",
        "midi": 64,
        "time": 88.21419749999946,
        "velocity": 0.7874015748031497,
        "duration": 0.23809500000000128
      },
      {
        "name": "B3",
        "midi": 59,
        "time": 89.28562499999946,
        "velocity": 0.7874015748031497,
        "duration": 0.47619000000000256
      },
      {
        "name": "D4",
        "midi": 62,
        "time": 89.28562499999946,
        "velocity": 0.7874015748031497,
        "duration": 0.47619000000000256
      },
      {
        "name": "D4",
        "midi": 62,
        "time": 89.99990999999946,
        "velocity": 0.7874015748031497,
        "duration": 0.9523800000000051
      },
      {
        "name": "B3",
        "midi": 59,
        "time": 89.99990999999946,
        "velocity": 0.7874015748031497,
        "duration": 0.9523800000000051
      },
      {
        "name": "G4",
        "midi": 67,
        "time": 90.71419499999946,
        "velocity": 0.7874015748031497,
        "duration": 0.23809500000000128
      },
      {
        "name": "G4",
        "midi": 67,
        "time": 91.07133749999946,
        "velocity": 0.7874015748031497,
        "duration": 0.23809500000000128
      },
      {
        "name": "B4",
        "midi": 71,
        "time": 91.42847999999945,
        "velocity": 0.7874015748031497,
        "duration": 0.23809500000000128
      },
      {
        "name": "D5",
        "midi": 74,
        "time": 91.78562249999945,
        "velocity": 0.7874015748031497,
        "duration": 0.23809500000000128
      },
      {
        "name": "D5",
        "midi": 74,
        "time": 92.14276499999944,
        "velocity": 0.7874015748031497,
        "duration": 0.11904749999999353
      },
      {
        "name": "E5",
        "midi": 76,
        "time": 92.32133624999943,
        "velocity": 0.7874015748031497,
        "duration": 0.23809500000000128
      },
      {
        "name": "B4",
        "midi": 71,
        "time": 92.67847874999943,
        "velocity": 0.7874015748031497,
        "duration": 0.23809500000000128
      },
      {
        "name": "A4",
        "midi": 69,
        "time": 93.03562124999942,
        "velocity": 0.7874015748031497,
        "duration": 0.7142850000000038
      },
      {
        "name": "D5",
        "midi": 74,
        "time": 94.10704874999942,
        "velocity": 0.7874015748031497,
        "duration": 0.1785712500000045
      },
      {
        "name": "C5",
        "midi": 72,
        "time": 94.28561999999943,
        "velocity": 0.7874015748031497,
        "duration": 0.23809500000000128
      },
      {
        "name": "D5",
        "midi": 74,
        "time": 94.64276249999942,
        "velocity": 0.7874015748031497,
        "duration": 0.23809500000000128
      },
      {
        "name": "A#4",
        "midi": 70,
        "time": 94.99990499999942,
        "velocity": 0.7874015748031497,
        "duration": 0.9523800000000051
      },
      {
        "name": "B4",
        "midi": 71,
        "time": 96.78561749999942,
        "velocity": 0.7874015748031497,
        "duration": 0.23809500000000128
      },
      {
        "name": "D5",
        "midi": 74,
        "time": 97.14275999999941,
        "velocity": 0.7874015748031497,
        "duration": 0.23809500000000128
      },
      {
        "name": "D4",
        "midi": 62,
        "time": 97.14275999999941,
        "velocity": 0.7874015748031497,
        "duration": 1.428569999999965
      },
      {
        "name": "D5",
        "midi": 74,
        "time": 97.49990249999941,
        "velocity": 0.7874015748031497,
        "duration": 0.11904749999999353
      },
      {
        "name": "B4",
        "midi": 71,
        "time": 97.6784737499994,
        "velocity": 0.7874015748031497,
        "duration": 0.23809500000000128
      },
      {
        "name": "A4",
        "midi": 69,
        "time": 98.03561624999939,
        "velocity": 0.7874015748031497,
        "duration": 0.11904749999999353
      },
      {
        "name": "G4",
        "midi": 67,
        "time": 98.21418749999938,
        "velocity": 0.7874015748031497,
        "duration": 0.23809500000000128
      },
      {
        "name": "F4",
        "midi": 65,
        "time": 98.57132999999938,
        "velocity": 0.7874015748031497,
        "duration": 0.23809500000000128
      },
      {
        "name": "A4",
        "midi": 69,
        "time": 98.57132999999938,
        "velocity": 0.7874015748031497,
        "duration": 0.23809500000000128
      },
      {
        "name": "A4",
        "midi": 69,
        "time": 99.28561499999938,
        "velocity": 0.7874015748031497,
        "duration": 0.11904749999999353
      },
      {
        "name": "D5",
        "midi": 74,
        "time": 99.46418624999937,
        "velocity": 0.7874015748031497,
        "duration": 0.11904749999999353
      },
      {
        "name": "A4",
        "midi": 69,
        "time": 99.64275749999936,
        "velocity": 0.7874015748031497,
        "duration": 0.11904749999999353
      },
      {
        "name": "F4",
        "midi": 65,
        "time": 99.82132874999935,
        "velocity": 0.7874015748031497,
        "duration": 0.11904749999999353
      },
      {
        "name": "C4",
        "midi": 60,
        "time": 100.35704249999935,
        "velocity": 0.7874015748031497,
        "duration": 0.11904749999999353
      },
      {
        "name": "D4",
        "midi": 62,
        "time": 100.53561374999934,
        "velocity": 0.7874015748031497,
        "duration": 0.11904749999999353
      },
      {
        "name": "F4",
        "midi": 65,
        "time": 100.71418499999933,
        "velocity": 0.7874015748031497,
        "duration": 0.23809500000000128
      },
      {
        "name": "A#4",
        "midi": 70,
        "time": 100.71418499999933,
        "velocity": 0.7874015748031497,
        "duration": 0.23809500000000128
      },
      {
        "name": "F4",
        "midi": 65,
        "time": 101.07132749999933,
        "velocity": 0.7874015748031497,
        "duration": 0.11904749999999353
      },
      {
        "name": "F4",
        "midi": 65,
        "time": 101.24989874999932,
        "velocity": 0.7874015748031497,
        "duration": 0.11904749999999353
      },
      {
        "name": "D4",
        "midi": 62,
        "time": 101.42846999999931,
        "velocity": 0.7874015748031497,
        "duration": 0.11904749999999353
      },
      {
        "name": "E4",
        "midi": 64,
        "time": 101.6070412499993,
        "velocity": 0.7874015748031497,
        "duration": 0.11904749999999353
      },
      {
        "name": "G4",
        "midi": 67,
        "time": 101.78561249999929,
        "velocity": 0.7874015748031497,
        "duration": 0.11904749999999353
      },
      {
        "name": "C5",
        "midi": 72,
        "time": 101.78561249999929,
        "velocity": 0.7874015748031497,
        "duration": 0.11904749999999353
      },
      {
        "name": "G4",
        "midi": 67,
        "time": 101.96418374999928,
        "velocity": 0.7874015748031497,
        "duration": 0.11904749999999353
      },
      {
        "name": "C5",
        "midi": 72,
        "time": 101.96418374999928,
        "velocity": 0.7874015748031497,
        "duration": 0.11904749999999353
      },
      {
        "name": "A#3",
        "midi": 58,
        "time": 102.14275499999927,
        "velocity": 0.7874015748031497,
        "duration": 0.23809500000000128
      },
      {
        "name": "G4",
        "midi": 67,
        "time": 102.49989749999926,
        "velocity": 0.7874015748031497,
        "duration": 0.23809500000000128
      },
      {
        "name": "G5",
        "midi": 79,
        "time": 102.85703999999926,
        "velocity": 0.7874015748031497,
        "duration": 0.7142850000000038
      },
      {
        "name": "G5",
        "midi": 79,
        "time": 103.39275374999926,
        "velocity": 0.7874015748031497,
        "duration": 0.23809500000000128
      },
      {
        "name": "F5",
        "midi": 77,
        "time": 103.92846749999926,
        "velocity": 0.7874015748031497,
        "duration": 0.47618999999998834
      },
      {
        "name": "C5",
        "midi": 72,
        "time": 104.28560999999925,
        "velocity": 0.7874015748031497,
        "duration": 0.11904749999999353
      },
      {
        "name": "C5",
        "midi": 72,
        "time": 104.46418124999924,
        "velocity": 0.7874015748031497,
        "duration": 0.47619000000000256
      },
      {
        "name": "A#4",
        "midi": 70,
        "time": 105.53560874999924,
        "velocity": 0.7874015748031497,
        "duration": 0.11904749999999353
      },
      {
        "name": "G4",
        "midi": 67,
        "time": 105.71417999999923,
        "velocity": 0.7874015748031497,
        "duration": 0.15624984375000395
      },
      {
        "name": "C5",
        "midi": 72,
        "time": 105.95227499999923,
        "velocity": 0.7874015748031497,
        "duration": 0.15624984375000395
      },
      {
        "name": "A#4",
        "midi": 70,
        "time": 106.19036999999923,
        "velocity": 0.7874015748031497,
        "duration": 0.15624984375000395
      },
      {
        "name": "D5",
        "midi": 74,
        "time": 106.42846499999924,
        "velocity": 0.7874015748031497,
        "duration": 0.07440468750000662
      },
      {
        "name": "C5",
        "midi": 72,
        "time": 106.54751249999924,
        "velocity": 0.7874015748031497,
        "duration": 0.07440468750000662
      },
      {
        "name": "C5",
        "midi": 72,
        "time": 106.66655999999925,
        "velocity": 0.7874015748031497,
        "duration": 0.07440468750000662
      },
      {
        "name": "A#4",
        "midi": 70,
        "time": 106.78560749999926,
        "velocity": 0.7874015748031497,
        "duration": 0.07440468750000662
      },
      {
        "name": "G4",
        "midi": 67,
        "time": 106.90465499999927,
        "velocity": 0.7874015748031497,
        "duration": 0.07440468750000662
      },
      {
        "name": "A#4",
        "midi": 70,
        "time": 107.14274999999927,
        "velocity": 0.7874015748031497,
        "duration": 0.07440468750000662
      },
      {
        "name": "C5",
        "midi": 72,
        "time": 107.26179749999928,
        "velocity": 0.7874015748031497,
        "duration": 0.07440468750000662
      },
      {
        "name": "A#4",
        "midi": 70,
        "time": 107.38084499999928,
        "velocity": 0.7874015748031497,
        "duration": 0.07440468750000662
      },
      {
        "name": "C5",
        "midi": 72,
        "time": 107.49989249999929,
        "velocity": 0.7874015748031497,
        "duration": 0.07440468750000662
      },
      {
        "name": "D5",
        "midi": 74,
        "time": 107.6189399999993,
        "velocity": 0.7874015748031497,
        "duration": 0.07440468750000662
      },
      {
        "name": "C5",
        "midi": 72,
        "time": 107.8570349999993,
        "velocity": 0.7874015748031497,
        "duration": 0.11904749999999353
      },
      {
        "name": "D5",
        "midi": 74,
        "time": 108.03560624999929,
        "velocity": 0.7874015748031497,
        "duration": 0.11904749999999353
      },
      {
        "name": "F5",
        "midi": 77,
        "time": 108.21417749999928,
        "velocity": 0.7874015748031497,
        "duration": 0.11904749999999353
      },
      {
        "name": "G5",
        "midi": 79,
        "time": 108.39274874999927,
        "velocity": 0.7874015748031497,
        "duration": 0.11904749999999353
      },
      {
        "name": "G5",
        "midi": 79,
        "time": 108.57131999999926,
        "velocity": 0.7874015748031497,
        "duration": 0.23809500000000128
      },
      {
        "name": "F5",
        "midi": 77,
        "time": 108.92846249999926,
        "velocity": 0.7874015748031497,
        "duration": 0.11904749999999353
      },
      {
        "name": "F5",
        "midi": 77,
        "time": 109.10703374999925,
        "velocity": 0.7874015748031497,
        "duration": 0.11904749999999353
      },
      {
        "name": "F5",
        "midi": 77,
        "time": 109.28560499999924,
        "velocity": 0.7874015748031497,
        "duration": 0.11904749999999353
      },
      {
        "name": "G5",
        "midi": 79,
        "time": 109.46417624999923,
        "velocity": 0.7874015748031497,
        "duration": 0.23809500000000128
      },
      {
        "name": "D5",
        "midi": 74,
        "time": 109.82131874999922,
        "velocity": 0.7874015748031497,
        "duration": 0.11904749999999353
      },
      {
        "name": "C#5",
        "midi": 73,
        "time": 109.99988999999921,
        "velocity": 0.7874015748031497,
        "duration": 0.7142850000000038
      },
      {
        "name": "B4",
        "midi": 71,
        "time": 111.07131749999921,
        "velocity": 0.7874015748031497,
        "duration": 0.23809500000000128
      },
      {
        "name": "G5",
        "midi": 79,
        "time": 111.4284599999992,
        "velocity": 0.7874015748031497,
        "duration": 0.23809500000000128
      },
      {
        "name": "G5",
        "midi": 79,
        "time": 111.7856024999992,
        "velocity": 0.7874015748031497,
        "duration": 0.11904749999999353
      },
      {
        "name": "G5",
        "midi": 79,
        "time": 111.96417374999919,
        "velocity": 0.7874015748031497,
        "duration": 0.11904749999999353
      },
      {
        "name": "A5",
        "midi": 81,
        "time": 112.14274499999918,
        "velocity": 0.7874015748031497,
        "duration": 0.07440468750000662
      },
      {
        "name": "B5",
        "midi": 83,
        "time": 112.26179249999919,
        "velocity": 0.7874015748031497,
        "duration": 0.07440468750000662
      },
      {
        "name": "A5",
        "midi": 81,
        "time": 112.3808399999992,
        "velocity": 0.7874015748031497,
        "duration": 0.07440468750000662
      },
      {
        "name": "B5",
        "midi": 83,
        "time": 112.4998874999992,
        "velocity": 0.7874015748031497,
        "duration": 0.15624984375000395
      },
      {
        "name": "B5",
        "midi": 83,
        "time": 112.85702999999921,
        "velocity": 0.7874015748031497,
        "duration": 0.15624984375000395
      },
      {
        "name": "D6",
        "midi": 86,
        "time": 113.09512499999921,
        "velocity": 0.7874015748031497,
        "duration": 0.15624984374998974
      },
      {
        "name": "E6",
        "midi": 88,
        "time": 113.21417249999921,
        "velocity": 0.7874015748031497,
        "duration": 0.15624984374998974
      },
      {
        "name": "D6",
        "midi": 86,
        "time": 113.5713149999992,
        "velocity": 0.7874015748031497,
        "duration": 0.11904749999999353
      },
      {
        "name": "A4",
        "midi": 69,
        "time": 113.7498862499992,
        "velocity": 0.7874015748031497,
        "duration": 0.11904749999999353
      },
      {
        "name": "B4",
        "midi": 71,
        "time": 113.92845749999918,
        "velocity": 0.7874015748031497,
        "duration": 0.23809500000000128
      },
      {
        "name": "C4",
        "midi": 60,
        "time": 114.28559999999918,
        "velocity": 0.7874015748031497,
        "duration": 1.9122004687499299
      },
      {
        "name": "A4",
        "midi": 69,
        "time": 114.28559999999918,
        "velocity": 0.7874015748031497,
        "duration": 0.23809500000000128
      },
      {
        "name": "A4",
        "midi": 69,
        "time": 114.64274249999917,
        "velocity": 0.7874015748031497,
        "duration": 0.11904749999999353
      },
      {
        "name": "G4",
        "midi": 67,
        "time": 114.82131374999916,
        "velocity": 0.7874015748031497,
        "duration": 0.11904749999999353
      },
      {
        "name": "A4",
        "midi": 69,
        "time": 114.99988499999915,
        "velocity": 0.7874015748031497,
        "duration": 0.11904749999999353
      },
      {
        "name": "G4",
        "midi": 67,
        "time": 115.17845624999914,
        "velocity": 0.7874015748031497,
        "duration": 0.11904749999999353
      },
      {
        "name": "A4",
        "midi": 69,
        "time": 115.35702749999913,
        "velocity": 0.7874015748031497,
        "duration": 0.23809500000000128
      },
      {
        "name": "A4",
        "midi": 69,
        "time": 115.71416999999913,
        "velocity": 0.7874015748031497,
        "duration": 0.11904749999999353
      },
      {
        "name": "A4",
        "midi": 69,
        "time": 115.89274124999912,
        "velocity": 0.7874015748031497,
        "duration": 0.11904749999999353
      },
      {
        "name": "G4",
        "midi": 67,
        "time": 116.07131249999911,
        "velocity": 0.7874015748031497,
        "duration": 0.11904749999999353
      },
      {
        "name": "A4",
        "midi": 69,
        "time": 116.24988374999911,
        "velocity": 0.7874015748031497,
        "duration": 0.47619000000000256
      },
      {
        "name": "G4",
        "midi": 67,
        "time": 116.78559749999911,
        "velocity": 0.7874015748031497,
        "duration": 0.11904749999999353
      },
      {
        "name": "G4",
        "midi": 67,
        "time": 116.9641687499991,
        "velocity": 0.7874015748031497,
        "duration": 0.11904749999999353
      },
      {
        "name": "C4",
        "midi": 60,
        "time": 117.1427399999991,
        "velocity": 0.7874015748031497,
        "duration": 1.912200468749944
      },
      {
        "name": "A4",
        "midi": 69,
        "time": 117.1427399999991,
        "velocity": 0.7874015748031497,
        "duration": 0.11904749999999353
      },
      {
        "name": "G4",
        "midi": 67,
        "time": 117.32131124999908,
        "velocity": 0.7874015748031497,
        "duration": 0.11904749999999353
      },
      {
        "name": "A4",
        "midi": 69,
        "time": 117.49988249999907,
        "velocity": 0.7874015748031497,
        "duration": 0.23809500000000128
      },
      {
        "name": "A4",
        "midi": 69,
        "time": 118.21416749999908,
        "velocity": 0.7874015748031497,
        "duration": 0.11904749999999353
      },
      {
        "name": "G4",
        "midi": 67,
        "time": 118.39273874999907,
        "velocity": 0.7874015748031497,
        "duration": 0.11904749999999353
      },
      {
        "name": "A4",
        "midi": 69,
        "time": 118.57130999999906,
        "velocity": 0.7874015748031497,
        "duration": 0.11904749999999353
      },
      {
        "name": "G4",
        "midi": 67,
        "time": 118.74988124999905,
        "velocity": 0.7874015748031497,
        "duration": 0.11904749999999353
      },
      {
        "name": "A4",
        "midi": 69,
        "time": 118.92845249999904,
        "velocity": 0.7874015748031497,
        "duration": 0.23809500000000128
      },
      {
        "name": "G4",
        "midi": 67,
        "time": 119.82130874999905,
        "velocity": 0.7874015748031497,
        "duration": 0.11904749999999353
      },
      {
        "name": "D4",
        "midi": 62,
        "time": 119.99987999999904,
        "velocity": 0.7874015748031497,
        "duration": 1.9122004687499583
      },
      {
        "name": "B4",
        "midi": 71,
        "time": 119.99987999999904,
        "velocity": 0.7874015748031497,
        "duration": 0.11904749999999353
      },
      {
        "name": "B4",
        "midi": 71,
        "time": 120.17845124999903,
        "velocity": 0.7874015748031497,
        "duration": 0.11904749999999353
      },
      {
        "name": "B4",
        "midi": 71,
        "time": 120.35702249999902,
        "velocity": 0.7874015748031497,
        "duration": 0.23809500000000128
      },
      {
        "name": "B4",
        "midi": 71,
        "time": 120.89273624999902,
        "velocity": 0.7874015748031497,
        "duration": 0.23809500000000128
      },
      {
        "name": "A4",
        "midi": 69,
        "time": 121.24987874999901,
        "velocity": 0.7874015748031497,
        "duration": 0.11904749999999353
      },
      {
        "name": "G4",
        "midi": 67,
        "time": 121.428449999999,
        "velocity": 0.7874015748031497,
        "duration": 0.7142849999999896
      },
      {
        "name": "E4",
        "midi": 64,
        "time": 121.964163749999,
        "velocity": 0.7874015748031497,
        "duration": 0.11904749999999353
      },
      {
        "name": "G4",
        "midi": 67,
        "time": 122.14273499999899,
        "velocity": 0.7874015748031497,
        "duration": 0.23809500000000128
      },
      {
        "name": "E4",
        "midi": 64,
        "time": 122.49987749999899,
        "velocity": 0.7874015748031497,
        "duration": 0.23809500000000128
      },
      {
        "name": "B4",
        "midi": 71,
        "time": 122.85701999999898,
        "velocity": 0.7874015748031497,
        "duration": 0.11904749999999353
      },
      {
        "name": "C4",
        "midi": 60,
        "time": 122.85701999999898,
        "velocity": 0.7874015748031497,
        "duration": 0.47618999999997413
      },
      {
        "name": "F4",
        "midi": 65,
        "time": 123.03559124999897,
        "velocity": 0.7874015748031497,
        "duration": 0.11904749999999353
      },
      {
        "name": "G4",
        "midi": 67,
        "time": 123.21416249999896,
        "velocity": 0.7874015748031497,
        "duration": 0.11904749999999353
      },
      {
        "name": "E4",
        "midi": 64,
        "time": 123.39273374999895,
        "velocity": 0.7874015748031497,
        "duration": 0.11904749999999353
      },
      {
        "name": "E4",
        "midi": 64,
        "time": 123.57130499999894,
        "velocity": 0.7874015748031497,
        "duration": 0.11904749999999353
      },
      {
        "name": "G4",
        "midi": 67,
        "time": 123.57130499999894,
        "velocity": 0.7874015748031497,
        "duration": 0.11904749999999353
      },
      {
        "name": "G4",
        "midi": 67,
        "time": 123.74987624999893,
        "velocity": 0.7874015748031497,
        "duration": 0.11904749999999353
      },
      {
        "name": "G4",
        "midi": 67,
        "time": 123.92844749999892,
        "velocity": 0.7874015748031497,
        "duration": 0.23809500000000128
      },
      {
        "name": "D4",
        "midi": 62,
        "time": 124.28558999999892,
        "velocity": 0.7874015748031497,
        "duration": 0.9523800000000051
      },
      {
        "name": "B4",
        "midi": 71,
        "time": 124.28558999999892,
        "velocity": 0.7874015748031497,
        "duration": 0.9523800000000051
      },
      {
        "name": "C4",
        "midi": 60,
        "time": 125.71415999999893,
        "velocity": 0.7874015748031497,
        "duration": 0.11904749999999353
      },
      {
        "name": "D4",
        "midi": 62,
        "time": 125.89273124999892,
        "velocity": 0.7874015748031497,
        "duration": 0.11904749999999353
      },
      {
        "name": "F4",
        "midi": 65,
        "time": 126.07130249999891,
        "velocity": 0.7874015748031497,
        "duration": 0.11904749999999353
      },
      {
        "name": "F4",
        "midi": 65,
        "time": 126.2498737499989,
        "velocity": 0.7874015748031497,
        "duration": 0.11904749999999353
      },
      {
        "name": "C4",
        "midi": 60,
        "time": 126.42844499999889,
        "velocity": 0.7874015748031497,
        "duration": 0.11904749999999353
      },
      {
        "name": "D4",
        "midi": 62,
        "time": 126.60701624999888,
        "velocity": 0.7874015748031497,
        "duration": 0.11904749999999353
      },
      {
        "name": "F4",
        "midi": 65,
        "time": 126.78558749999887,
        "velocity": 0.7874015748031497,
        "duration": 0.23809500000000128
      },
      {
        "name": "D4",
        "midi": 62,
        "time": 127.85701499999887,
        "velocity": 0.7874015748031497,
        "duration": 0.9523799999999909
      },
      {
        "name": "G4",
        "midi": 67,
        "time": 127.85701499999887,
        "velocity": 0.7874015748031497,
        "duration": 0.9523799999999909
      },
      {
        "name": "B4",
        "midi": 71,
        "time": 127.85701499999887,
        "velocity": 0.7874015748031497,
        "duration": 0.9523799999999909
      },
      {
        "name": "B4",
        "midi": 71,
        "time": 129.46415624999887,
        "velocity": 0.7874015748031497,
        "duration": 0.11904749999999353
      },
      {
        "name": "D5",
        "midi": 74,
        "time": 129.64272749999887,
        "velocity": 0.7874015748031497,
        "duration": 0.23809499999998707
      },
      {
        "name": "C4",
        "midi": 60,
        "time": 129.99986999999885,
        "velocity": 0.7874015748031497,
        "duration": 1.912200468749944
      },
      {
        "name": "B4",
        "midi": 71,
        "time": 129.99986999999885,
        "velocity": 0.7874015748031497,
        "duration": 0.11904749999999353
      },
      {
        "name": "A4",
        "midi": 69,
        "time": 130.17844124999885,
        "velocity": 0.7874015748031497,
        "duration": 0.11904749999999353
      },
      {
        "name": "A4",
        "midi": 69,
        "time": 130.35701249999886,
        "velocity": 0.7874015748031497,
        "duration": 0.23809499999998707
      },
      {
        "name": "A4",
        "midi": 69,
        "time": 130.71415499999884,
        "velocity": 0.7874015748031497,
        "duration": 0.23809499999998707
      },
      {
        "name": "G4",
        "midi": 67,
        "time": 131.07129749999882,
        "velocity": 0.7874015748031497,
        "duration": 0.11904749999999353
      },
      {
        "name": "A4",
        "midi": 69,
        "time": 131.24986874999883,
        "velocity": 0.7874015748031497,
        "duration": 0.23809499999998707
      },
      {
        "name": "G4",
        "midi": 67,
        "time": 131.6070112499988,
        "velocity": 0.7874015748031497,
        "duration": 0.23809499999998707
      },
      {
        "name": "B4",
        "midi": 71,
        "time": 131.9641537499988,
        "velocity": 0.7874015748031497,
        "duration": 0.23809499999998707
      },
      {
        "name": "G4",
        "midi": 67,
        "time": 132.67843874999878,
        "velocity": 0.7874015748031497,
        "duration": 0.11904749999999353
      },
      {
        "name": "C4",
        "midi": 60,
        "time": 132.85700999999878,
        "velocity": 0.7874015748031497,
        "duration": 1.912200468750001
      },
      {
        "name": "A4",
        "midi": 69,
        "time": 132.85700999999878,
        "velocity": 0.7874015748031497,
        "duration": 0.11904749999999353
      },
      {
        "name": "A4",
        "midi": 69,
        "time": 133.03558124999878,
        "velocity": 0.7874015748031497,
        "duration": 0.11904749999999353
      },
      {
        "name": "A4",
        "midi": 69,
        "time": 133.2141524999988,
        "velocity": 0.7874015748031497,
        "duration": 0.11904749999999353
      },
      {
        "name": "A4",
        "midi": 69,
        "time": 133.3927237499988,
        "velocity": 0.7874015748031497,
        "duration": 0.11904749999999353
      },
      {
        "name": "A4",
        "midi": 69,
        "time": 133.5712949999988,
        "velocity": 0.7874015748031497,
        "duration": 0.23809499999998707
      },
      {
        "name": "A4",
        "midi": 69,
        "time": 133.92843749999878,
        "velocity": 0.7874015748031497,
        "duration": 0.23809499999998707
      },
      {
        "name": "A4",
        "midi": 69,
        "time": 134.28557999999876,
        "velocity": 0.7874015748031497,
        "duration": 0.11904749999999353
      },
      {
        "name": "G4",
        "midi": 67,
        "time": 134.46415124999876,
        "velocity": 0.7874015748031497,
        "duration": 0.11904749999999353
      },
      {
        "name": "A4",
        "midi": 69,
        "time": 134.64272249999877,
        "velocity": 0.7874015748031497,
        "duration": 0.2380950000000155
      },
      {
        "name": "A4",
        "midi": 69,
        "time": 134.99986499999878,
        "velocity": 0.7874015748031497,
        "duration": 0.714285000000018
      },
      {
        "name": "G4",
        "midi": 67,
        "time": 135.5355787499988,
        "velocity": 0.7874015748031497,
        "duration": 0.11904749999999353
      },
      {
        "name": "D4",
        "midi": 62,
        "time": 135.7141499999988,
        "velocity": 0.7874015748031497,
        "duration": 1.912200468749944
      },
      {
        "name": "B4",
        "midi": 71,
        "time": 135.7141499999988,
        "velocity": 0.7874015748031497,
        "duration": 0.11904749999999353
      },
      {
        "name": "B4",
        "midi": 71,
        "time": 135.8927212499988,
        "velocity": 0.7874015748031497,
        "duration": 0.11904749999999353
      },
      {
        "name": "B4",
        "midi": 71,
        "time": 136.0712924999988,
        "velocity": 0.7874015748031497,
        "duration": 0.11904749999999353
      },
      {
        "name": "B4",
        "midi": 71,
        "time": 136.2498637499988,
        "velocity": 0.7874015748031497,
        "duration": 0.11904749999999353
      },
      {
        "name": "B4",
        "midi": 71,
        "time": 136.4284349999988,
        "velocity": 0.7874015748031497,
        "duration": 0.23809499999998707
      },
      {
        "name": "G4",
        "midi": 67,
        "time": 136.7855774999988,
        "velocity": 0.7874015748031497,
        "duration": 0.23809499999998707
      },
      {
        "name": "B4",
        "midi": 71,
        "time": 137.14271999999877,
        "velocity": 0.7874015748031497,
        "duration": 0.23809499999998707
      },
      {
        "name": "G4",
        "midi": 67,
        "time": 137.49986249999876,
        "velocity": 0.7874015748031497,
        "duration": 0.11904749999999353
      },
      {
        "name": "B4",
        "midi": 71,
        "time": 137.67843374999873,
        "velocity": 0.7874015748031497,
        "duration": 0.23809499999998707
      },
      {
        "name": "G4",
        "midi": 67,
        "time": 138.0355762499987,
        "velocity": 0.7874015748031497,
        "duration": 0.11904749999999353
      },
      {
        "name": "G4",
        "midi": 67,
        "time": 138.21414749999872,
        "velocity": 0.7874015748031497,
        "duration": 0.11904749999999353
      },
      {
        "name": "C5",
        "midi": 72,
        "time": 138.39271874999872,
        "velocity": 0.7874015748031497,
        "duration": 0.11904749999999353
      },
      {
        "name": "C4",
        "midi": 60,
        "time": 138.57128999999873,
        "velocity": 0.7874015748031497,
        "duration": 0.47618999999997413
      },
      {
        "name": "G4",
        "midi": 67,
        "time": 138.57128999999873,
        "velocity": 0.7874015748031497,
        "duration": 0.23809499999998707
      },
      {
        "name": "A4",
        "midi": 69,
        "time": 138.9284324999987,
        "velocity": 0.7874015748031497,
        "duration": 0.11904749999999353
      },
      {
        "name": "G4",
        "midi": 67,
        "time": 139.1070037499987,
        "velocity": 0.7874015748031497,
        "duration": 0.11904749999999353
      },
      {
        "name": "E4",
        "midi": 64,
        "time": 139.28557499999872,
        "velocity": 0.7874015748031497,
        "duration": 0.23809499999998707
      },
      {
        "name": "G4",
        "midi": 67,
        "time": 139.28557499999872,
        "velocity": 0.7874015748031497,
        "duration": 0.23809499999998707
      },
      {
        "name": "E4",
        "midi": 64,
        "time": 139.6427174999987,
        "velocity": 0.7874015748031497,
        "duration": 0.23809499999998707
      },
      {
        "name": "D4",
        "midi": 62,
        "time": 139.99985999999868,
        "velocity": 0.7874015748031497,
        "duration": 0.952380000000062
      },
      {
        "name": "B4",
        "midi": 71,
        "time": 139.99985999999868,
        "velocity": 0.7874015748031497,
        "duration": 0.2380950000000155
      },
      {
        "name": "G4",
        "midi": 67,
        "time": 140.17843124999868,
        "velocity": 0.7874015748031497,
        "duration": 0.2380950000000155
      },
      {
        "name": "B4",
        "midi": 71,
        "time": 140.5355737499987,
        "velocity": 0.7874015748031497,
        "duration": 0.2380950000000155
      },
      {
        "name": "G4",
        "midi": 67,
        "time": 140.7141449999987,
        "velocity": 0.7874015748031497,
        "duration": 0.11904750000002196
      },
      {
        "name": "B4",
        "midi": 71,
        "time": 140.89271624999873,
        "velocity": 0.7874015748031497,
        "duration": 0.714285000000018
      },
      {
        "name": "D4",
        "midi": 62,
        "time": 141.42842999999874,
        "velocity": 0.7874015748031497,
        "duration": 0.9523800000000051
      },
      {
        "name": "B3",
        "midi": 59,
        "time": 141.42842999999874,
        "velocity": 0.7874015748031497,
        "duration": 0.9523800000000051
      },
      {
        "name": "D4",
        "midi": 62,
        "time": 142.85699999999875,
        "velocity": 0.7874015748031497,
        "duration": 0.23809499999998707
      },
      {
        "name": "G3",
        "midi": 55,
        "time": 142.85699999999875,
        "velocity": 0.7874015748031497,
        "duration": 0.23809499999998707
      },
      {
        "name": "C4",
        "midi": 60,
        "time": 143.21414249999873,
        "velocity": 0.7874015748031497,
        "duration": 0.11904749999999353
      },
      {
        "name": "G3",
        "midi": 55,
        "time": 143.39271374999873,
        "velocity": 0.7874015748031497,
        "duration": 0.11904749999999353
      },
      {
        "name": "G3",
        "midi": 55,
        "time": 143.57128499999874,
        "velocity": 0.7874015748031497,
        "duration": 0.47619000000000256
      },
      {
        "name": "D4",
        "midi": 62,
        "time": 143.57128499999874,
        "velocity": 0.7874015748031497,
        "duration": 0.47619000000000256
      },
      {
        "name": "G3",
        "midi": 55,
        "time": 144.28556999999873,
        "velocity": 0.7874015748031497,
        "duration": 1.4285700000000077
      },
      {
        "name": "G4",
        "midi": 67,
        "time": 144.28556999999873,
        "velocity": 0.7874015748031497,
        "duration": 1.4285700000000077
      },
      {
        "name": "D4",
        "midi": 62,
        "time": 144.28556999999873,
        "velocity": 0.7874015748031497,
        "duration": 1.4285700000000077
      },
      {
        "name": "G3",
        "midi": 55,
        "time": 146.42842499999873,
        "velocity": 0.7874015748031497,
        "duration": 0.23809499999998707
      },
      {
        "name": "G3",
        "midi": 55,
        "time": 146.7855674999987,
        "velocity": 0.7874015748031497,
        "duration": 0.23809499999998707
      },
      {
        "name": "B3",
        "midi": 59,
        "time": 147.1427099999987,
        "velocity": 0.7874015748031497,
        "duration": 0.23809499999998707
      },
      {
        "name": "D4",
        "midi": 62,
        "time": 147.49985249999867,
        "velocity": 0.7874015748031497,
        "duration": 0.23809499999998707
      },
      {
        "name": "A3",
        "midi": 57,
        "time": 147.85699499999865,
        "velocity": 0.7874015748031497,
        "duration": 0.11904749999999353
      },
      {
        "name": "B3",
        "midi": 59,
        "time": 148.03556624999865,
        "velocity": 0.7874015748031497,
        "duration": 0.11904749999999353
      },
      {
        "name": "A4",
        "midi": 69,
        "time": 148.21413749999866,
        "velocity": 0.7874015748031497,
        "duration": 0.11904749999999353
      },
      {
        "name": "F#4",
        "midi": 66,
        "time": 148.39270874999866,
        "velocity": 0.7874015748031497,
        "duration": 0.11904749999999353
      },
      {
        "name": "D4",
        "midi": 62,
        "time": 148.57127999999867,
        "velocity": 0.7874015748031497,
        "duration": 0.23809499999998707
      },
      {
        "name": "D4",
        "midi": 62,
        "time": 148.92842249999865,
        "velocity": 0.7874015748031497,
        "duration": 0.23809499999998707
      },
      {
        "name": "D4",
        "midi": 62,
        "time": 149.28556499999863,
        "velocity": 0.7874015748031497,
        "duration": 0.11904749999999353
      },
      {
        "name": "F#4",
        "midi": 66,
        "time": 149.28556499999863,
        "velocity": 0.7874015748031497,
        "duration": 0.11904749999999353
      },
      {
        "name": "F#4",
        "midi": 66,
        "time": 149.46413624999863,
        "velocity": 0.7874015748031497,
        "duration": 0.47619000000000256
      },
      {
        "name": "D4",
        "midi": 62,
        "time": 149.46413624999863,
        "velocity": 0.7874015748031497,
        "duration": 0.47619000000000256
      },
      {
        "name": "A3",
        "midi": 57,
        "time": 149.99984999999864,
        "velocity": 0.7874015748031497,
        "duration": 0.23809499999998707
      },
      {
        "name": "C4",
        "midi": 60,
        "time": 150.35699249999863,
        "velocity": 0.7874015748031497,
        "duration": 0.23809499999998707
      },
      {
        "name": "C4",
        "midi": 60,
        "time": 150.7141349999986,
        "velocity": 0.7874015748031497,
        "duration": 0.2380950000000155
      },
      {
        "name": "E4",
        "midi": 64,
        "time": 150.8927062499986,
        "velocity": 0.7874015748031497,
        "duration": 0.11904750000002196
      },
      {
        "name": "C4",
        "midi": 60,
        "time": 150.8927062499986,
        "velocity": 0.7874015748031497,
        "duration": 0.11904750000002196
      },
      {
        "name": "A#3",
        "midi": 58,
        "time": 151.07127749999864,
        "velocity": 0.7874015748031497,
        "duration": 0.11904749999999353
      },
      {
        "name": "G4",
        "midi": 67,
        "time": 151.24984874999865,
        "velocity": 0.7874015748031497,
        "duration": 0.11904749999999353
      },
      {
        "name": "A#3",
        "midi": 58,
        "time": 151.42841999999865,
        "velocity": 0.7874015748031497,
        "duration": 0.11904749999999353
      },
      {
        "name": "F4",
        "midi": 65,
        "time": 151.60699124999866,
        "velocity": 0.7874015748031497,
        "duration": 0.11904749999999353
      },
      {
        "name": "F4",
        "midi": 65,
        "time": 151.78556249999866,
        "velocity": 0.7874015748031497,
        "duration": 0.23809499999998707
      },
      {
        "name": "G4",
        "midi": 67,
        "time": 151.78556249999866,
        "velocity": 0.7874015748031497,
        "duration": 0.23809499999998707
      },
      {
        "name": "A3",
        "midi": 57,
        "time": 152.32127624999865,
        "velocity": 0.7874015748031497,
        "duration": 0.11904749999999353
      },
      {
        "name": "F4",
        "midi": 65,
        "time": 152.49984749999865,
        "velocity": 0.7874015748031497,
        "duration": 0.11904749999999353
      },
      {
        "name": "F4",
        "midi": 65,
        "time": 152.67841874999866,
        "velocity": 0.7874015748031497,
        "duration": 0.11904749999999353
      },
      {
        "name": "C4",
        "midi": 60,
        "time": 153.57127499999865,
        "velocity": 0.7874015748031497,
        "duration": 0.11904749999999353
      },
      {
        "name": "F#4",
        "midi": 66,
        "time": 153.57127499999865,
        "velocity": 0.7874015748031497,
        "duration": 0.11904749999999353
      },
      {
        "name": "D4",
        "midi": 62,
        "time": 153.74984624999865,
        "velocity": 0.7874015748031497,
        "duration": 0.11904749999999353
      },
      {
        "name": "F4",
        "midi": 65,
        "time": 153.92841749999866,
        "velocity": 0.7874015748031497,
        "duration": 0.11904749999999353
      },
      {
        "name": "A#4",
        "midi": 70,
        "time": 153.92841749999866,
        "velocity": 0.7874015748031497,
        "duration": 0.11904749999999353
      },
      {
        "name": "A#4",
        "midi": 70,
        "time": 154.10698874999866,
        "velocity": 0.7874015748031497,
        "duration": 0.11904749999999353
      },
      {
        "name": "F4",
        "midi": 65,
        "time": 154.10698874999866,
        "velocity": 0.7874015748031497,
        "duration": 0.11904749999999353
      },
      {
        "name": "D4",
        "midi": 62,
        "time": 154.28555999999867,
        "velocity": 0.7874015748031497,
        "duration": 0.11904749999999353
      },
      {
        "name": "E4",
        "midi": 64,
        "time": 154.46413124999867,
        "velocity": 0.7874015748031497,
        "duration": 0.11904749999999353
      },
      {
        "name": "G4",
        "midi": 67,
        "time": 154.64270249999868,
        "velocity": 0.7874015748031497,
        "duration": 0.11904749999999353
      },
      {
        "name": "C5",
        "midi": 72,
        "time": 154.64270249999868,
        "velocity": 0.7874015748031497,
        "duration": 0.11904749999999353
      },
      {
        "name": "C5",
        "midi": 72,
        "time": 154.82127374999868,
        "velocity": 0.7874015748031497,
        "duration": 0.11904749999999353
      },
      {
        "name": "G4",
        "midi": 67,
        "time": 154.82127374999868,
        "velocity": 0.7874015748031497,
        "duration": 0.11904749999999353
      },
      {
        "name": "A#3",
        "midi": 58,
        "time": 154.9998449999987,
        "velocity": 0.7874015748031497,
        "duration": 0.11904749999999353
      },
      {
        "name": "A#3",
        "midi": 58,
        "time": 155.1784162499987,
        "velocity": 0.7874015748031497,
        "duration": 0.11904749999999353
      },
      {
        "name": "G4",
        "midi": 67,
        "time": 155.3569874999987,
        "velocity": 0.7874015748031497,
        "duration": 0.11904749999999353
      },
      {
        "name": "F4",
        "midi": 65,
        "time": 155.5355587499987,
        "velocity": 0.7874015748031497,
        "duration": 0.11904749999999353
      },
      {
        "name": "D4",
        "midi": 62,
        "time": 156.07127249999868,
        "velocity": 0.7874015748031497,
        "duration": 0.23809499999998707
      },
      {
        "name": "G4",
        "midi": 67,
        "time": 156.07127249999868,
        "velocity": 0.7874015748031497,
        "duration": 0.23809499999998707
      },
      {
        "name": "C4",
        "midi": 60,
        "time": 156.42841499999867,
        "velocity": 0.7874015748031497,
        "duration": 0.11904749999999353
      },
      {
        "name": "D4",
        "midi": 62,
        "time": 156.60698624999867,
        "velocity": 0.7874015748031497,
        "duration": 0.11904749999999353
      },
      {
        "name": "F4",
        "midi": 65,
        "time": 156.78555749999867,
        "velocity": 0.7874015748031497,
        "duration": 0.11904749999999353
      },
      {
        "name": "A#4",
        "midi": 70,
        "time": 156.78555749999867,
        "velocity": 0.7874015748031497,
        "duration": 0.11904749999999353
      },
      {
        "name": "A#4",
        "midi": 70,
        "time": 156.96412874999868,
        "velocity": 0.7874015748031497,
        "duration": 0.11904749999999353
      },
      {
        "name": "F4",
        "midi": 65,
        "time": 156.96412874999868,
        "velocity": 0.7874015748031497,
        "duration": 0.11904749999999353
      },
      {
        "name": "D#4",
        "midi": 63,
        "time": 157.14269999999868,
        "velocity": 0.7874015748031497,
        "duration": 0.11904749999999353
      },
      {
        "name": "E4",
        "midi": 64,
        "time": 157.3212712499987,
        "velocity": 0.7874015748031497,
        "duration": 0.11904749999999353
      },
      {
        "name": "G4",
        "midi": 67,
        "time": 157.4998424999987,
        "velocity": 0.7874015748031497,
        "duration": 0.11904749999999353
      },
      {
        "name": "C5",
        "midi": 72,
        "time": 157.4998424999987,
        "velocity": 0.7874015748031497,
        "duration": 0.11904749999999353
      },
      {
        "name": "G4",
        "midi": 67,
        "time": 157.6784137499987,
        "velocity": 0.7874015748031497,
        "duration": 0.11904749999999353
      },
      {
        "name": "C5",
        "midi": 72,
        "time": 157.6784137499987,
        "velocity": 0.7874015748031497,
        "duration": 0.11904749999999353
      },
      {
        "name": "A#3",
        "midi": 58,
        "time": 157.8569849999987,
        "velocity": 0.7874015748031497,
        "duration": 0.11904749999999353
      },
      {
        "name": "A#3",
        "midi": 58,
        "time": 158.0355562499987,
        "velocity": 0.7874015748031497,
        "duration": 0.11904749999999353
      },
      {
        "name": "G4",
        "midi": 67,
        "time": 158.2141274999987,
        "velocity": 0.7874015748031497,
        "duration": 0.23809499999998707
      },
      {
        "name": "B4",
        "midi": 71,
        "time": 158.9284124999987,
        "velocity": 0.7874015748031497,
        "duration": 0.23809499999998707
      },
      {
        "name": "G4",
        "midi": 67,
        "time": 158.9284124999987,
        "velocity": 0.7874015748031497,
        "duration": 0.23809499999998707
      },
      {
        "name": "C4",
        "midi": 60,
        "time": 159.28555499999868,
        "velocity": 0.7874015748031497,
        "duration": 0.11904749999999353
      },
      {
        "name": "F4",
        "midi": 65,
        "time": 159.28555499999868,
        "velocity": 0.7874015748031497,
        "duration": 0.11904749999999353
      },
      {
        "name": "G4",
        "midi": 67,
        "time": 159.46412624999869,
        "velocity": 0.7874015748031497,
        "duration": 0.11904749999999353
      },
      {
        "name": "F4",
        "midi": 65,
        "time": 159.6426974999987,
        "velocity": 0.7874015748031497,
        "duration": 0.11904749999999353
      },
      {
        "name": "A#4",
        "midi": 70,
        "time": 159.6426974999987,
        "velocity": 0.7874015748031497,
        "duration": 0.11904749999999353
      },
      {
        "name": "A#4",
        "midi": 70,
        "time": 159.8212687499987,
        "velocity": 0.7874015748031497,
        "duration": 0.11904749999999353
      },
      {
        "name": "F4",
        "midi": 65,
        "time": 159.8212687499987,
        "velocity": 0.7874015748031497,
        "duration": 0.11904749999999353
      },
      {
        "name": "D#4",
        "midi": 63,
        "time": 159.9998399999987,
        "velocity": 0.7874015748031497,
        "duration": 0.11904749999999353
      },
      {
        "name": "E4",
        "midi": 64,
        "time": 160.1784112499987,
        "velocity": 0.7874015748031497,
        "duration": 0.11904749999999353
      },
      {
        "name": "G4",
        "midi": 67,
        "time": 160.3569824999987,
        "velocity": 0.7874015748031497,
        "duration": 0.11904749999999353
      },
      {
        "name": "C5",
        "midi": 72,
        "time": 160.3569824999987,
        "velocity": 0.7874015748031497,
        "duration": 0.11904749999999353
      },
      {
        "name": "C5",
        "midi": 72,
        "time": 160.5355537499987,
        "velocity": 0.7874015748031497,
        "duration": 0.11904749999999353
      },
      {
        "name": "G4",
        "midi": 67,
        "time": 160.5355537499987,
        "velocity": 0.7874015748031497,
        "duration": 0.11904749999999353
      },
      {
        "name": "A#3",
        "midi": 58,
        "time": 160.71412499999872,
        "velocity": 0.7874015748031497,
        "duration": 0.11904749999999353
      },
      {
        "name": "A#3",
        "midi": 58,
        "time": 160.89269624999872,
        "velocity": 0.7874015748031497,
        "duration": 0.11904749999999353
      },
      {
        "name": "G4",
        "midi": 67,
        "time": 161.07126749999873,
        "velocity": 0.7874015748031497,
        "duration": 0.23809499999998707
      },
      {
        "name": "G4",
        "midi": 67,
        "time": 161.4284099999987,
        "velocity": 0.7874015748031497,
        "duration": 1.912200468750001
      },
      {
        "name": "D4",
        "midi": 62,
        "time": 161.4284099999987,
        "velocity": 0.7874015748031497,
        "duration": 1.912200468750001
      },
      {
        "name": "B3",
        "midi": 59,
        "time": 161.4284099999987,
        "velocity": 0.7874015748031497,
        "duration": 1.912200468750001
      },
      {
        "name": "G3",
        "midi": 55,
        "time": 161.4284099999987,
        "velocity": 0.7874015748031497,
        "duration": 1.912200468750001
      }
    ]
  },
  {
    "startTime": 4.999994999999999,
    "duration": 163.3406104687495,
    "length": 270,
    "id": 2,
    "name": "Guitar",
    "instrumentNumber": 24,
    "instrument": "acoustic guitar (nylon)",
    "instrumentFamily": "guitar",
    "channelNumber": 1,
    "isPercussion": false,
    "notes": [
      {
        "name": "G2",
        "midi": 43,
        "time": 4.999994999999999,
        "velocity": 0.7874015748031497,
        "duration": 0.2380950000000004
      },
      {
        "name": "G2",
        "midi": 43,
        "time": 5.357137499999999,
        "velocity": 0.7874015748031497,
        "duration": 0.2380950000000004
      },
      {
        "name": "A2",
        "midi": 45,
        "time": 5.71428,
        "velocity": 0.7874015748031497,
        "duration": 0.11904749999999975
      },
      {
        "name": "B2",
        "midi": 47,
        "time": 5.89285125,
        "velocity": 0.7874015748031497,
        "duration": 0.11904749999999975
      },
      {
        "name": "D3",
        "midi": 50,
        "time": 6.0714225,
        "velocity": 0.7874015748031497,
        "duration": 0.35714250000000014
      },
      {
        "name": "A3",
        "midi": 57,
        "time": 6.428565,
        "velocity": 0.7874015748031497,
        "duration": 0.2380950000000004
      },
      {
        "name": "B3",
        "midi": 59,
        "time": 6.7857075,
        "velocity": 0.7874015748031497,
        "duration": 0.2380950000000004
      },
      {
        "name": "B3",
        "midi": 59,
        "time": 7.14285,
        "velocity": 0.7874015748031497,
        "duration": 0.2380950000000004
      },
      {
        "name": "A3",
        "midi": 57,
        "time": 7.4999925,
        "velocity": 0.7874015748031497,
        "duration": 0.11904749999999975
      },
      {
        "name": "G3",
        "midi": 55,
        "time": 7.67856375,
        "velocity": 0.7874015748031497,
        "duration": 0.11904749999999975
      },
      {
        "name": "A3",
        "midi": 57,
        "time": 7.857135,
        "velocity": 0.7874015748031497,
        "duration": 0.11904749999999975
      },
      {
        "name": "A3",
        "midi": 57,
        "time": 8.03570625,
        "velocity": 0.7874015748031497,
        "duration": 0.4761900000000008
      },
      {
        "name": "G2",
        "midi": 43,
        "time": 8.571420000000002,
        "velocity": 0.7874015748031497,
        "duration": 0.11904750000000064
      },
      {
        "name": "A2",
        "midi": 45,
        "time": 8.749991250000003,
        "velocity": 0.7874015748031497,
        "duration": 0.11904750000000064
      },
      {
        "name": "C3",
        "midi": 48,
        "time": 8.928562500000004,
        "velocity": 0.7874015748031497,
        "duration": 0.2380949999999995
      },
      {
        "name": "G3",
        "midi": 55,
        "time": 9.285705000000004,
        "velocity": 0.7874015748031497,
        "duration": 0.2380949999999995
      },
      {
        "name": "C4",
        "midi": 60,
        "time": 9.285705000000004,
        "velocity": 0.7874015748031497,
        "duration": 0.2380949999999995
      },
      {
        "name": "G3",
        "midi": 55,
        "time": 9.642847500000004,
        "velocity": 0.7874015748031497,
        "duration": 0.11904750000000064
      },
      {
        "name": "C4",
        "midi": 60,
        "time": 9.642847500000004,
        "velocity": 0.7874015748031497,
        "duration": 0.11904750000000064
      },
      {
        "name": "A3",
        "midi": 57,
        "time": 9.821418750000005,
        "velocity": 0.7874015748031497,
        "duration": 0.11904750000000064
      },
      {
        "name": "G3",
        "midi": 55,
        "time": 9.999990000000006,
        "velocity": 0.7874015748031497,
        "duration": 0.11904750000000064
      },
      {
        "name": "C4",
        "midi": 60,
        "time": 9.999990000000006,
        "velocity": 0.7874015748031497,
        "duration": 0.11904750000000064
      },
      {
        "name": "F3",
        "midi": 53,
        "time": 10.178561250000007,
        "velocity": 0.7874015748031497,
        "duration": 0.11904750000000064
      },
      {
        "name": "G3",
        "midi": 55,
        "time": 10.357132500000008,
        "velocity": 0.7874015748031497,
        "duration": 0.2380949999999995
      },
      {
        "name": "A#2",
        "midi": 46,
        "time": 10.714275000000008,
        "velocity": 0.7874015748031497,
        "duration": 0.11904750000000064
      },
      {
        "name": "F#3",
        "midi": 54,
        "time": 10.892846250000009,
        "velocity": 0.7874015748031497,
        "duration": 0.11904750000000064
      },
      {
        "name": "G3",
        "midi": 55,
        "time": 11.07141750000001,
        "velocity": 0.7874015748031497,
        "duration": 0.2380949999999995
      },
      {
        "name": "E4",
        "midi": 64,
        "time": 11.07141750000001,
        "velocity": 0.7874015748031497,
        "duration": 0.2380949999999995
      },
      {
        "name": "G2",
        "midi": 43,
        "time": 11.42856000000001,
        "velocity": 0.7874015748031497,
        "duration": 0.2380949999999995
      },
      {
        "name": "G3",
        "midi": 55,
        "time": 11.78570250000001,
        "velocity": 0.7874015748031497,
        "duration": 0.2380949999999995
      },
      {
        "name": "B3",
        "midi": 59,
        "time": 11.78570250000001,
        "velocity": 0.7874015748031497,
        "duration": 0.2380949999999995
      },
      {
        "name": "C3",
        "midi": 48,
        "time": 12.14284500000001,
        "velocity": 0.7874015748031497,
        "duration": 0.11904750000000064
      },
      {
        "name": "D3",
        "midi": 50,
        "time": 12.321416250000011,
        "velocity": 0.7874015748031497,
        "duration": 0.11904750000000064
      },
      {
        "name": "F3",
        "midi": 53,
        "time": 12.499987500000012,
        "velocity": 0.7874015748031497,
        "duration": 0.11904750000000064
      },
      {
        "name": "F3",
        "midi": 53,
        "time": 12.678558750000013,
        "velocity": 0.7874015748031497,
        "duration": 0.11904750000000064
      },
      {
        "name": "D3",
        "midi": 50,
        "time": 12.857130000000014,
        "velocity": 0.7874015748031497,
        "duration": 0.11904750000000064
      },
      {
        "name": "E3",
        "midi": 52,
        "time": 13.035701250000015,
        "velocity": 0.7874015748031497,
        "duration": 0.11904750000000064
      },
      {
        "name": "G3",
        "midi": 55,
        "time": 13.214272500000016,
        "velocity": 0.7874015748031497,
        "duration": 0.2380949999999995
      },
      {
        "name": "A#2",
        "midi": 46,
        "time": 13.571415000000016,
        "velocity": 0.7874015748031497,
        "duration": 0.2380949999999995
      },
      {
        "name": "G3",
        "midi": 55,
        "time": 13.928557500000016,
        "velocity": 0.7874015748031497,
        "duration": 0.2380949999999995
      },
      {
        "name": "C4",
        "midi": 60,
        "time": 13.928557500000016,
        "velocity": 0.7874015748031497,
        "duration": 0.2380949999999995
      },
      {
        "name": "F2",
        "midi": 41,
        "time": 14.285700000000016,
        "velocity": 0.7874015748031497,
        "duration": 0.2380949999999995
      },
      {
        "name": "G3",
        "midi": 55,
        "time": 14.642842500000016,
        "velocity": 0.7874015748031497,
        "duration": 0.2380949999999995
      },
      {
        "name": "B3",
        "midi": 59,
        "time": 14.642842500000016,
        "velocity": 0.7874015748031497,
        "duration": 0.2380949999999995
      },
      {
        "name": "C3",
        "midi": 48,
        "time": 14.999985000000017,
        "velocity": 0.7874015748031497,
        "duration": 0.11904750000000064
      },
      {
        "name": "D3",
        "midi": 50,
        "time": 15.178556250000018,
        "velocity": 0.7874015748031497,
        "duration": 0.11904750000000064
      },
      {
        "name": "F3",
        "midi": 53,
        "time": 15.357127500000018,
        "velocity": 0.7874015748031497,
        "duration": 0.11904750000000064
      },
      {
        "name": "F3",
        "midi": 53,
        "time": 15.53569875000002,
        "velocity": 0.7874015748031497,
        "duration": 0.11904750000000064
      },
      {
        "name": "D3",
        "midi": 50,
        "time": 15.71427000000002,
        "velocity": 0.7874015748031497,
        "duration": 0.11904750000000064
      },
      {
        "name": "E3",
        "midi": 52,
        "time": 15.892841250000021,
        "velocity": 0.7874015748031497,
        "duration": 0.11904750000000064
      },
      {
        "name": "G3",
        "midi": 55,
        "time": 16.071412500000022,
        "velocity": 0.7874015748031497,
        "duration": 0.23809500000000128
      },
      {
        "name": "A#2",
        "midi": 46,
        "time": 16.428555000000024,
        "velocity": 0.7874015748031497,
        "duration": 0.23809500000000128
      },
      {
        "name": "G3",
        "midi": 55,
        "time": 16.785697500000026,
        "velocity": 0.7874015748031497,
        "duration": 0.23809500000000128
      },
      {
        "name": "F2",
        "midi": 41,
        "time": 17.142840000000028,
        "velocity": 0.7874015748031497,
        "duration": 1.4285700000000006
      },
      {
        "name": "D2",
        "midi": 38,
        "time": 18.392838750000028,
        "velocity": 0.7874015748031497,
        "duration": 0.11904750000000064
      },
      {
        "name": "F2",
        "midi": 41,
        "time": 18.57141000000003,
        "velocity": 0.7874015748031497,
        "duration": 0.23809500000000128
      },
      {
        "name": "F2",
        "midi": 41,
        "time": 18.92855250000003,
        "velocity": 0.7874015748031497,
        "duration": 0.23809500000000128
      },
      {
        "name": "A2",
        "midi": 45,
        "time": 19.999980000000033,
        "velocity": 0.7874015748031497,
        "duration": 0.9523800000000016
      },
      {
        "name": "A2",
        "midi": 45,
        "time": 21.249978750000036,
        "velocity": 0.7874015748031497,
        "duration": 0.11904750000000064
      },
      {
        "name": "A2",
        "midi": 45,
        "time": 21.428550000000037,
        "velocity": 0.7874015748031497,
        "duration": 0.23809500000000128
      },
      {
        "name": "A2",
        "midi": 45,
        "time": 21.78569250000004,
        "velocity": 0.7874015748031497,
        "duration": 0.23809500000000128
      },
      {
        "name": "A2",
        "midi": 45,
        "time": 22.32140625000004,
        "velocity": 0.7874015748031497,
        "duration": 0.23809500000000128
      },
      {
        "name": "A2",
        "midi": 45,
        "time": 22.678548750000044,
        "velocity": 0.7874015748031497,
        "duration": 0.11904750000000064
      },
      {
        "name": "E2",
        "midi": 40,
        "time": 22.857120000000045,
        "velocity": 0.7874015748031497,
        "duration": 0.9523800000000016
      },
      {
        "name": "E2",
        "midi": 40,
        "time": 24.107118750000048,
        "velocity": 0.7874015748031497,
        "duration": 0.11904750000000064
      },
      {
        "name": "E2",
        "midi": 40,
        "time": 24.28569000000005,
        "velocity": 0.7874015748031497,
        "duration": 0.23809500000000128
      },
      {
        "name": "E2",
        "midi": 40,
        "time": 24.64283250000005,
        "velocity": 0.7874015748031497,
        "duration": 0.23809500000000128
      },
      {
        "name": "F2",
        "midi": 41,
        "time": 25.714260000000053,
        "velocity": 0.7874015748031497,
        "duration": 0.476189999999999
      },
      {
        "name": "C2",
        "midi": 36,
        "time": 26.428545000000053,
        "velocity": 0.7874015748031497,
        "duration": 0.476189999999999
      },
      {
        "name": "G2",
        "midi": 43,
        "time": 27.142830000000053,
        "velocity": 0.7874015748031497,
        "duration": 0.11904750000000064
      },
      {
        "name": "D2",
        "midi": 38,
        "time": 27.321401250000054,
        "velocity": 0.7874015748031497,
        "duration": 0.11904750000000064
      },
      {
        "name": "G2",
        "midi": 43,
        "time": 27.499972500000055,
        "velocity": 0.7874015748031497,
        "duration": 0.11904750000000064
      },
      {
        "name": "D2",
        "midi": 38,
        "time": 27.678543750000056,
        "velocity": 0.7874015748031497,
        "duration": 0.11904750000000064
      },
      {
        "name": "G2",
        "midi": 43,
        "time": 27.857115000000057,
        "velocity": 0.7874015748031497,
        "duration": 0.7142850000000003
      },
      {
        "name": "D2",
        "midi": 38,
        "time": 28.392828750000056,
        "velocity": 0.7874015748031497,
        "duration": 0.11904750000000064
      },
      {
        "name": "G2",
        "midi": 43,
        "time": 28.571400000000057,
        "velocity": 0.7874015748031497,
        "duration": 0.23809500000000128
      },
      {
        "name": "G2",
        "midi": 43,
        "time": 28.92854250000006,
        "velocity": 0.7874015748031497,
        "duration": 0.476189999999999
      },
      {
        "name": "G2",
        "midi": 43,
        "time": 29.999970000000058,
        "velocity": 0.7874015748031497,
        "duration": 0.23809500000000128
      },
      {
        "name": "G2",
        "midi": 43,
        "time": 30.35711250000006,
        "velocity": 0.7874015748031497,
        "duration": 0.23809500000000128
      },
      {
        "name": "G2",
        "midi": 43,
        "time": 30.714255000000062,
        "velocity": 0.7874015748031497,
        "duration": 0.7142850000000003
      },
      {
        "name": "D2",
        "midi": 38,
        "time": 31.24996875000006,
        "velocity": 0.7874015748031497,
        "duration": 0.11904750000000064
      },
      {
        "name": "G2",
        "midi": 43,
        "time": 31.428540000000062,
        "velocity": 0.7874015748031497,
        "duration": 0.23809500000000128
      },
      {
        "name": "G2",
        "midi": 43,
        "time": 31.785682500000064,
        "velocity": 0.7874015748031497,
        "duration": 0.23809500000000128
      },
      {
        "name": "F2",
        "midi": 41,
        "time": 32.85711000000006,
        "velocity": 0.7874015748031497,
        "duration": 1.4285700000000006
      },
      {
        "name": "D2",
        "midi": 38,
        "time": 34.107108750000066,
        "velocity": 0.7874015748031497,
        "duration": 0.11904750000000064
      },
      {
        "name": "F2",
        "midi": 41,
        "time": 34.28568000000006,
        "velocity": 0.7874015748031497,
        "duration": 0.23809500000000128
      },
      {
        "name": "F2",
        "midi": 41,
        "time": 34.642822500000065,
        "velocity": 0.7874015748031497,
        "duration": 0.23809500000000128
      },
      {
        "name": "A2",
        "midi": 45,
        "time": 35.714250000000064,
        "velocity": 0.7874015748031497,
        "duration": 1.3690462500000038
      },
      {
        "name": "A2",
        "midi": 45,
        "time": 36.96424875000007,
        "velocity": 0.7874015748031497,
        "duration": 0.1785712499999974
      },
      {
        "name": "A2",
        "midi": 45,
        "time": 37.142820000000064,
        "velocity": 0.7874015748031497,
        "duration": 0.23809500000000128
      },
      {
        "name": "A2",
        "midi": 45,
        "time": 37.499962500000066,
        "velocity": 0.7874015748031497,
        "duration": 0.23809500000000128
      },
      {
        "name": "E2",
        "midi": 40,
        "time": 38.571390000000065,
        "velocity": 0.7874015748031497,
        "duration": 1.3690462500000038
      },
      {
        "name": "E2",
        "midi": 40,
        "time": 39.82138875000007,
        "velocity": 0.7874015748031497,
        "duration": 0.1785712499999974
      },
      {
        "name": "E2",
        "midi": 40,
        "time": 39.999960000000065,
        "velocity": 0.7874015748031497,
        "duration": 0.23809500000000128
      },
      {
        "name": "E2",
        "midi": 40,
        "time": 40.35710250000007,
        "velocity": 0.7874015748031497,
        "duration": 0.23809500000000128
      },
      {
        "name": "F2",
        "midi": 41,
        "time": 41.428530000000066,
        "velocity": 0.7874015748031497,
        "duration": 0.47619000000000256
      },
      {
        "name": "C2",
        "midi": 36,
        "time": 42.14281500000007,
        "velocity": 0.7874015748031497,
        "duration": 0.47619000000000256
      },
      {
        "name": "G2",
        "midi": 43,
        "time": 42.857100000000074,
        "velocity": 0.7874015748031497,
        "duration": 0.11904750000000064
      },
      {
        "name": "D2",
        "midi": 38,
        "time": 43.03567125000007,
        "velocity": 0.7874015748031497,
        "duration": 0.11904750000000064
      },
      {
        "name": "G2",
        "midi": 43,
        "time": 43.21424250000007,
        "velocity": 0.7874015748031497,
        "duration": 0.11904750000000064
      },
      {
        "name": "D2",
        "midi": 38,
        "time": 43.392813750000066,
        "velocity": 0.7874015748031497,
        "duration": 0.11904750000000064
      },
      {
        "name": "G2",
        "midi": 43,
        "time": 43.57138500000006,
        "velocity": 0.7874015748031497,
        "duration": 0.7142849999999967
      },
      {
        "name": "D2",
        "midi": 38,
        "time": 44.10709875000006,
        "velocity": 0.7874015748031497,
        "duration": 0.11904750000000064
      },
      {
        "name": "G2",
        "midi": 43,
        "time": 44.28567000000006,
        "velocity": 0.7874015748031497,
        "duration": 0.23809500000000128
      },
      {
        "name": "G2",
        "midi": 43,
        "time": 44.64281250000006,
        "velocity": 0.7874015748031497,
        "duration": 0.7142849999999967
      },
      {
        "name": "G2",
        "midi": 43,
        "time": 45.71424000000006,
        "velocity": 0.7874015748031497,
        "duration": 0.23809500000000128
      },
      {
        "name": "G2",
        "midi": 43,
        "time": 46.07138250000006,
        "velocity": 0.7874015748031497,
        "duration": 0.23809500000000128
      },
      {
        "name": "G2",
        "midi": 43,
        "time": 46.428525000000064,
        "velocity": 0.7874015748031497,
        "duration": 0.47619000000000256
      },
      {
        "name": "G2",
        "midi": 43,
        "time": 47.14281000000007,
        "velocity": 0.7874015748031497,
        "duration": 0.952379999999998
      },
      {
        "name": "B3",
        "midi": 59,
        "time": 48.57138000000007,
        "velocity": 0.7874015748031497,
        "duration": 1.912200468750001
      },
      {
        "name": "G3",
        "midi": 55,
        "time": 48.57138000000007,
        "velocity": 0.7874015748031497,
        "duration": 1.912200468750001
      },
      {
        "name": "G3",
        "midi": 55,
        "time": 51.42852000000007,
        "velocity": 0.7874015748031497,
        "duration": 1.912200468750001
      },
      {
        "name": "E3",
        "midi": 52,
        "time": 51.42852000000007,
        "velocity": 0.7874015748031497,
        "duration": 1.912200468750001
      },
      {
        "name": "C4",
        "midi": 60,
        "time": 51.42852000000007,
        "velocity": 0.7874015748031497,
        "duration": 1.912200468750001
      },
      {
        "name": "G3",
        "midi": 55,
        "time": 54.28566000000007,
        "velocity": 0.7874015748031497,
        "duration": 1.912200468750001
      },
      {
        "name": "G3",
        "midi": 55,
        "time": 57.14280000000007,
        "velocity": 0.7874015748031497,
        "duration": 1.912200468750001
      },
      {
        "name": "F2",
        "midi": 41,
        "time": 59.99994000000007,
        "velocity": 0.7874015748031497,
        "duration": 1.4285700000000006
      },
      {
        "name": "D2",
        "midi": 38,
        "time": 61.24993875000008,
        "velocity": 0.7874015748031497,
        "duration": 0.11904750000000064
      },
      {
        "name": "F2",
        "midi": 41,
        "time": 61.428510000000074,
        "velocity": 0.7874015748031497,
        "duration": 0.23809500000000128
      },
      {
        "name": "F2",
        "midi": 41,
        "time": 61.785652500000076,
        "velocity": 0.7874015748031497,
        "duration": 0.23809500000000128
      },
      {
        "name": "A2",
        "midi": 45,
        "time": 62.857080000000074,
        "velocity": 0.7874015748031497,
        "duration": 0.952379999999998
      },
      {
        "name": "A2",
        "midi": 45,
        "time": 64.10707875000007,
        "velocity": 0.7874015748031497,
        "duration": 0.11904749999999353
      },
      {
        "name": "A2",
        "midi": 45,
        "time": 64.28565000000006,
        "velocity": 0.7874015748031497,
        "duration": 0.23809500000000128
      },
      {
        "name": "A2",
        "midi": 45,
        "time": 64.64279250000006,
        "velocity": 0.7874015748031497,
        "duration": 0.23809500000000128
      },
      {
        "name": "A2",
        "midi": 45,
        "time": 65.17850625000005,
        "velocity": 0.7874015748031497,
        "duration": 0.23809500000000128
      },
      {
        "name": "A2",
        "midi": 45,
        "time": 65.53564875000005,
        "velocity": 0.7874015748031497,
        "duration": 0.11904749999999353
      },
      {
        "name": "E2",
        "midi": 40,
        "time": 65.71422000000004,
        "velocity": 0.7874015748031497,
        "duration": 0.9523800000000051
      },
      {
        "name": "E2",
        "midi": 40,
        "time": 66.96421875000004,
        "velocity": 0.7874015748031497,
        "duration": 0.11904749999999353
      },
      {
        "name": "E2",
        "midi": 40,
        "time": 67.14279000000003,
        "velocity": 0.7874015748031497,
        "duration": 0.23809500000000128
      },
      {
        "name": "E2",
        "midi": 40,
        "time": 67.49993250000003,
        "velocity": 0.7874015748031497,
        "duration": 0.23809500000000128
      },
      {
        "name": "F2",
        "midi": 41,
        "time": 68.57136000000003,
        "velocity": 0.7874015748031497,
        "duration": 0.47619000000000256
      },
      {
        "name": "C2",
        "midi": 36,
        "time": 69.28564500000003,
        "velocity": 0.7874015748031497,
        "duration": 0.47619000000000256
      },
      {
        "name": "G2",
        "midi": 43,
        "time": 69.99993000000003,
        "velocity": 0.7874015748031497,
        "duration": 0.11904749999999353
      },
      {
        "name": "D2",
        "midi": 38,
        "time": 70.17850125000002,
        "velocity": 0.7874015748031497,
        "duration": 0.11904749999999353
      },
      {
        "name": "G2",
        "midi": 43,
        "time": 70.35707250000002,
        "velocity": 0.7874015748031497,
        "duration": 0.11904749999999353
      },
      {
        "name": "D2",
        "midi": 38,
        "time": 70.53564375,
        "velocity": 0.7874015748031497,
        "duration": 0.11904749999999353
      },
      {
        "name": "G2",
        "midi": 43,
        "time": 70.714215,
        "velocity": 0.7874015748031497,
        "duration": 0.7142849999999896
      },
      {
        "name": "D2",
        "midi": 38,
        "time": 71.24992875,
        "velocity": 0.7874015748031497,
        "duration": 0.11904749999999353
      },
      {
        "name": "G2",
        "midi": 43,
        "time": 71.42849999999999,
        "velocity": 0.7874015748031497,
        "duration": 0.23809500000000128
      },
      {
        "name": "G2",
        "midi": 43,
        "time": 71.78564249999998,
        "velocity": 0.7874015748031497,
        "duration": 0.47619000000000256
      },
      {
        "name": "G2",
        "midi": 43,
        "time": 72.85706999999998,
        "velocity": 0.7874015748031497,
        "duration": 0.23809500000000128
      },
      {
        "name": "G2",
        "midi": 43,
        "time": 73.21421249999997,
        "velocity": 0.7874015748031497,
        "duration": 0.23809500000000128
      },
      {
        "name": "G2",
        "midi": 43,
        "time": 73.57135499999997,
        "velocity": 0.7874015748031497,
        "duration": 0.7142849999999896
      },
      {
        "name": "D2",
        "midi": 38,
        "time": 74.10706874999997,
        "velocity": 0.7874015748031497,
        "duration": 0.11904749999999353
      },
      {
        "name": "G2",
        "midi": 43,
        "time": 74.28563999999996,
        "velocity": 0.7874015748031497,
        "duration": 0.23809500000000128
      },
      {
        "name": "G2",
        "midi": 43,
        "time": 74.64278249999995,
        "velocity": 0.7874015748031497,
        "duration": 0.23809500000000128
      },
      {
        "name": "F2",
        "midi": 41,
        "time": 75.71420999999995,
        "velocity": 0.7874015748031497,
        "duration": 1.4285699999999935
      },
      {
        "name": "D2",
        "midi": 38,
        "time": 76.96420874999995,
        "velocity": 0.7874015748031497,
        "duration": 0.11904749999999353
      },
      {
        "name": "F2",
        "midi": 41,
        "time": 77.14277999999995,
        "velocity": 0.7874015748031497,
        "duration": 0.23809500000000128
      },
      {
        "name": "F2",
        "midi": 41,
        "time": 77.49992249999994,
        "velocity": 0.7874015748031497,
        "duration": 0.23809500000000128
      },
      {
        "name": "A2",
        "midi": 45,
        "time": 78.57134999999994,
        "velocity": 0.7874015748031497,
        "duration": 1.3690462499999967
      },
      {
        "name": "A2",
        "midi": 45,
        "time": 79.82134874999994,
        "velocity": 0.7874015748031497,
        "duration": 0.1785712499999903
      },
      {
        "name": "A2",
        "midi": 45,
        "time": 79.99991999999993,
        "velocity": 0.7874015748031497,
        "duration": 0.23809500000000128
      },
      {
        "name": "A2",
        "midi": 45,
        "time": 80.35706249999993,
        "velocity": 0.7874015748031497,
        "duration": 0.23809500000000128
      },
      {
        "name": "E2",
        "midi": 40,
        "time": 81.42848999999993,
        "velocity": 0.7874015748031497,
        "duration": 1.3690462499999967
      },
      {
        "name": "E2",
        "midi": 40,
        "time": 82.67848874999993,
        "velocity": 0.7874015748031497,
        "duration": 0.1785712499999903
      },
      {
        "name": "E2",
        "midi": 40,
        "time": 82.85705999999992,
        "velocity": 0.7874015748031497,
        "duration": 0.23809500000000128
      },
      {
        "name": "E2",
        "midi": 40,
        "time": 83.21420249999991,
        "velocity": 0.7874015748031497,
        "duration": 0.23809500000000128
      },
      {
        "name": "F2",
        "midi": 41,
        "time": 84.28562999999991,
        "velocity": 0.7874015748031497,
        "duration": 0.47619000000000256
      },
      {
        "name": "C2",
        "midi": 36,
        "time": 84.99991499999992,
        "velocity": 0.7874015748031497,
        "duration": 0.47619000000000256
      },
      {
        "name": "G2",
        "midi": 43,
        "time": 85.71419999999992,
        "velocity": 0.7874015748031497,
        "duration": 0.11904749999999353
      },
      {
        "name": "D2",
        "midi": 38,
        "time": 85.89277124999991,
        "velocity": 0.7874015748031497,
        "duration": 0.11904749999999353
      },
      {
        "name": "G2",
        "midi": 43,
        "time": 86.0713424999999,
        "velocity": 0.7874015748031497,
        "duration": 0.11904749999999353
      },
      {
        "name": "D2",
        "midi": 38,
        "time": 86.24991374999989,
        "velocity": 0.7874015748031497,
        "duration": 0.11904749999999353
      },
      {
        "name": "G2",
        "midi": 43,
        "time": 86.42848499999988,
        "velocity": 0.7874015748031497,
        "duration": 0.7142849999999896
      },
      {
        "name": "D2",
        "midi": 38,
        "time": 86.96419874999988,
        "velocity": 0.7874015748031497,
        "duration": 0.11904749999999353
      },
      {
        "name": "G2",
        "midi": 43,
        "time": 87.14276999999987,
        "velocity": 0.7874015748031497,
        "duration": 0.23809500000000128
      },
      {
        "name": "G2",
        "midi": 43,
        "time": 87.49991249999987,
        "velocity": 0.7874015748031497,
        "duration": 0.7142850000000038
      },
      {
        "name": "G2",
        "midi": 43,
        "time": 88.57133999999986,
        "velocity": 0.7874015748031497,
        "duration": 0.23809500000000128
      },
      {
        "name": "G2",
        "midi": 43,
        "time": 88.92848249999986,
        "velocity": 0.7874015748031497,
        "duration": 0.23809500000000128
      },
      {
        "name": "G2",
        "midi": 43,
        "time": 89.28562499999985,
        "velocity": 0.7874015748031497,
        "duration": 0.47619000000000256
      },
      {
        "name": "G2",
        "midi": 43,
        "time": 89.99990999999986,
        "velocity": 0.7874015748031497,
        "duration": 0.9523800000000051
      },
      {
        "name": "B3",
        "midi": 59,
        "time": 91.42847999999987,
        "velocity": 0.7874015748031497,
        "duration": 1.912200468750001
      },
      {
        "name": "G3",
        "midi": 55,
        "time": 91.42847999999987,
        "velocity": 0.7874015748031497,
        "duration": 1.912200468750001
      },
      {
        "name": "G3",
        "midi": 55,
        "time": 94.28561999999987,
        "velocity": 0.7874015748031497,
        "duration": 1.912200468750001
      },
      {
        "name": "E3",
        "midi": 52,
        "time": 94.28561999999987,
        "velocity": 0.7874015748031497,
        "duration": 1.912200468750001
      },
      {
        "name": "C4",
        "midi": 60,
        "time": 94.28561999999987,
        "velocity": 0.7874015748031497,
        "duration": 1.912200468750001
      },
      {
        "name": "G3",
        "midi": 55,
        "time": 97.14275999999987,
        "velocity": 0.7874015748031497,
        "duration": 1.912200468750001
      },
      {
        "name": "G3",
        "midi": 55,
        "time": 99.99989999999987,
        "velocity": 0.7874015748031497,
        "duration": 1.912200468750001
      },
      {
        "name": "F2",
        "midi": 41,
        "time": 102.85703999999987,
        "velocity": 0.7874015748031497,
        "duration": 0.11904749999999353
      },
      {
        "name": "G2",
        "midi": 43,
        "time": 103.03561124999986,
        "velocity": 0.7874015748031497,
        "duration": 0.11904749999999353
      },
      {
        "name": "G2",
        "midi": 43,
        "time": 103.21418249999985,
        "velocity": 0.7874015748031497,
        "duration": 0.23809500000000128
      },
      {
        "name": "G2",
        "midi": 43,
        "time": 103.57132499999985,
        "velocity": 0.7874015748031497,
        "duration": 0.7142849999999896
      },
      {
        "name": "F2",
        "midi": 41,
        "time": 104.10703874999984,
        "velocity": 0.7874015748031497,
        "duration": 0.11904749999999353
      },
      {
        "name": "G2",
        "midi": 43,
        "time": 104.28560999999983,
        "velocity": 0.7874015748031497,
        "duration": 0.23809500000000128
      },
      {
        "name": "G2",
        "midi": 43,
        "time": 104.64275249999983,
        "velocity": 0.7874015748031497,
        "duration": 0.7142850000000038
      },
      {
        "name": "F2",
        "midi": 41,
        "time": 105.71417999999983,
        "velocity": 0.7874015748031497,
        "duration": 0.11904749999999353
      },
      {
        "name": "G2",
        "midi": 43,
        "time": 105.89275124999982,
        "velocity": 0.7874015748031497,
        "duration": 0.11904749999999353
      },
      {
        "name": "G2",
        "midi": 43,
        "time": 106.07132249999981,
        "velocity": 0.7874015748031497,
        "duration": 0.23809500000000128
      },
      {
        "name": "G2",
        "midi": 43,
        "time": 106.4284649999998,
        "velocity": 0.7874015748031497,
        "duration": 0.7142849999999896
      },
      {
        "name": "F2",
        "midi": 41,
        "time": 106.9641787499998,
        "velocity": 0.7874015748031497,
        "duration": 0.11904749999999353
      },
      {
        "name": "G2",
        "midi": 43,
        "time": 107.1427499999998,
        "velocity": 0.7874015748031497,
        "duration": 0.23809500000000128
      },
      {
        "name": "G2",
        "midi": 43,
        "time": 107.49989249999979,
        "velocity": 0.7874015748031497,
        "duration": 0.7142850000000038
      },
      {
        "name": "F2",
        "midi": 41,
        "time": 108.57131999999979,
        "velocity": 0.7874015748031497,
        "duration": 0.11904749999999353
      },
      {
        "name": "G2",
        "midi": 43,
        "time": 108.74989124999978,
        "velocity": 0.7874015748031497,
        "duration": 0.11904749999999353
      },
      {
        "name": "G2",
        "midi": 43,
        "time": 108.92846249999977,
        "velocity": 0.7874015748031497,
        "duration": 0.23809500000000128
      },
      {
        "name": "G2",
        "midi": 43,
        "time": 109.28560499999976,
        "velocity": 0.7874015748031497,
        "duration": 0.7142849999999896
      },
      {
        "name": "F2",
        "midi": 41,
        "time": 109.82131874999976,
        "velocity": 0.7874015748031497,
        "duration": 0.11904749999999353
      },
      {
        "name": "G2",
        "midi": 43,
        "time": 109.99988999999975,
        "velocity": 0.7874015748031497,
        "duration": 0.23809500000000128
      },
      {
        "name": "G2",
        "midi": 43,
        "time": 110.35703249999975,
        "velocity": 0.7874015748031497,
        "duration": 0.7142850000000038
      },
      {
        "name": "F2",
        "midi": 41,
        "time": 111.42845999999975,
        "velocity": 0.7874015748031497,
        "duration": 0.11904749999999353
      },
      {
        "name": "G2",
        "midi": 43,
        "time": 111.60703124999974,
        "velocity": 0.7874015748031497,
        "duration": 0.11904749999999353
      },
      {
        "name": "G2",
        "midi": 43,
        "time": 111.78560249999973,
        "velocity": 0.7874015748031497,
        "duration": 0.23809500000000128
      },
      {
        "name": "G2",
        "midi": 43,
        "time": 112.14274499999972,
        "velocity": 0.7874015748031497,
        "duration": 0.7142849999999896
      },
      {
        "name": "F2",
        "midi": 41,
        "time": 112.67845874999972,
        "velocity": 0.7874015748031497,
        "duration": 0.11904749999999353
      },
      {
        "name": "G2",
        "midi": 43,
        "time": 112.85702999999971,
        "velocity": 0.7874015748031497,
        "duration": 0.23809500000000128
      },
      {
        "name": "G2",
        "midi": 43,
        "time": 113.2141724999997,
        "velocity": 0.7874015748031497,
        "duration": 0.47619000000000256
      },
      {
        "name": "F#2",
        "midi": 42,
        "time": 113.92845749999971,
        "velocity": 0.7874015748031497,
        "duration": 0.23809500000000128
      },
      {
        "name": "F2",
        "midi": 41,
        "time": 114.2855999999997,
        "velocity": 0.7874015748031497,
        "duration": 1.4285699999999935
      },
      {
        "name": "D2",
        "midi": 38,
        "time": 115.5355987499997,
        "velocity": 0.7874015748031497,
        "duration": 0.11904749999999353
      },
      {
        "name": "F2",
        "midi": 41,
        "time": 115.7141699999997,
        "velocity": 0.7874015748031497,
        "duration": 0.23809500000000128
      },
      {
        "name": "F2",
        "midi": 41,
        "time": 116.07131249999969,
        "velocity": 0.7874015748031497,
        "duration": 0.23809500000000128
      },
      {
        "name": "A2",
        "midi": 45,
        "time": 117.14273999999969,
        "velocity": 0.7874015748031497,
        "duration": 0.9523800000000051
      },
      {
        "name": "A2",
        "midi": 45,
        "time": 118.3927387499997,
        "velocity": 0.7874015748031497,
        "duration": 0.11904749999999353
      },
      {
        "name": "A2",
        "midi": 45,
        "time": 118.57130999999968,
        "velocity": 0.7874015748031497,
        "duration": 0.23809500000000128
      },
      {
        "name": "A2",
        "midi": 45,
        "time": 118.92845249999968,
        "velocity": 0.7874015748031497,
        "duration": 0.23809500000000128
      },
      {
        "name": "A2",
        "midi": 45,
        "time": 119.46416624999968,
        "velocity": 0.7874015748031497,
        "duration": 0.23809500000000128
      },
      {
        "name": "A2",
        "midi": 45,
        "time": 119.82130874999967,
        "velocity": 0.7874015748031497,
        "duration": 0.11904749999999353
      },
      {
        "name": "E2",
        "midi": 40,
        "time": 119.99987999999966,
        "velocity": 0.7874015748031497,
        "duration": 0.9523800000000051
      },
      {
        "name": "E2",
        "midi": 40,
        "time": 121.24987874999967,
        "velocity": 0.7874015748031497,
        "duration": 0.11904749999999353
      },
      {
        "name": "E2",
        "midi": 40,
        "time": 121.42844999999966,
        "velocity": 0.7874015748031497,
        "duration": 0.23809500000000128
      },
      {
        "name": "E2",
        "midi": 40,
        "time": 121.78559249999965,
        "velocity": 0.7874015748031497,
        "duration": 0.23809500000000128
      },
      {
        "name": "F2",
        "midi": 41,
        "time": 122.85701999999965,
        "velocity": 0.7874015748031497,
        "duration": 0.47619000000000256
      },
      {
        "name": "C2",
        "midi": 36,
        "time": 123.57130499999965,
        "velocity": 0.7874015748031497,
        "duration": 0.47619000000000256
      },
      {
        "name": "G2",
        "midi": 43,
        "time": 124.28558999999966,
        "velocity": 0.7874015748031497,
        "duration": 0.11904749999999353
      },
      {
        "name": "D2",
        "midi": 38,
        "time": 124.46416124999965,
        "velocity": 0.7874015748031497,
        "duration": 0.11904749999999353
      },
      {
        "name": "G2",
        "midi": 43,
        "time": 124.64273249999964,
        "velocity": 0.7874015748031497,
        "duration": 0.11904749999999353
      },
      {
        "name": "D2",
        "midi": 38,
        "time": 124.82130374999963,
        "velocity": 0.7874015748031497,
        "duration": 0.11904749999999353
      },
      {
        "name": "G2",
        "midi": 43,
        "time": 124.99987499999962,
        "velocity": 0.7874015748031497,
        "duration": 0.7142849999999896
      },
      {
        "name": "D2",
        "midi": 38,
        "time": 125.53558874999962,
        "velocity": 0.7874015748031497,
        "duration": 0.11904749999999353
      },
      {
        "name": "G2",
        "midi": 43,
        "time": 125.71415999999961,
        "velocity": 0.7874015748031497,
        "duration": 0.23809500000000128
      },
      {
        "name": "G2",
        "midi": 43,
        "time": 126.0713024999996,
        "velocity": 0.7874015748031497,
        "duration": 0.47619000000000256
      },
      {
        "name": "G2",
        "midi": 43,
        "time": 127.1427299999996,
        "velocity": 0.7874015748031497,
        "duration": 0.23809500000000128
      },
      {
        "name": "G2",
        "midi": 43,
        "time": 127.4998724999996,
        "velocity": 0.7874015748031497,
        "duration": 0.23809500000000128
      },
      {
        "name": "G2",
        "midi": 43,
        "time": 127.85701499999959,
        "velocity": 0.7874015748031497,
        "duration": 0.714285000000018
      },
      {
        "name": "D2",
        "midi": 38,
        "time": 128.3927287499996,
        "velocity": 0.7874015748031497,
        "duration": 0.11904749999999353
      },
      {
        "name": "G2",
        "midi": 43,
        "time": 128.5712999999996,
        "velocity": 0.7874015748031497,
        "duration": 0.23809499999998707
      },
      {
        "name": "G2",
        "midi": 43,
        "time": 128.9284424999996,
        "velocity": 0.7874015748031497,
        "duration": 0.23809499999998707
      },
      {
        "name": "F2",
        "midi": 41,
        "time": 129.9998699999996,
        "velocity": 0.7874015748031497,
        "duration": 1.4285700000000077
      },
      {
        "name": "D2",
        "midi": 38,
        "time": 131.2498687499996,
        "velocity": 0.7874015748031497,
        "duration": 0.11904749999999353
      },
      {
        "name": "F2",
        "midi": 41,
        "time": 131.4284399999996,
        "velocity": 0.7874015748031497,
        "duration": 0.23809499999998707
      },
      {
        "name": "F2",
        "midi": 41,
        "time": 131.78558249999958,
        "velocity": 0.7874015748031497,
        "duration": 0.23809499999998707
      },
      {
        "name": "A2",
        "midi": 45,
        "time": 132.85700999999958,
        "velocity": 0.7874015748031497,
        "duration": 1.3690462499999967
      },
      {
        "name": "A2",
        "midi": 45,
        "time": 134.10700874999958,
        "velocity": 0.7874015748031497,
        "duration": 0.1785712500000045
      },
      {
        "name": "A2",
        "midi": 45,
        "time": 134.28557999999958,
        "velocity": 0.7874015748031497,
        "duration": 0.23809499999998707
      },
      {
        "name": "A2",
        "midi": 45,
        "time": 134.64272249999956,
        "velocity": 0.7874015748031497,
        "duration": 0.23809499999998707
      },
      {
        "name": "E2",
        "midi": 40,
        "time": 135.71414999999956,
        "velocity": 0.7874015748031497,
        "duration": 1.3690462499999967
      },
      {
        "name": "E2",
        "midi": 40,
        "time": 136.96414874999957,
        "velocity": 0.7874015748031497,
        "duration": 0.1785712500000045
      },
      {
        "name": "E2",
        "midi": 40,
        "time": 137.14271999999957,
        "velocity": 0.7874015748031497,
        "duration": 0.23809499999998707
      },
      {
        "name": "E2",
        "midi": 40,
        "time": 137.49986249999955,
        "velocity": 0.7874015748031497,
        "duration": 0.23809499999998707
      },
      {
        "name": "F2",
        "midi": 41,
        "time": 138.57128999999955,
        "velocity": 0.7874015748031497,
        "duration": 0.47619000000000256
      },
      {
        "name": "C2",
        "midi": 36,
        "time": 139.28557499999954,
        "velocity": 0.7874015748031497,
        "duration": 0.47619000000000256
      },
      {
        "name": "G2",
        "midi": 43,
        "time": 139.99985999999953,
        "velocity": 0.7874015748031497,
        "duration": 0.11904749999999353
      },
      {
        "name": "G2",
        "midi": 43,
        "time": 140.17843124999953,
        "velocity": 0.7874015748031497,
        "duration": 0.11904749999999353
      },
      {
        "name": "G2",
        "midi": 43,
        "time": 140.35700249999954,
        "velocity": 0.7874015748031497,
        "duration": 0.11904749999999353
      },
      {
        "name": "G2",
        "midi": 43,
        "time": 140.53557374999954,
        "velocity": 0.7874015748031497,
        "duration": 0.11904749999999353
      },
      {
        "name": "G2",
        "midi": 43,
        "time": 140.71414499999955,
        "velocity": 0.7874015748031497,
        "duration": 0.6547612500000071
      },
      {
        "name": "G2",
        "midi": 43,
        "time": 141.24985874999956,
        "velocity": 0.7874015748031497,
        "duration": 0.1785712500000045
      },
      {
        "name": "G2",
        "midi": 43,
        "time": 141.42842999999957,
        "velocity": 0.7874015748031497,
        "duration": 0.23809499999998707
      },
      {
        "name": "G2",
        "midi": 43,
        "time": 141.78557249999955,
        "velocity": 0.7874015748031497,
        "duration": 0.7142849999999896
      },
      {
        "name": "G2",
        "midi": 43,
        "time": 142.85699999999954,
        "velocity": 0.7874015748031497,
        "duration": 0.11904749999999353
      },
      {
        "name": "G2",
        "midi": 43,
        "time": 143.03557124999955,
        "velocity": 0.7874015748031497,
        "duration": 0.11904749999999353
      },
      {
        "name": "G2",
        "midi": 43,
        "time": 143.21414249999955,
        "velocity": 0.7874015748031497,
        "duration": 0.11904749999999353
      },
      {
        "name": "G2",
        "midi": 43,
        "time": 143.39271374999956,
        "velocity": 0.7874015748031497,
        "duration": 0.11904749999999353
      },
      {
        "name": "G2",
        "midi": 43,
        "time": 143.57128499999956,
        "velocity": 0.7874015748031497,
        "duration": 0.47619000000000256
      },
      {
        "name": "G2",
        "midi": 43,
        "time": 144.28556999999955,
        "velocity": 0.7874015748031497,
        "duration": 1.912200468750001
      },
      {
        "name": "G3",
        "midi": 55,
        "time": 152.85698999999954,
        "velocity": 0.7874015748031497,
        "duration": 1.912200468750001
      },
      {
        "name": "G3",
        "midi": 55,
        "time": 155.71412999999953,
        "velocity": 0.7874015748031497,
        "duration": 1.912200468750001
      },
      {
        "name": "G3",
        "midi": 55,
        "time": 158.57126999999952,
        "velocity": 0.7874015748031497,
        "duration": 1.912200468750001
      },
      {
        "name": "G2",
        "midi": 43,
        "time": 161.4284099999995,
        "velocity": 0.7874015748031497,
        "duration": 1.912200468750001
      }
    ]
  },
  {
    "startTime": 16.785697499999998,
    "duration": 141.90461999999903,
    "length": 300,
    "id": 3,
    "name": "Voice",
    "instrumentNumber": 4,
    "instrument": "electric piano 1",
    "instrumentFamily": "piano",
    "channelNumber": 7,
    "isPercussion": false,
    "notes": [
      {
        "name": "B4",
        "midi": 71,
        "time": 16.785697499999998,
        "velocity": 0.7874015748031497,
        "duration": 0.11904750000000064
      },
      {
        "name": "B4",
        "midi": 71,
        "time": 16.96426875,
        "velocity": 0.7874015748031497,
        "duration": 0.11904750000000064
      },
      {
        "name": "A4",
        "midi": 69,
        "time": 17.14284,
        "velocity": 0.7874015748031497,
        "duration": 0.23809500000000128
      },
      {
        "name": "A4",
        "midi": 69,
        "time": 17.4999825,
        "velocity": 0.7874015748031497,
        "duration": 0.11904750000000064
      },
      {
        "name": "G4",
        "midi": 67,
        "time": 17.678553750000003,
        "velocity": 0.7874015748031497,
        "duration": 0.11904750000000064
      },
      {
        "name": "A4",
        "midi": 69,
        "time": 17.857125000000003,
        "velocity": 0.7874015748031497,
        "duration": 0.11904750000000064
      },
      {
        "name": "G4",
        "midi": 67,
        "time": 18.035696250000004,
        "velocity": 0.7874015748031497,
        "duration": 0.11904750000000064
      },
      {
        "name": "A4",
        "midi": 69,
        "time": 18.214267500000005,
        "velocity": 0.7874015748031497,
        "duration": 0.23809500000000128
      },
      {
        "name": "A4",
        "midi": 69,
        "time": 18.571410000000007,
        "velocity": 0.7874015748031497,
        "duration": 0.11904750000000064
      },
      {
        "name": "A4",
        "midi": 69,
        "time": 18.74998125000001,
        "velocity": 0.7874015748031497,
        "duration": 0.11904750000000064
      },
      {
        "name": "G4",
        "midi": 67,
        "time": 18.92855250000001,
        "velocity": 0.7874015748031497,
        "duration": 0.11904750000000064
      },
      {
        "name": "A4",
        "midi": 69,
        "time": 19.10712375000001,
        "velocity": 0.7874015748031497,
        "duration": 0.23809500000000128
      },
      {
        "name": "G4",
        "midi": 67,
        "time": 19.642837500000013,
        "velocity": 0.7874015748031497,
        "duration": 0.11904750000000064
      },
      {
        "name": "G4",
        "midi": 67,
        "time": 19.821408750000014,
        "velocity": 0.7874015748031497,
        "duration": 0.11904750000000064
      },
      {
        "name": "A4",
        "midi": 69,
        "time": 19.999980000000015,
        "velocity": 0.7874015748031497,
        "duration": 0.11904750000000064
      },
      {
        "name": "G4",
        "midi": 67,
        "time": 20.178551250000016,
        "velocity": 0.7874015748031497,
        "duration": 0.11904750000000064
      },
      {
        "name": "A4",
        "midi": 69,
        "time": 20.357122500000017,
        "velocity": 0.7874015748031497,
        "duration": 0.23809500000000128
      },
      {
        "name": "A4",
        "midi": 69,
        "time": 21.071407500000017,
        "velocity": 0.7874015748031497,
        "duration": 0.11904750000000064
      },
      {
        "name": "G4",
        "midi": 67,
        "time": 21.249978750000018,
        "velocity": 0.7874015748031497,
        "duration": 0.11904750000000064
      },
      {
        "name": "A4",
        "midi": 69,
        "time": 21.42855000000002,
        "velocity": 0.7874015748031497,
        "duration": 0.11904750000000064
      },
      {
        "name": "G4",
        "midi": 67,
        "time": 21.60712125000002,
        "velocity": 0.7874015748031497,
        "duration": 0.11904750000000064
      },
      {
        "name": "A4",
        "midi": 69,
        "time": 21.78569250000002,
        "velocity": 0.7874015748031497,
        "duration": 0.23809500000000128
      },
      {
        "name": "G4",
        "midi": 67,
        "time": 22.678548750000022,
        "velocity": 0.7874015748031497,
        "duration": 0.11904750000000064
      },
      {
        "name": "B4",
        "midi": 71,
        "time": 22.857120000000023,
        "velocity": 0.7874015748031497,
        "duration": 0.11904750000000064
      },
      {
        "name": "B4",
        "midi": 71,
        "time": 23.035691250000024,
        "velocity": 0.7874015748031497,
        "duration": 0.11904750000000064
      },
      {
        "name": "B4",
        "midi": 71,
        "time": 23.214262500000025,
        "velocity": 0.7874015748031497,
        "duration": 0.23809500000000128
      },
      {
        "name": "B4",
        "midi": 71,
        "time": 23.749976250000028,
        "velocity": 0.7874015748031497,
        "duration": 0.23809500000000128
      },
      {
        "name": "A4",
        "midi": 69,
        "time": 24.10711875000003,
        "velocity": 0.7874015748031497,
        "duration": 0.11904750000000064
      },
      {
        "name": "E4",
        "midi": 64,
        "time": 24.82140375000003,
        "velocity": 0.7874015748031497,
        "duration": 0.11904750000000064
      },
      {
        "name": "G4",
        "midi": 67,
        "time": 24.99997500000003,
        "velocity": 0.7874015748031497,
        "duration": 0.23809500000000128
      },
      {
        "name": "E4",
        "midi": 64,
        "time": 25.357117500000033,
        "velocity": 0.7874015748031497,
        "duration": 0.23809500000000128
      },
      {
        "name": "B4",
        "midi": 71,
        "time": 25.714260000000035,
        "velocity": 0.7874015748031497,
        "duration": 0.11904750000000064
      },
      {
        "name": "F4",
        "midi": 65,
        "time": 25.892831250000036,
        "velocity": 0.7874015748031497,
        "duration": 0.11904750000000064
      },
      {
        "name": "G4",
        "midi": 67,
        "time": 26.071402500000037,
        "velocity": 0.7874015748031497,
        "duration": 0.11904750000000064
      },
      {
        "name": "E4",
        "midi": 64,
        "time": 26.249973750000038,
        "velocity": 0.7874015748031497,
        "duration": 0.11904750000000064
      },
      {
        "name": "G4",
        "midi": 67,
        "time": 26.42854500000004,
        "velocity": 0.7874015748031497,
        "duration": 0.11904750000000064
      },
      {
        "name": "G4",
        "midi": 67,
        "time": 26.60711625000004,
        "velocity": 0.7874015748031497,
        "duration": 0.11904750000000064
      },
      {
        "name": "G4",
        "midi": 67,
        "time": 26.78568750000004,
        "velocity": 0.7874015748031497,
        "duration": 0.23809500000000128
      },
      {
        "name": "B4",
        "midi": 71,
        "time": 27.142830000000043,
        "velocity": 0.7874015748031497,
        "duration": 0.476189999999999
      },
      {
        "name": "B4",
        "midi": 71,
        "time": 32.32139625000004,
        "velocity": 0.7874015748031497,
        "duration": 0.11904750000000064
      },
      {
        "name": "D5",
        "midi": 74,
        "time": 32.49996750000004,
        "velocity": 0.7874015748031497,
        "duration": 0.23809500000000128
      },
      {
        "name": "B4",
        "midi": 71,
        "time": 32.85711000000004,
        "velocity": 0.7874015748031497,
        "duration": 0.11904750000000064
      },
      {
        "name": "A4",
        "midi": 69,
        "time": 33.03568125000004,
        "velocity": 0.7874015748031497,
        "duration": 0.11904750000000064
      },
      {
        "name": "A4",
        "midi": 69,
        "time": 33.214252500000036,
        "velocity": 0.7874015748031497,
        "duration": 0.23809500000000128
      },
      {
        "name": "A4",
        "midi": 69,
        "time": 33.57139500000004,
        "velocity": 0.7874015748031497,
        "duration": 0.23809500000000128
      },
      {
        "name": "G4",
        "midi": 67,
        "time": 33.92853750000004,
        "velocity": 0.7874015748031497,
        "duration": 0.11904750000000064
      },
      {
        "name": "A4",
        "midi": 69,
        "time": 34.10710875000004,
        "velocity": 0.7874015748031497,
        "duration": 0.23809500000000128
      },
      {
        "name": "G4",
        "midi": 67,
        "time": 34.46425125000004,
        "velocity": 0.7874015748031497,
        "duration": 0.23809500000000128
      },
      {
        "name": "B4",
        "midi": 71,
        "time": 34.82139375000004,
        "velocity": 0.7874015748031497,
        "duration": 0.23809500000000128
      },
      {
        "name": "G4",
        "midi": 67,
        "time": 35.535678750000045,
        "velocity": 0.7874015748031497,
        "duration": 0.11904750000000064
      },
      {
        "name": "A4",
        "midi": 69,
        "time": 35.71425000000004,
        "velocity": 0.7874015748031497,
        "duration": 0.11904750000000064
      },
      {
        "name": "A4",
        "midi": 69,
        "time": 35.89282125000004,
        "velocity": 0.7874015748031497,
        "duration": 0.11904750000000064
      },
      {
        "name": "A4",
        "midi": 69,
        "time": 36.07139250000004,
        "velocity": 0.7874015748031497,
        "duration": 0.11904750000000064
      },
      {
        "name": "A4",
        "midi": 69,
        "time": 36.249963750000035,
        "velocity": 0.7874015748031497,
        "duration": 0.11904750000000064
      },
      {
        "name": "A4",
        "midi": 69,
        "time": 36.42853500000003,
        "velocity": 0.7874015748031497,
        "duration": 0.23809500000000128
      },
      {
        "name": "A4",
        "midi": 69,
        "time": 36.785677500000034,
        "velocity": 0.7874015748031497,
        "duration": 0.23809500000000128
      },
      {
        "name": "A4",
        "midi": 69,
        "time": 37.142820000000036,
        "velocity": 0.7874015748031497,
        "duration": 0.11904750000000064
      },
      {
        "name": "G4",
        "midi": 67,
        "time": 37.32139125000003,
        "velocity": 0.7874015748031497,
        "duration": 0.11904750000000064
      },
      {
        "name": "A4",
        "midi": 69,
        "time": 37.49996250000003,
        "velocity": 0.7874015748031497,
        "duration": 0.23809500000000128
      },
      {
        "name": "A4",
        "midi": 69,
        "time": 37.85710500000003,
        "velocity": 0.7874015748031497,
        "duration": 0.7142849999999967
      },
      {
        "name": "G4",
        "midi": 67,
        "time": 38.39281875000003,
        "velocity": 0.7874015748031497,
        "duration": 0.11904750000000064
      },
      {
        "name": "B4",
        "midi": 71,
        "time": 38.57139000000003,
        "velocity": 0.7874015748031497,
        "duration": 0.11904750000000064
      },
      {
        "name": "B4",
        "midi": 71,
        "time": 38.74996125000003,
        "velocity": 0.7874015748031497,
        "duration": 0.11904750000000064
      },
      {
        "name": "B4",
        "midi": 71,
        "time": 38.928532500000024,
        "velocity": 0.7874015748031497,
        "duration": 0.11904750000000064
      },
      {
        "name": "A4",
        "midi": 69,
        "time": 39.10710375000002,
        "velocity": 0.7874015748031497,
        "duration": 0.11904750000000064
      },
      {
        "name": "B4",
        "midi": 71,
        "time": 39.28567500000002,
        "velocity": 0.7874015748031497,
        "duration": 0.23809500000000128
      },
      {
        "name": "G4",
        "midi": 67,
        "time": 39.64281750000002,
        "velocity": 0.7874015748031497,
        "duration": 0.23809500000000128
      },
      {
        "name": "B4",
        "midi": 71,
        "time": 39.99996000000002,
        "velocity": 0.7874015748031497,
        "duration": 0.23809500000000128
      },
      {
        "name": "G4",
        "midi": 67,
        "time": 40.357102500000025,
        "velocity": 0.7874015748031497,
        "duration": 0.11904750000000064
      },
      {
        "name": "B4",
        "midi": 71,
        "time": 40.53567375000002,
        "velocity": 0.7874015748031497,
        "duration": 0.23809500000000128
      },
      {
        "name": "G4",
        "midi": 67,
        "time": 40.892816250000024,
        "velocity": 0.7874015748031497,
        "duration": 0.11904750000000064
      },
      {
        "name": "G4",
        "midi": 67,
        "time": 41.07138750000002,
        "velocity": 0.7874015748031497,
        "duration": 0.11904750000000064
      },
      {
        "name": "C5",
        "midi": 72,
        "time": 41.24995875000002,
        "velocity": 0.7874015748031497,
        "duration": 0.11904750000000064
      },
      {
        "name": "G4",
        "midi": 67,
        "time": 41.428530000000016,
        "velocity": 0.7874015748031497,
        "duration": 0.23809500000000128
      },
      {
        "name": "A4",
        "midi": 69,
        "time": 41.78567250000002,
        "velocity": 0.7874015748031497,
        "duration": 0.11904750000000064
      },
      {
        "name": "G4",
        "midi": 67,
        "time": 41.964243750000016,
        "velocity": 0.7874015748031497,
        "duration": 0.11904750000000064
      },
      {
        "name": "G4",
        "midi": 67,
        "time": 42.14281500000001,
        "velocity": 0.7874015748031497,
        "duration": 0.23809500000000128
      },
      {
        "name": "E4",
        "midi": 64,
        "time": 42.499957500000015,
        "velocity": 0.7874015748031497,
        "duration": 0.23809500000000128
      },
      {
        "name": "B4",
        "midi": 71,
        "time": 42.85710000000002,
        "velocity": 0.7874015748031497,
        "duration": 0.23809500000000128
      },
      {
        "name": "B4",
        "midi": 71,
        "time": 43.21424250000002,
        "velocity": 0.7874015748031497,
        "duration": 0.23809500000000128
      },
      {
        "name": "A4",
        "midi": 69,
        "time": 43.57138500000002,
        "velocity": 0.7874015748031497,
        "duration": 0.23809500000000128
      },
      {
        "name": "G4",
        "midi": 67,
        "time": 43.92852750000002,
        "velocity": 0.7874015748031497,
        "duration": 0.23809500000000128
      },
      {
        "name": "G4",
        "midi": 67,
        "time": 47.85709500000002,
        "velocity": 0.7874015748031497,
        "duration": 0.23809500000000128
      },
      {
        "name": "G4",
        "midi": 67,
        "time": 48.214237500000024,
        "velocity": 0.7874015748031497,
        "duration": 0.23809500000000128
      },
      {
        "name": "B4",
        "midi": 71,
        "time": 48.571380000000026,
        "velocity": 0.7874015748031497,
        "duration": 0.23809500000000128
      },
      {
        "name": "D5",
        "midi": 74,
        "time": 48.92852250000003,
        "velocity": 0.7874015748031497,
        "duration": 0.23809500000000128
      },
      {
        "name": "D5",
        "midi": 74,
        "time": 49.28566500000003,
        "velocity": 0.7874015748031497,
        "duration": 0.11904750000000064
      },
      {
        "name": "E5",
        "midi": 76,
        "time": 49.46423625000003,
        "velocity": 0.7874015748031497,
        "duration": 0.23809500000000128
      },
      {
        "name": "B4",
        "midi": 71,
        "time": 49.82137875000003,
        "velocity": 0.7874015748031497,
        "duration": 0.23809500000000128
      },
      {
        "name": "A4",
        "midi": 69,
        "time": 50.17852125000003,
        "velocity": 0.7874015748031497,
        "duration": 0.7142849999999967
      },
      {
        "name": "D5",
        "midi": 74,
        "time": 51.24994875000003,
        "velocity": 0.7874015748031497,
        "duration": 0.11904750000000064
      },
      {
        "name": "C5",
        "midi": 72,
        "time": 51.42852000000003,
        "velocity": 0.7874015748031497,
        "duration": 0.23809500000000128
      },
      {
        "name": "D5",
        "midi": 74,
        "time": 51.78566250000003,
        "velocity": 0.7874015748031497,
        "duration": 0.23809500000000128
      },
      {
        "name": "A#4",
        "midi": 70,
        "time": 52.14280500000003,
        "velocity": 0.7874015748031497,
        "duration": 0.47619000000000256
      },
      {
        "name": "B4",
        "midi": 71,
        "time": 53.928517500000034,
        "velocity": 0.7874015748031497,
        "duration": 0.23809500000000128
      },
      {
        "name": "A4",
        "midi": 69,
        "time": 54.285660000000036,
        "velocity": 0.7874015748031497,
        "duration": 0.23809500000000128
      },
      {
        "name": "G4",
        "midi": 67,
        "time": 54.64280250000004,
        "velocity": 0.7874015748031497,
        "duration": 0.23809500000000128
      },
      {
        "name": "G4",
        "midi": 67,
        "time": 54.99994500000004,
        "velocity": 0.7874015748031497,
        "duration": 0.952379999999998
      },
      {
        "name": "G4",
        "midi": 67,
        "time": 59.46422625000004,
        "velocity": 0.7874015748031497,
        "duration": 0.11904750000000064
      },
      {
        "name": "B4",
        "midi": 71,
        "time": 59.642797500000036,
        "velocity": 0.7874015748031497,
        "duration": 0.11904750000000064
      },
      {
        "name": "B4",
        "midi": 71,
        "time": 59.82136875000003,
        "velocity": 0.7874015748031497,
        "duration": 0.11904750000000064
      },
      {
        "name": "A4",
        "midi": 69,
        "time": 59.99994000000003,
        "velocity": 0.7874015748031497,
        "duration": 0.11904750000000064
      },
      {
        "name": "G4",
        "midi": 67,
        "time": 60.17851125000003,
        "velocity": 0.7874015748031497,
        "duration": 0.11904750000000064
      },
      {
        "name": "A4",
        "midi": 69,
        "time": 60.357082500000026,
        "velocity": 0.7874015748031497,
        "duration": 0.11904750000000064
      },
      {
        "name": "A4",
        "midi": 69,
        "time": 60.71422500000003,
        "velocity": 0.7874015748031497,
        "duration": 0.11904750000000064
      },
      {
        "name": "A4",
        "midi": 69,
        "time": 61.07136750000003,
        "velocity": 0.7874015748031497,
        "duration": 0.11904750000000064
      },
      {
        "name": "G4",
        "midi": 67,
        "time": 61.24993875000003,
        "velocity": 0.7874015748031497,
        "duration": 0.11904750000000064
      },
      {
        "name": "A4",
        "midi": 69,
        "time": 61.428510000000024,
        "velocity": 0.7874015748031497,
        "duration": 0.11904750000000064
      },
      {
        "name": "A4",
        "midi": 69,
        "time": 61.60708125000002,
        "velocity": 0.7874015748031497,
        "duration": 0.11904750000000064
      },
      {
        "name": "G4",
        "midi": 67,
        "time": 61.78565250000002,
        "velocity": 0.7874015748031497,
        "duration": 0.11904750000000064
      },
      {
        "name": "A4",
        "midi": 69,
        "time": 61.964223750000016,
        "velocity": 0.7874015748031497,
        "duration": 0.23809500000000128
      },
      {
        "name": "A4",
        "midi": 69,
        "time": 62.499937500000016,
        "velocity": 0.7874015748031497,
        "duration": 0.23809500000000128
      },
      {
        "name": "B4",
        "midi": 71,
        "time": 62.85708000000002,
        "velocity": 0.7874015748031497,
        "duration": 0.05952374999999677
      },
      {
        "name": "A4",
        "midi": 69,
        "time": 62.94636562500001,
        "velocity": 0.7874015748031497,
        "duration": 0.11904750000000064
      },
      {
        "name": "G4",
        "midi": 67,
        "time": 63.12493687500001,
        "velocity": 0.7874015748031497,
        "duration": 0.11904750000000064
      },
      {
        "name": "A4",
        "midi": 69,
        "time": 63.30350812500001,
        "velocity": 0.7874015748031497,
        "duration": 0.23809499999999417
      },
      {
        "name": "G4",
        "midi": 67,
        "time": 63.39279375000001,
        "velocity": 0.7874015748031497,
        "duration": 0.05952374999999677
      },
      {
        "name": "G4",
        "midi": 67,
        "time": 63.482079375000005,
        "velocity": 0.7874015748031497,
        "duration": 0.05952374999999677
      },
      {
        "name": "A4",
        "midi": 69,
        "time": 63.571365,
        "velocity": 0.7874015748031497,
        "duration": 0.23809500000000128
      },
      {
        "name": "A4",
        "midi": 69,
        "time": 63.839221875,
        "velocity": 0.7874015748031497,
        "duration": 0.11904750000000064
      },
      {
        "name": "G4",
        "midi": 67,
        "time": 64.10707875,
        "velocity": 0.7874015748031497,
        "duration": 0.11904749999999353
      },
      {
        "name": "C5",
        "midi": 72,
        "time": 64.28564999999999,
        "velocity": 0.7874015748031497,
        "duration": 0.11904749999999353
      },
      {
        "name": "F#4",
        "midi": 66,
        "time": 64.46422124999998,
        "velocity": 0.7874015748031497,
        "duration": 0.11904749999999353
      },
      {
        "name": "E4",
        "midi": 64,
        "time": 64.64279249999997,
        "velocity": 0.7874015748031497,
        "duration": 0.11904749999999353
      },
      {
        "name": "E4",
        "midi": 64,
        "time": 64.82136374999996,
        "velocity": 0.7874015748031497,
        "duration": 0.23809500000000128
      },
      {
        "name": "A4",
        "midi": 69,
        "time": 65.35707749999996,
        "velocity": 0.7874015748031497,
        "duration": 0.11904749999999353
      },
      {
        "name": "A4",
        "midi": 69,
        "time": 65.53564874999995,
        "velocity": 0.7874015748031497,
        "duration": 0.11904749999999353
      },
      {
        "name": "B4",
        "midi": 71,
        "time": 65.71421999999994,
        "velocity": 0.7874015748031497,
        "duration": 0.11904749999999353
      },
      {
        "name": "B4",
        "midi": 71,
        "time": 65.89279124999993,
        "velocity": 0.7874015748031497,
        "duration": 0.11904749999999353
      },
      {
        "name": "B4",
        "midi": 71,
        "time": 66.07136249999992,
        "velocity": 0.7874015748031497,
        "duration": 0.23809500000000128
      },
      {
        "name": "G4",
        "midi": 67,
        "time": 66.96421874999993,
        "velocity": 0.7874015748031497,
        "duration": 0.11904749999999353
      },
      {
        "name": "B4",
        "midi": 71,
        "time": 67.14278999999992,
        "velocity": 0.7874015748031497,
        "duration": 0.11904749999999353
      },
      {
        "name": "B4",
        "midi": 71,
        "time": 67.32136124999991,
        "velocity": 0.7874015748031497,
        "duration": 0.11904749999999353
      },
      {
        "name": "A4",
        "midi": 69,
        "time": 67.4999324999999,
        "velocity": 0.7874015748031497,
        "duration": 0.11904749999999353
      },
      {
        "name": "B4",
        "midi": 71,
        "time": 67.67850374999989,
        "velocity": 0.7874015748031497,
        "duration": 0.11904749999999353
      },
      {
        "name": "G4",
        "midi": 67,
        "time": 67.94636062499988,
        "velocity": 0.7874015748031497,
        "duration": 0.11904749999999353
      },
      {
        "name": "G4",
        "midi": 67,
        "time": 68.21421749999988,
        "velocity": 0.7874015748031497,
        "duration": 0.23809500000000128
      },
      {
        "name": "B4",
        "midi": 71,
        "time": 68.57135999999987,
        "velocity": 0.7874015748031497,
        "duration": 0.11904749999999353
      },
      {
        "name": "B4",
        "midi": 71,
        "time": 68.74993124999986,
        "velocity": 0.7874015748031497,
        "duration": 0.11904749999999353
      },
      {
        "name": "A4",
        "midi": 69,
        "time": 68.92850249999985,
        "velocity": 0.7874015748031497,
        "duration": 0.11904749999999353
      },
      {
        "name": "B4",
        "midi": 71,
        "time": 69.10707374999984,
        "velocity": 0.7874015748031497,
        "duration": 0.11904749999999353
      },
      {
        "name": "A4",
        "midi": 69,
        "time": 69.28564499999983,
        "velocity": 0.7874015748031497,
        "duration": 0.11904749999999353
      },
      {
        "name": "G4",
        "midi": 67,
        "time": 69.46421624999982,
        "velocity": 0.7874015748031497,
        "duration": 0.11904750000000774
      },
      {
        "name": "G4",
        "midi": 67,
        "time": 69.55350187499982,
        "velocity": 0.7874015748031497,
        "duration": 0.23809500000000128
      },
      {
        "name": "B4",
        "midi": 71,
        "time": 69.99992999999982,
        "velocity": 0.7874015748031497,
        "duration": 0.11904749999999353
      },
      {
        "name": "E4",
        "midi": 64,
        "time": 70.17850124999981,
        "velocity": 0.7874015748031497,
        "duration": 0.11904749999999353
      },
      {
        "name": "G4",
        "midi": 67,
        "time": 70.3570724999998,
        "velocity": 0.7874015748031497,
        "duration": 0.23809500000000128
      },
      {
        "name": "E4",
        "midi": 64,
        "time": 70.7142149999998,
        "velocity": 0.7874015748031497,
        "duration": 0.47619000000000256
      },
      {
        "name": "B4",
        "midi": 71,
        "time": 75.3570674999998,
        "velocity": 0.7874015748031497,
        "duration": 0.11904749999999353
      },
      {
        "name": "B4",
        "midi": 71,
        "time": 75.53563874999979,
        "velocity": 0.7874015748031497,
        "duration": 0.11904749999999353
      },
      {
        "name": "A4",
        "midi": 69,
        "time": 75.71420999999978,
        "velocity": 0.7874015748031497,
        "duration": 0.23809500000000128
      },
      {
        "name": "A4",
        "midi": 69,
        "time": 76.07135249999978,
        "velocity": 0.7874015748031497,
        "duration": 0.23809500000000128
      },
      {
        "name": "G4",
        "midi": 67,
        "time": 76.60706624999978,
        "velocity": 0.7874015748031497,
        "duration": 0.11904749999999353
      },
      {
        "name": "A4",
        "midi": 69,
        "time": 76.78563749999977,
        "velocity": 0.7874015748031497,
        "duration": 0.11904749999999353
      },
      {
        "name": "G4",
        "midi": 67,
        "time": 76.96420874999976,
        "velocity": 0.7874015748031497,
        "duration": 0.11904749999999353
      },
      {
        "name": "A4",
        "midi": 69,
        "time": 77.14277999999975,
        "velocity": 0.7874015748031497,
        "duration": 0.23809500000000128
      },
      {
        "name": "A4",
        "midi": 69,
        "time": 77.49992249999974,
        "velocity": 0.7874015748031497,
        "duration": 0.23809500000000128
      },
      {
        "name": "A4",
        "midi": 69,
        "time": 77.85706499999974,
        "velocity": 0.7874015748031497,
        "duration": 0.11904749999999353
      },
      {
        "name": "G4",
        "midi": 67,
        "time": 78.03563624999973,
        "velocity": 0.7874015748031497,
        "duration": 0.11904749999999353
      },
      {
        "name": "A4",
        "midi": 69,
        "time": 78.21420749999972,
        "velocity": 0.7874015748031497,
        "duration": 0.11904749999999353
      },
      {
        "name": "G4",
        "midi": 67,
        "time": 78.3927787499997,
        "velocity": 0.7874015748031497,
        "duration": 0.11904749999999353
      },
      {
        "name": "A4",
        "midi": 69,
        "time": 78.5713499999997,
        "velocity": 0.7874015748031497,
        "duration": 0.11904749999999353
      },
      {
        "name": "G4",
        "midi": 67,
        "time": 78.74992124999969,
        "velocity": 0.7874015748031497,
        "duration": 0.11904749999999353
      },
      {
        "name": "A4",
        "midi": 69,
        "time": 78.92849249999968,
        "velocity": 0.7874015748031497,
        "duration": 0.11904749999999353
      },
      {
        "name": "G4",
        "midi": 67,
        "time": 79.10706374999967,
        "velocity": 0.7874015748031497,
        "duration": 0.11904749999999353
      },
      {
        "name": "A4",
        "midi": 69,
        "time": 79.28563499999966,
        "velocity": 0.7874015748031497,
        "duration": 0.23809500000000128
      },
      {
        "name": "G4",
        "midi": 67,
        "time": 79.64277749999965,
        "velocity": 0.7874015748031497,
        "duration": 0.11904749999999353
      },
      {
        "name": "B4",
        "midi": 71,
        "time": 79.82134874999964,
        "velocity": 0.7874015748031497,
        "duration": 0.23809500000000128
      },
      {
        "name": "B4",
        "midi": 71,
        "time": 80.35706249999964,
        "velocity": 0.7874015748031497,
        "duration": 0.23809500000000128
      },
      {
        "name": "B4",
        "midi": 71,
        "time": 80.71420499999964,
        "velocity": 0.7874015748031497,
        "duration": 0.23809500000000128
      },
      {
        "name": "G4",
        "midi": 67,
        "time": 81.07134749999963,
        "velocity": 0.7874015748031497,
        "duration": 0.23809500000000128
      },
      {
        "name": "B4",
        "midi": 71,
        "time": 81.42848999999963,
        "velocity": 0.7874015748031497,
        "duration": 0.11904749999999353
      },
      {
        "name": "B4",
        "midi": 71,
        "time": 81.60706124999962,
        "velocity": 0.7874015748031497,
        "duration": 0.11904749999999353
      },
      {
        "name": "B4",
        "midi": 71,
        "time": 81.78563249999961,
        "velocity": 0.7874015748031497,
        "duration": 0.23809500000000128
      },
      {
        "name": "B4",
        "midi": 71,
        "time": 82.1427749999996,
        "velocity": 0.7874015748031497,
        "duration": 0.11904749999999353
      },
      {
        "name": "E4",
        "midi": 64,
        "time": 82.32134624999959,
        "velocity": 0.7874015748031497,
        "duration": 0.23809500000000128
      },
      {
        "name": "G4",
        "midi": 67,
        "time": 82.67848874999959,
        "velocity": 0.7874015748031497,
        "duration": 0.11904749999999353
      },
      {
        "name": "B4",
        "midi": 71,
        "time": 82.85705999999958,
        "velocity": 0.7874015748031497,
        "duration": 0.11904749999999353
      },
      {
        "name": "A4",
        "midi": 69,
        "time": 83.03563124999957,
        "velocity": 0.7874015748031497,
        "duration": 0.11904749999999353
      },
      {
        "name": "A4",
        "midi": 69,
        "time": 83.21420249999956,
        "velocity": 0.7874015748031497,
        "duration": 0.23809500000000128
      },
      {
        "name": "A4",
        "midi": 69,
        "time": 83.57134499999955,
        "velocity": 0.7874015748031497,
        "duration": 0.3571424999999948
      },
      {
        "name": "G4",
        "midi": 67,
        "time": 84.10705874999955,
        "velocity": 0.7874015748031497,
        "duration": 0.11904749999999353
      },
      {
        "name": "A4",
        "midi": 69,
        "time": 84.28562999999954,
        "velocity": 0.7874015748031497,
        "duration": 0.23809500000000128
      },
      {
        "name": "A4",
        "midi": 69,
        "time": 84.64277249999954,
        "velocity": 0.7874015748031497,
        "duration": 0.11904749999999353
      },
      {
        "name": "A4",
        "midi": 69,
        "time": 84.82134374999953,
        "velocity": 0.7874015748031497,
        "duration": 0.11904749999999353
      },
      {
        "name": "A4",
        "midi": 69,
        "time": 85.35705749999953,
        "velocity": 0.7874015748031497,
        "duration": 0.11904749999999353
      },
      {
        "name": "F4",
        "midi": 65,
        "time": 85.53562874999952,
        "velocity": 0.7874015748031497,
        "duration": 0.11904749999999353
      },
      {
        "name": "B4",
        "midi": 71,
        "time": 85.71419999999951,
        "velocity": 0.7874015748031497,
        "duration": 0.23809500000000128
      },
      {
        "name": "E4",
        "midi": 64,
        "time": 86.0713424999995,
        "velocity": 0.7874015748031497,
        "duration": 0.11904749999999353
      },
      {
        "name": "B4",
        "midi": 71,
        "time": 86.2499137499995,
        "velocity": 0.7874015748031497,
        "duration": 0.23809500000000128
      },
      {
        "name": "D4",
        "midi": 62,
        "time": 86.78562749999949,
        "velocity": 0.7874015748031497,
        "duration": 0.23809500000000128
      },
      {
        "name": "D4",
        "midi": 62,
        "time": 87.14276999999949,
        "velocity": 0.7874015748031497,
        "duration": 0.47619000000000256
      },
      {
        "name": "G4",
        "midi": 67,
        "time": 90.71419499999949,
        "velocity": 0.7874015748031497,
        "duration": 0.23809500000000128
      },
      {
        "name": "G4",
        "midi": 67,
        "time": 91.07133749999949,
        "velocity": 0.7874015748031497,
        "duration": 0.23809500000000128
      },
      {
        "name": "B4",
        "midi": 71,
        "time": 91.42847999999948,
        "velocity": 0.7874015748031497,
        "duration": 0.23809500000000128
      },
      {
        "name": "D5",
        "midi": 74,
        "time": 91.78562249999948,
        "velocity": 0.7874015748031497,
        "duration": 0.23809500000000128
      },
      {
        "name": "D5",
        "midi": 74,
        "time": 92.14276499999947,
        "velocity": 0.7874015748031497,
        "duration": 0.11904749999999353
      },
      {
        "name": "E5",
        "midi": 76,
        "time": 92.32133624999946,
        "velocity": 0.7874015748031497,
        "duration": 0.23809500000000128
      },
      {
        "name": "B4",
        "midi": 71,
        "time": 92.67847874999946,
        "velocity": 0.7874015748031497,
        "duration": 0.23809500000000128
      },
      {
        "name": "A4",
        "midi": 69,
        "time": 93.03562124999945,
        "velocity": 0.7874015748031497,
        "duration": 0.7142850000000038
      },
      {
        "name": "D5",
        "midi": 74,
        "time": 94.10704874999945,
        "velocity": 0.7874015748031497,
        "duration": 0.11904749999999353
      },
      {
        "name": "C5",
        "midi": 72,
        "time": 94.28561999999944,
        "velocity": 0.7874015748031497,
        "duration": 0.11904749999999353
      },
      {
        "name": "C5",
        "midi": 72,
        "time": 94.46419124999943,
        "velocity": 0.7874015748031497,
        "duration": 0.11904749999999353
      },
      {
        "name": "D5",
        "midi": 74,
        "time": 94.64276249999942,
        "velocity": 0.7874015748031497,
        "duration": 0.23809500000000128
      },
      {
        "name": "A#4",
        "midi": 70,
        "time": 94.99990499999942,
        "velocity": 0.7874015748031497,
        "duration": 0.47619000000000256
      },
      {
        "name": "B4",
        "midi": 71,
        "time": 96.78561749999942,
        "velocity": 0.7874015748031497,
        "duration": 0.23809500000000128
      },
      {
        "name": "E5",
        "midi": 76,
        "time": 96.78561749999942,
        "velocity": 0.7874015748031497,
        "duration": 0.23809500000000128
      },
      {
        "name": "D5",
        "midi": 74,
        "time": 97.14275999999941,
        "velocity": 0.7874015748031497,
        "duration": 0.23809500000000128
      },
      {
        "name": "D5",
        "midi": 74,
        "time": 97.49990249999941,
        "velocity": 0.7874015748031497,
        "duration": 0.11904749999999353
      },
      {
        "name": "B4",
        "midi": 71,
        "time": 97.6784737499994,
        "velocity": 0.7874015748031497,
        "duration": 0.23809500000000128
      },
      {
        "name": "A4",
        "midi": 69,
        "time": 98.03561624999939,
        "velocity": 0.7874015748031497,
        "duration": 0.11904749999999353
      },
      {
        "name": "G4",
        "midi": 67,
        "time": 98.21418749999938,
        "velocity": 0.7874015748031497,
        "duration": 0.23809500000000128
      },
      {
        "name": "A4",
        "midi": 69,
        "time": 114.28559999999939,
        "velocity": 0.7874015748031497,
        "duration": 0.11904749999999353
      },
      {
        "name": "G4",
        "midi": 67,
        "time": 114.46417124999938,
        "velocity": 0.7874015748031497,
        "duration": 0.11904749999999353
      },
      {
        "name": "A4",
        "midi": 69,
        "time": 114.64274249999937,
        "velocity": 0.7874015748031497,
        "duration": 0.23809500000000128
      },
      {
        "name": "A4",
        "midi": 69,
        "time": 114.99988499999937,
        "velocity": 0.7874015748031497,
        "duration": 0.23809500000000128
      },
      {
        "name": "A4",
        "midi": 69,
        "time": 115.35702749999936,
        "velocity": 0.7874015748031497,
        "duration": 0.11904749999999353
      },
      {
        "name": "G4",
        "midi": 67,
        "time": 115.53559874999935,
        "velocity": 0.7874015748031497,
        "duration": 0.11904749999999353
      },
      {
        "name": "A4",
        "midi": 69,
        "time": 115.71416999999934,
        "velocity": 0.7874015748031497,
        "duration": 0.11904749999999353
      },
      {
        "name": "A4",
        "midi": 69,
        "time": 115.89274124999933,
        "velocity": 0.7874015748031497,
        "duration": 0.11904749999999353
      },
      {
        "name": "G4",
        "midi": 67,
        "time": 116.07131249999932,
        "velocity": 0.7874015748031497,
        "duration": 0.11904749999999353
      },
      {
        "name": "A4",
        "midi": 69,
        "time": 116.24988374999931,
        "velocity": 0.7874015748031497,
        "duration": 0.23809500000000128
      },
      {
        "name": "G4",
        "midi": 67,
        "time": 116.78559749999931,
        "velocity": 0.7874015748031497,
        "duration": 0.11904749999999353
      },
      {
        "name": "A4",
        "midi": 69,
        "time": 116.9641687499993,
        "velocity": 0.7874015748031497,
        "duration": 0.11904749999999353
      },
      {
        "name": "B4",
        "midi": 71,
        "time": 117.14273999999929,
        "velocity": 0.7874015748031497,
        "duration": 0.11904749999999353
      },
      {
        "name": "G4",
        "midi": 67,
        "time": 117.32131124999928,
        "velocity": 0.7874015748031497,
        "duration": 0.11904749999999353
      },
      {
        "name": "A4",
        "midi": 69,
        "time": 117.49988249999927,
        "velocity": 0.7874015748031497,
        "duration": 0.11904749999999353
      },
      {
        "name": "G4",
        "midi": 67,
        "time": 117.67845374999926,
        "velocity": 0.7874015748031497,
        "duration": 0.11904749999999353
      },
      {
        "name": "A4",
        "midi": 69,
        "time": 117.85702499999925,
        "velocity": 0.7874015748031497,
        "duration": 0.23809500000000128
      },
      {
        "name": "A4",
        "midi": 69,
        "time": 118.21416749999925,
        "velocity": 0.7874015748031497,
        "duration": 0.11904749999999353
      },
      {
        "name": "G4",
        "midi": 67,
        "time": 118.39273874999924,
        "velocity": 0.7874015748031497,
        "duration": 0.11904749999999353
      },
      {
        "name": "C5",
        "midi": 72,
        "time": 118.57130999999923,
        "velocity": 0.7874015748031497,
        "duration": 0.11904749999999353
      },
      {
        "name": "F4",
        "midi": 65,
        "time": 118.74988124999922,
        "velocity": 0.7874015748031497,
        "duration": 0.11904749999999353
      },
      {
        "name": "E4",
        "midi": 64,
        "time": 118.92845249999921,
        "velocity": 0.7874015748031497,
        "duration": 0.11904749999999353
      },
      {
        "name": "E4",
        "midi": 64,
        "time": 119.1070237499992,
        "velocity": 0.7874015748031497,
        "duration": 0.23809500000000128
      },
      {
        "name": "A4",
        "midi": 69,
        "time": 119.6427374999992,
        "velocity": 0.7874015748031497,
        "duration": 0.11904749999999353
      },
      {
        "name": "A4",
        "midi": 69,
        "time": 119.82130874999919,
        "velocity": 0.7874015748031497,
        "duration": 0.11904749999999353
      },
      {
        "name": "B4",
        "midi": 71,
        "time": 120.89273624999919,
        "velocity": 0.7874015748031497,
        "duration": 0.11904749999999353
      },
      {
        "name": "B4",
        "midi": 71,
        "time": 121.07130749999918,
        "velocity": 0.7874015748031497,
        "duration": 0.23809500000000128
      },
      {
        "name": "A4",
        "midi": 69,
        "time": 121.24987874999918,
        "velocity": 0.7874015748031497,
        "duration": 0.11904749999999353
      },
      {
        "name": "E4",
        "midi": 64,
        "time": 121.96416374999917,
        "velocity": 0.7874015748031497,
        "duration": 0.11904749999999353
      },
      {
        "name": "G4",
        "midi": 67,
        "time": 122.14273499999916,
        "velocity": 0.7874015748031497,
        "duration": 0.23809500000000128
      },
      {
        "name": "E4",
        "midi": 64,
        "time": 122.49987749999916,
        "velocity": 0.7874015748031497,
        "duration": 0.23809500000000128
      },
      {
        "name": "B4",
        "midi": 71,
        "time": 122.85701999999915,
        "velocity": 0.7874015748031497,
        "duration": 0.11904749999999353
      },
      {
        "name": "F4",
        "midi": 65,
        "time": 123.03559124999914,
        "velocity": 0.7874015748031497,
        "duration": 0.11904749999999353
      },
      {
        "name": "A4",
        "midi": 69,
        "time": 123.57130499999914,
        "velocity": 0.7874015748031497,
        "duration": 0.11904749999999353
      },
      {
        "name": "G4",
        "midi": 67,
        "time": 123.74987624999913,
        "velocity": 0.7874015748031497,
        "duration": 0.11904749999999353
      },
      {
        "name": "G4",
        "midi": 67,
        "time": 123.92844749999912,
        "velocity": 0.7874015748031497,
        "duration": 0.23809500000000128
      },
      {
        "name": "B4",
        "midi": 71,
        "time": 124.28558999999912,
        "velocity": 0.7874015748031497,
        "duration": 0.11904749999999353
      },
      {
        "name": "E4",
        "midi": 64,
        "time": 124.46416124999911,
        "velocity": 0.7874015748031497,
        "duration": 0.11904749999999353
      },
      {
        "name": "G4",
        "midi": 67,
        "time": 124.6427324999991,
        "velocity": 0.7874015748031497,
        "duration": 0.23809500000000128
      },
      {
        "name": "E4",
        "midi": 64,
        "time": 124.9998749999991,
        "velocity": 0.7874015748031497,
        "duration": 0.47619000000000256
      },
      {
        "name": "B4",
        "midi": 71,
        "time": 129.4641562499991,
        "velocity": 0.7874015748031497,
        "duration": 0.11904749999999353
      },
      {
        "name": "B4",
        "midi": 71,
        "time": 129.6427274999991,
        "velocity": 0.7874015748031497,
        "duration": 0.11904749999999353
      },
      {
        "name": "B4",
        "midi": 71,
        "time": 129.8212987499991,
        "velocity": 0.7874015748031497,
        "duration": 0.11904749999999353
      },
      {
        "name": "A4",
        "midi": 69,
        "time": 129.9998699999991,
        "velocity": 0.7874015748031497,
        "duration": 0.23809499999998707
      },
      {
        "name": "A4",
        "midi": 69,
        "time": 130.3570124999991,
        "velocity": 0.7874015748031497,
        "duration": 0.23809499999998707
      },
      {
        "name": "A4",
        "midi": 69,
        "time": 130.71415499999907,
        "velocity": 0.7874015748031497,
        "duration": 0.23809499999998707
      },
      {
        "name": "A4",
        "midi": 69,
        "time": 131.07129749999905,
        "velocity": 0.7874015748031497,
        "duration": 0.11904749999999353
      },
      {
        "name": "G4",
        "midi": 67,
        "time": 131.24986874999905,
        "velocity": 0.7874015748031497,
        "duration": 0.11904749999999353
      },
      {
        "name": "G4",
        "midi": 67,
        "time": 131.60701124999903,
        "velocity": 0.7874015748031497,
        "duration": 0.11904749999999353
      },
      {
        "name": "A4",
        "midi": 69,
        "time": 131.78558249999904,
        "velocity": 0.7874015748031497,
        "duration": 0.11904749999999353
      },
      {
        "name": "A4",
        "midi": 69,
        "time": 131.96415374999904,
        "velocity": 0.7874015748031497,
        "duration": 0.11904749999999353
      },
      {
        "name": "A4",
        "midi": 69,
        "time": 132.32129624999902,
        "velocity": 0.7874015748031497,
        "duration": 0.11904749999999353
      },
      {
        "name": "A4",
        "midi": 69,
        "time": 132.49986749999903,
        "velocity": 0.7874015748031497,
        "duration": 0.11904749999999353
      },
      {
        "name": "G4",
        "midi": 67,
        "time": 132.67843874999903,
        "velocity": 0.7874015748031497,
        "duration": 0.11904749999999353
      },
      {
        "name": "A4",
        "midi": 69,
        "time": 132.85700999999904,
        "velocity": 0.7874015748031497,
        "duration": 0.11904749999999353
      },
      {
        "name": "G4",
        "midi": 67,
        "time": 133.03558124999904,
        "velocity": 0.7874015748031497,
        "duration": 0.11904749999999353
      },
      {
        "name": "A4",
        "midi": 69,
        "time": 133.21415249999905,
        "velocity": 0.7874015748031497,
        "duration": 0.11904749999999353
      },
      {
        "name": "G4",
        "midi": 67,
        "time": 133.39272374999905,
        "velocity": 0.7874015748031497,
        "duration": 0.11904749999999353
      },
      {
        "name": "G4",
        "midi": 67,
        "time": 133.92843749999903,
        "velocity": 0.7874015748031497,
        "duration": 0.11904749999999353
      },
      {
        "name": "B4",
        "midi": 71,
        "time": 134.10700874999904,
        "velocity": 0.7874015748031497,
        "duration": 0.23809499999998707
      },
      {
        "name": "G4",
        "midi": 67,
        "time": 134.46415124999902,
        "velocity": 0.7874015748031497,
        "duration": 0.11904749999999353
      },
      {
        "name": "B4",
        "midi": 71,
        "time": 134.64272249999902,
        "velocity": 0.7874015748031497,
        "duration": 0.11904749999999353
      },
      {
        "name": "A4",
        "midi": 69,
        "time": 134.82129374999903,
        "velocity": 0.7874015748031497,
        "duration": 0.11904749999999353
      },
      {
        "name": "B4",
        "midi": 71,
        "time": 134.99986499999903,
        "velocity": 0.7874015748031497,
        "duration": 0.23809499999998707
      },
      {
        "name": "G4",
        "midi": 67,
        "time": 135.53557874999902,
        "velocity": 0.7874015748031497,
        "duration": 0.11904749999999353
      },
      {
        "name": "B4",
        "midi": 71,
        "time": 135.71414999999902,
        "velocity": 0.7874015748031497,
        "duration": 0.11904749999999353
      },
      {
        "name": "B4",
        "midi": 71,
        "time": 135.89272124999903,
        "velocity": 0.7874015748031497,
        "duration": 0.11904749999999353
      },
      {
        "name": "B4",
        "midi": 71,
        "time": 136.07129249999903,
        "velocity": 0.7874015748031497,
        "duration": 0.23809499999998707
      },
      {
        "name": "B4",
        "midi": 71,
        "time": 136.428434999999,
        "velocity": 0.7874015748031497,
        "duration": 0.11904749999999353
      },
      {
        "name": "E4",
        "midi": 64,
        "time": 136.60700624999902,
        "velocity": 0.7874015748031497,
        "duration": 0.23809499999998707
      },
      {
        "name": "G4",
        "midi": 67,
        "time": 136.964148749999,
        "velocity": 0.7874015748031497,
        "duration": 0.11904749999999353
      },
      {
        "name": "B4",
        "midi": 71,
        "time": 137.142719999999,
        "velocity": 0.7874015748031497,
        "duration": 0.11904749999999353
      },
      {
        "name": "A4",
        "midi": 69,
        "time": 137.321291249999,
        "velocity": 0.7874015748031497,
        "duration": 0.11904749999999353
      },
      {
        "name": "A4",
        "midi": 69,
        "time": 137.499862499999,
        "velocity": 0.7874015748031497,
        "duration": 0.23809499999998707
      },
      {
        "name": "A4",
        "midi": 69,
        "time": 137.857004999999,
        "velocity": 0.7874015748031497,
        "duration": 0.357142500000009
      },
      {
        "name": "G4",
        "midi": 67,
        "time": 138.214147499999,
        "velocity": 0.7874015748031497,
        "duration": 0.11904749999999353
      },
      {
        "name": "G4",
        "midi": 67,
        "time": 138.392718749999,
        "velocity": 0.7874015748031497,
        "duration": 0.11904749999999353
      },
      {
        "name": "A4",
        "midi": 69,
        "time": 138.928432499999,
        "velocity": 0.7874015748031497,
        "duration": 0.11904749999999353
      },
      {
        "name": "A4",
        "midi": 69,
        "time": 139.107003749999,
        "velocity": 0.7874015748031497,
        "duration": 0.11904749999999353
      },
      {
        "name": "G4",
        "midi": 67,
        "time": 139.285574999999,
        "velocity": 0.7874015748031497,
        "duration": 0.2380950000000155
      },
      {
        "name": "A4",
        "midi": 69,
        "time": 139.464146249999,
        "velocity": 0.7874015748031497,
        "duration": 0.2380950000000155
      },
      {
        "name": "E4",
        "midi": 64,
        "time": 139.642717499999,
        "velocity": 0.7874015748031497,
        "duration": 0.2380950000000155
      },
      {
        "name": "B4",
        "midi": 71,
        "time": 139.99985999999902,
        "velocity": 0.7874015748031497,
        "duration": 0.11904749999999353
      },
      {
        "name": "G4",
        "midi": 67,
        "time": 140.17843124999902,
        "velocity": 0.7874015748031497,
        "duration": 0.23809499999998707
      },
      {
        "name": "B4",
        "midi": 71,
        "time": 140.535573749999,
        "velocity": 0.7874015748031497,
        "duration": 0.11904749999999353
      },
      {
        "name": "G4",
        "midi": 67,
        "time": 140.714144999999,
        "velocity": 0.7874015748031497,
        "duration": 0.11904749999999353
      },
      {
        "name": "B4",
        "midi": 71,
        "time": 140.892716249999,
        "velocity": 0.7874015748031497,
        "duration": 0.357142500000009
      },
      {
        "name": "D4",
        "midi": 62,
        "time": 141.42842999999903,
        "velocity": 0.7874015748031497,
        "duration": 0.47619000000000256
      }
    ]
  },
  {
    "startTime": 17.14284,
    "duration": 163.34061046874947,
    "length": 210,
    "id": 4,
    "name": "Bass",
    "instrumentNumber": 32,
    "instrument": "acoustic bass",
    "instrumentFamily": "bass",
    "channelNumber": 3,
    "isPercussion": false,
    "notes": [
      {
        "name": "F2",
        "midi": 41,
        "time": 17.14284,
        "velocity": 0.7874015748031497,
        "duration": 1.4285700000000006
      },
      {
        "name": "D2",
        "midi": 38,
        "time": 18.39283875,
        "velocity": 0.7874015748031497,
        "duration": 0.11904750000000064
      },
      {
        "name": "F2",
        "midi": 41,
        "time": 18.57141,
        "velocity": 0.7874015748031497,
        "duration": 0.23809500000000128
      },
      {
        "name": "F2",
        "midi": 41,
        "time": 18.928552500000002,
        "velocity": 0.7874015748031497,
        "duration": 0.23809500000000128
      },
      {
        "name": "A2",
        "midi": 45,
        "time": 19.999980000000004,
        "velocity": 0.7874015748031497,
        "duration": 0.9523800000000016
      },
      {
        "name": "A2",
        "midi": 45,
        "time": 21.249978750000007,
        "velocity": 0.7874015748031497,
        "duration": 0.11904750000000064
      },
      {
        "name": "A2",
        "midi": 45,
        "time": 21.42855000000001,
        "velocity": 0.7874015748031497,
        "duration": 0.23809500000000128
      },
      {
        "name": "A2",
        "midi": 45,
        "time": 21.78569250000001,
        "velocity": 0.7874015748031497,
        "duration": 0.23809500000000128
      },
      {
        "name": "A2",
        "midi": 45,
        "time": 22.321406250000013,
        "velocity": 0.7874015748031497,
        "duration": 0.23809500000000128
      },
      {
        "name": "A2",
        "midi": 45,
        "time": 22.678548750000015,
        "velocity": 0.7874015748031497,
        "duration": 0.11904750000000064
      },
      {
        "name": "E2",
        "midi": 40,
        "time": 22.857120000000016,
        "velocity": 0.7874015748031497,
        "duration": 0.9523800000000016
      },
      {
        "name": "E2",
        "midi": 40,
        "time": 24.10711875000002,
        "velocity": 0.7874015748031497,
        "duration": 0.11904750000000064
      },
      {
        "name": "E2",
        "midi": 40,
        "time": 24.28569000000002,
        "velocity": 0.7874015748031497,
        "duration": 0.23809500000000128
      },
      {
        "name": "E2",
        "midi": 40,
        "time": 24.642832500000022,
        "velocity": 0.7874015748031497,
        "duration": 0.23809500000000128
      },
      {
        "name": "F2",
        "midi": 41,
        "time": 25.714260000000024,
        "velocity": 0.7874015748031497,
        "duration": 0.476189999999999
      },
      {
        "name": "C2",
        "midi": 36,
        "time": 26.428545000000025,
        "velocity": 0.7874015748031497,
        "duration": 0.476189999999999
      },
      {
        "name": "G2",
        "midi": 43,
        "time": 27.142830000000025,
        "velocity": 0.7874015748031497,
        "duration": 0.11904750000000064
      },
      {
        "name": "D2",
        "midi": 38,
        "time": 27.321401250000026,
        "velocity": 0.7874015748031497,
        "duration": 0.11904750000000064
      },
      {
        "name": "G2",
        "midi": 43,
        "time": 27.499972500000027,
        "velocity": 0.7874015748031497,
        "duration": 0.11904750000000064
      },
      {
        "name": "D2",
        "midi": 38,
        "time": 27.678543750000028,
        "velocity": 0.7874015748031497,
        "duration": 0.11904750000000064
      },
      {
        "name": "G2",
        "midi": 43,
        "time": 27.85711500000003,
        "velocity": 0.7874015748031497,
        "duration": 0.7142850000000003
      },
      {
        "name": "D2",
        "midi": 38,
        "time": 28.392828750000028,
        "velocity": 0.7874015748031497,
        "duration": 0.11904750000000064
      },
      {
        "name": "G2",
        "midi": 43,
        "time": 28.57140000000003,
        "velocity": 0.7874015748031497,
        "duration": 0.23809500000000128
      },
      {
        "name": "G2",
        "midi": 43,
        "time": 28.92854250000003,
        "velocity": 0.7874015748031497,
        "duration": 0.476189999999999
      },
      {
        "name": "G2",
        "midi": 43,
        "time": 29.99997000000003,
        "velocity": 0.7874015748031497,
        "duration": 0.23809500000000128
      },
      {
        "name": "G2",
        "midi": 43,
        "time": 30.35711250000003,
        "velocity": 0.7874015748031497,
        "duration": 0.23809500000000128
      },
      {
        "name": "G2",
        "midi": 43,
        "time": 30.714255000000033,
        "velocity": 0.7874015748031497,
        "duration": 0.7142850000000003
      },
      {
        "name": "D2",
        "midi": 38,
        "time": 31.249968750000033,
        "velocity": 0.7874015748031497,
        "duration": 0.11904750000000064
      },
      {
        "name": "G2",
        "midi": 43,
        "time": 31.428540000000034,
        "velocity": 0.7874015748031497,
        "duration": 0.23809500000000128
      },
      {
        "name": "G2",
        "midi": 43,
        "time": 31.785682500000036,
        "velocity": 0.7874015748031497,
        "duration": 0.23809500000000128
      },
      {
        "name": "F2",
        "midi": 41,
        "time": 32.857110000000034,
        "velocity": 0.7874015748031497,
        "duration": 1.4285700000000006
      },
      {
        "name": "D2",
        "midi": 38,
        "time": 34.10710875000004,
        "velocity": 0.7874015748031497,
        "duration": 0.11904750000000064
      },
      {
        "name": "F2",
        "midi": 41,
        "time": 34.285680000000035,
        "velocity": 0.7874015748031497,
        "duration": 0.23809500000000128
      },
      {
        "name": "F2",
        "midi": 41,
        "time": 34.64282250000004,
        "velocity": 0.7874015748031497,
        "duration": 0.23809500000000128
      },
      {
        "name": "A2",
        "midi": 45,
        "time": 35.714250000000035,
        "velocity": 0.7874015748031497,
        "duration": 1.3690462500000038
      },
      {
        "name": "A2",
        "midi": 45,
        "time": 36.96424875000004,
        "velocity": 0.7874015748031497,
        "duration": 0.1785712499999974
      },
      {
        "name": "A2",
        "midi": 45,
        "time": 37.142820000000036,
        "velocity": 0.7874015748031497,
        "duration": 0.23809500000000128
      },
      {
        "name": "A2",
        "midi": 45,
        "time": 37.49996250000004,
        "velocity": 0.7874015748031497,
        "duration": 0.23809500000000128
      },
      {
        "name": "E2",
        "midi": 40,
        "time": 38.57139000000004,
        "velocity": 0.7874015748031497,
        "duration": 1.3690462500000038
      },
      {
        "name": "E2",
        "midi": 40,
        "time": 39.82138875000004,
        "velocity": 0.7874015748031497,
        "duration": 0.1785712499999974
      },
      {
        "name": "E2",
        "midi": 40,
        "time": 39.99996000000004,
        "velocity": 0.7874015748031497,
        "duration": 0.23809500000000128
      },
      {
        "name": "E2",
        "midi": 40,
        "time": 40.35710250000004,
        "velocity": 0.7874015748031497,
        "duration": 0.23809500000000128
      },
      {
        "name": "F2",
        "midi": 41,
        "time": 41.42853000000004,
        "velocity": 0.7874015748031497,
        "duration": 0.47619000000000256
      },
      {
        "name": "C2",
        "midi": 36,
        "time": 42.14281500000004,
        "velocity": 0.7874015748031497,
        "duration": 0.47619000000000256
      },
      {
        "name": "G2",
        "midi": 43,
        "time": 42.857100000000045,
        "velocity": 0.7874015748031497,
        "duration": 0.11904750000000064
      },
      {
        "name": "D2",
        "midi": 38,
        "time": 43.03567125000004,
        "velocity": 0.7874015748031497,
        "duration": 0.11904750000000064
      },
      {
        "name": "G2",
        "midi": 43,
        "time": 43.21424250000004,
        "velocity": 0.7874015748031497,
        "duration": 0.11904750000000064
      },
      {
        "name": "D2",
        "midi": 38,
        "time": 43.39281375000004,
        "velocity": 0.7874015748031497,
        "duration": 0.11904750000000064
      },
      {
        "name": "G2",
        "midi": 43,
        "time": 43.571385000000035,
        "velocity": 0.7874015748031497,
        "duration": 0.7142849999999967
      },
      {
        "name": "D2",
        "midi": 38,
        "time": 44.107098750000034,
        "velocity": 0.7874015748031497,
        "duration": 0.11904750000000064
      },
      {
        "name": "G2",
        "midi": 43,
        "time": 44.28567000000003,
        "velocity": 0.7874015748031497,
        "duration": 0.23809500000000128
      },
      {
        "name": "G2",
        "midi": 43,
        "time": 44.64281250000003,
        "velocity": 0.7874015748031497,
        "duration": 0.7142849999999967
      },
      {
        "name": "G2",
        "midi": 43,
        "time": 45.71424000000003,
        "velocity": 0.7874015748031497,
        "duration": 0.23809500000000128
      },
      {
        "name": "G2",
        "midi": 43,
        "time": 46.071382500000034,
        "velocity": 0.7874015748031497,
        "duration": 0.23809500000000128
      },
      {
        "name": "G2",
        "midi": 43,
        "time": 46.428525000000036,
        "velocity": 0.7874015748031497,
        "duration": 0.47619000000000256
      },
      {
        "name": "G2",
        "midi": 43,
        "time": 47.14281000000004,
        "velocity": 0.7874015748031497,
        "duration": 0.952379999999998
      },
      {
        "name": "F2",
        "midi": 41,
        "time": 59.99994000000004,
        "velocity": 0.7874015748031497,
        "duration": 1.4285700000000006
      },
      {
        "name": "D2",
        "midi": 38,
        "time": 61.24993875000004,
        "velocity": 0.7874015748031497,
        "duration": 0.11904750000000064
      },
      {
        "name": "F2",
        "midi": 41,
        "time": 61.42851000000004,
        "velocity": 0.7874015748031497,
        "duration": 0.23809500000000128
      },
      {
        "name": "F2",
        "midi": 41,
        "time": 61.78565250000004,
        "velocity": 0.7874015748031497,
        "duration": 0.23809500000000128
      },
      {
        "name": "A2",
        "midi": 45,
        "time": 62.85708000000004,
        "velocity": 0.7874015748031497,
        "duration": 0.952379999999998
      },
      {
        "name": "A2",
        "midi": 45,
        "time": 64.10707875000004,
        "velocity": 0.7874015748031497,
        "duration": 0.11904749999999353
      },
      {
        "name": "A2",
        "midi": 45,
        "time": 64.28565000000003,
        "velocity": 0.7874015748031497,
        "duration": 0.23809500000000128
      },
      {
        "name": "A2",
        "midi": 45,
        "time": 64.64279250000003,
        "velocity": 0.7874015748031497,
        "duration": 0.23809500000000128
      },
      {
        "name": "A2",
        "midi": 45,
        "time": 65.17850625000003,
        "velocity": 0.7874015748031497,
        "duration": 0.23809500000000128
      },
      {
        "name": "A2",
        "midi": 45,
        "time": 65.53564875000002,
        "velocity": 0.7874015748031497,
        "duration": 0.11904749999999353
      },
      {
        "name": "E2",
        "midi": 40,
        "time": 65.71422000000001,
        "velocity": 0.7874015748031497,
        "duration": 0.9523800000000051
      },
      {
        "name": "E2",
        "midi": 40,
        "time": 66.96421875000001,
        "velocity": 0.7874015748031497,
        "duration": 0.11904749999999353
      },
      {
        "name": "E2",
        "midi": 40,
        "time": 67.14279,
        "velocity": 0.7874015748031497,
        "duration": 0.23809500000000128
      },
      {
        "name": "E2",
        "midi": 40,
        "time": 67.4999325,
        "velocity": 0.7874015748031497,
        "duration": 0.23809500000000128
      },
      {
        "name": "F2",
        "midi": 41,
        "time": 68.57136,
        "velocity": 0.7874015748031497,
        "duration": 0.47619000000000256
      },
      {
        "name": "C2",
        "midi": 36,
        "time": 69.285645,
        "velocity": 0.7874015748031497,
        "duration": 0.47619000000000256
      },
      {
        "name": "G2",
        "midi": 43,
        "time": 69.99993,
        "velocity": 0.7874015748031497,
        "duration": 0.11904749999999353
      },
      {
        "name": "D2",
        "midi": 38,
        "time": 70.17850125,
        "velocity": 0.7874015748031497,
        "duration": 0.11904749999999353
      },
      {
        "name": "G2",
        "midi": 43,
        "time": 70.35707249999999,
        "velocity": 0.7874015748031497,
        "duration": 0.11904749999999353
      },
      {
        "name": "D2",
        "midi": 38,
        "time": 70.53564374999998,
        "velocity": 0.7874015748031497,
        "duration": 0.11904749999999353
      },
      {
        "name": "G2",
        "midi": 43,
        "time": 70.71421499999997,
        "velocity": 0.7874015748031497,
        "duration": 0.7142849999999896
      },
      {
        "name": "D2",
        "midi": 38,
        "time": 71.24992874999997,
        "velocity": 0.7874015748031497,
        "duration": 0.11904749999999353
      },
      {
        "name": "G2",
        "midi": 43,
        "time": 71.42849999999996,
        "velocity": 0.7874015748031497,
        "duration": 0.23809500000000128
      },
      {
        "name": "G2",
        "midi": 43,
        "time": 71.78564249999995,
        "velocity": 0.7874015748031497,
        "duration": 0.47619000000000256
      },
      {
        "name": "G2",
        "midi": 43,
        "time": 72.85706999999995,
        "velocity": 0.7874015748031497,
        "duration": 0.23809500000000128
      },
      {
        "name": "G2",
        "midi": 43,
        "time": 73.21421249999995,
        "velocity": 0.7874015748031497,
        "duration": 0.23809500000000128
      },
      {
        "name": "G2",
        "midi": 43,
        "time": 73.57135499999994,
        "velocity": 0.7874015748031497,
        "duration": 0.7142849999999896
      },
      {
        "name": "D2",
        "midi": 38,
        "time": 74.10706874999994,
        "velocity": 0.7874015748031497,
        "duration": 0.11904749999999353
      },
      {
        "name": "G2",
        "midi": 43,
        "time": 74.28563999999993,
        "velocity": 0.7874015748031497,
        "duration": 0.23809500000000128
      },
      {
        "name": "G2",
        "midi": 43,
        "time": 74.64278249999992,
        "velocity": 0.7874015748031497,
        "duration": 0.23809500000000128
      },
      {
        "name": "F2",
        "midi": 41,
        "time": 75.71420999999992,
        "velocity": 0.7874015748031497,
        "duration": 1.4285699999999935
      },
      {
        "name": "D2",
        "midi": 38,
        "time": 76.96420874999993,
        "velocity": 0.7874015748031497,
        "duration": 0.11904749999999353
      },
      {
        "name": "F2",
        "midi": 41,
        "time": 77.14277999999992,
        "velocity": 0.7874015748031497,
        "duration": 0.23809500000000128
      },
      {
        "name": "F2",
        "midi": 41,
        "time": 77.49992249999991,
        "velocity": 0.7874015748031497,
        "duration": 0.23809500000000128
      },
      {
        "name": "A2",
        "midi": 45,
        "time": 78.57134999999991,
        "velocity": 0.7874015748031497,
        "duration": 1.3690462499999967
      },
      {
        "name": "A2",
        "midi": 45,
        "time": 79.82134874999991,
        "velocity": 0.7874015748031497,
        "duration": 0.1785712499999903
      },
      {
        "name": "A2",
        "midi": 45,
        "time": 79.9999199999999,
        "velocity": 0.7874015748031497,
        "duration": 0.23809500000000128
      },
      {
        "name": "A2",
        "midi": 45,
        "time": 80.3570624999999,
        "velocity": 0.7874015748031497,
        "duration": 0.23809500000000128
      },
      {
        "name": "E2",
        "midi": 40,
        "time": 81.4284899999999,
        "velocity": 0.7874015748031497,
        "duration": 1.3690462499999967
      },
      {
        "name": "E2",
        "midi": 40,
        "time": 82.6784887499999,
        "velocity": 0.7874015748031497,
        "duration": 0.1785712499999903
      },
      {
        "name": "E2",
        "midi": 40,
        "time": 82.85705999999989,
        "velocity": 0.7874015748031497,
        "duration": 0.23809500000000128
      },
      {
        "name": "E2",
        "midi": 40,
        "time": 83.21420249999989,
        "velocity": 0.7874015748031497,
        "duration": 0.23809500000000128
      },
      {
        "name": "F2",
        "midi": 41,
        "time": 84.28562999999988,
        "velocity": 0.7874015748031497,
        "duration": 0.47619000000000256
      },
      {
        "name": "C2",
        "midi": 36,
        "time": 84.99991499999989,
        "velocity": 0.7874015748031497,
        "duration": 0.47619000000000256
      },
      {
        "name": "G2",
        "midi": 43,
        "time": 85.71419999999989,
        "velocity": 0.7874015748031497,
        "duration": 0.11904749999999353
      },
      {
        "name": "D2",
        "midi": 38,
        "time": 85.89277124999988,
        "velocity": 0.7874015748031497,
        "duration": 0.11904749999999353
      },
      {
        "name": "G2",
        "midi": 43,
        "time": 86.07134249999987,
        "velocity": 0.7874015748031497,
        "duration": 0.11904749999999353
      },
      {
        "name": "D2",
        "midi": 38,
        "time": 86.24991374999986,
        "velocity": 0.7874015748031497,
        "duration": 0.11904749999999353
      },
      {
        "name": "G2",
        "midi": 43,
        "time": 86.42848499999985,
        "velocity": 0.7874015748031497,
        "duration": 0.7142849999999896
      },
      {
        "name": "D2",
        "midi": 38,
        "time": 86.96419874999985,
        "velocity": 0.7874015748031497,
        "duration": 0.11904749999999353
      },
      {
        "name": "G2",
        "midi": 43,
        "time": 87.14276999999984,
        "velocity": 0.7874015748031497,
        "duration": 0.23809500000000128
      },
      {
        "name": "G2",
        "midi": 43,
        "time": 87.49991249999984,
        "velocity": 0.7874015748031497,
        "duration": 0.7142850000000038
      },
      {
        "name": "G2",
        "midi": 43,
        "time": 88.57133999999984,
        "velocity": 0.7874015748031497,
        "duration": 0.23809500000000128
      },
      {
        "name": "G2",
        "midi": 43,
        "time": 88.92848249999983,
        "velocity": 0.7874015748031497,
        "duration": 0.23809500000000128
      },
      {
        "name": "G2",
        "midi": 43,
        "time": 89.28562499999983,
        "velocity": 0.7874015748031497,
        "duration": 0.47619000000000256
      },
      {
        "name": "G2",
        "midi": 43,
        "time": 89.99990999999983,
        "velocity": 0.7874015748031497,
        "duration": 0.9523800000000051
      },
      {
        "name": "B3",
        "midi": 59,
        "time": 91.42847999999984,
        "velocity": 0.7874015748031497,
        "duration": 1.912200468750001
      },
      {
        "name": "G3",
        "midi": 55,
        "time": 91.42847999999984,
        "velocity": 0.7874015748031497,
        "duration": 1.912200468750001
      },
      {
        "name": "G3",
        "midi": 55,
        "time": 94.28561999999984,
        "velocity": 0.7874015748031497,
        "duration": 1.912200468750001
      },
      {
        "name": "E3",
        "midi": 52,
        "time": 94.28561999999984,
        "velocity": 0.7874015748031497,
        "duration": 1.912200468750001
      },
      {
        "name": "C4",
        "midi": 60,
        "time": 94.28561999999984,
        "velocity": 0.7874015748031497,
        "duration": 1.912200468750001
      },
      {
        "name": "G3",
        "midi": 55,
        "time": 97.14275999999984,
        "velocity": 0.7874015748031497,
        "duration": 1.912200468750001
      },
      {
        "name": "G3",
        "midi": 55,
        "time": 99.99989999999984,
        "velocity": 0.7874015748031497,
        "duration": 1.912200468750001
      },
      {
        "name": "F2",
        "midi": 41,
        "time": 102.85703999999984,
        "velocity": 0.7874015748031497,
        "duration": 0.11904749999999353
      },
      {
        "name": "G2",
        "midi": 43,
        "time": 103.03561124999983,
        "velocity": 0.7874015748031497,
        "duration": 0.11904749999999353
      },
      {
        "name": "G2",
        "midi": 43,
        "time": 103.21418249999982,
        "velocity": 0.7874015748031497,
        "duration": 0.23809500000000128
      },
      {
        "name": "G2",
        "midi": 43,
        "time": 103.57132499999982,
        "velocity": 0.7874015748031497,
        "duration": 0.7142849999999896
      },
      {
        "name": "F2",
        "midi": 41,
        "time": 104.10703874999982,
        "velocity": 0.7874015748031497,
        "duration": 0.11904749999999353
      },
      {
        "name": "G2",
        "midi": 43,
        "time": 104.2856099999998,
        "velocity": 0.7874015748031497,
        "duration": 0.23809500000000128
      },
      {
        "name": "G2",
        "midi": 43,
        "time": 104.6427524999998,
        "velocity": 0.7874015748031497,
        "duration": 0.7142850000000038
      },
      {
        "name": "F2",
        "midi": 41,
        "time": 105.7141799999998,
        "velocity": 0.7874015748031497,
        "duration": 0.11904749999999353
      },
      {
        "name": "G2",
        "midi": 43,
        "time": 105.89275124999979,
        "velocity": 0.7874015748031497,
        "duration": 0.11904749999999353
      },
      {
        "name": "G2",
        "midi": 43,
        "time": 106.07132249999978,
        "velocity": 0.7874015748031497,
        "duration": 0.23809500000000128
      },
      {
        "name": "G2",
        "midi": 43,
        "time": 106.42846499999978,
        "velocity": 0.7874015748031497,
        "duration": 0.7142849999999896
      },
      {
        "name": "F2",
        "midi": 41,
        "time": 106.96417874999977,
        "velocity": 0.7874015748031497,
        "duration": 0.11904749999999353
      },
      {
        "name": "G2",
        "midi": 43,
        "time": 107.14274999999977,
        "velocity": 0.7874015748031497,
        "duration": 0.23809500000000128
      },
      {
        "name": "G2",
        "midi": 43,
        "time": 107.49989249999976,
        "velocity": 0.7874015748031497,
        "duration": 0.7142850000000038
      },
      {
        "name": "F2",
        "midi": 41,
        "time": 108.57131999999976,
        "velocity": 0.7874015748031497,
        "duration": 0.11904749999999353
      },
      {
        "name": "G2",
        "midi": 43,
        "time": 108.74989124999975,
        "velocity": 0.7874015748031497,
        "duration": 0.11904749999999353
      },
      {
        "name": "G2",
        "midi": 43,
        "time": 108.92846249999974,
        "velocity": 0.7874015748031497,
        "duration": 0.23809500000000128
      },
      {
        "name": "G2",
        "midi": 43,
        "time": 109.28560499999973,
        "velocity": 0.7874015748031497,
        "duration": 0.7142849999999896
      },
      {
        "name": "F2",
        "midi": 41,
        "time": 109.82131874999973,
        "velocity": 0.7874015748031497,
        "duration": 0.11904749999999353
      },
      {
        "name": "G2",
        "midi": 43,
        "time": 109.99988999999972,
        "velocity": 0.7874015748031497,
        "duration": 0.23809500000000128
      },
      {
        "name": "G2",
        "midi": 43,
        "time": 110.35703249999972,
        "velocity": 0.7874015748031497,
        "duration": 0.7142850000000038
      },
      {
        "name": "F2",
        "midi": 41,
        "time": 111.42845999999972,
        "velocity": 0.7874015748031497,
        "duration": 0.11904749999999353
      },
      {
        "name": "G2",
        "midi": 43,
        "time": 111.60703124999971,
        "velocity": 0.7874015748031497,
        "duration": 0.11904749999999353
      },
      {
        "name": "G2",
        "midi": 43,
        "time": 111.7856024999997,
        "velocity": 0.7874015748031497,
        "duration": 0.23809500000000128
      },
      {
        "name": "G2",
        "midi": 43,
        "time": 112.14274499999969,
        "velocity": 0.7874015748031497,
        "duration": 0.7142849999999896
      },
      {
        "name": "F2",
        "midi": 41,
        "time": 112.67845874999969,
        "velocity": 0.7874015748031497,
        "duration": 0.11904749999999353
      },
      {
        "name": "G2",
        "midi": 43,
        "time": 112.85702999999968,
        "velocity": 0.7874015748031497,
        "duration": 0.23809500000000128
      },
      {
        "name": "G2",
        "midi": 43,
        "time": 113.21417249999968,
        "velocity": 0.7874015748031497,
        "duration": 0.47619000000000256
      },
      {
        "name": "F#2",
        "midi": 42,
        "time": 113.92845749999968,
        "velocity": 0.7874015748031497,
        "duration": 0.23809500000000128
      },
      {
        "name": "F2",
        "midi": 41,
        "time": 114.28559999999968,
        "velocity": 0.7874015748031497,
        "duration": 1.4285699999999935
      },
      {
        "name": "D2",
        "midi": 38,
        "time": 115.53559874999968,
        "velocity": 0.7874015748031497,
        "duration": 0.11904749999999353
      },
      {
        "name": "F2",
        "midi": 41,
        "time": 115.71416999999967,
        "velocity": 0.7874015748031497,
        "duration": 0.23809500000000128
      },
      {
        "name": "F2",
        "midi": 41,
        "time": 116.07131249999966,
        "velocity": 0.7874015748031497,
        "duration": 0.23809500000000128
      },
      {
        "name": "A2",
        "midi": 45,
        "time": 117.14273999999966,
        "velocity": 0.7874015748031497,
        "duration": 0.9523800000000051
      },
      {
        "name": "A2",
        "midi": 45,
        "time": 118.39273874999967,
        "velocity": 0.7874015748031497,
        "duration": 0.11904749999999353
      },
      {
        "name": "A2",
        "midi": 45,
        "time": 118.57130999999966,
        "velocity": 0.7874015748031497,
        "duration": 0.23809500000000128
      },
      {
        "name": "A2",
        "midi": 45,
        "time": 118.92845249999965,
        "velocity": 0.7874015748031497,
        "duration": 0.23809500000000128
      },
      {
        "name": "A2",
        "midi": 45,
        "time": 119.46416624999965,
        "velocity": 0.7874015748031497,
        "duration": 0.23809500000000128
      },
      {
        "name": "A2",
        "midi": 45,
        "time": 119.82130874999964,
        "velocity": 0.7874015748031497,
        "duration": 0.11904749999999353
      },
      {
        "name": "E2",
        "midi": 40,
        "time": 119.99987999999964,
        "velocity": 0.7874015748031497,
        "duration": 0.9523800000000051
      },
      {
        "name": "E2",
        "midi": 40,
        "time": 121.24987874999964,
        "velocity": 0.7874015748031497,
        "duration": 0.11904749999999353
      },
      {
        "name": "E2",
        "midi": 40,
        "time": 121.42844999999963,
        "velocity": 0.7874015748031497,
        "duration": 0.23809500000000128
      },
      {
        "name": "E2",
        "midi": 40,
        "time": 121.78559249999962,
        "velocity": 0.7874015748031497,
        "duration": 0.23809500000000128
      },
      {
        "name": "F2",
        "midi": 41,
        "time": 122.85701999999962,
        "velocity": 0.7874015748031497,
        "duration": 0.47619000000000256
      },
      {
        "name": "C2",
        "midi": 36,
        "time": 123.57130499999963,
        "velocity": 0.7874015748031497,
        "duration": 0.47619000000000256
      },
      {
        "name": "G2",
        "midi": 43,
        "time": 124.28558999999963,
        "velocity": 0.7874015748031497,
        "duration": 0.11904749999999353
      },
      {
        "name": "D2",
        "midi": 38,
        "time": 124.46416124999962,
        "velocity": 0.7874015748031497,
        "duration": 0.11904749999999353
      },
      {
        "name": "G2",
        "midi": 43,
        "time": 124.64273249999961,
        "velocity": 0.7874015748031497,
        "duration": 0.11904749999999353
      },
      {
        "name": "D2",
        "midi": 38,
        "time": 124.8213037499996,
        "velocity": 0.7874015748031497,
        "duration": 0.11904749999999353
      },
      {
        "name": "G2",
        "midi": 43,
        "time": 124.99987499999959,
        "velocity": 0.7874015748031497,
        "duration": 0.7142849999999896
      },
      {
        "name": "D2",
        "midi": 38,
        "time": 125.53558874999959,
        "velocity": 0.7874015748031497,
        "duration": 0.11904749999999353
      },
      {
        "name": "G2",
        "midi": 43,
        "time": 125.71415999999958,
        "velocity": 0.7874015748031497,
        "duration": 0.23809500000000128
      },
      {
        "name": "G2",
        "midi": 43,
        "time": 126.07130249999958,
        "velocity": 0.7874015748031497,
        "duration": 0.47619000000000256
      },
      {
        "name": "G2",
        "midi": 43,
        "time": 127.14272999999957,
        "velocity": 0.7874015748031497,
        "duration": 0.23809500000000128
      },
      {
        "name": "G2",
        "midi": 43,
        "time": 127.49987249999957,
        "velocity": 0.7874015748031497,
        "duration": 0.23809500000000128
      },
      {
        "name": "G2",
        "midi": 43,
        "time": 127.85701499999956,
        "velocity": 0.7874015748031497,
        "duration": 0.714285000000018
      },
      {
        "name": "D2",
        "midi": 38,
        "time": 128.39272874999958,
        "velocity": 0.7874015748031497,
        "duration": 0.11904749999999353
      },
      {
        "name": "G2",
        "midi": 43,
        "time": 128.57129999999958,
        "velocity": 0.7874015748031497,
        "duration": 0.23809499999998707
      },
      {
        "name": "G2",
        "midi": 43,
        "time": 128.92844249999956,
        "velocity": 0.7874015748031497,
        "duration": 0.23809499999998707
      },
      {
        "name": "F2",
        "midi": 41,
        "time": 129.99986999999956,
        "velocity": 0.7874015748031497,
        "duration": 1.4285700000000077
      },
      {
        "name": "D2",
        "midi": 38,
        "time": 131.24986874999956,
        "velocity": 0.7874015748031497,
        "duration": 0.11904749999999353
      },
      {
        "name": "F2",
        "midi": 41,
        "time": 131.42843999999957,
        "velocity": 0.7874015748031497,
        "duration": 0.23809499999998707
      },
      {
        "name": "F2",
        "midi": 41,
        "time": 131.78558249999955,
        "velocity": 0.7874015748031497,
        "duration": 0.23809499999998707
      },
      {
        "name": "A2",
        "midi": 45,
        "time": 132.85700999999955,
        "velocity": 0.7874015748031497,
        "duration": 1.3690462499999967
      },
      {
        "name": "A2",
        "midi": 45,
        "time": 134.10700874999955,
        "velocity": 0.7874015748031497,
        "duration": 0.1785712500000045
      },
      {
        "name": "A2",
        "midi": 45,
        "time": 134.28557999999956,
        "velocity": 0.7874015748031497,
        "duration": 0.23809499999998707
      },
      {
        "name": "A2",
        "midi": 45,
        "time": 134.64272249999954,
        "velocity": 0.7874015748031497,
        "duration": 0.23809499999998707
      },
      {
        "name": "E2",
        "midi": 40,
        "time": 135.71414999999953,
        "velocity": 0.7874015748031497,
        "duration": 1.3690462499999967
      },
      {
        "name": "E2",
        "midi": 40,
        "time": 136.96414874999954,
        "velocity": 0.7874015748031497,
        "duration": 0.1785712500000045
      },
      {
        "name": "E2",
        "midi": 40,
        "time": 137.14271999999954,
        "velocity": 0.7874015748031497,
        "duration": 0.23809499999998707
      },
      {
        "name": "E2",
        "midi": 40,
        "time": 137.49986249999952,
        "velocity": 0.7874015748031497,
        "duration": 0.23809499999998707
      },
      {
        "name": "F2",
        "midi": 41,
        "time": 138.57128999999952,
        "velocity": 0.7874015748031497,
        "duration": 0.47619000000000256
      },
      {
        "name": "C2",
        "midi": 36,
        "time": 139.2855749999995,
        "velocity": 0.7874015748031497,
        "duration": 0.47619000000000256
      },
      {
        "name": "G2",
        "midi": 43,
        "time": 139.9998599999995,
        "velocity": 0.7874015748031497,
        "duration": 0.11904749999999353
      },
      {
        "name": "G2",
        "midi": 43,
        "time": 140.1784312499995,
        "velocity": 0.7874015748031497,
        "duration": 0.11904749999999353
      },
      {
        "name": "G2",
        "midi": 43,
        "time": 140.3570024999995,
        "velocity": 0.7874015748031497,
        "duration": 0.11904749999999353
      },
      {
        "name": "G2",
        "midi": 43,
        "time": 140.53557374999951,
        "velocity": 0.7874015748031497,
        "duration": 0.11904749999999353
      },
      {
        "name": "G2",
        "midi": 43,
        "time": 140.71414499999952,
        "velocity": 0.7874015748031497,
        "duration": 0.6547612500000071
      },
      {
        "name": "G2",
        "midi": 43,
        "time": 141.24985874999953,
        "velocity": 0.7874015748031497,
        "duration": 0.1785712500000045
      },
      {
        "name": "G2",
        "midi": 43,
        "time": 141.42842999999954,
        "velocity": 0.7874015748031497,
        "duration": 0.23809499999998707
      },
      {
        "name": "G2",
        "midi": 43,
        "time": 141.78557249999952,
        "velocity": 0.7874015748031497,
        "duration": 0.7142849999999896
      },
      {
        "name": "G2",
        "midi": 43,
        "time": 142.85699999999952,
        "velocity": 0.7874015748031497,
        "duration": 0.11904749999999353
      },
      {
        "name": "G2",
        "midi": 43,
        "time": 143.03557124999952,
        "velocity": 0.7874015748031497,
        "duration": 0.11904749999999353
      },
      {
        "name": "G2",
        "midi": 43,
        "time": 143.21414249999953,
        "velocity": 0.7874015748031497,
        "duration": 0.11904749999999353
      },
      {
        "name": "G2",
        "midi": 43,
        "time": 143.39271374999953,
        "velocity": 0.7874015748031497,
        "duration": 0.11904749999999353
      },
      {
        "name": "G2",
        "midi": 43,
        "time": 143.57128499999953,
        "velocity": 0.7874015748031497,
        "duration": 0.47619000000000256
      },
      {
        "name": "G2",
        "midi": 43,
        "time": 144.28556999999952,
        "velocity": 0.7874015748031497,
        "duration": 1.912200468750001
      },
      {
        "name": "G3",
        "midi": 55,
        "time": 152.8569899999995,
        "velocity": 0.7874015748031497,
        "duration": 1.912200468750001
      },
      {
        "name": "G3",
        "midi": 55,
        "time": 155.7141299999995,
        "velocity": 0.7874015748031497,
        "duration": 1.912200468750001
      },
      {
        "name": "G3",
        "midi": 55,
        "time": 158.5712699999995,
        "velocity": 0.7874015748031497,
        "duration": 1.912200468750001
      },
      {
        "name": "G2",
        "midi": 43,
        "time": 161.42840999999947,
        "velocity": 0.7874015748031497,
        "duration": 1.912200468750001
      }
    ]
  },
  {
    "startTime": 0,
    "duration": 0,
    "length": 0,
    "id": 5,
    "name": "Seq. Luis T. Rivera"
  },
  {
    "startTime": 0,
    "duration": 0,
    "length": 0,
    "id": 6,
    "name": "Bklyn, NY"
  },
  {
    "startTime": 0,
    "duration": 0,
    "length": 0,
    "id": 7,
    "name": "Antares2@aol.com"
  },
  {
    "startTime": 0,
    "duration": 0,
    "length": 0,
    "id": 8,
    "name": "By Jimi Hendrix"
  },
  {
    "startTime": 0,
    "duration": 0,
    "length": 0,
    "id": 9
  },
  {
    "startTime": 16.785697499999998,
    "duration": 144.3525342187505,
    "length": 770,
    "id": 10,
    "name": "Drums",
    "channelNumber": 9,
    "isPercussion": true,
    "notes": [
      {
        "name": "C2",
        "midi": 36,
        "time": 16.785697499999998,
        "velocity": 0.9212598425196851,
        "duration": 0.11904750000000064
      },
      {
        "name": "E2",
        "midi": 40,
        "time": 16.785697499999998,
        "velocity": 0.889763779527559,
        "duration": 0.11160703124999927
      },
      {
        "name": "D2",
        "midi": 38,
        "time": 16.785697499999998,
        "velocity": 0.9212598425196851,
        "duration": 0.0892856249999987
      },
      {
        "name": "C2",
        "midi": 36,
        "time": 17.14284,
        "velocity": 1,
        "duration": 0.4017853124999995
      },
      {
        "name": "A3",
        "midi": 57,
        "time": 17.14284,
        "velocity": 0.6062992125984252,
        "duration": 0.0892856249999987
      },
      {
        "name": "A3",
        "midi": 57,
        "time": 17.857125,
        "velocity": 0.5590551181102362,
        "duration": 0.06696421875000169
      },
      {
        "name": "E2",
        "midi": 40,
        "time": 17.857125,
        "velocity": 1,
        "duration": 0.09672609375000008
      },
      {
        "name": "C2",
        "midi": 36,
        "time": 17.857125,
        "velocity": 0.8503937007874016,
        "duration": 0.16369031250000177
      },
      {
        "name": "A3",
        "midi": 57,
        "time": 18.214267500000002,
        "velocity": 0.48031496062992124,
        "duration": 0.08184515625000088
      },
      {
        "name": "D2",
        "midi": 38,
        "time": 18.214267500000002,
        "velocity": 0.7952755905511811,
        "duration": 0.07440468749999951
      },
      {
        "name": "D2",
        "midi": 38,
        "time": 18.392838750000003,
        "velocity": 0.7637795275590551,
        "duration": 0.10416656250000145
      },
      {
        "name": "A3",
        "midi": 57,
        "time": 18.571410000000004,
        "velocity": 0.44881889763779526,
        "duration": 0.05952375000000032
      },
      {
        "name": "D2",
        "midi": 38,
        "time": 18.571410000000004,
        "velocity": 0.7165354330708661,
        "duration": 0.07440468749999951
      },
      {
        "name": "A3",
        "midi": 57,
        "time": 18.749981250000005,
        "velocity": 0.41732283464566927,
        "duration": 0.05952375000000032
      },
      {
        "name": "D2",
        "midi": 38,
        "time": 18.749981250000005,
        "velocity": 0.6535433070866141,
        "duration": 0.06696421875000169
      },
      {
        "name": "A3",
        "midi": 57,
        "time": 18.928552500000006,
        "velocity": 0.4330708661417323,
        "duration": 0.07440468749999951
      },
      {
        "name": "C2",
        "midi": 36,
        "time": 18.928552500000006,
        "velocity": 0.7952755905511811,
        "duration": 0.11160703124999927
      },
      {
        "name": "D2",
        "midi": 38,
        "time": 18.928552500000006,
        "velocity": 0.6771653543307087,
        "duration": 0.05952375000000032
      },
      {
        "name": "D2",
        "midi": 38,
        "time": 19.107123750000007,
        "velocity": 0.6535433070866141,
        "duration": 0.07440468749999951
      },
      {
        "name": "A3",
        "midi": 57,
        "time": 19.285695000000008,
        "velocity": 0.4094488188976378,
        "duration": 0.07440468749999951
      },
      {
        "name": "C2",
        "midi": 36,
        "time": 19.285695000000008,
        "velocity": 0.9606299212598425,
        "duration": 0.1413689062500012
      },
      {
        "name": "E2",
        "midi": 40,
        "time": 19.285695000000008,
        "velocity": 0.9212598425196851,
        "duration": 0.09672609375000008
      },
      {
        "name": "A3",
        "midi": 57,
        "time": 19.64283750000001,
        "velocity": 0.4015748031496063,
        "duration": 0.06696421875000169
      },
      {
        "name": "D2",
        "midi": 38,
        "time": 19.64283750000001,
        "velocity": 0.7637795275590551,
        "duration": 0.06696421875000169
      },
      {
        "name": "D2",
        "midi": 38,
        "time": 19.82140875000001,
        "velocity": 0.6377952755905512,
        "duration": 0.07440468749999951
      },
      {
        "name": "D2",
        "midi": 38,
        "time": 19.99998000000001,
        "velocity": 0.7952755905511811,
        "duration": 0.12648796874999846
      },
      {
        "name": "A3",
        "midi": 57,
        "time": 19.99998000000001,
        "velocity": 0.3779527559055118,
        "duration": 0.05208328124999895
      },
      {
        "name": "A3",
        "midi": 57,
        "time": 20.35712250000001,
        "velocity": 0.4251968503937008,
        "duration": 0.06696421875000169
      },
      {
        "name": "D2",
        "midi": 38,
        "time": 20.35712250000001,
        "velocity": 0.7637795275590551,
        "duration": 0.09672609375000008
      },
      {
        "name": "E2",
        "midi": 40,
        "time": 20.714265000000008,
        "velocity": 0.9212598425196851,
        "duration": 0.12648796874999846
      },
      {
        "name": "C2",
        "midi": 36,
        "time": 20.714265000000008,
        "velocity": 0.8188976377952756,
        "duration": 0.14136890624999765
      },
      {
        "name": "A3",
        "midi": 57,
        "time": 20.714265000000008,
        "velocity": 0.3858267716535433,
        "duration": 0.05208328124999895
      },
      {
        "name": "D2",
        "midi": 38,
        "time": 21.071407500000007,
        "velocity": 0.6535433070866141,
        "duration": 0.06696421875000169
      },
      {
        "name": "A3",
        "midi": 57,
        "time": 21.249978750000007,
        "velocity": 0.4015748031496063,
        "duration": 0.022321406250000564
      },
      {
        "name": "D2",
        "midi": 38,
        "time": 21.249978750000007,
        "velocity": 0.5511811023622047,
        "duration": 0.08184515625000088
      },
      {
        "name": "A3",
        "midi": 57,
        "time": 21.42855000000001,
        "velocity": 0.4015748031496063,
        "duration": 0.05952375000000032
      },
      {
        "name": "D2",
        "midi": 38,
        "time": 21.42855000000001,
        "velocity": 0.6929133858267716,
        "duration": 0.11160703124999927
      },
      {
        "name": "D2",
        "midi": 38,
        "time": 21.785692500000007,
        "velocity": 0.7401574803149606,
        "duration": 0.11904750000000064
      },
      {
        "name": "C2",
        "midi": 36,
        "time": 21.964263750000008,
        "velocity": 0.7952755905511811,
        "duration": 0.0892856249999987
      },
      {
        "name": "A3",
        "midi": 57,
        "time": 22.142835000000005,
        "velocity": 0.4015748031496063,
        "duration": 0.06696421875000169
      },
      {
        "name": "C2",
        "midi": 36,
        "time": 22.142835000000005,
        "velocity": 0.8503937007874016,
        "duration": 0.13392843749999983
      },
      {
        "name": "E2",
        "midi": 40,
        "time": 22.142835000000005,
        "velocity": 0.9212598425196851,
        "duration": 0.10416656250000145
      },
      {
        "name": "D2",
        "midi": 38,
        "time": 22.499977500000004,
        "velocity": 0.7952755905511811,
        "duration": 0.07440468749999951
      },
      {
        "name": "D2",
        "midi": 38,
        "time": 22.678548750000004,
        "velocity": 0.5905511811023622,
        "duration": 0.05952375000000032
      },
      {
        "name": "D2",
        "midi": 38,
        "time": 22.857120000000005,
        "velocity": 0.6377952755905512,
        "duration": 0.08184515625000088
      },
      {
        "name": "A3",
        "midi": 57,
        "time": 22.857120000000005,
        "velocity": 0.4251968503937008,
        "duration": 0.07440468749999951
      },
      {
        "name": "D2",
        "midi": 38,
        "time": 23.035691250000006,
        "velocity": 0.7165354330708661,
        "duration": 0.06696421875000169
      },
      {
        "name": "A3",
        "midi": 57,
        "time": 23.214262500000007,
        "velocity": 0.4330708661417323,
        "duration": 0.06696421875000169
      },
      {
        "name": "D2",
        "midi": 38,
        "time": 23.214262500000007,
        "velocity": 0.6062992125984252,
        "duration": 0.10416656250000145
      },
      {
        "name": "A3",
        "midi": 57,
        "time": 23.57140500000001,
        "velocity": 0.4330708661417323,
        "duration": 0.09672609375000008
      },
      {
        "name": "E2",
        "midi": 40,
        "time": 23.57140500000001,
        "velocity": 0.889763779527559,
        "duration": 0.0892856249999987
      },
      {
        "name": "C2",
        "midi": 36,
        "time": 23.57140500000001,
        "velocity": 0.8188976377952756,
        "duration": 0.12648796874999846
      },
      {
        "name": "D2",
        "midi": 38,
        "time": 23.928547500000008,
        "velocity": 0.6929133858267716,
        "duration": 0.07440468749999951
      },
      {
        "name": "A3",
        "midi": 57,
        "time": 24.10711875000001,
        "velocity": 0.44881889763779526,
        "duration": 0.07440468749999951
      },
      {
        "name": "D2",
        "midi": 38,
        "time": 24.10711875000001,
        "velocity": 0.6220472440944882,
        "duration": 0.07440468749999951
      },
      {
        "name": "A3",
        "midi": 57,
        "time": 24.28569000000001,
        "velocity": 0.4409448818897638,
        "duration": 0.0892856249999987
      },
      {
        "name": "D2",
        "midi": 38,
        "time": 24.28569000000001,
        "velocity": 0.5748031496062992,
        "duration": 0.07440468749999951
      },
      {
        "name": "D2",
        "midi": 38,
        "time": 24.464261250000007,
        "velocity": 0.6377952755905512,
        "duration": 0.08184515625000088
      },
      {
        "name": "A3",
        "midi": 57,
        "time": 24.642832500000008,
        "velocity": 0.4251968503937008,
        "duration": 0.0892856249999987
      },
      {
        "name": "D2",
        "midi": 38,
        "time": 24.642832500000008,
        "velocity": 0.7401574803149606,
        "duration": 0.0892856249999987
      },
      {
        "name": "C2",
        "midi": 36,
        "time": 24.821403750000005,
        "velocity": 0.8188976377952756,
        "duration": 0.0892856249999987
      },
      {
        "name": "A3",
        "midi": 57,
        "time": 24.999975000000003,
        "velocity": 0.41732283464566927,
        "duration": 0.08184515625000088
      },
      {
        "name": "C2",
        "midi": 36,
        "time": 24.999975000000003,
        "velocity": 0.6377952755905512,
        "duration": 0.14880937500000258
      },
      {
        "name": "E2",
        "midi": 40,
        "time": 24.999975000000003,
        "velocity": 0.889763779527559,
        "duration": 0.07440468749999951
      },
      {
        "name": "A3",
        "midi": 57,
        "time": 25.357117500000005,
        "velocity": 0.4251968503937008,
        "duration": 0.07440468749999951
      },
      {
        "name": "D2",
        "midi": 38,
        "time": 25.357117500000005,
        "velocity": 0.7952755905511811,
        "duration": 0.07440468749999951
      },
      {
        "name": "D2",
        "midi": 38,
        "time": 25.714260000000003,
        "velocity": 0.889763779527559,
        "duration": 0.20089265624999797
      },
      {
        "name": "A3",
        "midi": 57,
        "time": 25.714260000000003,
        "velocity": 0.41732283464566927,
        "duration": 0.07440468749999951
      },
      {
        "name": "A3",
        "midi": 57,
        "time": 26.0714025,
        "velocity": 0.4566929133858268,
        "duration": 0.07440468749999951
      },
      {
        "name": "C2",
        "midi": 36,
        "time": 26.0714025,
        "velocity": 0.8503937007874016,
        "duration": 0.1562498437500004
      },
      {
        "name": "E2",
        "midi": 40,
        "time": 26.0714025,
        "velocity": 0.889763779527559,
        "duration": 0.0892856249999987
      },
      {
        "name": "D2",
        "midi": 38,
        "time": 26.428545000000003,
        "velocity": 0.8503937007874016,
        "duration": 0.20089265625000152
      },
      {
        "name": "A3",
        "midi": 57,
        "time": 26.428545000000003,
        "velocity": 0.4330708661417323,
        "duration": 0.05952375000000032
      },
      {
        "name": "A3",
        "midi": 57,
        "time": 26.785687500000005,
        "velocity": 0.4645669291338583,
        "duration": 0.08184515625000088
      },
      {
        "name": "C2",
        "midi": 36,
        "time": 26.785687500000005,
        "velocity": 0.8188976377952756,
        "duration": 0.11160703125000282
      },
      {
        "name": "E2",
        "midi": 40,
        "time": 26.785687500000005,
        "velocity": 0.889763779527559,
        "duration": 0.10416656250000145
      },
      {
        "name": "D2",
        "midi": 38,
        "time": 27.142830000000007,
        "velocity": 0.8188976377952756,
        "duration": 0.14880937499999902
      },
      {
        "name": "A3",
        "midi": 57,
        "time": 27.142830000000007,
        "velocity": 0.44881889763779526,
        "duration": 0.07440468749999951
      },
      {
        "name": "D2",
        "midi": 38,
        "time": 27.499972500000005,
        "velocity": 0.7165354330708661,
        "duration": 0.08184515625000088
      },
      {
        "name": "A3",
        "midi": 57,
        "time": 27.678543750000006,
        "velocity": 0.4330708661417323,
        "duration": 0.05208328124999895
      },
      {
        "name": "D2",
        "midi": 38,
        "time": 27.678543750000006,
        "velocity": 0.6220472440944882,
        "duration": 0.07440468749999951
      },
      {
        "name": "A3",
        "midi": 57,
        "time": 27.857115000000007,
        "velocity": 0.48031496062992124,
        "duration": 0.07440468749999951
      },
      {
        "name": "E2",
        "midi": 40,
        "time": 27.857115000000007,
        "velocity": 0.8503937007874016,
        "duration": 0.11904750000000064
      },
      {
        "name": "C2",
        "midi": 36,
        "time": 27.857115000000007,
        "velocity": 0.8503937007874016,
        "duration": 0.1413689062500012
      },
      {
        "name": "A3",
        "midi": 57,
        "time": 28.21425750000001,
        "velocity": 0.4330708661417323,
        "duration": 0.07440468749999951
      },
      {
        "name": "D2",
        "midi": 38,
        "time": 28.21425750000001,
        "velocity": 0.6771653543307087,
        "duration": 0.07440468749999951
      },
      {
        "name": "D2",
        "midi": 38,
        "time": 28.39282875000001,
        "velocity": 0.6220472440944882,
        "duration": 0.08184515625000088
      },
      {
        "name": "D2",
        "midi": 38,
        "time": 28.57140000000001,
        "velocity": 0.6220472440944882,
        "duration": 0.08184515625000088
      },
      {
        "name": "A3",
        "midi": 57,
        "time": 28.57140000000001,
        "velocity": 0.4409448818897638,
        "duration": 0.07440468749999951
      },
      {
        "name": "D2",
        "midi": 38,
        "time": 28.749971250000012,
        "velocity": 0.5590551181102362,
        "duration": 0.07440468749999951
      },
      {
        "name": "A3",
        "midi": 57,
        "time": 28.928542500000013,
        "velocity": 0.4330708661417323,
        "duration": 0.06696421875000169
      },
      {
        "name": "D2",
        "midi": 38,
        "time": 28.928542500000013,
        "velocity": 0.5511811023622047,
        "duration": 0.08928562500000226
      },
      {
        "name": "D2",
        "midi": 38,
        "time": 29.107113750000014,
        "velocity": 0.6377952755905512,
        "duration": 0.0892856249999987
      },
      {
        "name": "C2",
        "midi": 36,
        "time": 29.107113750000014,
        "velocity": 0.8503937007874016,
        "duration": 0.09672609375000008
      },
      {
        "name": "E2",
        "midi": 40,
        "time": 29.285685000000015,
        "velocity": 0.7952755905511811,
        "duration": 0.11160703124999927
      },
      {
        "name": "C2",
        "midi": 36,
        "time": 29.285685000000015,
        "velocity": 0.8188976377952756,
        "duration": 0.16369031249999821
      },
      {
        "name": "A3",
        "midi": 57,
        "time": 29.285685000000015,
        "velocity": 0.4251968503937008,
        "duration": 0.07440468749999951
      },
      {
        "name": "A3",
        "midi": 57,
        "time": 29.642827500000013,
        "velocity": 0.4566929133858268,
        "duration": 0.06696421875000169
      },
      {
        "name": "D2",
        "midi": 38,
        "time": 29.999970000000015,
        "velocity": 0.7401574803149606,
        "duration": 0.08928562500000226
      },
      {
        "name": "A3",
        "midi": 57,
        "time": 29.999970000000015,
        "velocity": 0.44881889763779526,
        "duration": 0.06696421875000169
      },
      {
        "name": "A3",
        "midi": 57,
        "time": 30.178541250000016,
        "velocity": 0.44881889763779526,
        "duration": 0.05952375000000032
      },
      {
        "name": "A3",
        "midi": 57,
        "time": 30.357112500000017,
        "velocity": 0.4566929133858268,
        "duration": 0.07440468749999951
      },
      {
        "name": "D2",
        "midi": 38,
        "time": 30.357112500000017,
        "velocity": 0.7952755905511811,
        "duration": 0.0892856249999987
      },
      {
        "name": "E2",
        "midi": 40,
        "time": 30.714255000000016,
        "velocity": 0.9212598425196851,
        "duration": 0.0892856249999987
      },
      {
        "name": "C2",
        "midi": 36,
        "time": 30.714255000000016,
        "velocity": 0.9606299212598425,
        "duration": 0.14136890624999765
      },
      {
        "name": "A3",
        "midi": 57,
        "time": 30.714255000000016,
        "velocity": 0.4409448818897638,
        "duration": 0.05952375000000032
      },
      {
        "name": "A3",
        "midi": 57,
        "time": 31.071397500000014,
        "velocity": 0.44881889763779526,
        "duration": 0.07440468749999951
      },
      {
        "name": "D2",
        "midi": 38,
        "time": 31.071397500000014,
        "velocity": 0.7952755905511811,
        "duration": 0.07440468749999951
      },
      {
        "name": "D2",
        "midi": 38,
        "time": 31.249968750000015,
        "velocity": 0.6220472440944882,
        "duration": 0.07440468749999951
      },
      {
        "name": "D2",
        "midi": 38,
        "time": 31.428540000000016,
        "velocity": 0.6220472440944882,
        "duration": 0.08184515625000088
      },
      {
        "name": "A3",
        "midi": 57,
        "time": 31.428540000000016,
        "velocity": 0.4094488188976378,
        "duration": 0.05952375000000032
      },
      {
        "name": "D2",
        "midi": 38,
        "time": 31.607111250000017,
        "velocity": 0.5748031496062992,
        "duration": 0.08184515625000088
      },
      {
        "name": "C2",
        "midi": 36,
        "time": 31.785682500000018,
        "velocity": 0.9212598425196851,
        "duration": 0.126487968750002
      },
      {
        "name": "D2",
        "midi": 38,
        "time": 31.785682500000018,
        "velocity": 0.5905511811023622,
        "duration": 0.06696421875000169
      },
      {
        "name": "A3",
        "midi": 57,
        "time": 31.96425375000002,
        "velocity": 0.4094488188976378,
        "duration": 0.05208328124999895
      },
      {
        "name": "D2",
        "midi": 38,
        "time": 31.96425375000002,
        "velocity": 0.5905511811023622,
        "duration": 0.09672609375000008
      },
      {
        "name": "A3",
        "midi": 57,
        "time": 32.142825000000016,
        "velocity": 0.4330708661417323,
        "duration": 0.07440468749999951
      },
      {
        "name": "E2",
        "midi": 40,
        "time": 32.142825000000016,
        "velocity": 0.7952755905511811,
        "duration": 0.07440468749999951
      },
      {
        "name": "A3",
        "midi": 57,
        "time": 32.49996750000002,
        "velocity": 0.4251968503937008,
        "duration": 0.05952374999999677
      },
      {
        "name": "D2",
        "midi": 38,
        "time": 32.49996750000002,
        "velocity": 0.6929133858267716,
        "duration": 0.06696421874999459
      },
      {
        "name": "D2",
        "midi": 38,
        "time": 32.678538750000016,
        "velocity": 0.6535433070866141,
        "duration": 0.08184515624999733
      },
      {
        "name": "D2",
        "midi": 38,
        "time": 32.85711000000001,
        "velocity": 0.7165354330708661,
        "duration": 0.11160703125000282
      },
      {
        "name": "A3",
        "midi": 57,
        "time": 32.85711000000001,
        "velocity": 0.4409448818897638,
        "duration": 0.07440468749999951
      },
      {
        "name": "A3",
        "midi": 57,
        "time": 33.214252500000015,
        "velocity": 0.3858267716535433,
        "duration": 0.05208328124999895
      },
      {
        "name": "D2",
        "midi": 38,
        "time": 33.214252500000015,
        "velocity": 0.8188976377952756,
        "duration": 0.08184515624999733
      },
      {
        "name": "C2",
        "midi": 36,
        "time": 33.57139500000001,
        "velocity": 0.9212598425196851,
        "duration": 0.13392843749999628
      },
      {
        "name": "E2",
        "midi": 40,
        "time": 33.57139500000001,
        "velocity": 0.9212598425196851,
        "duration": 0.1041665624999979
      },
      {
        "name": "A3",
        "midi": 57,
        "time": 33.57139500000001,
        "velocity": 0.44881889763779526,
        "duration": 0.07440468749999951
      },
      {
        "name": "D2",
        "midi": 38,
        "time": 33.928537500000004,
        "velocity": 0.7165354330708661,
        "duration": 0.08184515624999733
      },
      {
        "name": "A3",
        "midi": 57,
        "time": 33.928537500000004,
        "velocity": 0.4251968503937008,
        "duration": 0.07440468749999951
      },
      {
        "name": "D2",
        "midi": 38,
        "time": 34.10710875,
        "velocity": 0.5590551181102362,
        "duration": 0.08928562500000226
      },
      {
        "name": "D2",
        "midi": 38,
        "time": 34.285680000000006,
        "velocity": 0.5905511811023622,
        "duration": 0.06696421875000169
      },
      {
        "name": "A3",
        "midi": 57,
        "time": 34.285680000000006,
        "velocity": 0.4251968503937008,
        "duration": 0.05208328124999895
      },
      {
        "name": "D2",
        "midi": 38,
        "time": 34.46425125000001,
        "velocity": 0.5275590551181102,
        "duration": 0.08184515624999733
      },
      {
        "name": "A3",
        "midi": 57,
        "time": 34.46425125000001,
        "velocity": 0.4094488188976378,
        "duration": 0.05208328124999895
      },
      {
        "name": "C2",
        "midi": 36,
        "time": 34.64282250000001,
        "velocity": 0.889763779527559,
        "duration": 0.13392843749999628
      },
      {
        "name": "D2",
        "midi": 38,
        "time": 34.64282250000001,
        "velocity": 0.5748031496062992,
        "duration": 0.1041665624999979
      },
      {
        "name": "A3",
        "midi": 57,
        "time": 34.64282250000001,
        "velocity": 0.4094488188976378,
        "duration": 0.05952374999999677
      },
      {
        "name": "C2",
        "midi": 36,
        "time": 34.999965,
        "velocity": 0.9606299212598425,
        "duration": 0.13392843749999628
      },
      {
        "name": "E2",
        "midi": 40,
        "time": 34.999965,
        "velocity": 0.889763779527559,
        "duration": 0.08928562499999515
      },
      {
        "name": "A3",
        "midi": 57,
        "time": 34.999965,
        "velocity": 0.4409448818897638,
        "duration": 0.08184515624999733
      },
      {
        "name": "D2",
        "midi": 38,
        "time": 35.3571075,
        "velocity": 0.6771653543307087,
        "duration": 0.06696421875000169
      },
      {
        "name": "A3",
        "midi": 57,
        "time": 35.3571075,
        "velocity": 0.44881889763779526,
        "duration": 0.07440468749999951
      },
      {
        "name": "D2",
        "midi": 38,
        "time": 35.535678749999995,
        "velocity": 0.5905511811023622,
        "duration": 0.08184515624999733
      },
      {
        "name": "D2",
        "midi": 38,
        "time": 35.71424999999999,
        "velocity": 0.6771653543307087,
        "duration": 0.09672609375000008
      },
      {
        "name": "A3",
        "midi": 57,
        "time": 35.71424999999999,
        "velocity": 0.41732283464566927,
        "duration": 0.06696421875000169
      },
      {
        "name": "D2",
        "midi": 38,
        "time": 36.071392499999995,
        "velocity": 0.7637795275590551,
        "duration": 0.08928562500000226
      },
      {
        "name": "A3",
        "midi": 57,
        "time": 36.071392499999995,
        "velocity": 0.4330708661417323,
        "duration": 0.07440468749999951
      },
      {
        "name": "E2",
        "midi": 40,
        "time": 36.428535,
        "velocity": 0.8503937007874016,
        "duration": 0.09672609375000008
      },
      {
        "name": "C2",
        "midi": 36,
        "time": 36.428535,
        "velocity": 0.9212598425196851,
        "duration": 0.12648796874999846
      },
      {
        "name": "A3",
        "midi": 57,
        "time": 36.428535,
        "velocity": 0.4330708661417323,
        "duration": 0.08184515624999733
      },
      {
        "name": "D2",
        "midi": 38,
        "time": 36.7856775,
        "velocity": 0.7165354330708661,
        "duration": 0.08184515625000444
      },
      {
        "name": "A3",
        "midi": 57,
        "time": 36.7856775,
        "velocity": 0.41732283464566927,
        "duration": 0.06696421875000169
      },
      {
        "name": "D2",
        "midi": 38,
        "time": 36.96424875,
        "velocity": 0.5748031496062992,
        "duration": 0.07440468749999951
      },
      {
        "name": "A3",
        "midi": 57,
        "time": 36.96424875,
        "velocity": 0.44881889763779526,
        "duration": 0.05952374999999677
      },
      {
        "name": "D2",
        "midi": 38,
        "time": 37.14282,
        "velocity": 0.6220472440944882,
        "duration": 0.08184515625000444
      },
      {
        "name": "A3",
        "midi": 57,
        "time": 37.14282,
        "velocity": 0.44881889763779526,
        "duration": 0.06696421875000169
      },
      {
        "name": "D2",
        "midi": 38,
        "time": 37.321391250000005,
        "velocity": 0.5748031496062992,
        "duration": 0.09672609375000008
      },
      {
        "name": "D2",
        "midi": 38,
        "time": 37.4999625,
        "velocity": 0.6062992125984252,
        "duration": 0.1041665624999979
      },
      {
        "name": "A3",
        "midi": 57,
        "time": 37.4999625,
        "velocity": 0.4094488188976378,
        "duration": 0.05952374999999677
      },
      {
        "name": "E2",
        "midi": 40,
        "time": 37.857105,
        "velocity": 0.8188976377952756,
        "duration": 0.08184515624999733
      },
      {
        "name": "C2",
        "midi": 36,
        "time": 37.857105,
        "velocity": 0.8503937007874016,
        "duration": 0.11160703124999571
      },
      {
        "name": "A3",
        "midi": 57,
        "time": 37.857105,
        "velocity": 0.41732283464566927,
        "duration": 0.07440468749999951
      },
      {
        "name": "D2",
        "midi": 38,
        "time": 38.21424749999999,
        "velocity": 0.7165354330708661,
        "duration": 0.06696421875000169
      },
      {
        "name": "A3",
        "midi": 57,
        "time": 38.21424749999999,
        "velocity": 0.4094488188976378,
        "duration": 0.06696421875000169
      },
      {
        "name": "D2",
        "midi": 38,
        "time": 38.392818749999996,
        "velocity": 0.5590551181102362,
        "duration": 0.08928562500000226
      },
      {
        "name": "D2",
        "midi": 38,
        "time": 38.57139,
        "velocity": 0.6929133858267716,
        "duration": 0.1041665624999979
      },
      {
        "name": "A3",
        "midi": 57,
        "time": 38.57139,
        "velocity": 0.4330708661417323,
        "duration": 0.08184515624999733
      },
      {
        "name": "D2",
        "midi": 38,
        "time": 38.928532499999996,
        "velocity": 0.7637795275590551,
        "duration": 0.1041665624999979
      },
      {
        "name": "A3",
        "midi": 57,
        "time": 39.10710374999999,
        "velocity": 0.41732283464566927,
        "duration": 0.04464281250000113
      },
      {
        "name": "A3",
        "midi": 57,
        "time": 39.285675,
        "velocity": 0.4015748031496063,
        "duration": 0.05952374999999677
      },
      {
        "name": "E2",
        "midi": 40,
        "time": 39.285675,
        "velocity": 0.8503937007874016,
        "duration": 0.08928562499999515
      },
      {
        "name": "C2",
        "midi": 36,
        "time": 39.285675,
        "velocity": 0.8503937007874016,
        "duration": 0.12648796874999846
      },
      {
        "name": "D2",
        "midi": 38,
        "time": 39.6428175,
        "velocity": 0.6929133858267716,
        "duration": 0.06696421875000169
      },
      {
        "name": "A3",
        "midi": 57,
        "time": 39.6428175,
        "velocity": 0.3779527559055118,
        "duration": 0.04464281250000113
      },
      {
        "name": "D2",
        "midi": 38,
        "time": 39.821388750000004,
        "velocity": 0.6062992125984252,
        "duration": 0.07440468749999951
      },
      {
        "name": "A3",
        "midi": 57,
        "time": 39.99996,
        "velocity": 0.3858267716535433,
        "duration": 0.08928562500000226
      },
      {
        "name": "D2",
        "midi": 38,
        "time": 39.99996,
        "velocity": 0.6771653543307087,
        "duration": 0.09672609375000008
      },
      {
        "name": "D2",
        "midi": 38,
        "time": 40.17853125,
        "velocity": 0.6220472440944882,
        "duration": 0.08184515624999733
      },
      {
        "name": "A3",
        "midi": 57,
        "time": 40.357102499999996,
        "velocity": 0.41732283464566927,
        "duration": 0.06696421875000169
      },
      {
        "name": "D2",
        "midi": 38,
        "time": 40.357102499999996,
        "velocity": 0.6062992125984252,
        "duration": 0.104166562500005
      },
      {
        "name": "A3",
        "midi": 57,
        "time": 40.714245,
        "velocity": 0.44881889763779526,
        "duration": 0.08184515624999733
      },
      {
        "name": "C2",
        "midi": 36,
        "time": 40.714245,
        "velocity": 0.8188976377952756,
        "duration": 0.12648796874999846
      },
      {
        "name": "E2",
        "midi": 40,
        "time": 40.714245,
        "velocity": 0.8188976377952756,
        "duration": 0.07440468749999951
      },
      {
        "name": "A3",
        "midi": 57,
        "time": 41.0713875,
        "velocity": 0.4330708661417323,
        "duration": 0.07440468749999951
      },
      {
        "name": "D2",
        "midi": 38,
        "time": 41.0713875,
        "velocity": 0.7637795275590551,
        "duration": 0.08184515624999733
      },
      {
        "name": "D2",
        "midi": 38,
        "time": 41.428529999999995,
        "velocity": 0.7952755905511811,
        "duration": 0.16369031249999466
      },
      {
        "name": "A3",
        "midi": 57,
        "time": 41.428529999999995,
        "velocity": 0.47244094488188976,
        "duration": 0.08184515624999733
      },
      {
        "name": "A3",
        "midi": 57,
        "time": 41.78567249999999,
        "velocity": 0.4645669291338583,
        "duration": 0.07440468749999951
      },
      {
        "name": "C2",
        "midi": 36,
        "time": 41.78567249999999,
        "velocity": 0.7952755905511811,
        "duration": 0.1413689062500012
      },
      {
        "name": "E2",
        "midi": 40,
        "time": 41.78567249999999,
        "velocity": 0.889763779527559,
        "duration": 0.08928562500000226
      },
      {
        "name": "A3",
        "midi": 57,
        "time": 42.14281499999999,
        "velocity": 0.44881889763779526,
        "duration": 0.05952374999999677
      },
      {
        "name": "D2",
        "midi": 38,
        "time": 42.14281499999999,
        "velocity": 0.8188976377952756,
        "duration": 0.16369031249999466
      },
      {
        "name": "A3",
        "midi": 57,
        "time": 42.49995749999999,
        "velocity": 0.4330708661417323,
        "duration": 0.06696421875000169
      },
      {
        "name": "E2",
        "midi": 40,
        "time": 42.49995749999999,
        "velocity": 0.8503937007874016,
        "duration": 0.12648796875000556
      },
      {
        "name": "C2",
        "midi": 36,
        "time": 42.49995749999999,
        "velocity": 0.889763779527559,
        "duration": 0.11160703125000282
      },
      {
        "name": "D2",
        "midi": 38,
        "time": 42.857099999999996,
        "velocity": 0.8188976377952756,
        "duration": 0.08184515625000444
      },
      {
        "name": "A3",
        "midi": 57,
        "time": 42.857099999999996,
        "velocity": 0.4645669291338583,
        "duration": 0.06696421875000169
      },
      {
        "name": "D2",
        "midi": 38,
        "time": 43.03567125,
        "velocity": 0.6062992125984252,
        "duration": 0.08928562500000226
      },
      {
        "name": "D2",
        "midi": 38,
        "time": 43.214242500000005,
        "velocity": 0.6929133858267716,
        "duration": 0.08184515624999733
      },
      {
        "name": "A3",
        "midi": 57,
        "time": 43.39281375,
        "velocity": 0.4566929133858268,
        "duration": 0.05952374999999677
      },
      {
        "name": "D2",
        "midi": 38,
        "time": 43.39281375,
        "velocity": 0.6771653543307087,
        "duration": 0.08928562500000226
      },
      {
        "name": "A3",
        "midi": 57,
        "time": 43.39281375,
        "velocity": 0.47244094488188976,
        "duration": 0.07440468749999951
      },
      {
        "name": "E2",
        "midi": 40,
        "time": 43.57138500000001,
        "velocity": 0.7952755905511811,
        "duration": 0.1041665624999979
      },
      {
        "name": "C2",
        "midi": 36,
        "time": 43.57138500000001,
        "velocity": 0.9212598425196851,
        "duration": 0.13392843749999628
      },
      {
        "name": "A3",
        "midi": 57,
        "time": 43.9285275,
        "velocity": 0.44881889763779526,
        "duration": 0.07440468749999951
      },
      {
        "name": "D2",
        "midi": 38,
        "time": 43.9285275,
        "velocity": 0.6929133858267716,
        "duration": 0.06696421875000169
      },
      {
        "name": "D2",
        "midi": 38,
        "time": 44.10709875,
        "velocity": 0.6062992125984252,
        "duration": 0.06696421875000169
      },
      {
        "name": "D2",
        "midi": 38,
        "time": 44.28567,
        "velocity": 0.7165354330708661,
        "duration": 0.09672609375000008
      },
      {
        "name": "A3",
        "midi": 57,
        "time": 44.46424125,
        "velocity": 0.4015748031496063,
        "duration": 0.05208328124999895
      },
      {
        "name": "D2",
        "midi": 38,
        "time": 44.6428125,
        "velocity": 0.7637795275590551,
        "duration": 0.1041665624999979
      },
      {
        "name": "A3",
        "midi": 57,
        "time": 44.6428125,
        "velocity": 0.3858267716535433,
        "duration": 0.05208328124999895
      },
      {
        "name": "A3",
        "midi": 57,
        "time": 44.99995499999999,
        "velocity": 0.4566929133858268,
        "duration": 0.08184515624999733
      },
      {
        "name": "E2",
        "midi": 40,
        "time": 44.99995499999999,
        "velocity": 0.8188976377952756,
        "duration": 0.08928562499999515
      },
      {
        "name": "C2",
        "midi": 36,
        "time": 44.99995499999999,
        "velocity": 0.8503937007874016,
        "duration": 0.1413689062499941
      },
      {
        "name": "A3",
        "midi": 57,
        "time": 45.35709749999999,
        "velocity": 0.4330708661417323,
        "duration": 0.05952374999999677
      },
      {
        "name": "D2",
        "midi": 38,
        "time": 45.71423999999998,
        "velocity": 0.7952755905511811,
        "duration": 0.08928562500000226
      },
      {
        "name": "C2",
        "midi": 36,
        "time": 45.71423999999998,
        "velocity": 0.9212598425196851,
        "duration": 0.09672609375000008
      },
      {
        "name": "A3",
        "midi": 57,
        "time": 45.71423999999998,
        "velocity": 0.4251968503937008,
        "duration": 0.06696421875000169
      },
      {
        "name": "A3",
        "midi": 57,
        "time": 46.071382499999984,
        "velocity": 0.4330708661417323,
        "duration": 0.08184515624999733
      },
      {
        "name": "D2",
        "midi": 38,
        "time": 46.071382499999984,
        "velocity": 0.7401574803149606,
        "duration": 0.09672609375000008
      },
      {
        "name": "A3",
        "midi": 57,
        "time": 46.428524999999986,
        "velocity": 0.44881889763779526,
        "duration": 0.08184515624999733
      },
      {
        "name": "E2",
        "midi": 40,
        "time": 46.428524999999986,
        "velocity": 0.7952755905511811,
        "duration": 0.09672609375000008
      },
      {
        "name": "D2",
        "midi": 38,
        "time": 46.78566749999999,
        "velocity": 0.7637795275590551,
        "duration": 0.09672609375000008
      },
      {
        "name": "A3",
        "midi": 57,
        "time": 46.78566749999999,
        "velocity": 0.41732283464566927,
        "duration": 0.05952374999999677
      },
      {
        "name": "A3",
        "midi": 57,
        "time": 47.14280999999999,
        "velocity": 0.5590551181102362,
        "duration": 0.05208328124999895
      },
      {
        "name": "D2",
        "midi": 38,
        "time": 47.14280999999999,
        "velocity": 0.9212598425196851,
        "duration": 0.09672609375000008
      },
      {
        "name": "C2",
        "midi": 36,
        "time": 47.14280999999999,
        "velocity": 0.8503937007874016,
        "duration": 0.09672609375000008
      },
      {
        "name": "E2",
        "midi": 40,
        "time": 59.642797499999986,
        "velocity": 1,
        "duration": 0.1041665624999979
      },
      {
        "name": "D2",
        "midi": 38,
        "time": 59.642797499999986,
        "velocity": 0.8188976377952756,
        "duration": 0.07440468749999951
      },
      {
        "name": "D2",
        "midi": 38,
        "time": 59.99993999999998,
        "velocity": 0.889763779527559,
        "duration": 0.11904750000000064
      },
      {
        "name": "C2",
        "midi": 36,
        "time": 59.99993999999998,
        "velocity": 0.9212598425196851,
        "duration": 0.2083331250000029
      },
      {
        "name": "A3",
        "midi": 57,
        "time": 59.99993999999998,
        "velocity": 0.5354330708661418,
        "duration": 0.1041665624999979
      },
      {
        "name": "D2",
        "midi": 38,
        "time": 60.35708249999998,
        "velocity": 0.8188976377952756,
        "duration": 0.13392843750000338
      },
      {
        "name": "A3",
        "midi": 57,
        "time": 60.53565374999999,
        "velocity": 0.5354330708661418,
        "duration": 0.08928562500000226
      },
      {
        "name": "A3",
        "midi": 57,
        "time": 60.71422499999999,
        "velocity": 0.4645669291338583,
        "duration": 0.1041665624999979
      },
      {
        "name": "E2",
        "midi": 40,
        "time": 60.71422499999999,
        "velocity": 1,
        "duration": 0.09672609375000008
      },
      {
        "name": "A3",
        "midi": 57,
        "time": 61.07136749999999,
        "velocity": 0.4645669291338583,
        "duration": 0.08928562500000226
      },
      {
        "name": "D2",
        "midi": 38,
        "time": 61.07136749999999,
        "velocity": 0.7637795275590551,
        "duration": 0.07440468749999951
      },
      {
        "name": "D2",
        "midi": 38,
        "time": 61.24993874999999,
        "velocity": 0.6929133858267716,
        "duration": 0.08184515624999733
      },
      {
        "name": "A3",
        "midi": 57,
        "time": 61.42850999999999,
        "velocity": 0.4645669291338583,
        "duration": 0.09672609375000008
      },
      {
        "name": "D2",
        "midi": 38,
        "time": 61.42850999999999,
        "velocity": 0.6771653543307087,
        "duration": 0.06696421875000169
      },
      {
        "name": "C2",
        "midi": 36,
        "time": 61.42850999999999,
        "velocity": 0.8188976377952756,
        "duration": 0.13392843750000338
      },
      {
        "name": "D2",
        "midi": 38,
        "time": 61.60708124999999,
        "velocity": 0.6062992125984252,
        "duration": 0.08928562500000226
      },
      {
        "name": "A3",
        "midi": 57,
        "time": 61.7856525,
        "velocity": 0.4409448818897638,
        "duration": 0.09672609375000008
      },
      {
        "name": "D2",
        "midi": 38,
        "time": 61.7856525,
        "velocity": 0.6377952755905512,
        "duration": 0.08184515624999733
      },
      {
        "name": "D2",
        "midi": 38,
        "time": 61.964223749999995,
        "velocity": 0.6220472440944882,
        "duration": 0.09672609375000008
      },
      {
        "name": "A3",
        "midi": 57,
        "time": 62.14279499999999,
        "velocity": 0.41732283464566927,
        "duration": 0.08928562500000226
      },
      {
        "name": "C2",
        "midi": 36,
        "time": 62.14279499999999,
        "velocity": 0.889763779527559,
        "duration": 0.1413689062500083
      },
      {
        "name": "E2",
        "midi": 40,
        "time": 62.14279499999999,
        "velocity": 0.8503937007874016,
        "duration": 0.104166562500005
      },
      {
        "name": "A3",
        "midi": 57,
        "time": 62.4999375,
        "velocity": 0.41732283464566927,
        "duration": 0.07440468749999951
      },
      {
        "name": "D2",
        "midi": 38,
        "time": 62.4999375,
        "velocity": 0.7952755905511811,
        "duration": 0.11160703125000282
      },
      {
        "name": "D2",
        "midi": 38,
        "time": 62.85708,
        "velocity": 0.8188976377952756,
        "duration": 0.09672609375000008
      },
      {
        "name": "C2",
        "midi": 36,
        "time": 62.85708,
        "velocity": 0.8503937007874016,
        "duration": 0.14880937499999902
      },
      {
        "name": "A3",
        "midi": 57,
        "time": 62.85708,
        "velocity": 0.4251968503937008,
        "duration": 0.08928562500000226
      },
      {
        "name": "A3",
        "midi": 57,
        "time": 63.214222500000005,
        "velocity": 0.41732283464566927,
        "duration": 0.08184515624999733
      },
      {
        "name": "D2",
        "midi": 38,
        "time": 63.214222500000005,
        "velocity": 0.8188976377952756,
        "duration": 0.11160703124999571
      },
      {
        "name": "C2",
        "midi": 36,
        "time": 63.39279375,
        "velocity": 0.9212598425196851,
        "duration": 0.08928562500000226
      },
      {
        "name": "A3",
        "midi": 57,
        "time": 63.57136500000001,
        "velocity": 0.4094488188976378,
        "duration": 0.06696421875000169
      },
      {
        "name": "C2",
        "midi": 36,
        "time": 63.57136500000001,
        "velocity": 0.8503937007874016,
        "duration": 0.12648796875000556
      },
      {
        "name": "E2",
        "midi": 40,
        "time": 63.57136500000001,
        "velocity": 0.889763779527559,
        "duration": 0.08928562500000226
      },
      {
        "name": "A3",
        "midi": 57,
        "time": 63.928507500000016,
        "velocity": 0.4015748031496063,
        "duration": 0.06696421875000169
      },
      {
        "name": "D2",
        "midi": 38,
        "time": 63.928507500000016,
        "velocity": 0.7637795275590551,
        "duration": 0.06696421875000169
      },
      {
        "name": "D2",
        "midi": 38,
        "time": 64.10707875000001,
        "velocity": 0.6377952755905512,
        "duration": 0.08184515624999733
      },
      {
        "name": "D2",
        "midi": 38,
        "time": 64.28565,
        "velocity": 0.6535433070866141,
        "duration": 0.1041665624999979
      },
      {
        "name": "C2",
        "midi": 36,
        "time": 64.28565,
        "velocity": 0.8503937007874016,
        "duration": 0.11904749999999353
      },
      {
        "name": "D2",
        "midi": 38,
        "time": 64.46422125,
        "velocity": 0.6220472440944882,
        "duration": 0.08184515624999733
      },
      {
        "name": "A3",
        "midi": 57,
        "time": 64.64279249999998,
        "velocity": 0.41732283464566927,
        "duration": 0.06696421875000169
      },
      {
        "name": "D2",
        "midi": 38,
        "time": 64.64279249999998,
        "velocity": 0.6377952755905512,
        "duration": 0.08928562500000226
      },
      {
        "name": "A3",
        "midi": 57,
        "time": 64.999935,
        "velocity": 0.4251968503937008,
        "duration": 0.07440468750000662
      },
      {
        "name": "E2",
        "midi": 40,
        "time": 64.999935,
        "velocity": 0.9212598425196851,
        "duration": 0.09672609375000718
      },
      {
        "name": "A3",
        "midi": 57,
        "time": 65.3570775,
        "velocity": 0.4251968503937008,
        "duration": 0.07440468750000662
      },
      {
        "name": "D2",
        "midi": 38,
        "time": 65.3570775,
        "velocity": 0.6929133858267716,
        "duration": 0.06696421875000169
      },
      {
        "name": "D2",
        "midi": 38,
        "time": 65.53564875000001,
        "velocity": 0.6377952755905512,
        "duration": 0.11160703125000282
      },
      {
        "name": "D2",
        "midi": 38,
        "time": 65.71422000000001,
        "velocity": 0.6929133858267716,
        "duration": 0.09672609375000718
      },
      {
        "name": "C2",
        "midi": 36,
        "time": 65.71422000000001,
        "velocity": 0.7952755905511811,
        "duration": 0.11904750000000774
      },
      {
        "name": "A3",
        "midi": 57,
        "time": 65.71422000000001,
        "velocity": 0.41732283464566927,
        "duration": 0.06696421875000169
      },
      {
        "name": "A3",
        "midi": 57,
        "time": 66.07136250000002,
        "velocity": 0.4566929133858268,
        "duration": 0.08184515624999733
      },
      {
        "name": "D2",
        "midi": 38,
        "time": 66.07136250000002,
        "velocity": 0.7952755905511811,
        "duration": 0.11160703125000282
      },
      {
        "name": "C2",
        "midi": 36,
        "time": 66.24993375000003,
        "velocity": 0.889763779527559,
        "duration": 0.08184515625001154
      },
      {
        "name": "A3",
        "midi": 57,
        "time": 66.24993375000003,
        "velocity": 0.4645669291338583,
        "duration": 0.07440468750000662
      },
      {
        "name": "E2",
        "midi": 40,
        "time": 66.42850500000003,
        "velocity": 0.889763779527559,
        "duration": 0.11160703125000282
      },
      {
        "name": "C2",
        "midi": 36,
        "time": 66.42850500000003,
        "velocity": 0.7952755905511811,
        "duration": 0.12648796874999846
      },
      {
        "name": "A3",
        "midi": 57,
        "time": 66.42850500000003,
        "velocity": 0.4645669291338583,
        "duration": 0.07440468750000662
      },
      {
        "name": "A3",
        "midi": 57,
        "time": 66.78564750000002,
        "velocity": 0.4094488188976378,
        "duration": 0.06696421875000169
      },
      {
        "name": "D2",
        "midi": 38,
        "time": 66.78564750000002,
        "velocity": 0.7165354330708661,
        "duration": 0.07440468750000662
      },
      {
        "name": "D2",
        "midi": 38,
        "time": 66.96421875000003,
        "velocity": 0.5511811023622047,
        "duration": 0.08184515624999733
      },
      {
        "name": "A3",
        "midi": 57,
        "time": 67.14279000000002,
        "velocity": 0.4330708661417323,
        "duration": 0.09672609375000718
      },
      {
        "name": "D2",
        "midi": 38,
        "time": 67.14279000000002,
        "velocity": 0.6220472440944882,
        "duration": 0.08928562500000226
      },
      {
        "name": "C2",
        "midi": 36,
        "time": 67.14279000000002,
        "velocity": 0.889763779527559,
        "duration": 0.08928562500000226
      },
      {
        "name": "D2",
        "midi": 38,
        "time": 67.32136125000002,
        "velocity": 0.5748031496062992,
        "duration": 0.07440468750000662
      },
      {
        "name": "A3",
        "midi": 57,
        "time": 67.49993250000003,
        "velocity": 0.4330708661417323,
        "duration": 0.07440468750000662
      },
      {
        "name": "D2",
        "midi": 38,
        "time": 67.49993250000003,
        "velocity": 0.6220472440944882,
        "duration": 0.07440468750000662
      },
      {
        "name": "D2",
        "midi": 38,
        "time": 67.67850375000003,
        "velocity": 0.6220472440944882,
        "duration": 0.1041665624999979
      },
      {
        "name": "E2",
        "midi": 40,
        "time": 67.85707500000004,
        "velocity": 0.7952755905511811,
        "duration": 0.11160703125000282
      },
      {
        "name": "A3",
        "midi": 57,
        "time": 67.85707500000004,
        "velocity": 0.4015748031496063,
        "duration": 0.05952374999999677
      },
      {
        "name": "A3",
        "midi": 57,
        "time": 68.21421750000005,
        "velocity": 0.3858267716535433,
        "duration": 0.05952374999999677
      },
      {
        "name": "D2",
        "midi": 38,
        "time": 68.21421750000005,
        "velocity": 0.7952755905511811,
        "duration": 0.0744046874999924
      },
      {
        "name": "D2",
        "midi": 38,
        "time": 68.39278875000004,
        "velocity": 0.6377952755905512,
        "duration": 0.08184515624999733
      },
      {
        "name": "D2",
        "midi": 38,
        "time": 68.57136000000003,
        "velocity": 0.7952755905511811,
        "duration": 0.1785712500000045
      },
      {
        "name": "C2",
        "midi": 36,
        "time": 68.57136000000003,
        "velocity": 0.9606299212598425,
        "duration": 0.14880937499999902
      },
      {
        "name": "A3",
        "midi": 57,
        "time": 68.57136000000003,
        "velocity": 0.3700787401574803,
        "duration": 0.05952374999999677
      },
      {
        "name": "A3",
        "midi": 57,
        "time": 68.92850250000004,
        "velocity": 0.4251968503937008,
        "duration": 0.05952374999999677
      },
      {
        "name": "E2",
        "midi": 40,
        "time": 68.92850250000004,
        "velocity": 0.8503937007874016,
        "duration": 0.08184515624999733
      },
      {
        "name": "A3",
        "midi": 57,
        "time": 69.10707375000003,
        "velocity": 0.4330708661417323,
        "duration": 0.05952374999999677
      },
      {
        "name": "A3",
        "midi": 57,
        "time": 69.28564500000002,
        "velocity": 0.41732283464566927,
        "duration": 0.08184515624999733
      },
      {
        "name": "D2",
        "midi": 38,
        "time": 69.28564500000002,
        "velocity": 0.8188976377952756,
        "duration": 0.14880937499999902
      },
      {
        "name": "C2",
        "midi": 36,
        "time": 69.28564500000002,
        "velocity": 0.9212598425196851,
        "duration": 0.12648796874999846
      },
      {
        "name": "A3",
        "midi": 57,
        "time": 69.64278750000001,
        "velocity": 0.4330708661417323,
        "duration": 0.07440468750000662
      },
      {
        "name": "E2",
        "midi": 40,
        "time": 69.64278750000001,
        "velocity": 0.889763779527559,
        "duration": 0.08928562500000226
      },
      {
        "name": "A3",
        "midi": 57,
        "time": 69.99993000000002,
        "velocity": 0.4251968503937008,
        "duration": 0.07440468750000662
      },
      {
        "name": "D2",
        "midi": 38,
        "time": 69.99993000000002,
        "velocity": 0.7637795275590551,
        "duration": 0.08928562500000226
      },
      {
        "name": "C2",
        "midi": 36,
        "time": 69.99993000000002,
        "velocity": 0.9212598425196851,
        "duration": 0.11160703125000282
      },
      {
        "name": "D2",
        "midi": 38,
        "time": 70.17850125000002,
        "velocity": 0.6062992125984252,
        "duration": 0.08184515624999733
      },
      {
        "name": "A3",
        "midi": 57,
        "time": 70.35707250000002,
        "velocity": 0.41732283464566927,
        "duration": 0.05208328125000605
      },
      {
        "name": "D2",
        "midi": 38,
        "time": 70.35707250000002,
        "velocity": 0.6062992125984252,
        "duration": 0.08184515625001154
      },
      {
        "name": "D2",
        "midi": 38,
        "time": 70.53564375000002,
        "velocity": 0.6771653543307087,
        "duration": 0.07440468750000662
      },
      {
        "name": "A3",
        "midi": 57,
        "time": 70.71421500000002,
        "velocity": 0.44881889763779526,
        "duration": 0.07440468750000662
      },
      {
        "name": "D2",
        "midi": 38,
        "time": 70.71421500000002,
        "velocity": 0.7637795275590551,
        "duration": 0.11904750000000774
      },
      {
        "name": "C2",
        "midi": 36,
        "time": 71.07135750000003,
        "velocity": 0.889763779527559,
        "duration": 0.11160703125000282
      },
      {
        "name": "D2",
        "midi": 38,
        "time": 71.07135750000003,
        "velocity": 0.8503937007874016,
        "duration": 0.09672609375000718
      },
      {
        "name": "A3",
        "midi": 57,
        "time": 71.07135750000003,
        "velocity": 0.4094488188976378,
        "duration": 0.06696421875000169
      },
      {
        "name": "C2",
        "midi": 36,
        "time": 71.42850000000004,
        "velocity": 0.9606299212598425,
        "duration": 0.1041665625000121
      },
      {
        "name": "A3",
        "midi": 57,
        "time": 71.42850000000004,
        "velocity": 0.41732283464566927,
        "duration": 0.07440468750000662
      },
      {
        "name": "D2",
        "midi": 38,
        "time": 71.78564250000005,
        "velocity": 0.8188976377952756,
        "duration": 0.08184515624999733
      },
      {
        "name": "A3",
        "midi": 57,
        "time": 71.78564250000005,
        "velocity": 0.4330708661417323,
        "duration": 0.06696421875000169
      },
      {
        "name": "A3",
        "midi": 57,
        "time": 72.14278500000005,
        "velocity": 0.4094488188976378,
        "duration": 0.06696421875000169
      },
      {
        "name": "D2",
        "midi": 38,
        "time": 72.14278500000005,
        "velocity": 0.7952755905511811,
        "duration": 0.08184515624999733
      },
      {
        "name": "A3",
        "midi": 57,
        "time": 72.49992750000004,
        "velocity": 0.44881889763779526,
        "duration": 0.06696421875000169
      },
      {
        "name": "D2",
        "midi": 38,
        "time": 72.49992750000004,
        "velocity": 0.8188976377952756,
        "duration": 0.08928562500000226
      },
      {
        "name": "A3",
        "midi": 57,
        "time": 72.85707000000005,
        "velocity": 0.4330708661417323,
        "duration": 0.06696421875000169
      },
      {
        "name": "D2",
        "midi": 38,
        "time": 72.85707000000005,
        "velocity": 0.7637795275590551,
        "duration": 0.1041665625000121
      },
      {
        "name": "C2",
        "midi": 36,
        "time": 72.85707000000005,
        "velocity": 0.9212598425196851,
        "duration": 0.09672609375000718
      },
      {
        "name": "D2",
        "midi": 38,
        "time": 73.03564125000007,
        "velocity": 0.5905511811023622,
        "duration": 0.08184515624999733
      },
      {
        "name": "D2",
        "midi": 38,
        "time": 73.21421250000006,
        "velocity": 0.6771653543307087,
        "duration": 0.11160703125000282
      },
      {
        "name": "A3",
        "midi": 57,
        "time": 73.21421250000006,
        "velocity": 0.4094488188976378,
        "duration": 0.05208328125000605
      },
      {
        "name": "C2",
        "midi": 36,
        "time": 73.39278375000006,
        "velocity": 0.9606299212598425,
        "duration": 0.08184515624999733
      },
      {
        "name": "A3",
        "midi": 57,
        "time": 73.39278375000006,
        "velocity": 0.4645669291338583,
        "duration": 0.05952374999999677
      },
      {
        "name": "A3",
        "midi": 57,
        "time": 73.57135500000005,
        "velocity": 0.4881889763779528,
        "duration": 0.08184515624999733
      },
      {
        "name": "C2",
        "midi": 36,
        "time": 73.57135500000005,
        "velocity": 0.889763779527559,
        "duration": 0.12648796874999846
      },
      {
        "name": "E2",
        "midi": 40,
        "time": 73.57135500000005,
        "velocity": 0.889763779527559,
        "duration": 0.08928562500000226
      },
      {
        "name": "D2",
        "midi": 38,
        "time": 73.92849750000005,
        "velocity": 0.6771653543307087,
        "duration": 0.08928562500000226
      },
      {
        "name": "A3",
        "midi": 57,
        "time": 73.92849750000005,
        "velocity": 0.4015748031496063,
        "duration": 0.05952374999999677
      },
      {
        "name": "D2",
        "midi": 38,
        "time": 74.10706875000005,
        "velocity": 0.6377952755905512,
        "duration": 0.08184515624999733
      },
      {
        "name": "D2",
        "midi": 38,
        "time": 74.28564000000004,
        "velocity": 0.6377952755905512,
        "duration": 0.08928562500000226
      },
      {
        "name": "C2",
        "midi": 36,
        "time": 74.28564000000004,
        "velocity": 0.9212598425196851,
        "duration": 0.11160703125000282
      },
      {
        "name": "A3",
        "midi": 57,
        "time": 74.28564000000004,
        "velocity": 0.4015748031496063,
        "duration": 0.05952374999999677
      },
      {
        "name": "E2",
        "midi": 40,
        "time": 74.64278250000005,
        "velocity": 0.7165354330708661,
        "duration": 0.08184515625001154
      },
      {
        "name": "A3",
        "midi": 57,
        "time": 74.64278250000005,
        "velocity": 0.4251968503937008,
        "duration": 0.05208328125000605
      },
      {
        "name": "D2",
        "midi": 38,
        "time": 74.99992500000006,
        "velocity": 0.6771653543307087,
        "duration": 0.05208328125000605
      },
      {
        "name": "A3",
        "midi": 57,
        "time": 74.99992500000006,
        "velocity": 0.41732283464566927,
        "duration": 0.07440468750000662
      },
      {
        "name": "D2",
        "midi": 38,
        "time": 75.35706750000007,
        "velocity": 0.7165354330708661,
        "duration": 0.0744046874999924
      },
      {
        "name": "A3",
        "midi": 57,
        "time": 75.35706750000007,
        "velocity": 0.3779527559055118,
        "duration": 0.0372023437499962
      },
      {
        "name": "D2",
        "midi": 38,
        "time": 75.71421000000007,
        "velocity": 0.7637795275590551,
        "duration": 0.07440468750000662
      },
      {
        "name": "C2",
        "midi": 36,
        "time": 75.71421000000007,
        "velocity": 0.9212598425196851,
        "duration": 0.1041665625000121
      },
      {
        "name": "A3",
        "midi": 57,
        "time": 75.71421000000007,
        "velocity": 0.3937007874015748,
        "duration": 0.04464281250000113
      },
      {
        "name": "A3",
        "midi": 57,
        "time": 76.07135250000007,
        "velocity": 0.4330708661417323,
        "duration": 0.05208328125000605
      },
      {
        "name": "D2",
        "midi": 38,
        "time": 76.07135250000007,
        "velocity": 0.7637795275590551,
        "duration": 0.07440468750000662
      },
      {
        "name": "A3",
        "midi": 57,
        "time": 76.24992375000008,
        "velocity": 0.4566929133858268,
        "duration": 0.05952374999999677
      },
      {
        "name": "D2",
        "midi": 38,
        "time": 76.24992375000008,
        "velocity": 0.6377952755905512,
        "duration": 0.08928562500000226
      },
      {
        "name": "A3",
        "midi": 57,
        "time": 76.42849500000008,
        "velocity": 0.41732283464566927,
        "duration": 0.05952374999999677
      },
      {
        "name": "E2",
        "midi": 40,
        "time": 76.42849500000008,
        "velocity": 0.7401574803149606,
        "duration": 0.11904749999999353
      },
      {
        "name": "D2",
        "midi": 38,
        "time": 76.78563750000008,
        "velocity": 0.6929133858267716,
        "duration": 0.0744046874999924
      },
      {
        "name": "A3",
        "midi": 57,
        "time": 76.78563750000008,
        "velocity": 0.4251968503937008,
        "duration": 0.05952374999999677
      },
      {
        "name": "D2",
        "midi": 38,
        "time": 76.96420875000007,
        "velocity": 0.5511811023622047,
        "duration": 0.08184515624999733
      },
      {
        "name": "D2",
        "midi": 38,
        "time": 77.14278000000006,
        "velocity": 0.6377952755905512,
        "duration": 0.08184515624999733
      },
      {
        "name": "C2",
        "midi": 36,
        "time": 77.14278000000006,
        "velocity": 0.9212598425196851,
        "duration": 0.13392843750000338
      },
      {
        "name": "A3",
        "midi": 57,
        "time": 77.14278000000006,
        "velocity": 0.3779527559055118,
        "duration": 0.04464281250000113
      },
      {
        "name": "D2",
        "midi": 38,
        "time": 77.32135125000006,
        "velocity": 0.5905511811023622,
        "duration": 0.09672609374999297
      },
      {
        "name": "D2",
        "midi": 38,
        "time": 77.49992250000005,
        "velocity": 0.5905511811023622,
        "duration": 0.11160703125000282
      },
      {
        "name": "A3",
        "midi": 57,
        "time": 77.49992250000005,
        "velocity": 0.4094488188976378,
        "duration": 0.05208328125000605
      },
      {
        "name": "C2",
        "midi": 36,
        "time": 77.67849375000006,
        "velocity": 0.8503937007874016,
        "duration": 0.02976187500000549
      },
      {
        "name": "C2",
        "midi": 36,
        "time": 77.85706500000006,
        "velocity": 0.8188976377952756,
        "duration": 0.11160703125000282
      },
      {
        "name": "E2",
        "midi": 40,
        "time": 77.85706500000006,
        "velocity": 0.7952755905511811,
        "duration": 0.09672609375000718
      },
      {
        "name": "A3",
        "midi": 57,
        "time": 77.85706500000006,
        "velocity": 0.3858267716535433,
        "duration": 0.04464281250000113
      },
      {
        "name": "A3",
        "midi": 57,
        "time": 78.21420750000007,
        "velocity": 0.4330708661417323,
        "duration": 0.06696421875000169
      },
      {
        "name": "D2",
        "midi": 38,
        "time": 78.21420750000007,
        "velocity": 0.7165354330708661,
        "duration": 0.05952374999999677
      },
      {
        "name": "D2",
        "midi": 38,
        "time": 78.39277875000008,
        "velocity": 0.6220472440944882,
        "duration": 0.08928562500000226
      },
      {
        "name": "A3",
        "midi": 57,
        "time": 78.57135000000008,
        "velocity": 0.4015748031496063,
        "duration": 0.05952374999999677
      },
      {
        "name": "D2",
        "midi": 38,
        "time": 78.57135000000008,
        "velocity": 0.6377952755905512,
        "duration": 0.13392843750000338
      },
      {
        "name": "C2",
        "midi": 36,
        "time": 78.57135000000008,
        "velocity": 0.889763779527559,
        "duration": 0.11160703125000282
      },
      {
        "name": "A3",
        "midi": 57,
        "time": 78.92849250000009,
        "velocity": 0.41732283464566927,
        "duration": 0.08184515624999733
      },
      {
        "name": "D2",
        "midi": 38,
        "time": 78.92849250000009,
        "velocity": 0.7637795275590551,
        "duration": 0.1041665624999979
      },
      {
        "name": "A3",
        "midi": 57,
        "time": 79.28563500000008,
        "velocity": 0.4015748031496063,
        "duration": 0.06696421875000169
      },
      {
        "name": "E2",
        "midi": 40,
        "time": 79.28563500000008,
        "velocity": 0.8188976377952756,
        "duration": 0.08928562500000226
      },
      {
        "name": "A3",
        "midi": 57,
        "time": 79.6427775000001,
        "velocity": 0.4409448818897638,
        "duration": 0.05952374999999677
      },
      {
        "name": "D2",
        "midi": 38,
        "time": 79.6427775000001,
        "velocity": 0.7401574803149606,
        "duration": 0.0744046874999924
      },
      {
        "name": "D2",
        "midi": 38,
        "time": 79.82134875000008,
        "velocity": 0.5748031496062992,
        "duration": 0.08928562500000226
      },
      {
        "name": "D2",
        "midi": 38,
        "time": 79.99992000000009,
        "velocity": 0.6535433070866141,
        "duration": 0.08184515625001154
      },
      {
        "name": "C2",
        "midi": 36,
        "time": 79.99992000000009,
        "velocity": 0.889763779527559,
        "duration": 0.11160703125001703
      },
      {
        "name": "A3",
        "midi": 57,
        "time": 79.99992000000009,
        "velocity": 0.4251968503937008,
        "duration": 0.07440468750000662
      },
      {
        "name": "D2",
        "midi": 38,
        "time": 80.1784912500001,
        "velocity": 0.5748031496062992,
        "duration": 0.08928562500000226
      },
      {
        "name": "D2",
        "midi": 38,
        "time": 80.35706250000011,
        "velocity": 0.5511811023622047,
        "duration": 0.08928562500000226
      },
      {
        "name": "A3",
        "midi": 57,
        "time": 80.35706250000011,
        "velocity": 0.3937007874015748,
        "duration": 0.05952374999999677
      },
      {
        "name": "E2",
        "midi": 40,
        "time": 80.71420500000012,
        "velocity": 0.8503937007874016,
        "duration": 0.09672609375000718
      },
      {
        "name": "C2",
        "midi": 36,
        "time": 80.71420500000012,
        "velocity": 0.889763779527559,
        "duration": 0.1041665625000121
      },
      {
        "name": "A3",
        "midi": 57,
        "time": 80.71420500000012,
        "velocity": 0.4015748031496063,
        "duration": 0.05208328125000605
      },
      {
        "name": "A3",
        "midi": 57,
        "time": 81.07134750000013,
        "velocity": 0.3858267716535433,
        "duration": 0.02976187500000549
      },
      {
        "name": "D2",
        "midi": 38,
        "time": 81.07134750000013,
        "velocity": 0.7401574803149606,
        "duration": 0.06696421875000169
      },
      {
        "name": "D2",
        "midi": 38,
        "time": 81.24991875000013,
        "velocity": 0.6062992125984252,
        "duration": 0.11904749999999353
      },
      {
        "name": "A3",
        "midi": 57,
        "time": 81.42849000000012,
        "velocity": 0.3858267716535433,
        "duration": 0.05952374999999677
      },
      {
        "name": "D2",
        "midi": 38,
        "time": 81.42849000000012,
        "velocity": 0.6771653543307087,
        "duration": 0.09672609374999297
      },
      {
        "name": "C2",
        "midi": 36,
        "time": 81.42849000000012,
        "velocity": 0.8503937007874016,
        "duration": 0.11160703124998861
      },
      {
        "name": "A3",
        "midi": 57,
        "time": 81.78563250000012,
        "velocity": 0.41732283464566927,
        "duration": 0.08928562500000226
      },
      {
        "name": "D2",
        "midi": 38,
        "time": 81.78563250000012,
        "velocity": 0.7165354330708661,
        "duration": 0.09672609375000718
      },
      {
        "name": "E2",
        "midi": 40,
        "time": 82.14277500000013,
        "velocity": 0.8188976377952756,
        "duration": 0.1041665624999979
      },
      {
        "name": "A3",
        "midi": 57,
        "time": 82.14277500000013,
        "velocity": 0.4251968503937008,
        "duration": 0.06696421875000169
      },
      {
        "name": "D2",
        "midi": 38,
        "time": 82.49991750000012,
        "velocity": 0.6771653543307087,
        "duration": 0.06696421875000169
      },
      {
        "name": "A3",
        "midi": 57,
        "time": 82.49991750000012,
        "velocity": 0.4251968503937008,
        "duration": 0.05952374999999677
      },
      {
        "name": "D2",
        "midi": 38,
        "time": 82.67848875000013,
        "velocity": 0.6220472440944882,
        "duration": 0.08928562500000226
      },
      {
        "name": "C2",
        "midi": 36,
        "time": 82.67848875000013,
        "velocity": 0.9212598425196851,
        "duration": 0.08184515624999733
      },
      {
        "name": "D2",
        "midi": 38,
        "time": 82.85706000000013,
        "velocity": 0.6771653543307087,
        "duration": 0.11160703125000282
      },
      {
        "name": "C2",
        "midi": 36,
        "time": 82.85706000000013,
        "velocity": 0.7952755905511811,
        "duration": 0.15624984375000395
      },
      {
        "name": "A3",
        "midi": 57,
        "time": 82.85706000000013,
        "velocity": 0.4094488188976378,
        "duration": 0.05952374999999677
      },
      {
        "name": "D2",
        "midi": 38,
        "time": 83.21420250000014,
        "velocity": 0.7637795275590551,
        "duration": 0.08928562500000226
      },
      {
        "name": "A3",
        "midi": 57,
        "time": 83.39277375000015,
        "velocity": 0.3779527559055118,
        "duration": 0.0372023437499962
      },
      {
        "name": "D2",
        "midi": 38,
        "time": 83.57134500000014,
        "velocity": 0.8188976377952756,
        "duration": 0.07440468750000662
      },
      {
        "name": "C2",
        "midi": 36,
        "time": 83.57134500000014,
        "velocity": 0.9212598425196851,
        "duration": 0.11904750000000774
      },
      {
        "name": "A3",
        "midi": 57,
        "time": 83.57134500000014,
        "velocity": 0.3937007874015748,
        "duration": 0.06696421875000169
      },
      {
        "name": "A3",
        "midi": 57,
        "time": 83.92848750000014,
        "velocity": 0.4015748031496063,
        "duration": 0.04464281250000113
      },
      {
        "name": "C2",
        "midi": 36,
        "time": 84.28563000000014,
        "velocity": 0.9212598425196851,
        "duration": 0.11904749999999353
      },
      {
        "name": "D2",
        "midi": 38,
        "time": 84.28563000000014,
        "velocity": 0.7952755905511811,
        "duration": 0.1041665624999979
      },
      {
        "name": "A3",
        "midi": 57,
        "time": 84.28563000000014,
        "velocity": 0.4251968503937008,
        "duration": 0.05952374999999677
      },
      {
        "name": "E2",
        "midi": 40,
        "time": 84.64277250000013,
        "velocity": 0.8188976377952756,
        "duration": 0.08928562500000226
      },
      {
        "name": "A3",
        "midi": 57,
        "time": 84.64277250000013,
        "velocity": 0.4251968503937008,
        "duration": 0.05952374999999677
      },
      {
        "name": "D2",
        "midi": 38,
        "time": 84.99991500000014,
        "velocity": 0.8503937007874016,
        "duration": 0.1785712500000045
      },
      {
        "name": "C2",
        "midi": 36,
        "time": 84.99991500000014,
        "velocity": 0.889763779527559,
        "duration": 0.1041665624999979
      },
      {
        "name": "A3",
        "midi": 57,
        "time": 84.99991500000014,
        "velocity": 0.3858267716535433,
        "duration": 0.014880937499995639
      },
      {
        "name": "A3",
        "midi": 57,
        "time": 85.35705750000015,
        "velocity": 0.44881889763779526,
        "duration": 0.05952374999999677
      },
      {
        "name": "E2",
        "midi": 40,
        "time": 85.35705750000015,
        "velocity": 0.8503937007874016,
        "duration": 0.08928562500000226
      },
      {
        "name": "D2",
        "midi": 38,
        "time": 85.71420000000016,
        "velocity": 0.8188976377952756,
        "duration": 0.1041665624999979
      },
      {
        "name": "C2",
        "midi": 36,
        "time": 85.71420000000016,
        "velocity": 0.889763779527559,
        "duration": 0.11160703125000282
      },
      {
        "name": "A3",
        "midi": 57,
        "time": 85.71420000000016,
        "velocity": 0.4330708661417323,
        "duration": 0.06696421875000169
      },
      {
        "name": "D2",
        "midi": 38,
        "time": 86.07134250000017,
        "velocity": 0.7401574803149606,
        "duration": 0.08184515625001154
      },
      {
        "name": "A3",
        "midi": 57,
        "time": 86.07134250000017,
        "velocity": 0.4094488188976378,
        "duration": 0.05208328125000605
      },
      {
        "name": "A3",
        "midi": 57,
        "time": 86.24991375000018,
        "velocity": 0.4330708661417323,
        "duration": 0.06696421875000169
      },
      {
        "name": "C2",
        "midi": 36,
        "time": 86.24991375000018,
        "velocity": 0.889763779527559,
        "duration": 0.08184515624999733
      },
      {
        "name": "D2",
        "midi": 38,
        "time": 86.24991375000018,
        "velocity": 0.5905511811023622,
        "duration": 0.08928562500000226
      },
      {
        "name": "A3",
        "midi": 57,
        "time": 86.42848500000018,
        "velocity": 0.4015748031496063,
        "duration": 0.06696421875000169
      },
      {
        "name": "E2",
        "midi": 40,
        "time": 86.42848500000018,
        "velocity": 0.7637795275590551,
        "duration": 0.13392843750000338
      },
      {
        "name": "C2",
        "midi": 36,
        "time": 86.42848500000018,
        "velocity": 0.9212598425196851,
        "duration": 0.11160703125000282
      },
      {
        "name": "D2",
        "midi": 38,
        "time": 86.78562750000019,
        "velocity": 0.7401574803149606,
        "duration": 0.07440468750000662
      },
      {
        "name": "A3",
        "midi": 57,
        "time": 86.78562750000019,
        "velocity": 0.44881889763779526,
        "duration": 0.07440468750000662
      },
      {
        "name": "D2",
        "midi": 38,
        "time": 86.9641987500002,
        "velocity": 0.6062992125984252,
        "duration": 0.08928562500000226
      },
      {
        "name": "D2",
        "midi": 38,
        "time": 87.1427700000002,
        "velocity": 0.6220472440944882,
        "duration": 0.08184515625001154
      },
      {
        "name": "A3",
        "midi": 57,
        "time": 87.1427700000002,
        "velocity": 0.4330708661417323,
        "duration": 0.07440468750000662
      },
      {
        "name": "D2",
        "midi": 38,
        "time": 87.3213412500002,
        "velocity": 0.5590551181102362,
        "duration": 0.07440468750000662
      },
      {
        "name": "A3",
        "midi": 57,
        "time": 87.4999125000002,
        "velocity": 0.4645669291338583,
        "duration": 0.08928562500000226
      },
      {
        "name": "D2",
        "midi": 38,
        "time": 87.4999125000002,
        "velocity": 0.5511811023622047,
        "duration": 0.09672609375000718
      },
      {
        "name": "D2",
        "midi": 38,
        "time": 87.67848375000021,
        "velocity": 0.6220472440944882,
        "duration": 0.09672609374999297
      },
      {
        "name": "E2",
        "midi": 40,
        "time": 87.8570550000002,
        "velocity": 0.7637795275590551,
        "duration": 0.11904750000000774
      },
      {
        "name": "C2",
        "midi": 36,
        "time": 87.8570550000002,
        "velocity": 0.9212598425196851,
        "duration": 0.11160703125000282
      },
      {
        "name": "A3",
        "midi": 57,
        "time": 87.8570550000002,
        "velocity": 0.41732283464566927,
        "duration": 0.06696421875000169
      },
      {
        "name": "D2",
        "midi": 38,
        "time": 88.21419750000021,
        "velocity": 0.7165354330708661,
        "duration": 0.08184515625001154
      },
      {
        "name": "A3",
        "midi": 57,
        "time": 88.21419750000021,
        "velocity": 0.4094488188976378,
        "duration": 0.05208328125000605
      },
      {
        "name": "D2",
        "midi": 38,
        "time": 88.57134000000022,
        "velocity": 0.7637795275590551,
        "duration": 0.1041665625000121
      },
      {
        "name": "C2",
        "midi": 36,
        "time": 88.57134000000022,
        "velocity": 0.9212598425196851,
        "duration": 0.09672609375000718
      },
      {
        "name": "A3",
        "midi": 57,
        "time": 88.57134000000022,
        "velocity": 0.4015748031496063,
        "duration": 0.05208328125000605
      },
      {
        "name": "D2",
        "midi": 38,
        "time": 88.92848250000023,
        "velocity": 0.7637795275590551,
        "duration": 0.09672609374999297
      },
      {
        "name": "A3",
        "midi": 57,
        "time": 89.10705375000022,
        "velocity": 0.3700787401574803,
        "duration": 0.05952374999999677
      },
      {
        "name": "E2",
        "midi": 40,
        "time": 89.28562500000021,
        "velocity": 0.7952755905511811,
        "duration": 0.08928562500000226
      },
      {
        "name": "A3",
        "midi": 57,
        "time": 89.28562500000021,
        "velocity": 0.4645669291338583,
        "duration": 0.06696421875000169
      },
      {
        "name": "D2",
        "midi": 38,
        "time": 89.64276750000022,
        "velocity": 0.7165354330708661,
        "duration": 0.08184515624999733
      },
      {
        "name": "C2",
        "midi": 36,
        "time": 89.64276750000022,
        "velocity": 0.8503937007874016,
        "duration": 0.08184515624999733
      },
      {
        "name": "A3",
        "midi": 57,
        "time": 89.64276750000022,
        "velocity": 0.47244094488188976,
        "duration": 0.06696421875000169
      },
      {
        "name": "D2",
        "midi": 38,
        "time": 89.99991000000021,
        "velocity": 0.9212598425196851,
        "duration": 0.007440468750004925
      },
      {
        "name": "C2",
        "midi": 36,
        "time": 89.99991000000021,
        "velocity": 1,
        "duration": 0.08184515625001154
      },
      {
        "name": "A3",
        "midi": 57,
        "time": 89.99991000000021,
        "velocity": 0.49606299212598426,
        "duration": 0.05952375000001098
      },
      {
        "name": "E2",
        "midi": 40,
        "time": 102.49989750000023,
        "velocity": 1,
        "duration": 0.08928562500000226
      },
      {
        "name": "D2",
        "midi": 38,
        "time": 102.49989750000023,
        "velocity": 0.9212598425196851,
        "duration": 0.07440468750000662
      },
      {
        "name": "D2",
        "midi": 38,
        "time": 102.85704000000024,
        "velocity": 0.889763779527559,
        "duration": 0.12648796874999846
      },
      {
        "name": "A3",
        "midi": 57,
        "time": 102.85704000000024,
        "velocity": 0.4251968503937008,
        "duration": 0.06696421875000169
      },
      {
        "name": "A3",
        "midi": 57,
        "time": 103.21418250000023,
        "velocity": 0.48031496062992124,
        "duration": 0.09672609375000718
      },
      {
        "name": "C2",
        "midi": 36,
        "time": 103.21418250000023,
        "velocity": 1,
        "duration": 0.08928562500000226
      },
      {
        "name": "D2",
        "midi": 38,
        "time": 103.21418250000023,
        "velocity": 0.8503937007874016,
        "duration": 0.13392843750000338
      },
      {
        "name": "A3",
        "midi": 57,
        "time": 103.57132500000024,
        "velocity": 0.44881889763779526,
        "duration": 0.08184515624999733
      },
      {
        "name": "E2",
        "midi": 40,
        "time": 103.57132500000024,
        "velocity": 1,
        "duration": 0.15624984375000395
      },
      {
        "name": "C2",
        "midi": 36,
        "time": 103.57132500000024,
        "velocity": 1,
        "duration": 0.13392843750000338
      },
      {
        "name": "A3",
        "midi": 57,
        "time": 103.92846750000025,
        "velocity": 0.4094488188976378,
        "duration": 0.08184515624999733
      },
      {
        "name": "D2",
        "midi": 38,
        "time": 103.92846750000025,
        "velocity": 0.7401574803149606,
        "duration": 0.06696421875000169
      },
      {
        "name": "D2",
        "midi": 38,
        "time": 104.10703875000024,
        "velocity": 0.5905511811023622,
        "duration": 0.07440468750000662
      },
      {
        "name": "A3",
        "midi": 57,
        "time": 104.28561000000025,
        "velocity": 0.4566929133858268,
        "duration": 0.08928562500000226
      },
      {
        "name": "D2",
        "midi": 38,
        "time": 104.28561000000025,
        "velocity": 0.6062992125984252,
        "duration": 0.08184515624999733
      },
      {
        "name": "D2",
        "midi": 38,
        "time": 104.46418125000025,
        "velocity": 0.5905511811023622,
        "duration": 0.08184515624999733
      },
      {
        "name": "A3",
        "midi": 57,
        "time": 104.64275250000024,
        "velocity": 0.4015748031496063,
        "duration": 0.08928562500000226
      },
      {
        "name": "C2",
        "midi": 36,
        "time": 104.64275250000024,
        "velocity": 0.889763779527559,
        "duration": 0.1041665624999979
      },
      {
        "name": "D2",
        "midi": 38,
        "time": 104.64275250000024,
        "velocity": 0.6062992125984252,
        "duration": 0.06696421875000169
      },
      {
        "name": "D2",
        "midi": 38,
        "time": 104.82132375000025,
        "velocity": 0.6771653543307087,
        "duration": 0.09672609374999297
      },
      {
        "name": "E2",
        "midi": 40,
        "time": 104.99989500000024,
        "velocity": 0.8503937007874016,
        "duration": 0.11160703125000282
      },
      {
        "name": "A3",
        "midi": 57,
        "time": 105.35703750000025,
        "velocity": 0.4330708661417323,
        "duration": 0.06696421875000169
      },
      {
        "name": "D2",
        "midi": 38,
        "time": 105.35703750000025,
        "velocity": 0.7952755905511811,
        "duration": 0.06696421875000169
      },
      {
        "name": "D2",
        "midi": 38,
        "time": 105.71418000000024,
        "velocity": 0.7952755905511811,
        "duration": 0.1041665625000121
      },
      {
        "name": "A3",
        "midi": 57,
        "time": 105.71418000000024,
        "velocity": 0.41732283464566927,
        "duration": 0.07440468750000662
      },
      {
        "name": "A3",
        "midi": 57,
        "time": 106.07132250000025,
        "velocity": 0.3858267716535433,
        "duration": 0.05208328125000605
      },
      {
        "name": "D2",
        "midi": 38,
        "time": 106.07132250000025,
        "velocity": 0.7952755905511811,
        "duration": 0.13392843750000338
      },
      {
        "name": "A3",
        "midi": 57,
        "time": 106.42846500000026,
        "velocity": 0.3858267716535433,
        "duration": 0.05208328125000605
      },
      {
        "name": "E2",
        "midi": 40,
        "time": 106.42846500000026,
        "velocity": 0.889763779527559,
        "duration": 0.1041665625000121
      },
      {
        "name": "C2",
        "midi": 36,
        "time": 106.42846500000026,
        "velocity": 0.9606299212598425,
        "duration": 0.11160703125001703
      },
      {
        "name": "D2",
        "midi": 38,
        "time": 106.78560750000028,
        "velocity": 0.6771653543307087,
        "duration": 0.07440468750000662
      },
      {
        "name": "A3",
        "midi": 57,
        "time": 106.78560750000028,
        "velocity": 0.3858267716535433,
        "duration": 0.04464281250000113
      },
      {
        "name": "D2",
        "midi": 38,
        "time": 106.96417875000029,
        "velocity": 0.6535433070866141,
        "duration": 0.08928562500000226
      },
      {
        "name": "A3",
        "midi": 57,
        "time": 107.14275000000029,
        "velocity": 0.3937007874015748,
        "duration": 0.05208328125000605
      },
      {
        "name": "D2",
        "midi": 38,
        "time": 107.14275000000029,
        "velocity": 0.6535433070866141,
        "duration": 0.08184515625001154
      },
      {
        "name": "D2",
        "midi": 38,
        "time": 107.3213212500003,
        "velocity": 0.6220472440944882,
        "duration": 0.08928562500000226
      },
      {
        "name": "A3",
        "midi": 57,
        "time": 107.4998925000003,
        "velocity": 0.41732283464566927,
        "duration": 0.06696421875000169
      },
      {
        "name": "C2",
        "midi": 36,
        "time": 107.4998925000003,
        "velocity": 0.9606299212598425,
        "duration": 0.08184515624999733
      },
      {
        "name": "D2",
        "midi": 38,
        "time": 107.4998925000003,
        "velocity": 0.6929133858267716,
        "duration": 0.11160703125000282
      },
      {
        "name": "A3",
        "midi": 57,
        "time": 107.85703500000031,
        "velocity": 0.3937007874015748,
        "duration": 0.07440468750000662
      },
      {
        "name": "C2",
        "midi": 36,
        "time": 107.85703500000031,
        "velocity": 1,
        "duration": 0.11160703125000282
      },
      {
        "name": "E2",
        "midi": 40,
        "time": 107.85703500000031,
        "velocity": 0.8503937007874016,
        "duration": 0.11904750000000774
      },
      {
        "name": "A3",
        "midi": 57,
        "time": 108.21417750000032,
        "velocity": 0.4015748031496063,
        "duration": 0.05952374999999677
      },
      {
        "name": "D2",
        "midi": 38,
        "time": 108.21417750000032,
        "velocity": 0.7637795275590551,
        "duration": 0.06696421875000169
      },
      {
        "name": "D2",
        "midi": 38,
        "time": 108.39274875000032,
        "velocity": 0.6771653543307087,
        "duration": 0.07440468750000662
      },
      {
        "name": "D2",
        "midi": 38,
        "time": 108.57132000000033,
        "velocity": 0.7637795275590551,
        "duration": 0.1041665625000121
      },
      {
        "name": "A3",
        "midi": 57,
        "time": 108.57132000000033,
        "velocity": 0.3858267716535433,
        "duration": 0.05208328125000605
      },
      {
        "name": "A3",
        "midi": 57,
        "time": 108.92846250000034,
        "velocity": 0.41732283464566927,
        "duration": 0.07440468750000662
      },
      {
        "name": "D2",
        "midi": 38,
        "time": 108.92846250000034,
        "velocity": 0.8503937007874016,
        "duration": 0.11904750000000774
      },
      {
        "name": "E2",
        "midi": 40,
        "time": 109.28560500000034,
        "velocity": 0.9212598425196851,
        "duration": 0.11904750000000774
      },
      {
        "name": "C2",
        "midi": 36,
        "time": 109.28560500000034,
        "velocity": 0.9606299212598425,
        "duration": 0.11160703125000282
      },
      {
        "name": "A3",
        "midi": 57,
        "time": 109.64274750000035,
        "velocity": 0.4094488188976378,
        "duration": 0.05208328125000605
      },
      {
        "name": "D2",
        "midi": 38,
        "time": 109.64274750000035,
        "velocity": 0.7401574803149606,
        "duration": 0.06696421875000169
      },
      {
        "name": "D2",
        "midi": 38,
        "time": 109.82131875000036,
        "velocity": 0.5905511811023622,
        "duration": 0.07440468750000662
      },
      {
        "name": "A3",
        "midi": 57,
        "time": 109.99989000000036,
        "velocity": 0.41732283464566927,
        "duration": 0.08184515624999733
      },
      {
        "name": "D2",
        "midi": 38,
        "time": 109.99989000000036,
        "velocity": 0.6929133858267716,
        "duration": 0.08184515624999733
      },
      {
        "name": "A3",
        "midi": 57,
        "time": 110.35703250000036,
        "velocity": 0.3858267716535433,
        "duration": 0.04464281250000113
      },
      {
        "name": "C2",
        "midi": 36,
        "time": 110.35703250000036,
        "velocity": 0.9212598425196851,
        "duration": 0.11160703125000282
      },
      {
        "name": "D2",
        "midi": 38,
        "time": 110.35703250000036,
        "velocity": 0.7952755905511811,
        "duration": 0.11904750000000774
      },
      {
        "name": "A3",
        "midi": 57,
        "time": 110.71417500000037,
        "velocity": 0.3937007874015748,
        "duration": 0.05208328125000605
      },
      {
        "name": "E2",
        "midi": 40,
        "time": 110.71417500000037,
        "velocity": 0.889763779527559,
        "duration": 0.1041665625000121
      },
      {
        "name": "C2",
        "midi": 36,
        "time": 110.71417500000037,
        "velocity": 0.9606299212598425,
        "duration": 0.1041665625000121
      },
      {
        "name": "A3",
        "midi": 57,
        "time": 111.07131750000038,
        "velocity": 0.4094488188976378,
        "duration": 0.05208328125000605
      },
      {
        "name": "D2",
        "midi": 38,
        "time": 111.07131750000038,
        "velocity": 0.7952755905511811,
        "duration": 0.07440468750000662
      },
      {
        "name": "D2",
        "midi": 38,
        "time": 111.24988875000038,
        "velocity": 0.5905511811023622,
        "duration": 0.08184515624999733
      },
      {
        "name": "D2",
        "midi": 38,
        "time": 111.42846000000037,
        "velocity": 0.6771653543307087,
        "duration": 0.08928562500000226
      },
      {
        "name": "A3",
        "midi": 57,
        "time": 111.42846000000037,
        "velocity": 0.41732283464566927,
        "duration": 0.06696421875000169
      },
      {
        "name": "D2",
        "midi": 38,
        "time": 111.60703125000038,
        "velocity": 0.5905511811023622,
        "duration": 0.08928562500000226
      },
      {
        "name": "A3",
        "midi": 57,
        "time": 111.78560250000038,
        "velocity": 0.4015748031496063,
        "duration": 0.05208328125000605
      },
      {
        "name": "D2",
        "midi": 38,
        "time": 111.78560250000038,
        "velocity": 0.6062992125984252,
        "duration": 0.07440468750000662
      },
      {
        "name": "A3",
        "midi": 57,
        "time": 112.14274500000039,
        "velocity": 0.41732283464566927,
        "duration": 0.06696421875000169
      },
      {
        "name": "E2",
        "midi": 40,
        "time": 112.14274500000039,
        "velocity": 0.889763779527559,
        "duration": 0.08184515624999733
      },
      {
        "name": "C2",
        "midi": 36,
        "time": 112.14274500000039,
        "velocity": 0.9212598425196851,
        "duration": 0.11904749999999353
      },
      {
        "name": "A3",
        "midi": 57,
        "time": 112.49988750000038,
        "velocity": 0.4251968503937008,
        "duration": 0.06696421875000169
      },
      {
        "name": "D2",
        "midi": 38,
        "time": 112.49988750000038,
        "velocity": 0.7637795275590551,
        "duration": 0.06696421875000169
      },
      {
        "name": "D2",
        "midi": 38,
        "time": 112.67845875000039,
        "velocity": 0.6377952755905512,
        "duration": 0.08928562500000226
      },
      {
        "name": "A3",
        "midi": 57,
        "time": 112.85703000000039,
        "velocity": 0.41732283464566927,
        "duration": 0.06696421875000169
      },
      {
        "name": "D2",
        "midi": 38,
        "time": 112.85703000000039,
        "velocity": 0.6377952755905512,
        "duration": 0.08928562500000226
      },
      {
        "name": "D2",
        "midi": 38,
        "time": 113.0356012500004,
        "velocity": 0.5748031496062992,
        "duration": 0.08184515624999733
      },
      {
        "name": "A3",
        "midi": 57,
        "time": 113.21417250000039,
        "velocity": 0.4330708661417323,
        "duration": 0.06696421875000169
      },
      {
        "name": "D2",
        "midi": 38,
        "time": 113.21417250000039,
        "velocity": 0.7637795275590551,
        "duration": 0.08928562500000226
      },
      {
        "name": "E2",
        "midi": 40,
        "time": 113.5713150000004,
        "velocity": 0.8503937007874016,
        "duration": 0.08184515624999733
      },
      {
        "name": "C2",
        "midi": 36,
        "time": 113.5713150000004,
        "velocity": 0.9212598425196851,
        "duration": 0.09672609374999297
      },
      {
        "name": "A3",
        "midi": 57,
        "time": 113.5713150000004,
        "velocity": 0.41732283464566927,
        "duration": 0.05952374999999677
      },
      {
        "name": "D2",
        "midi": 38,
        "time": 113.92845750000039,
        "velocity": 0.7952755905511811,
        "duration": 0.0744046874999924
      },
      {
        "name": "A3",
        "midi": 57,
        "time": 113.92845750000039,
        "velocity": 0.41732283464566927,
        "duration": 0.05952374999999677
      },
      {
        "name": "D2",
        "midi": 38,
        "time": 114.10702875000038,
        "velocity": 0.6062992125984252,
        "duration": 0.08184515624999733
      },
      {
        "name": "D2",
        "midi": 38,
        "time": 114.28560000000037,
        "velocity": 0.7637795275590551,
        "duration": 0.11160703125000282
      },
      {
        "name": "A3",
        "midi": 57,
        "time": 114.28560000000037,
        "velocity": 0.4015748031496063,
        "duration": 0.05208328125000605
      },
      {
        "name": "A3",
        "midi": 57,
        "time": 114.64274250000038,
        "velocity": 0.3937007874015748,
        "duration": 0.05208328125000605
      },
      {
        "name": "D2",
        "midi": 38,
        "time": 114.64274250000038,
        "velocity": 0.7401574803149606,
        "duration": 0.09672609375000718
      },
      {
        "name": "A3",
        "midi": 57,
        "time": 114.82131375000039,
        "velocity": 0.4251968503937008,
        "duration": 0.06696421875000169
      },
      {
        "name": "E2",
        "midi": 40,
        "time": 114.99988500000039,
        "velocity": 0.8503937007874016,
        "duration": 0.09672609375000718
      },
      {
        "name": "C2",
        "midi": 36,
        "time": 114.99988500000039,
        "velocity": 0.8503937007874016,
        "duration": 0.11904750000000774
      },
      {
        "name": "A3",
        "midi": 57,
        "time": 114.99988500000039,
        "velocity": 0.4330708661417323,
        "duration": 0.07440468750000662
      },
      {
        "name": "D2",
        "midi": 38,
        "time": 115.3570275000004,
        "velocity": 0.7401574803149606,
        "duration": 0.06696421875000169
      },
      {
        "name": "A3",
        "midi": 57,
        "time": 115.3570275000004,
        "velocity": 0.41732283464566927,
        "duration": 0.07440468750000662
      },
      {
        "name": "D2",
        "midi": 38,
        "time": 115.5355987500004,
        "velocity": 0.6220472440944882,
        "duration": 0.08184515624999733
      },
      {
        "name": "D2",
        "midi": 38,
        "time": 115.7141700000004,
        "velocity": 0.6535433070866141,
        "duration": 0.08928562500000226
      },
      {
        "name": "A3",
        "midi": 57,
        "time": 115.7141700000004,
        "velocity": 0.3858267716535433,
        "duration": 0.05208328125000605
      },
      {
        "name": "D2",
        "midi": 38,
        "time": 116.0713125000004,
        "velocity": 0.7637795275590551,
        "duration": 0.09672609374999297
      },
      {
        "name": "A3",
        "midi": 57,
        "time": 116.0713125000004,
        "velocity": 0.3779527559055118,
        "duration": 0.0372023437499962
      },
      {
        "name": "C2",
        "midi": 36,
        "time": 116.2498837500004,
        "velocity": 0.889763779527559,
        "duration": 0.09672609374999297
      },
      {
        "name": "E2",
        "midi": 40,
        "time": 116.42845500000038,
        "velocity": 0.8503937007874016,
        "duration": 0.08928562500000226
      },
      {
        "name": "C2",
        "midi": 36,
        "time": 116.42845500000038,
        "velocity": 0.7165354330708661,
        "duration": 0.13392843750000338
      },
      {
        "name": "A3",
        "midi": 57,
        "time": 116.42845500000038,
        "velocity": 0.3937007874015748,
        "duration": 0.04464281250000113
      },
      {
        "name": "A3",
        "midi": 57,
        "time": 116.78559750000039,
        "velocity": 0.3858267716535433,
        "duration": 0.02976187500000549
      },
      {
        "name": "D2",
        "midi": 38,
        "time": 116.78559750000039,
        "velocity": 0.7165354330708661,
        "duration": 0.06696421875000169
      },
      {
        "name": "A3",
        "midi": 57,
        "time": 116.9641687500004,
        "velocity": 0.4330708661417323,
        "duration": 0.05952374999999677
      },
      {
        "name": "D2",
        "midi": 38,
        "time": 116.9641687500004,
        "velocity": 0.6377952755905512,
        "duration": 0.08184515624999733
      },
      {
        "name": "D2",
        "midi": 38,
        "time": 117.14274000000039,
        "velocity": 0.6929133858267716,
        "duration": 0.1041665625000121
      },
      {
        "name": "A3",
        "midi": 57,
        "time": 117.14274000000039,
        "velocity": 0.4330708661417323,
        "duration": 0.07440468750000662
      },
      {
        "name": "D2",
        "midi": 38,
        "time": 117.4998825000004,
        "velocity": 0.7952755905511811,
        "duration": 0.1041665624999979
      },
      {
        "name": "A3",
        "midi": 57,
        "time": 117.4998825000004,
        "velocity": 0.44881889763779526,
        "duration": 0.06696421875000169
      },
      {
        "name": "E2",
        "midi": 40,
        "time": 117.85702500000039,
        "velocity": 0.8503937007874016,
        "duration": 0.08928562500000226
      },
      {
        "name": "C2",
        "midi": 36,
        "time": 117.85702500000039,
        "velocity": 0.7952755905511811,
        "duration": 0.11904750000000774
      },
      {
        "name": "A3",
        "midi": 57,
        "time": 117.85702500000039,
        "velocity": 0.4251968503937008,
        "duration": 0.07440468750000662
      },
      {
        "name": "D2",
        "midi": 38,
        "time": 118.2141675000004,
        "velocity": 0.6929133858267716,
        "duration": 0.07440468750000662
      },
      {
        "name": "A3",
        "midi": 57,
        "time": 118.2141675000004,
        "velocity": 0.4015748031496063,
        "duration": 0.05208328125000605
      },
      {
        "name": "D2",
        "midi": 38,
        "time": 118.3927387500004,
        "velocity": 0.5511811023622047,
        "duration": 0.07440468750000662
      },
      {
        "name": "D2",
        "midi": 38,
        "time": 118.57131000000041,
        "velocity": 0.7401574803149606,
        "duration": 0.1041665625000121
      },
      {
        "name": "A3",
        "midi": 57,
        "time": 118.57131000000041,
        "velocity": 0.4094488188976378,
        "duration": 0.07440468750000662
      },
      {
        "name": "D2",
        "midi": 38,
        "time": 118.92845250000042,
        "velocity": 0.7952755905511811,
        "duration": 0.11904750000000774
      },
      {
        "name": "A3",
        "midi": 57,
        "time": 118.92845250000042,
        "velocity": 0.4330708661417323,
        "duration": 0.06696421875000169
      },
      {
        "name": "C2",
        "midi": 36,
        "time": 119.10702375000042,
        "velocity": 0.8188976377952756,
        "duration": 0.08184515624999733
      },
      {
        "name": "C2",
        "midi": 36,
        "time": 119.28559500000041,
        "velocity": 0.6929133858267716,
        "duration": 0.15624984375000395
      },
      {
        "name": "E2",
        "midi": 40,
        "time": 119.28559500000041,
        "velocity": 0.8188976377952756,
        "duration": 0.11160703125000282
      },
      {
        "name": "A3",
        "midi": 57,
        "time": 119.28559500000041,
        "velocity": 0.4330708661417323,
        "duration": 0.07440468750000662
      },
      {
        "name": "D2",
        "midi": 38,
        "time": 119.64273750000042,
        "velocity": 0.7165354330708661,
        "duration": 0.08184515624999733
      },
      {
        "name": "D2",
        "midi": 38,
        "time": 119.82130875000041,
        "velocity": 0.5905511811023622,
        "duration": 0.08928562500000226
      },
      {
        "name": "A3",
        "midi": 57,
        "time": 119.82130875000041,
        "velocity": 0.4094488188976378,
        "duration": 0.05952374999999677
      },
      {
        "name": "D2",
        "midi": 38,
        "time": 119.99988000000042,
        "velocity": 0.6929133858267716,
        "duration": 0.11904750000000774
      },
      {
        "name": "A3",
        "midi": 57,
        "time": 119.99988000000042,
        "velocity": 0.4881889763779528,
        "duration": 0.06696421875000169
      },
      {
        "name": "A3",
        "midi": 57,
        "time": 120.35702250000043,
        "velocity": 0.44881889763779526,
        "duration": 0.08184515624999733
      },
      {
        "name": "D2",
        "midi": 38,
        "time": 120.35702250000043,
        "velocity": 0.7401574803149606,
        "duration": 0.11904749999999353
      },
      {
        "name": "C2",
        "midi": 36,
        "time": 120.71416500000042,
        "velocity": 0.6929133858267716,
        "duration": 0.15624984375000395
      },
      {
        "name": "E2",
        "midi": 40,
        "time": 120.71416500000042,
        "velocity": 0.7952755905511811,
        "duration": 0.1041665624999979
      },
      {
        "name": "A3",
        "midi": 57,
        "time": 120.71416500000042,
        "velocity": 0.41732283464566927,
        "duration": 0.06696421875000169
      },
      {
        "name": "A3",
        "midi": 57,
        "time": 121.07130750000043,
        "velocity": 0.4330708661417323,
        "duration": 0.07440468750000662
      },
      {
        "name": "D2",
        "midi": 38,
        "time": 121.07130750000043,
        "velocity": 0.6929133858267716,
        "duration": 0.08928562500000226
      },
      {
        "name": "D2",
        "midi": 38,
        "time": 121.24987875000043,
        "velocity": 0.5590551181102362,
        "duration": 0.08928562500000226
      },
      {
        "name": "D2",
        "midi": 38,
        "time": 121.42845000000044,
        "velocity": 0.5905511811023622,
        "duration": 0.08928562500000226
      },
      {
        "name": "A3",
        "midi": 57,
        "time": 121.42845000000044,
        "velocity": 0.4015748031496063,
        "duration": 0.05952374999999677
      },
      {
        "name": "D2",
        "midi": 38,
        "time": 121.60702125000044,
        "velocity": 0.5590551181102362,
        "duration": 0.07440468750000662
      },
      {
        "name": "A3",
        "midi": 57,
        "time": 121.78559250000045,
        "velocity": 0.4566929133858268,
        "duration": 0.06696421875000169
      },
      {
        "name": "D2",
        "midi": 38,
        "time": 121.78559250000045,
        "velocity": 0.6062992125984252,
        "duration": 0.09672609375000718
      },
      {
        "name": "C2",
        "midi": 36,
        "time": 121.96416375000045,
        "velocity": 0.7401574803149606,
        "duration": 0.08928562500000226
      },
      {
        "name": "E2",
        "midi": 40,
        "time": 122.14273500000046,
        "velocity": 0.7952755905511811,
        "duration": 0.11904749999999353
      },
      {
        "name": "C2",
        "midi": 36,
        "time": 122.14273500000046,
        "velocity": 0.7952755905511811,
        "duration": 0.1711307812499996
      },
      {
        "name": "A3",
        "midi": 57,
        "time": 122.14273500000046,
        "velocity": 0.4251968503937008,
        "duration": 0.05952374999999677
      },
      {
        "name": "A3",
        "midi": 57,
        "time": 122.49987750000045,
        "velocity": 0.4094488188976378,
        "duration": 0.05208328125000605
      },
      {
        "name": "D2",
        "midi": 38,
        "time": 122.49987750000045,
        "velocity": 0.6771653543307087,
        "duration": 0.07440468750000662
      },
      {
        "name": "A3",
        "midi": 57,
        "time": 122.67844875000046,
        "velocity": 0.4330708661417323,
        "duration": 0.05952374999999677
      },
      {
        "name": "D2",
        "midi": 38,
        "time": 122.67844875000046,
        "velocity": 0.5748031496062992,
        "duration": 0.08184515624999733
      },
      {
        "name": "D2",
        "midi": 38,
        "time": 122.85702000000045,
        "velocity": 0.7401574803149606,
        "duration": 0.1711307812499996
      },
      {
        "name": "A3",
        "midi": 57,
        "time": 122.85702000000045,
        "velocity": 0.47244094488188976,
        "duration": 0.08184515624999733
      },
      {
        "name": "E2",
        "midi": 40,
        "time": 123.21416250000044,
        "velocity": 0.8188976377952756,
        "duration": 0.09672609374999297
      },
      {
        "name": "C2",
        "midi": 36,
        "time": 123.21416250000044,
        "velocity": 0.7952755905511811,
        "duration": 0.1041665624999979
      },
      {
        "name": "A3",
        "midi": 57,
        "time": 123.57130500000044,
        "velocity": 0.41732283464566927,
        "duration": 0.06696421875000169
      },
      {
        "name": "D2",
        "midi": 38,
        "time": 123.57130500000044,
        "velocity": 0.8188976377952756,
        "duration": 0.21577359375000071
      },
      {
        "name": "C2",
        "midi": 36,
        "time": 123.92844750000043,
        "velocity": 0.889763779527559,
        "duration": 0.11160703125000282
      },
      {
        "name": "E2",
        "midi": 40,
        "time": 123.92844750000043,
        "velocity": 0.8503937007874016,
        "duration": 0.08928562500000226
      },
      {
        "name": "D2",
        "midi": 38,
        "time": 124.28559000000044,
        "velocity": 0.7952755905511811,
        "duration": 0.07440468750000662
      },
      {
        "name": "D2",
        "midi": 38,
        "time": 124.46416125000044,
        "velocity": 0.6220472440944882,
        "duration": 0.08184515624999733
      },
      {
        "name": "A3",
        "midi": 57,
        "time": 124.64273250000043,
        "velocity": 0.4015748031496063,
        "duration": 0.05208328125000605
      },
      {
        "name": "D2",
        "midi": 38,
        "time": 124.64273250000043,
        "velocity": 0.6771653543307087,
        "duration": 0.08928562500000226
      },
      {
        "name": "D2",
        "midi": 38,
        "time": 124.82130375000044,
        "velocity": 0.5905511811023622,
        "duration": 0.09672609374999297
      },
      {
        "name": "E2",
        "midi": 40,
        "time": 124.99987500000043,
        "velocity": 0.889763779527559,
        "duration": 0.1041665624999979
      },
      {
        "name": "C2",
        "midi": 36,
        "time": 124.99987500000043,
        "velocity": 0.7952755905511811,
        "duration": 0.1041665624999979
      },
      {
        "name": "A3",
        "midi": 57,
        "time": 124.99987500000043,
        "velocity": 0.4094488188976378,
        "duration": 0.06696421875000169
      },
      {
        "name": "A3",
        "midi": 57,
        "time": 125.35701750000042,
        "velocity": 0.3937007874015748,
        "duration": 0.04464281250000113
      },
      {
        "name": "D2",
        "midi": 38,
        "time": 125.35701750000042,
        "velocity": 0.7637795275590551,
        "duration": 0.06696421875000169
      },
      {
        "name": "A3",
        "midi": 57,
        "time": 125.53558875000043,
        "velocity": 0.41732283464566927,
        "duration": 0.05208328125000605
      },
      {
        "name": "D2",
        "midi": 38,
        "time": 125.53558875000043,
        "velocity": 0.6929133858267716,
        "duration": 0.08184515625001154
      },
      {
        "name": "D2",
        "midi": 38,
        "time": 125.71416000000043,
        "velocity": 0.6771653543307087,
        "duration": 0.07440468750000662
      },
      {
        "name": "A3",
        "midi": 57,
        "time": 125.71416000000043,
        "velocity": 0.4566929133858268,
        "duration": 0.06696421875000169
      },
      {
        "name": "D2",
        "midi": 38,
        "time": 125.89273125000044,
        "velocity": 0.6062992125984252,
        "duration": 0.08928562500000226
      },
      {
        "name": "D2",
        "midi": 38,
        "time": 126.07130250000044,
        "velocity": 0.5748031496062992,
        "duration": 0.1041665625000121
      },
      {
        "name": "A3",
        "midi": 57,
        "time": 126.07130250000044,
        "velocity": 0.4094488188976378,
        "duration": 0.05208328125000605
      },
      {
        "name": "C2",
        "midi": 36,
        "time": 126.24987375000046,
        "velocity": 0.8503937007874016,
        "duration": 0.08184515624999733
      },
      {
        "name": "E2",
        "midi": 40,
        "time": 126.42844500000045,
        "velocity": 0.8503937007874016,
        "duration": 0.09672609374999297
      },
      {
        "name": "C2",
        "midi": 36,
        "time": 126.42844500000045,
        "velocity": 0.7637795275590551,
        "duration": 0.14880937499999902
      },
      {
        "name": "A3",
        "midi": 57,
        "time": 126.78558750000045,
        "velocity": 0.4645669291338583,
        "duration": 0.07440468750000662
      },
      {
        "name": "D2",
        "midi": 38,
        "time": 127.14273000000045,
        "velocity": 0.7952755905511811,
        "duration": 0.09672609375000718
      },
      {
        "name": "A3",
        "midi": 57,
        "time": 127.14273000000045,
        "velocity": 0.4094488188976378,
        "duration": 0.04464281250000113
      },
      {
        "name": "A3",
        "midi": 57,
        "time": 127.49987250000046,
        "velocity": 0.44881889763779526,
        "duration": 0.06696421875000169
      },
      {
        "name": "D2",
        "midi": 38,
        "time": 127.49987250000046,
        "velocity": 0.7952755905511811,
        "duration": 0.11160703125000282
      },
      {
        "name": "E2",
        "midi": 40,
        "time": 127.85701500000047,
        "velocity": 0.8503937007874016,
        "duration": 0.19345218749998594
      },
      {
        "name": "C2",
        "midi": 36,
        "time": 127.85701500000047,
        "velocity": 0.6929133858267716,
        "duration": 0.18601171874999523
      },
      {
        "name": "A3",
        "midi": 57,
        "time": 127.85701500000047,
        "velocity": 0.4251968503937008,
        "duration": 0.07440468750000662
      },
      {
        "name": "D2",
        "midi": 38,
        "time": 128.21415750000045,
        "velocity": 0.6929133858267716,
        "duration": 0.08184515625001154
      },
      {
        "name": "D2",
        "midi": 38,
        "time": 128.39272875000046,
        "velocity": 0.5905511811023622,
        "duration": 0.08928562500000226
      },
      {
        "name": "A3",
        "midi": 57,
        "time": 128.39272875000046,
        "velocity": 0.44881889763779526,
        "duration": 0.06696421875000169
      },
      {
        "name": "D2",
        "midi": 38,
        "time": 128.57130000000046,
        "velocity": 0.6377952755905512,
        "duration": 0.09672609374999297
      },
      {
        "name": "A3",
        "midi": 57,
        "time": 128.57130000000046,
        "velocity": 0.44881889763779526,
        "duration": 0.0744046874999924
      },
      {
        "name": "D2",
        "midi": 38,
        "time": 128.74987125000047,
        "velocity": 0.5511811023622047,
        "duration": 0.08184515625001154
      },
      {
        "name": "A3",
        "midi": 57,
        "time": 128.92844250000047,
        "velocity": 0.4330708661417323,
        "duration": 0.05952375000001098
      },
      {
        "name": "D2",
        "midi": 38,
        "time": 128.92844250000047,
        "velocity": 0.5905511811023622,
        "duration": 0.11904750000002196
      },
      {
        "name": "C2",
        "midi": 36,
        "time": 129.1070137500005,
        "velocity": 0.889763779527559,
        "duration": 0.09672609374999297
      },
      {
        "name": "A3",
        "midi": 57,
        "time": 129.2855850000005,
        "velocity": 0.41732283464566927,
        "duration": 0.0744046874999924
      },
      {
        "name": "E2",
        "midi": 40,
        "time": 129.2855850000005,
        "velocity": 0.8188976377952756,
        "duration": 0.10416656249998368
      },
      {
        "name": "C2",
        "midi": 36,
        "time": 129.2855850000005,
        "velocity": 0.5748031496062992,
        "duration": 0.16369031249999466
      },
      {
        "name": "A3",
        "midi": 57,
        "time": 129.6427275000005,
        "velocity": 0.44881889763779526,
        "duration": 0.08184515624998312
      },
      {
        "name": "D2",
        "midi": 38,
        "time": 129.6427275000005,
        "velocity": 0.7165354330708661,
        "duration": 0.0744046874999924
      },
      {
        "name": "D2",
        "midi": 38,
        "time": 129.82129875000047,
        "velocity": 0.6062992125984252,
        "duration": 0.0744046874999924
      },
      {
        "name": "D2",
        "midi": 38,
        "time": 129.99987000000047,
        "velocity": 0.6771653543307087,
        "duration": 0.11904750000002196
      },
      {
        "name": "A3",
        "midi": 57,
        "time": 129.99987000000047,
        "velocity": 0.4251968503937008,
        "duration": 0.05952375000001098
      },
      {
        "name": "D2",
        "midi": 38,
        "time": 130.35701250000048,
        "velocity": 0.7401574803149606,
        "duration": 0.11904749999999353
      },
      {
        "name": "A3",
        "midi": 57,
        "time": 130.35701250000048,
        "velocity": 0.4251968503937008,
        "duration": 0.0744046874999924
      },
      {
        "name": "C2",
        "midi": 36,
        "time": 130.71415500000046,
        "velocity": 0.8188976377952756,
        "duration": 0.13392843749997496
      },
      {
        "name": "E2",
        "midi": 40,
        "time": 130.71415500000046,
        "velocity": 0.7952755905511811,
        "duration": 0.12648796874998425
      },
      {
        "name": "A3",
        "midi": 57,
        "time": 130.71415500000046,
        "velocity": 0.4251968503937008,
        "duration": 0.0744046874999924
      },
      {
        "name": "D2",
        "midi": 38,
        "time": 131.07129750000044,
        "velocity": 0.6220472440944882,
        "duration": 0.0744046874999924
      },
      {
        "name": "A3",
        "midi": 57,
        "time": 131.07129750000044,
        "velocity": 0.41732283464566927,
        "duration": 0.05208328124999184
      },
      {
        "name": "D2",
        "midi": 38,
        "time": 131.24986875000045,
        "velocity": 0.6062992125984252,
        "duration": 0.08184515625001154
      },
      {
        "name": "D2",
        "midi": 38,
        "time": 131.42844000000045,
        "velocity": 0.6771653543307087,
        "duration": 0.13392843750000338
      },
      {
        "name": "A3",
        "midi": 57,
        "time": 131.42844000000045,
        "velocity": 0.41732283464566927,
        "duration": 0.05952375000001098
      },
      {
        "name": "D2",
        "midi": 38,
        "time": 131.78558250000046,
        "velocity": 0.7637795275590551,
        "duration": 0.11160703125000282
      },
      {
        "name": "A3",
        "midi": 57,
        "time": 131.78558250000046,
        "velocity": 0.4015748031496063,
        "duration": 0.05208328124999184
      },
      {
        "name": "C2",
        "midi": 36,
        "time": 131.96415375000046,
        "velocity": 0.8503937007874016,
        "duration": 0.08928562500000226
      },
      {
        "name": "C2",
        "midi": 36,
        "time": 132.14272500000047,
        "velocity": 0.6535433070866141,
        "duration": 0.1413689062499941
      },
      {
        "name": "E2",
        "midi": 40,
        "time": 132.14272500000047,
        "velocity": 0.8188976377952756,
        "duration": 0.08928562500000226
      },
      {
        "name": "A3",
        "midi": 57,
        "time": 132.14272500000047,
        "velocity": 0.4015748031496063,
        "duration": 0.05952375000001098
      },
      {
        "name": "A3",
        "midi": 57,
        "time": 132.49986750000045,
        "velocity": 0.41732283464566927,
        "duration": 0.05208328124999184
      },
      {
        "name": "D2",
        "midi": 38,
        "time": 132.49986750000045,
        "velocity": 0.7401574803149606,
        "duration": 0.0744046874999924
      },
      {
        "name": "D2",
        "midi": 38,
        "time": 132.67843875000045,
        "velocity": 0.6377952755905512,
        "duration": 0.0744046874999924
      },
      {
        "name": "A3",
        "midi": 57,
        "time": 132.85701000000046,
        "velocity": 0.4251968503937008,
        "duration": 0.05952375000001098
      },
      {
        "name": "D2",
        "midi": 38,
        "time": 132.85701000000046,
        "velocity": 0.6535433070866141,
        "duration": 0.11904750000002196
      },
      {
        "name": "D2",
        "midi": 38,
        "time": 133.21415250000047,
        "velocity": 0.7637795275590551,
        "duration": 0.11904749999999353
      },
      {
        "name": "A3",
        "midi": 57,
        "time": 133.21415250000047,
        "velocity": 0.3858267716535433,
        "duration": 0.04464281250000113
      },
      {
        "name": "C2",
        "midi": 36,
        "time": 133.57129500000045,
        "velocity": 0.8188976377952756,
        "duration": 0.12648796875001267
      },
      {
        "name": "E2",
        "midi": 40,
        "time": 133.57129500000045,
        "velocity": 0.7952755905511811,
        "duration": 0.1785712500000045
      },
      {
        "name": "A3",
        "midi": 57,
        "time": 133.92843750000046,
        "velocity": 0.41732283464566927,
        "duration": 0.05208328124999184
      },
      {
        "name": "D2",
        "midi": 38,
        "time": 133.92843750000046,
        "velocity": 0.6929133858267716,
        "duration": 0.0744046874999924
      },
      {
        "name": "D2",
        "midi": 38,
        "time": 134.10700875000046,
        "velocity": 0.5905511811023622,
        "duration": 0.08184515625001154
      },
      {
        "name": "D2",
        "midi": 38,
        "time": 134.28558000000046,
        "velocity": 0.6220472440944882,
        "duration": 0.09672609374999297
      },
      {
        "name": "A3",
        "midi": 57,
        "time": 134.28558000000046,
        "velocity": 0.41732283464566927,
        "duration": 0.06696421875000169
      },
      {
        "name": "D2",
        "midi": 38,
        "time": 134.64272250000045,
        "velocity": 0.7401574803149606,
        "duration": 0.13392843750000338
      },
      {
        "name": "C2",
        "midi": 36,
        "time": 134.82129375000045,
        "velocity": 0.8188976377952756,
        "duration": 0.06696421875000169
      },
      {
        "name": "A3",
        "midi": 57,
        "time": 134.99986500000045,
        "velocity": 0.4409448818897638,
        "duration": 0.0744046874999924
      },
      {
        "name": "E2",
        "midi": 40,
        "time": 134.99986500000045,
        "velocity": 0.7952755905511811,
        "duration": 0.13392843750000338
      },
      {
        "name": "C2",
        "midi": 36,
        "time": 134.99986500000045,
        "velocity": 0.7165354330708661,
        "duration": 0.14880937500001323
      },
      {
        "name": "D2",
        "midi": 38,
        "time": 135.35700750000046,
        "velocity": 0.6929133858267716,
        "duration": 0.0744046874999924
      },
      {
        "name": "A3",
        "midi": 57,
        "time": 135.35700750000046,
        "velocity": 0.41732283464566927,
        "duration": 0.05208328124999184
      },
      {
        "name": "D2",
        "midi": 38,
        "time": 135.53557875000047,
        "velocity": 0.5590551181102362,
        "duration": 0.08184515625001154
      },
      {
        "name": "D2",
        "midi": 38,
        "time": 135.71415000000047,
        "velocity": 0.6377952755905512,
        "duration": 0.11904749999999353
      },
      {
        "name": "A3",
        "midi": 57,
        "time": 135.71415000000047,
        "velocity": 0.4251968503937008,
        "duration": 0.06696421875000169
      },
      {
        "name": "D2",
        "midi": 38,
        "time": 136.07129250000045,
        "velocity": 0.7637795275590551,
        "duration": 0.11160703125000282
      },
      {
        "name": "A3",
        "midi": 57,
        "time": 136.07129250000045,
        "velocity": 0.41732283464566927,
        "duration": 0.05952375000001098
      },
      {
        "name": "C2",
        "midi": 36,
        "time": 136.42843500000046,
        "velocity": 0.9212598425196851,
        "duration": 0.13392843749997496
      },
      {
        "name": "E2",
        "midi": 40,
        "time": 136.42843500000046,
        "velocity": 0.8188976377952756,
        "duration": 0.08184515624998312
      },
      {
        "name": "A3",
        "midi": 57,
        "time": 136.42843500000046,
        "velocity": 0.41732283464566927,
        "duration": 0.0744046874999924
      },
      {
        "name": "A3",
        "midi": 57,
        "time": 136.78557750000044,
        "velocity": 0.4015748031496063,
        "duration": 0.04464281250000113
      },
      {
        "name": "D2",
        "midi": 38,
        "time": 136.78557750000044,
        "velocity": 0.7165354330708661,
        "duration": 0.08928562500000226
      },
      {
        "name": "A3",
        "midi": 57,
        "time": 136.96414875000045,
        "velocity": 0.4015748031496063,
        "duration": 0.05208328124999184
      },
      {
        "name": "D2",
        "midi": 38,
        "time": 136.96414875000045,
        "velocity": 0.6220472440944882,
        "duration": 0.0744046874999924
      },
      {
        "name": "D2",
        "midi": 38,
        "time": 137.14272000000045,
        "velocity": 0.6929133858267716,
        "duration": 0.11160703125000282
      },
      {
        "name": "A3",
        "midi": 57,
        "time": 137.14272000000045,
        "velocity": 0.4251968503937008,
        "duration": 0.0744046874999924
      },
      {
        "name": "D2",
        "midi": 38,
        "time": 137.49986250000046,
        "velocity": 0.8188976377952756,
        "duration": 0.1041665625000121
      },
      {
        "name": "C2",
        "midi": 36,
        "time": 137.67843375000047,
        "velocity": 0.9212598425196851,
        "duration": 0.06696421875000169
      },
      {
        "name": "A3",
        "midi": 57,
        "time": 137.85700500000047,
        "velocity": 0.4330708661417323,
        "duration": 0.0744046874999924
      },
      {
        "name": "C2",
        "midi": 36,
        "time": 137.85700500000047,
        "velocity": 0.7401574803149606,
        "duration": 0.14880937500001323
      },
      {
        "name": "E2",
        "midi": 40,
        "time": 137.85700500000047,
        "velocity": 0.8188976377952756,
        "duration": 0.08928562500000226
      },
      {
        "name": "A3",
        "midi": 57,
        "time": 138.21414750000048,
        "velocity": 0.4409448818897638,
        "duration": 0.0744046874999924
      },
      {
        "name": "D2",
        "midi": 38,
        "time": 138.21414750000048,
        "velocity": 0.7952755905511811,
        "duration": 0.0744046874999924
      },
      {
        "name": "D2",
        "midi": 38,
        "time": 138.39271875000048,
        "velocity": 0.6377952755905512,
        "duration": 0.08184515625001154
      },
      {
        "name": "A3",
        "midi": 57,
        "time": 138.5712900000005,
        "velocity": 0.4645669291338583,
        "duration": 0.08184515625001154
      },
      {
        "name": "D2",
        "midi": 38,
        "time": 138.5712900000005,
        "velocity": 0.7637795275590551,
        "duration": 0.14880937500001323
      },
      {
        "name": "A3",
        "midi": 57,
        "time": 138.9284325000005,
        "velocity": 0.4566929133858268,
        "duration": 0.0744046874999924
      },
      {
        "name": "C2",
        "midi": 36,
        "time": 138.9284325000005,
        "velocity": 0.8503937007874016,
        "duration": 0.13392843750000338
      },
      {
        "name": "E2",
        "midi": 40,
        "time": 138.9284325000005,
        "velocity": 0.8503937007874016,
        "duration": 0.08928562500000226
      },
      {
        "name": "A3",
        "midi": 57,
        "time": 139.2855750000005,
        "velocity": 0.4409448818897638,
        "duration": 0.08928562500000226
      },
      {
        "name": "D2",
        "midi": 38,
        "time": 139.2855750000005,
        "velocity": 0.7952755905511811,
        "duration": 0.14880937500001323
      },
      {
        "name": "E2",
        "midi": 40,
        "time": 139.64271750000051,
        "velocity": 0.8188976377952756,
        "duration": 0.10416656249998368
      },
      {
        "name": "C2",
        "midi": 36,
        "time": 139.64271750000051,
        "velocity": 0.9212598425196851,
        "duration": 0.08184515624998312
      },
      {
        "name": "A3",
        "midi": 57,
        "time": 139.64271750000051,
        "velocity": 0.44881889763779526,
        "duration": 0.0744046874999924
      },
      {
        "name": "D2",
        "midi": 38,
        "time": 139.9998600000005,
        "velocity": 0.7165354330708661,
        "duration": 0.0744046874999924
      },
      {
        "name": "A3",
        "midi": 57,
        "time": 139.9998600000005,
        "velocity": 0.4566929133858268,
        "duration": 0.08184515624998312
      },
      {
        "name": "D2",
        "midi": 38,
        "time": 140.17843125000047,
        "velocity": 0.5905511811023622,
        "duration": 0.0744046874999924
      },
      {
        "name": "A3",
        "midi": 57,
        "time": 140.35700250000048,
        "velocity": 0.4094488188976378,
        "duration": 0.05952375000001098
      },
      {
        "name": "D2",
        "midi": 38,
        "time": 140.35700250000048,
        "velocity": 0.6535433070866141,
        "duration": 0.08928562500000226
      },
      {
        "name": "A3",
        "midi": 57,
        "time": 140.53557375000048,
        "velocity": 0.41732283464566927,
        "duration": 0.05952375000001098
      },
      {
        "name": "D2",
        "midi": 38,
        "time": 140.53557375000048,
        "velocity": 0.6535433070866141,
        "duration": 0.1041665625000121
      },
      {
        "name": "A3",
        "midi": 57,
        "time": 140.71414500000049,
        "velocity": 0.4251968503937008,
        "duration": 0.08184515625001154
      },
      {
        "name": "E2",
        "midi": 40,
        "time": 140.71414500000049,
        "velocity": 0.8188976377952756,
        "duration": 0.11904750000002196
      },
      {
        "name": "C2",
        "midi": 36,
        "time": 140.71414500000049,
        "velocity": 0.9606299212598425,
        "duration": 0.11904750000002196
      },
      {
        "name": "A3",
        "midi": 57,
        "time": 141.0712875000005,
        "velocity": 0.44881889763779526,
        "duration": 0.0744046874999924
      },
      {
        "name": "D2",
        "midi": 38,
        "time": 141.0712875000005,
        "velocity": 0.7165354330708661,
        "duration": 0.06696421875000169
      },
      {
        "name": "D2",
        "midi": 38,
        "time": 141.2498587500005,
        "velocity": 0.6377952755905512,
        "duration": 0.08184515625001154
      },
      {
        "name": "A3",
        "midi": 57,
        "time": 141.4284300000005,
        "velocity": 0.47244094488188976,
        "duration": 0.08184515625001154
      },
      {
        "name": "D2",
        "midi": 38,
        "time": 141.4284300000005,
        "velocity": 0.6377952755905512,
        "duration": 0.08184515625001154
      },
      {
        "name": "D2",
        "midi": 38,
        "time": 141.6070012500005,
        "velocity": 0.6220472440944882,
        "duration": 0.0744046874999924
      },
      {
        "name": "D2",
        "midi": 38,
        "time": 141.7855725000005,
        "velocity": 0.6377952755905512,
        "duration": 0.08928562500000226
      },
      {
        "name": "A3",
        "midi": 57,
        "time": 141.7855725000005,
        "velocity": 0.4251968503937008,
        "duration": 0.08928562500000226
      },
      {
        "name": "A3",
        "midi": 57,
        "time": 142.14271500000052,
        "velocity": 0.41732283464566927,
        "duration": 0.05952375000001098
      },
      {
        "name": "A3",
        "midi": 57,
        "time": 142.49985750000053,
        "velocity": 0.4566929133858268,
        "duration": 0.05952375000001098
      },
      {
        "name": "D2",
        "midi": 38,
        "time": 142.85700000000054,
        "velocity": 0.889763779527559,
        "duration": 0.10416656249998368
      },
      {
        "name": "A3",
        "midi": 57,
        "time": 142.85700000000054,
        "velocity": 0.4645669291338583,
        "duration": 0.05208328124999184
      },
      {
        "name": "D2",
        "midi": 38,
        "time": 143.9284275000005,
        "velocity": 0.6535433070866141,
        "duration": 0.0744046874999924
      },
      {
        "name": "D2",
        "midi": 38,
        "time": 144.2855700000005,
        "velocity": 0.9606299212598425,
        "duration": 0.09672609374999297
      },
      {
        "name": "C2",
        "midi": 36,
        "time": 144.2855700000005,
        "velocity": 0.8503937007874016,
        "duration": 0.08928562500000226
      },
      {
        "name": "A3",
        "midi": 57,
        "time": 144.2855700000005,
        "velocity": 0.5511811023622047,
        "duration": 0.06696421875000169
      }
    ]
  },
  {
    "startTime": 0,
    "duration": 0,
    "length": 0,
    "id": 11
  },
  {
    "startTime": 0,
    "duration": 0,
    "length": 0,
    "id": 12
  }
]
}
