/**
 * Created by peal on 2017-02-23.
 */

var daisy = {
    "header": {
        "PPQ": 960,
        "timeSignature": [
            3,
            4
        ],
        "bpm": 162.000162000162
    },
    "startTime": 0,
    "duration": 44.81477000000007,
    "tracks": [
        {
            "startTime": 0,
            "duration": 0,
            "length": 0,
            "id": 0
        },
        {
            "startTime": 9.999990000000002,
            "duration": 44.814770000000024,
            "length": 51,
            "id": 1,
            "name": "Voice",
            "instrumentNumber": 52,
            "instrument": "choir aahs",
            "instrumentFamily": "ensemble",
            "channelNumber": 1,
            "isPercussion": false,
            "notes": [
                {
                    "name": "C5",
                    "midi": 72,
                    "time": 9.999990000000002,
                    "velocity": 0.6062992125984252,
                    "duration": 1.11111
                },
                {
                    "name": "A4",
                    "midi": 69,
                    "time": 11.111100000000002,
                    "velocity": 0.5984251968503937,
                    "duration": 1.11111
                },
                {
                    "name": "F4",
                    "midi": 65,
                    "time": 12.222210000000002,
                    "velocity": 0.5826771653543307,
                    "duration": 1.11111
                },
                {
                    "name": "C4",
                    "midi": 60,
                    "time": 13.333320000000002,
                    "velocity": 0.5669291338582677,
                    "duration": 1.11111
                },
                {
                    "name": "D4",
                    "midi": 62,
                    "time": 14.444430000000002,
                    "velocity": 0.6929133858267716,
                    "duration": 0.3703699999999994
                },
                {
                    "name": "E4",
                    "midi": 64,
                    "time": 14.814800000000002,
                    "velocity": 0.7165354330708661,
                    "duration": 0.3703699999999994
                },
                {
                    "name": "F4",
                    "midi": 65,
                    "time": 15.185170000000001,
                    "velocity": 0.6929133858267716,
                    "duration": 0.3703699999999994
                },
                {
                    "name": "D4",
                    "midi": 62,
                    "time": 15.55554,
                    "velocity": 0.6299212598425197,
                    "duration": 0.7407399999999988
                },
                {
                    "name": "F4",
                    "midi": 65,
                    "time": 16.29628,
                    "velocity": 0.6771653543307087,
                    "duration": 0.3703700000000012
                },
                {
                    "name": "C4",
                    "midi": 60,
                    "time": 16.66665,
                    "velocity": 0.5826771653543307,
                    "duration": 2.22222
                },
                {
                    "name": "G4",
                    "midi": 67,
                    "time": 18.88887,
                    "velocity": 0.7637795275590551,
                    "duration": 1.11111
                },
                {
                    "name": "C5",
                    "midi": 72,
                    "time": 19.99998,
                    "velocity": 0.7716535433070866,
                    "duration": 1.11111
                },
                {
                    "name": "A4",
                    "midi": 69,
                    "time": 21.11109,
                    "velocity": 0.6062992125984252,
                    "duration": 1.11111
                },
                {
                    "name": "F4",
                    "midi": 65,
                    "time": 22.2222,
                    "velocity": 0.5748031496062992,
                    "duration": 1.11111
                },
                {
                    "name": "D4",
                    "midi": 62,
                    "time": 23.33331,
                    "velocity": 0.5748031496062992,
                    "duration": 0.3703700000000012
                },
                {
                    "name": "E4",
                    "midi": 64,
                    "time": 23.703680000000002,
                    "velocity": 0.7244094488188977,
                    "duration": 0.3703700000000012
                },
                {
                    "name": "F4",
                    "midi": 65,
                    "time": 24.074050000000003,
                    "velocity": 0.7007874015748031,
                    "duration": 0.3703700000000012
                },
                {
                    "name": "G4",
                    "midi": 67,
                    "time": 24.444420000000004,
                    "velocity": 0.6535433070866141,
                    "duration": 0.7407399999999988
                },
                {
                    "name": "A4",
                    "midi": 69,
                    "time": 25.185160000000003,
                    "velocity": 0.6929133858267716,
                    "duration": 0.3703700000000012
                },
                {
                    "name": "G4",
                    "midi": 67,
                    "time": 25.555530000000005,
                    "velocity": 0.6220472440944882,
                    "duration": 1.4814800000000012
                },
                {
                    "name": "A4",
                    "midi": 69,
                    "time": 27.407380000000007,
                    "velocity": 0.5748031496062992,
                    "duration": 0.3703700000000012
                },
                {
                    "name": "A#4",
                    "midi": 70,
                    "time": 27.777750000000008,
                    "velocity": 0.6929133858267716,
                    "duration": 0.3703700000000012
                },
                {
                    "name": "A4",
                    "midi": 69,
                    "time": 28.14812000000001,
                    "velocity": 0.6614173228346457,
                    "duration": 0.3703700000000012
                },
                {
                    "name": "G4",
                    "midi": 67,
                    "time": 28.51849000000001,
                    "velocity": 0.6220472440944882,
                    "duration": 0.3703700000000012
                },
                {
                    "name": "C5",
                    "midi": 72,
                    "time": 28.88886000000001,
                    "velocity": 0.7322834645669292,
                    "duration": 0.7407399999999988
                },
                {
                    "name": "A4",
                    "midi": 69,
                    "time": 29.62960000000001,
                    "velocity": 0.6220472440944882,
                    "duration": 0.3703700000000012
                },
                {
                    "name": "G4",
                    "midi": 67,
                    "time": 29.999970000000012,
                    "velocity": 0.6220472440944882,
                    "duration": 0.3703700000000012
                },
                {
                    "name": "F4",
                    "midi": 65,
                    "time": 30.370340000000013,
                    "velocity": 0.6456692913385826,
                    "duration": 1.4814800000000012
                },
                {
                    "name": "G4",
                    "midi": 67,
                    "time": 31.851820000000014,
                    "velocity": 0.6850393700787402,
                    "duration": 0.37036999999999765
                },
                {
                    "name": "A4",
                    "midi": 69,
                    "time": 32.22219000000001,
                    "velocity": 0.6929133858267716,
                    "duration": 0.7407400000000024
                },
                {
                    "name": "F4",
                    "midi": 65,
                    "time": 32.962930000000014,
                    "velocity": 0.5826771653543307,
                    "duration": 0.3703700000000012
                },
                {
                    "name": "D4",
                    "midi": 62,
                    "time": 33.333300000000015,
                    "velocity": 0.5984251968503937,
                    "duration": 0.7407400000000024
                },
                {
                    "name": "F4",
                    "midi": 65,
                    "time": 34.07404000000002,
                    "velocity": 0.6771653543307087,
                    "duration": 0.3703700000000012
                },
                {
                    "name": "D4",
                    "midi": 62,
                    "time": 34.44441000000002,
                    "velocity": 0.6062992125984252,
                    "duration": 0.3703700000000012
                },
                {
                    "name": "C4",
                    "midi": 60,
                    "time": 34.81478000000002,
                    "velocity": 0.6377952755905512,
                    "duration": 0.7407400000000024
                },
                {
                    "name": "C4",
                    "midi": 60,
                    "time": 35.55552000000002,
                    "velocity": 0.7086614173228346,
                    "duration": 0.7407400000000024
                },
                {
                    "name": "C4",
                    "midi": 60,
                    "time": 36.296260000000025,
                    "velocity": 0.7874015748031497,
                    "duration": 0.3703700000000012
                },
                {
                    "name": "F4",
                    "midi": 65,
                    "time": 36.666630000000026,
                    "velocity": 0.889763779527559,
                    "duration": 0.7407400000000024
                },
                {
                    "name": "A4",
                    "midi": 69,
                    "time": 37.40737000000003,
                    "velocity": 0.8661417322834646,
                    "duration": 0.3703700000000012
                },
                {
                    "name": "G4",
                    "midi": 67,
                    "time": 37.77774000000003,
                    "velocity": 0.7401574803149606,
                    "duration": 0.18518499999999705
                },
                {
                    "name": "F4",
                    "midi": 65,
                    "time": 38.888850000000026,
                    "velocity": 0.7007874015748031,
                    "duration": 0.7407400000000024
                },
                {
                    "name": "A4",
                    "midi": 69,
                    "time": 39.62959000000003,
                    "velocity": 0.8582677165354331,
                    "duration": 0.3703700000000012
                },
                {
                    "name": "G4",
                    "midi": 67,
                    "time": 39.99996000000003,
                    "velocity": 0.7401574803149606,
                    "duration": 0.18518499999999705
                },
                {
                    "name": "A4",
                    "midi": 69,
                    "time": 40.740700000000025,
                    "velocity": 0.6850393700787402,
                    "duration": 0.18518499999999705
                },
                {
                    "name": "A#4",
                    "midi": 70,
                    "time": 40.92588500000002,
                    "velocity": 0.8110236220472441,
                    "duration": 0.18518499999999705
                },
                {
                    "name": "C5",
                    "midi": 72,
                    "time": 41.11107000000002,
                    "velocity": 0.8740157480314961,
                    "duration": 0.3703700000000012
                },
                {
                    "name": "A4",
                    "midi": 69,
                    "time": 41.48144000000002,
                    "velocity": 0.7086614173228346,
                    "duration": 0.3703700000000012
                },
                {
                    "name": "F4",
                    "midi": 65,
                    "time": 41.85181000000002,
                    "velocity": 0.6535433070866141,
                    "duration": 0.3703700000000012
                },
                {
                    "name": "G4",
                    "midi": 67,
                    "time": 42.22218000000002,
                    "velocity": 0.8188976377952756,
                    "duration": 0.7407400000000024
                },
                {
                    "name": "C4",
                    "midi": 60,
                    "time": 42.962920000000025,
                    "velocity": 0.6141732283464567,
                    "duration": 0.3703700000000012
                },
                {
                    "name": "F4",
                    "midi": 65,
                    "time": 43.33329000000003,
                    "velocity": 0.8503937007874016,
                    "duration": 1.4814799999999977
                }
            ],
            "controlChanges": {
                "7": [
                    {
                        "number": 7,
                        "time": 0.7407400000000001,
                        "value": 0.7874015748031497
                    }
                ],
                "10": [
                    {
                        "number": 10,
                        "time": 0.7407400000000001,
                        "value": 0.5039370078740157
                    }
                ],
                "64": [
                    {
                        "number": 64,
                        "time": 0.7407400000000001,
                        "value": 0
                    }
                ],
                "91": [
                    {
                        "number": 91,
                        "time": 0.7407400000000001,
                        "value": 0.3779527559055118
                    }
                ],
                "121": [
                    {
                        "number": 121,
                        "time": 0.7407400000000001,
                        "value": 0
                    }
                ]
            }
        },
        {
            "startTime": 0.7407400000000001,
            "duration": 44.81477000000007,
            "length": 285,
            "id": 2,
            "name": "Piano",
            "instrumentNumber": 0,
            "instrument": "acoustic grand piano",
            "instrumentFamily": "piano",
            "channelNumber": 0,
            "isPercussion": false,
            "notes": [
                {
                    "name": "C4",
                    "midi": 60,
                    "time": 0.7407400000000001,
                    "velocity": 0.5748031496062992,
                    "duration": 0.37037
                },
                {
                    "name": "F4",
                    "midi": 65,
                    "time": 1.11111,
                    "velocity": 0.7480314960629921,
                    "duration": 0.7554004791666669
                },
                {
                    "name": "F2",
                    "midi": 41,
                    "time": 1.11111,
                    "velocity": 0.6299212598425197,
                    "duration": 0.3703700000000001
                },
                {
                    "name": "C3",
                    "midi": 48,
                    "time": 1.4814800000000001,
                    "velocity": 0.7244094488188977,
                    "duration": 0.3703700000000001
                },
                {
                    "name": "F3",
                    "midi": 53,
                    "time": 1.4814800000000001,
                    "velocity": 0.7244094488188977,
                    "duration": 0.3703700000000001
                },
                {
                    "name": "A3",
                    "midi": 57,
                    "time": 1.4814800000000001,
                    "velocity": 0.7244094488188977,
                    "duration": 0.3703700000000001
                },
                {
                    "name": "A4",
                    "midi": 69,
                    "time": 1.8518500000000002,
                    "velocity": 0.8346456692913385,
                    "duration": 0.3514656979166668
                },
                {
                    "name": "C3",
                    "midi": 48,
                    "time": 1.8518500000000002,
                    "velocity": 0.6771653543307087,
                    "duration": 0.3703700000000003
                },
                {
                    "name": "F3",
                    "midi": 53,
                    "time": 1.8518500000000002,
                    "velocity": 0.6771653543307087,
                    "duration": 0.3703700000000003
                },
                {
                    "name": "A3",
                    "midi": 57,
                    "time": 1.8518500000000002,
                    "velocity": 0.6771653543307087,
                    "duration": 0.3703700000000003
                },
                {
                    "name": "C4",
                    "midi": 60,
                    "time": 2.2222200000000005,
                    "velocity": 0.6141732283464567,
                    "duration": 0.37036999999999987
                },
                {
                    "name": "E4",
                    "midi": 64,
                    "time": 2.2222200000000005,
                    "velocity": 0.6141732283464567,
                    "duration": 0.37036999999999987
                },
                {
                    "name": "G4",
                    "midi": 67,
                    "time": 2.2222200000000005,
                    "velocity": 0.6141732283464567,
                    "duration": 0.37036999999999987
                },
                {
                    "name": "C3",
                    "midi": 48,
                    "time": 2.2222200000000005,
                    "velocity": 0.6771653543307087,
                    "duration": 0.37036999999999987
                },
                {
                    "name": "G3",
                    "midi": 55,
                    "time": 2.2222200000000005,
                    "velocity": 0.6771653543307087,
                    "duration": 0.37036999999999987
                },
                {
                    "name": "A#3",
                    "midi": 58,
                    "time": 2.2222200000000005,
                    "velocity": 0.6771653543307087,
                    "duration": 0.37036999999999987
                },
                {
                    "name": "F4",
                    "midi": 65,
                    "time": 3.3333300000000006,
                    "velocity": 0.6456692913385826,
                    "duration": 0.7554004791666666
                },
                {
                    "name": "F2",
                    "midi": 41,
                    "time": 3.3333300000000006,
                    "velocity": 0.5984251968503937,
                    "duration": 0.37036999999999987
                },
                {
                    "name": "C3",
                    "midi": 48,
                    "time": 3.7037000000000004,
                    "velocity": 0.6929133858267716,
                    "duration": 0.3703700000000003
                },
                {
                    "name": "F3",
                    "midi": 53,
                    "time": 3.7037000000000004,
                    "velocity": 0.6929133858267716,
                    "duration": 0.3703700000000003
                },
                {
                    "name": "A3",
                    "midi": 57,
                    "time": 3.7037000000000004,
                    "velocity": 0.6929133858267716,
                    "duration": 0.3703700000000003
                },
                {
                    "name": "A4",
                    "midi": 69,
                    "time": 4.074070000000001,
                    "velocity": 0.7007874015748031,
                    "duration": 0.3514656979166668
                },
                {
                    "name": "C3",
                    "midi": 48,
                    "time": 4.074070000000001,
                    "velocity": 0.6535433070866141,
                    "duration": 0.3703700000000003
                },
                {
                    "name": "F3",
                    "midi": 53,
                    "time": 4.074070000000001,
                    "velocity": 0.6535433070866141,
                    "duration": 0.3703700000000003
                },
                {
                    "name": "A3",
                    "midi": 57,
                    "time": 4.074070000000001,
                    "velocity": 0.6535433070866141,
                    "duration": 0.3703700000000003
                },
                {
                    "name": "C4",
                    "midi": 60,
                    "time": 4.444440000000001,
                    "velocity": 0.6692913385826772,
                    "duration": 0.3703700000000003
                },
                {
                    "name": "E4",
                    "midi": 64,
                    "time": 4.444440000000001,
                    "velocity": 0.6692913385826772,
                    "duration": 0.3703700000000003
                },
                {
                    "name": "G4",
                    "midi": 67,
                    "time": 4.444440000000001,
                    "velocity": 0.6692913385826772,
                    "duration": 0.3703700000000003
                },
                {
                    "name": "C3",
                    "midi": 48,
                    "time": 4.444440000000001,
                    "velocity": 0.6535433070866141,
                    "duration": 0.3703700000000003
                },
                {
                    "name": "G3",
                    "midi": 55,
                    "time": 4.444440000000001,
                    "velocity": 0.6535433070866141,
                    "duration": 0.3703700000000003
                },
                {
                    "name": "A#3",
                    "midi": 58,
                    "time": 4.444440000000001,
                    "velocity": 0.6535433070866141,
                    "duration": 0.3703700000000003
                },
                {
                    "name": "A4",
                    "midi": 69,
                    "time": 5.185180000000002,
                    "velocity": 0.6220472440944882,
                    "duration": 0.1882714166666668
                },
                {
                    "name": "A#4",
                    "midi": 70,
                    "time": 5.370365000000001,
                    "velocity": 0.6220472440944882,
                    "duration": 0.17515414583333389
                },
                {
                    "name": "C5",
                    "midi": 72,
                    "time": 5.555550000000002,
                    "velocity": 0.6771653543307087,
                    "duration": 0.37770023958333354
                },
                {
                    "name": "F2",
                    "midi": 41,
                    "time": 5.555550000000002,
                    "velocity": 0.5748031496062992,
                    "duration": 0.3703700000000003
                },
                {
                    "name": "A4",
                    "midi": 69,
                    "time": 5.925920000000002,
                    "velocity": 0.6299212598425197,
                    "duration": 0.37770023958333354
                },
                {
                    "name": "C3",
                    "midi": 48,
                    "time": 5.925920000000002,
                    "velocity": 0.7401574803149606,
                    "duration": 0.3703700000000003
                },
                {
                    "name": "F3",
                    "midi": 53,
                    "time": 5.925920000000002,
                    "velocity": 0.7401574803149606,
                    "duration": 0.3703700000000003
                },
                {
                    "name": "A3",
                    "midi": 57,
                    "time": 5.925920000000002,
                    "velocity": 0.7401574803149606,
                    "duration": 0.3703700000000003
                },
                {
                    "name": "F4",
                    "midi": 65,
                    "time": 6.296290000000003,
                    "velocity": 0.5905511811023622,
                    "duration": 0.3514656979166668
                },
                {
                    "name": "C3",
                    "midi": 48,
                    "time": 6.296290000000003,
                    "velocity": 0.6614173228346457,
                    "duration": 0.3703700000000003
                },
                {
                    "name": "F3",
                    "midi": 53,
                    "time": 6.296290000000003,
                    "velocity": 0.6614173228346457,
                    "duration": 0.3703700000000003
                },
                {
                    "name": "A3",
                    "midi": 57,
                    "time": 6.296290000000003,
                    "velocity": 0.6614173228346457,
                    "duration": 0.3703700000000003
                },
                {
                    "name": "G4",
                    "midi": 67,
                    "time": 6.666660000000003,
                    "velocity": 0.6692913385826772,
                    "duration": 0.7554004791666671
                },
                {
                    "name": "C2",
                    "midi": 36,
                    "time": 6.666660000000003,
                    "velocity": 0.5669291338582677,
                    "duration": 0.3703700000000003
                },
                {
                    "name": "C3",
                    "midi": 48,
                    "time": 7.037030000000003,
                    "velocity": 0.6771653543307087,
                    "duration": 0.3703700000000003
                },
                {
                    "name": "E3",
                    "midi": 52,
                    "time": 7.037030000000003,
                    "velocity": 0.6771653543307087,
                    "duration": 0.3703700000000003
                },
                {
                    "name": "A#3",
                    "midi": 58,
                    "time": 7.037030000000003,
                    "velocity": 0.6771653543307087,
                    "duration": 0.3703700000000003
                },
                {
                    "name": "C4",
                    "midi": 60,
                    "time": 7.4074000000000035,
                    "velocity": 0.5748031496062992,
                    "duration": 0.3514656979166668
                },
                {
                    "name": "C3",
                    "midi": 48,
                    "time": 7.4074000000000035,
                    "velocity": 0.6771653543307087,
                    "duration": 0.3703700000000003
                },
                {
                    "name": "E3",
                    "midi": 52,
                    "time": 7.4074000000000035,
                    "velocity": 0.6771653543307087,
                    "duration": 0.3703700000000003
                },
                {
                    "name": "A#3",
                    "midi": 58,
                    "time": 7.4074000000000035,
                    "velocity": 0.6771653543307087,
                    "duration": 0.3703700000000003
                },
                {
                    "name": "F4",
                    "midi": 65,
                    "time": 7.777770000000004,
                    "velocity": 0.7086614173228346,
                    "duration": 1.4814799999999977
                },
                {
                    "name": "F3",
                    "midi": 53,
                    "time": 7.777770000000004,
                    "velocity": 0.6141732283464567,
                    "duration": 0.3703699999999994
                },
                {
                    "name": "A3",
                    "midi": 57,
                    "time": 8.148140000000003,
                    "velocity": 0.5590551181102362,
                    "duration": 0.3703699999999994
                },
                {
                    "name": "C4",
                    "midi": 60,
                    "time": 8.148140000000003,
                    "velocity": 0.5590551181102362,
                    "duration": 0.3703699999999994
                },
                {
                    "name": "C3",
                    "midi": 48,
                    "time": 8.148140000000003,
                    "velocity": 0.6377952755905512,
                    "duration": 0.3703699999999994
                },
                {
                    "name": "A3",
                    "midi": 57,
                    "time": 8.518510000000003,
                    "velocity": 0.5669291338582677,
                    "duration": 0.3703699999999994
                },
                {
                    "name": "C4",
                    "midi": 60,
                    "time": 8.518510000000003,
                    "velocity": 0.5669291338582677,
                    "duration": 0.3703699999999994
                },
                {
                    "name": "A2",
                    "midi": 45,
                    "time": 8.518510000000003,
                    "velocity": 0.6141732283464567,
                    "duration": 0.3703699999999994
                },
                {
                    "name": "A3",
                    "midi": 57,
                    "time": 8.888880000000002,
                    "velocity": 0.5511811023622047,
                    "duration": 0.3703699999999994
                },
                {
                    "name": "C4",
                    "midi": 60,
                    "time": 8.888880000000002,
                    "velocity": 0.5511811023622047,
                    "duration": 0.3703699999999994
                },
                {
                    "name": "F2",
                    "midi": 41,
                    "time": 8.888880000000002,
                    "velocity": 0.6299212598425197,
                    "duration": 0.3703699999999994
                },
                {
                    "name": "F3",
                    "midi": 53,
                    "time": 9.999990000000002,
                    "velocity": 0.5669291338582677,
                    "duration": 1.1111099999999983
                },
                {
                    "name": "C4",
                    "midi": 60,
                    "time": 10.370360000000002,
                    "velocity": 0.5984251968503937,
                    "duration": 0.3703699999999994
                },
                {
                    "name": "F4",
                    "midi": 65,
                    "time": 10.370360000000002,
                    "velocity": 0.5984251968503937,
                    "duration": 0.3703699999999994
                },
                {
                    "name": "A4",
                    "midi": 69,
                    "time": 10.370360000000002,
                    "velocity": 0.5984251968503937,
                    "duration": 0.3703699999999994
                },
                {
                    "name": "C4",
                    "midi": 60,
                    "time": 10.740730000000001,
                    "velocity": 0.6614173228346457,
                    "duration": 0.3703699999999994
                },
                {
                    "name": "F4",
                    "midi": 65,
                    "time": 10.740730000000001,
                    "velocity": 0.6614173228346457,
                    "duration": 0.3703699999999994
                },
                {
                    "name": "A4",
                    "midi": 69,
                    "time": 10.740730000000001,
                    "velocity": 0.6614173228346457,
                    "duration": 0.3703699999999994
                },
                {
                    "name": "C3",
                    "midi": 48,
                    "time": 11.1111,
                    "velocity": 0.6141732283464567,
                    "duration": 1.1111099999999983
                },
                {
                    "name": "A3",
                    "midi": 57,
                    "time": 11.48147,
                    "velocity": 0.6141732283464567,
                    "duration": 0.3703699999999994
                },
                {
                    "name": "C4",
                    "midi": 60,
                    "time": 11.48147,
                    "velocity": 0.6141732283464567,
                    "duration": 0.3703699999999994
                },
                {
                    "name": "F4",
                    "midi": 65,
                    "time": 11.48147,
                    "velocity": 0.6141732283464567,
                    "duration": 0.3703699999999994
                },
                {
                    "name": "A3",
                    "midi": 57,
                    "time": 11.85184,
                    "velocity": 0.6614173228346457,
                    "duration": 0.3703699999999994
                },
                {
                    "name": "C4",
                    "midi": 60,
                    "time": 11.85184,
                    "velocity": 0.6614173228346457,
                    "duration": 0.3703699999999994
                },
                {
                    "name": "F4",
                    "midi": 65,
                    "time": 11.85184,
                    "velocity": 0.6614173228346457,
                    "duration": 0.3703699999999994
                },
                {
                    "name": "A2",
                    "midi": 45,
                    "time": 12.222209999999999,
                    "velocity": 0.6220472440944882,
                    "duration": 1.1111099999999983
                },
                {
                    "name": "F3",
                    "midi": 53,
                    "time": 12.592579999999998,
                    "velocity": 0.5905511811023622,
                    "duration": 0.3703699999999994
                },
                {
                    "name": "C4",
                    "midi": 60,
                    "time": 12.592579999999998,
                    "velocity": 0.5905511811023622,
                    "duration": 0.3703699999999994
                },
                {
                    "name": "F3",
                    "midi": 53,
                    "time": 12.962949999999998,
                    "velocity": 0.6614173228346457,
                    "duration": 0.3703699999999994
                },
                {
                    "name": "C4",
                    "midi": 60,
                    "time": 12.962949999999998,
                    "velocity": 0.6614173228346457,
                    "duration": 0.3703699999999994
                },
                {
                    "name": "F2",
                    "midi": 41,
                    "time": 13.333319999999997,
                    "velocity": 0.5984251968503937,
                    "duration": 1.1111099999999983
                },
                {
                    "name": "F3",
                    "midi": 53,
                    "time": 13.703689999999996,
                    "velocity": 0.5984251968503937,
                    "duration": 0.3703699999999994
                },
                {
                    "name": "A3",
                    "midi": 57,
                    "time": 13.703689999999996,
                    "velocity": 0.5984251968503937,
                    "duration": 0.3703699999999994
                },
                {
                    "name": "F3",
                    "midi": 53,
                    "time": 14.074059999999996,
                    "velocity": 0.6377952755905512,
                    "duration": 0.3703699999999994
                },
                {
                    "name": "A3",
                    "midi": 57,
                    "time": 14.074059999999996,
                    "velocity": 0.6377952755905512,
                    "duration": 0.3703699999999994
                },
                {
                    "name": "A#1",
                    "midi": 34,
                    "time": 14.444429999999995,
                    "velocity": 0.7007874015748031,
                    "duration": 0.3703699999999994
                },
                {
                    "name": "A#2",
                    "midi": 46,
                    "time": 14.444429999999995,
                    "velocity": 0.7007874015748031,
                    "duration": 0.3703699999999994
                },
                {
                    "name": "D3",
                    "midi": 50,
                    "time": 14.814799999999995,
                    "velocity": 0.5669291338582677,
                    "duration": 0.3703699999999994
                },
                {
                    "name": "F3",
                    "midi": 53,
                    "time": 14.814799999999995,
                    "velocity": 0.5669291338582677,
                    "duration": 0.3703699999999994
                },
                {
                    "name": "A#3",
                    "midi": 58,
                    "time": 14.814799999999995,
                    "velocity": 0.5669291338582677,
                    "duration": 0.3703699999999994
                },
                {
                    "name": "D3",
                    "midi": 50,
                    "time": 15.185169999999994,
                    "velocity": 0.6771653543307087,
                    "duration": 0.3703699999999994
                },
                {
                    "name": "F3",
                    "midi": 53,
                    "time": 15.185169999999994,
                    "velocity": 0.6771653543307087,
                    "duration": 0.3703699999999994
                },
                {
                    "name": "A#3",
                    "midi": 58,
                    "time": 15.185169999999994,
                    "velocity": 0.6771653543307087,
                    "duration": 0.3703699999999994
                },
                {
                    "name": "A#1",
                    "midi": 34,
                    "time": 15.555539999999993,
                    "velocity": 0.5748031496062992,
                    "duration": 0.3703699999999994
                },
                {
                    "name": "A#2",
                    "midi": 46,
                    "time": 15.555539999999993,
                    "velocity": 0.5748031496062992,
                    "duration": 0.3703699999999994
                },
                {
                    "name": "D3",
                    "midi": 50,
                    "time": 15.925909999999993,
                    "velocity": 0.5905511811023622,
                    "duration": 0.3703699999999994
                },
                {
                    "name": "F3",
                    "midi": 53,
                    "time": 15.925909999999993,
                    "velocity": 0.5905511811023622,
                    "duration": 0.3703699999999994
                },
                {
                    "name": "A#3",
                    "midi": 58,
                    "time": 15.925909999999993,
                    "velocity": 0.5905511811023622,
                    "duration": 0.3703699999999994
                },
                {
                    "name": "D3",
                    "midi": 50,
                    "time": 16.296279999999992,
                    "velocity": 0.6377952755905512,
                    "duration": 0.3703700000000012
                },
                {
                    "name": "F3",
                    "midi": 53,
                    "time": 16.296279999999992,
                    "velocity": 0.6377952755905512,
                    "duration": 0.3703700000000012
                },
                {
                    "name": "A#3",
                    "midi": 58,
                    "time": 16.296279999999992,
                    "velocity": 0.6377952755905512,
                    "duration": 0.3703700000000012
                },
                {
                    "name": "F2",
                    "midi": 41,
                    "time": 16.666649999999994,
                    "velocity": 0.5826771653543307,
                    "duration": 0.3703700000000012
                },
                {
                    "name": "F3",
                    "midi": 53,
                    "time": 17.037019999999995,
                    "velocity": 0.5590551181102362,
                    "duration": 0.3703700000000012
                },
                {
                    "name": "A3",
                    "midi": 57,
                    "time": 17.037019999999995,
                    "velocity": 0.5590551181102362,
                    "duration": 0.3703700000000012
                },
                {
                    "name": "C4",
                    "midi": 60,
                    "time": 17.037019999999995,
                    "velocity": 0.5590551181102362,
                    "duration": 0.3703700000000012
                },
                {
                    "name": "C3",
                    "midi": 48,
                    "time": 17.037019999999995,
                    "velocity": 0.7165354330708661,
                    "duration": 0.3703700000000012
                },
                {
                    "name": "F3",
                    "midi": 53,
                    "time": 17.407389999999996,
                    "velocity": 0.6850393700787402,
                    "duration": 0.3703700000000012
                },
                {
                    "name": "A3",
                    "midi": 57,
                    "time": 17.407389999999996,
                    "velocity": 0.6850393700787402,
                    "duration": 0.3703700000000012
                },
                {
                    "name": "C4",
                    "midi": 60,
                    "time": 17.407389999999996,
                    "velocity": 0.6850393700787402,
                    "duration": 0.3703700000000012
                },
                {
                    "name": "A2",
                    "midi": 45,
                    "time": 17.407389999999996,
                    "velocity": 0.6614173228346457,
                    "duration": 0.3703700000000012
                },
                {
                    "name": "F2",
                    "midi": 41,
                    "time": 17.777759999999997,
                    "velocity": 0.6299212598425197,
                    "duration": 0.3703700000000012
                },
                {
                    "name": "F3",
                    "midi": 53,
                    "time": 18.14813,
                    "velocity": 0.5669291338582677,
                    "duration": 0.3703700000000012
                },
                {
                    "name": "A3",
                    "midi": 57,
                    "time": 18.14813,
                    "velocity": 0.5669291338582677,
                    "duration": 0.3703700000000012
                },
                {
                    "name": "C4",
                    "midi": 60,
                    "time": 18.14813,
                    "velocity": 0.5669291338582677,
                    "duration": 0.3703700000000012
                },
                {
                    "name": "F3",
                    "midi": 53,
                    "time": 18.5185,
                    "velocity": 0.6614173228346457,
                    "duration": 0.3703700000000012
                },
                {
                    "name": "A3",
                    "midi": 57,
                    "time": 18.5185,
                    "velocity": 0.6614173228346457,
                    "duration": 0.3703700000000012
                },
                {
                    "name": "C4",
                    "midi": 60,
                    "time": 18.5185,
                    "velocity": 0.6614173228346457,
                    "duration": 0.3703700000000012
                },
                {
                    "name": "E2",
                    "midi": 40,
                    "time": 18.88887,
                    "velocity": 0.5826771653543307,
                    "duration": 0.3703700000000012
                },
                {
                    "name": "E3",
                    "midi": 52,
                    "time": 18.88887,
                    "velocity": 0.5826771653543307,
                    "duration": 0.3703700000000012
                },
                {
                    "name": "G3",
                    "midi": 55,
                    "time": 19.259240000000002,
                    "velocity": 0.6299212598425197,
                    "duration": 0.3703700000000012
                },
                {
                    "name": "A#3",
                    "midi": 58,
                    "time": 19.259240000000002,
                    "velocity": 0.6299212598425197,
                    "duration": 0.3703700000000012
                },
                {
                    "name": "C4",
                    "midi": 60,
                    "time": 19.259240000000002,
                    "velocity": 0.6299212598425197,
                    "duration": 0.3703700000000012
                },
                {
                    "name": "G3",
                    "midi": 55,
                    "time": 19.629610000000003,
                    "velocity": 0.6614173228346457,
                    "duration": 0.3703700000000012
                },
                {
                    "name": "A#3",
                    "midi": 58,
                    "time": 19.629610000000003,
                    "velocity": 0.6614173228346457,
                    "duration": 0.3703700000000012
                },
                {
                    "name": "C4",
                    "midi": 60,
                    "time": 19.629610000000003,
                    "velocity": 0.6614173228346457,
                    "duration": 0.3703700000000012
                },
                {
                    "name": "C2",
                    "midi": 36,
                    "time": 19.999980000000004,
                    "velocity": 0.5669291338582677,
                    "duration": 0.3703700000000012
                },
                {
                    "name": "C3",
                    "midi": 48,
                    "time": 19.999980000000004,
                    "velocity": 0.5669291338582677,
                    "duration": 0.3703700000000012
                },
                {
                    "name": "E3",
                    "midi": 52,
                    "time": 20.370350000000006,
                    "velocity": 0.6141732283464567,
                    "duration": 0.3703700000000012
                },
                {
                    "name": "A#3",
                    "midi": 58,
                    "time": 20.370350000000006,
                    "velocity": 0.6141732283464567,
                    "duration": 0.3703700000000012
                },
                {
                    "name": "C4",
                    "midi": 60,
                    "time": 20.370350000000006,
                    "velocity": 0.6141732283464567,
                    "duration": 0.3703700000000012
                },
                {
                    "name": "E3",
                    "midi": 52,
                    "time": 20.740720000000007,
                    "velocity": 0.6299212598425197,
                    "duration": 0.3703700000000012
                },
                {
                    "name": "A#3",
                    "midi": 58,
                    "time": 20.740720000000007,
                    "velocity": 0.6299212598425197,
                    "duration": 0.3703700000000012
                },
                {
                    "name": "C4",
                    "midi": 60,
                    "time": 20.740720000000007,
                    "velocity": 0.6299212598425197,
                    "duration": 0.3703700000000012
                },
                {
                    "name": "F2",
                    "midi": 41,
                    "time": 21.111090000000008,
                    "velocity": 0.5511811023622047,
                    "duration": 1.1111100000000036
                },
                {
                    "name": "F3",
                    "midi": 53,
                    "time": 21.111090000000008,
                    "velocity": 0.5511811023622047,
                    "duration": 1.1111100000000036
                },
                {
                    "name": "A3",
                    "midi": 57,
                    "time": 21.48146000000001,
                    "velocity": 0.5905511811023622,
                    "duration": 0.3703700000000012
                },
                {
                    "name": "C4",
                    "midi": 60,
                    "time": 21.48146000000001,
                    "velocity": 0.5905511811023622,
                    "duration": 0.3703700000000012
                },
                {
                    "name": "F4",
                    "midi": 65,
                    "time": 21.48146000000001,
                    "velocity": 0.5905511811023622,
                    "duration": 0.3703700000000012
                },
                {
                    "name": "A3",
                    "midi": 57,
                    "time": 21.85183000000001,
                    "velocity": 0.6220472440944882,
                    "duration": 0.3703700000000012
                },
                {
                    "name": "C4",
                    "midi": 60,
                    "time": 21.85183000000001,
                    "velocity": 0.6220472440944882,
                    "duration": 0.3703700000000012
                },
                {
                    "name": "F4",
                    "midi": 65,
                    "time": 21.85183000000001,
                    "velocity": 0.6220472440944882,
                    "duration": 0.3703700000000012
                },
                {
                    "name": "D2",
                    "midi": 38,
                    "time": 22.22220000000001,
                    "velocity": 0.6220472440944882,
                    "duration": 1.1111100000000036
                },
                {
                    "name": "D3",
                    "midi": 50,
                    "time": 22.22220000000001,
                    "velocity": 0.6220472440944882,
                    "duration": 1.1111100000000036
                },
                {
                    "name": "F3",
                    "midi": 53,
                    "time": 22.592570000000013,
                    "velocity": 0.6062992125984252,
                    "duration": 0.3703700000000012
                },
                {
                    "name": "A3",
                    "midi": 57,
                    "time": 22.592570000000013,
                    "velocity": 0.6062992125984252,
                    "duration": 0.3703700000000012
                },
                {
                    "name": "D4",
                    "midi": 62,
                    "time": 22.592570000000013,
                    "velocity": 0.6062992125984252,
                    "duration": 0.3703700000000012
                },
                {
                    "name": "F3",
                    "midi": 53,
                    "time": 22.962940000000014,
                    "velocity": 0.6299212598425197,
                    "duration": 0.3703700000000012
                },
                {
                    "name": "A3",
                    "midi": 57,
                    "time": 22.962940000000014,
                    "velocity": 0.6299212598425197,
                    "duration": 0.3703700000000012
                },
                {
                    "name": "D4",
                    "midi": 62,
                    "time": 22.962940000000014,
                    "velocity": 0.6299212598425197,
                    "duration": 0.3703700000000012
                },
                {
                    "name": "G2",
                    "midi": 43,
                    "time": 23.333310000000015,
                    "velocity": 0.5748031496062992,
                    "duration": 0.3703700000000012
                },
                {
                    "name": "F3",
                    "midi": 53,
                    "time": 23.703680000000016,
                    "velocity": 0.6062992125984252,
                    "duration": 0.3703700000000012
                },
                {
                    "name": "G3",
                    "midi": 55,
                    "time": 23.703680000000016,
                    "velocity": 0.6062992125984252,
                    "duration": 0.3703700000000012
                },
                {
                    "name": "B3",
                    "midi": 59,
                    "time": 23.703680000000016,
                    "velocity": 0.6062992125984252,
                    "duration": 0.3703700000000012
                },
                {
                    "name": "F3",
                    "midi": 53,
                    "time": 24.074050000000017,
                    "velocity": 0.6771653543307087,
                    "duration": 0.3703700000000012
                },
                {
                    "name": "G3",
                    "midi": 55,
                    "time": 24.074050000000017,
                    "velocity": 0.6771653543307087,
                    "duration": 0.3703700000000012
                },
                {
                    "name": "B3",
                    "midi": 59,
                    "time": 24.074050000000017,
                    "velocity": 0.6771653543307087,
                    "duration": 0.3703700000000012
                },
                {
                    "name": "G2",
                    "midi": 43,
                    "time": 24.44442000000002,
                    "velocity": 0.5748031496062992,
                    "duration": 0.3703700000000012
                },
                {
                    "name": "F3",
                    "midi": 53,
                    "time": 24.81479000000002,
                    "velocity": 0.5905511811023622,
                    "duration": 0.3703700000000012
                },
                {
                    "name": "G3",
                    "midi": 55,
                    "time": 24.81479000000002,
                    "velocity": 0.5905511811023622,
                    "duration": 0.3703700000000012
                },
                {
                    "name": "B3",
                    "midi": 59,
                    "time": 24.81479000000002,
                    "velocity": 0.5905511811023622,
                    "duration": 0.3703700000000012
                },
                {
                    "name": "F3",
                    "midi": 53,
                    "time": 25.18516000000002,
                    "velocity": 0.6220472440944882,
                    "duration": 0.3703700000000012
                },
                {
                    "name": "G3",
                    "midi": 55,
                    "time": 25.18516000000002,
                    "velocity": 0.6220472440944882,
                    "duration": 0.3703700000000012
                },
                {
                    "name": "B3",
                    "midi": 59,
                    "time": 25.18516000000002,
                    "velocity": 0.6220472440944882,
                    "duration": 0.3703700000000012
                },
                {
                    "name": "C2",
                    "midi": 36,
                    "time": 25.555530000000022,
                    "velocity": 0.6141732283464567,
                    "duration": 0.3703700000000012
                },
                {
                    "name": "C3",
                    "midi": 48,
                    "time": 25.555530000000022,
                    "velocity": 0.6141732283464567,
                    "duration": 0.3703700000000012
                },
                {
                    "name": "E3",
                    "midi": 52,
                    "time": 25.925900000000023,
                    "velocity": 0.5590551181102362,
                    "duration": 0.3703700000000012
                },
                {
                    "name": "G3",
                    "midi": 55,
                    "time": 25.925900000000023,
                    "velocity": 0.5590551181102362,
                    "duration": 0.3703700000000012
                },
                {
                    "name": "C4",
                    "midi": 60,
                    "time": 25.925900000000023,
                    "velocity": 0.5590551181102362,
                    "duration": 0.3703700000000012
                },
                {
                    "name": "E3",
                    "midi": 52,
                    "time": 26.296270000000025,
                    "velocity": 0.6614173228346457,
                    "duration": 0.3703700000000012
                },
                {
                    "name": "G3",
                    "midi": 55,
                    "time": 26.296270000000025,
                    "velocity": 0.6614173228346457,
                    "duration": 0.3703700000000012
                },
                {
                    "name": "C4",
                    "midi": 60,
                    "time": 26.296270000000025,
                    "velocity": 0.6614173228346457,
                    "duration": 0.3703700000000012
                },
                {
                    "name": "C2",
                    "midi": 36,
                    "time": 26.666640000000026,
                    "velocity": 0.5984251968503937,
                    "duration": 0.3703700000000012
                },
                {
                    "name": "C3",
                    "midi": 48,
                    "time": 26.666640000000026,
                    "velocity": 0.5984251968503937,
                    "duration": 0.3703700000000012
                },
                {
                    "name": "E3",
                    "midi": 52,
                    "time": 27.037010000000027,
                    "velocity": 0.5669291338582677,
                    "duration": 0.3703700000000012
                },
                {
                    "name": "G3",
                    "midi": 55,
                    "time": 27.037010000000027,
                    "velocity": 0.5669291338582677,
                    "duration": 0.3703700000000012
                },
                {
                    "name": "C4",
                    "midi": 60,
                    "time": 27.037010000000027,
                    "velocity": 0.5669291338582677,
                    "duration": 0.3703700000000012
                },
                {
                    "name": "E3",
                    "midi": 52,
                    "time": 27.40738000000003,
                    "velocity": 0.6614173228346457,
                    "duration": 0.3703700000000012
                },
                {
                    "name": "G3",
                    "midi": 55,
                    "time": 27.40738000000003,
                    "velocity": 0.6614173228346457,
                    "duration": 0.3703700000000012
                },
                {
                    "name": "C4",
                    "midi": 60,
                    "time": 27.40738000000003,
                    "velocity": 0.6614173228346457,
                    "duration": 0.3703700000000012
                },
                {
                    "name": "E2",
                    "midi": 40,
                    "time": 27.77775000000003,
                    "velocity": 0.6141732283464567,
                    "duration": 0.3703700000000012
                },
                {
                    "name": "E3",
                    "midi": 52,
                    "time": 27.77775000000003,
                    "velocity": 0.6141732283464567,
                    "duration": 0.3703700000000012
                },
                {
                    "name": "G3",
                    "midi": 55,
                    "time": 28.14812000000003,
                    "velocity": 0.5433070866141733,
                    "duration": 0.3703700000000012
                },
                {
                    "name": "A#3",
                    "midi": 58,
                    "time": 28.14812000000003,
                    "velocity": 0.5433070866141733,
                    "duration": 0.3703700000000012
                },
                {
                    "name": "C4",
                    "midi": 60,
                    "time": 28.14812000000003,
                    "velocity": 0.5433070866141733,
                    "duration": 0.3703700000000012
                },
                {
                    "name": "G3",
                    "midi": 55,
                    "time": 28.518490000000032,
                    "velocity": 0.6850393700787402,
                    "duration": 0.3703700000000012
                },
                {
                    "name": "A#3",
                    "midi": 58,
                    "time": 28.518490000000032,
                    "velocity": 0.6850393700787402,
                    "duration": 0.3703700000000012
                },
                {
                    "name": "C4",
                    "midi": 60,
                    "time": 28.518490000000032,
                    "velocity": 0.6850393700787402,
                    "duration": 0.3703700000000012
                },
                {
                    "name": "C2",
                    "midi": 36,
                    "time": 28.888860000000033,
                    "velocity": 0.5984251968503937,
                    "duration": 0.3703700000000012
                },
                {
                    "name": "C3",
                    "midi": 48,
                    "time": 28.888860000000033,
                    "velocity": 0.5984251968503937,
                    "duration": 0.3703700000000012
                },
                {
                    "name": "E3",
                    "midi": 52,
                    "time": 29.259230000000034,
                    "velocity": 0.5905511811023622,
                    "duration": 0.3703700000000012
                },
                {
                    "name": "A#3",
                    "midi": 58,
                    "time": 29.259230000000034,
                    "velocity": 0.5905511811023622,
                    "duration": 0.3703700000000012
                },
                {
                    "name": "C4",
                    "midi": 60,
                    "time": 29.259230000000034,
                    "velocity": 0.5905511811023622,
                    "duration": 0.3703700000000012
                },
                {
                    "name": "E3",
                    "midi": 52,
                    "time": 29.629600000000035,
                    "velocity": 0.6456692913385826,
                    "duration": 0.3703700000000012
                },
                {
                    "name": "A#3",
                    "midi": 58,
                    "time": 29.629600000000035,
                    "velocity": 0.6456692913385826,
                    "duration": 0.3703700000000012
                },
                {
                    "name": "C4",
                    "midi": 60,
                    "time": 29.629600000000035,
                    "velocity": 0.6456692913385826,
                    "duration": 0.3703700000000012
                },
                {
                    "name": "F2",
                    "midi": 41,
                    "time": 29.999970000000037,
                    "velocity": 0.6220472440944882,
                    "duration": 0.3703700000000012
                },
                {
                    "name": "F3",
                    "midi": 53,
                    "time": 29.999970000000037,
                    "velocity": 0.6220472440944882,
                    "duration": 0.3703700000000012
                },
                {
                    "name": "A3",
                    "midi": 57,
                    "time": 30.370340000000038,
                    "velocity": 0.6377952755905512,
                    "duration": 0.3703700000000012
                },
                {
                    "name": "C4",
                    "midi": 60,
                    "time": 30.370340000000038,
                    "velocity": 0.6377952755905512,
                    "duration": 0.3703700000000012
                },
                {
                    "name": "A3",
                    "midi": 57,
                    "time": 30.74071000000004,
                    "velocity": 0.6535433070866141,
                    "duration": 0.3703700000000012
                },
                {
                    "name": "C4",
                    "midi": 60,
                    "time": 30.74071000000004,
                    "velocity": 0.6535433070866141,
                    "duration": 0.3703700000000012
                },
                {
                    "name": "F2",
                    "midi": 41,
                    "time": 31.11108000000004,
                    "velocity": 0.6141732283464567,
                    "duration": 0.3703700000000012
                },
                {
                    "name": "F3",
                    "midi": 53,
                    "time": 31.11108000000004,
                    "velocity": 0.6141732283464567,
                    "duration": 0.3703700000000012
                },
                {
                    "name": "A3",
                    "midi": 57,
                    "time": 31.48145000000004,
                    "velocity": 0.5984251968503937,
                    "duration": 0.3703700000000012
                },
                {
                    "name": "C4",
                    "midi": 60,
                    "time": 31.48145000000004,
                    "velocity": 0.5984251968503937,
                    "duration": 0.3703700000000012
                },
                {
                    "name": "A3",
                    "midi": 57,
                    "time": 31.851820000000043,
                    "velocity": 0.6692913385826772,
                    "duration": 0.37036999999999765
                },
                {
                    "name": "C4",
                    "midi": 60,
                    "time": 31.851820000000043,
                    "velocity": 0.6692913385826772,
                    "duration": 0.37036999999999765
                },
                {
                    "name": "D2",
                    "midi": 38,
                    "time": 32.22219000000004,
                    "velocity": 0.5905511811023622,
                    "duration": 0.3703700000000012
                },
                {
                    "name": "D3",
                    "midi": 50,
                    "time": 32.22219000000004,
                    "velocity": 0.5905511811023622,
                    "duration": 0.3703700000000012
                },
                {
                    "name": "F3",
                    "midi": 53,
                    "time": 32.59256000000004,
                    "velocity": 0.6141732283464567,
                    "duration": 0.3703700000000012
                },
                {
                    "name": "A3",
                    "midi": 57,
                    "time": 32.59256000000004,
                    "velocity": 0.6141732283464567,
                    "duration": 0.3703700000000012
                },
                {
                    "name": "D4",
                    "midi": 62,
                    "time": 32.59256000000004,
                    "velocity": 0.6141732283464567,
                    "duration": 0.3703700000000012
                },
                {
                    "name": "F3",
                    "midi": 53,
                    "time": 32.96293000000004,
                    "velocity": 0.6535433070866141,
                    "duration": 0.3703700000000012
                },
                {
                    "name": "A3",
                    "midi": 57,
                    "time": 32.96293000000004,
                    "velocity": 0.6535433070866141,
                    "duration": 0.3703700000000012
                },
                {
                    "name": "D4",
                    "midi": 62,
                    "time": 32.96293000000004,
                    "velocity": 0.6535433070866141,
                    "duration": 0.3703700000000012
                },
                {
                    "name": "A#1",
                    "midi": 34,
                    "time": 33.333300000000044,
                    "velocity": 0.6062992125984252,
                    "duration": 0.3703700000000012
                },
                {
                    "name": "A#2",
                    "midi": 46,
                    "time": 33.333300000000044,
                    "velocity": 0.6062992125984252,
                    "duration": 0.3703700000000012
                },
                {
                    "name": "D3",
                    "midi": 50,
                    "time": 33.703670000000045,
                    "velocity": 0.5669291338582677,
                    "duration": 0.3703700000000012
                },
                {
                    "name": "F3",
                    "midi": 53,
                    "time": 33.703670000000045,
                    "velocity": 0.5669291338582677,
                    "duration": 0.3703700000000012
                },
                {
                    "name": "A#3",
                    "midi": 58,
                    "time": 33.703670000000045,
                    "velocity": 0.5669291338582677,
                    "duration": 0.3703700000000012
                },
                {
                    "name": "D3",
                    "midi": 50,
                    "time": 34.074040000000046,
                    "velocity": 0.6299212598425197,
                    "duration": 0.3703700000000012
                },
                {
                    "name": "F3",
                    "midi": 53,
                    "time": 34.074040000000046,
                    "velocity": 0.6299212598425197,
                    "duration": 0.3703700000000012
                },
                {
                    "name": "A#3",
                    "midi": 58,
                    "time": 34.074040000000046,
                    "velocity": 0.6299212598425197,
                    "duration": 0.3703700000000012
                },
                {
                    "name": "F2",
                    "midi": 41,
                    "time": 34.44441000000005,
                    "velocity": 0.5984251968503937,
                    "duration": 0.3703700000000012
                },
                {
                    "name": "C3",
                    "midi": 48,
                    "time": 34.81478000000005,
                    "velocity": 0.5826771653543307,
                    "duration": 0.3703700000000012
                },
                {
                    "name": "F3",
                    "midi": 53,
                    "time": 34.81478000000005,
                    "velocity": 0.5826771653543307,
                    "duration": 0.3703700000000012
                },
                {
                    "name": "A3",
                    "midi": 57,
                    "time": 34.81478000000005,
                    "velocity": 0.5826771653543307,
                    "duration": 0.3703700000000012
                },
                {
                    "name": "C3",
                    "midi": 48,
                    "time": 35.18515000000005,
                    "velocity": 0.6456692913385826,
                    "duration": 0.3703700000000012
                },
                {
                    "name": "F3",
                    "midi": 53,
                    "time": 35.18515000000005,
                    "velocity": 0.6456692913385826,
                    "duration": 0.3703700000000012
                },
                {
                    "name": "A3",
                    "midi": 57,
                    "time": 35.18515000000005,
                    "velocity": 0.6456692913385826,
                    "duration": 0.3703700000000012
                },
                {
                    "name": "E2",
                    "midi": 40,
                    "time": 35.55552000000005,
                    "velocity": 0.5748031496062992,
                    "duration": 0.3703700000000012
                },
                {
                    "name": "C3",
                    "midi": 48,
                    "time": 35.92589000000005,
                    "velocity": 0.6141732283464567,
                    "duration": 0.3703700000000012
                },
                {
                    "name": "G3",
                    "midi": 55,
                    "time": 35.92589000000005,
                    "velocity": 0.6141732283464567,
                    "duration": 0.3703700000000012
                },
                {
                    "name": "A#3",
                    "midi": 58,
                    "time": 35.92589000000005,
                    "velocity": 0.6141732283464567,
                    "duration": 0.3703700000000012
                },
                {
                    "name": "C3",
                    "midi": 48,
                    "time": 36.29626000000005,
                    "velocity": 0.6377952755905512,
                    "duration": 0.3703700000000012
                },
                {
                    "name": "G3",
                    "midi": 55,
                    "time": 36.29626000000005,
                    "velocity": 0.6377952755905512,
                    "duration": 0.3703700000000012
                },
                {
                    "name": "A#3",
                    "midi": 58,
                    "time": 36.29626000000005,
                    "velocity": 0.6377952755905512,
                    "duration": 0.3703700000000012
                },
                {
                    "name": "F2",
                    "midi": 41,
                    "time": 36.666630000000055,
                    "velocity": 0.6535433070866141,
                    "duration": 0.3703700000000012
                },
                {
                    "name": "C3",
                    "midi": 48,
                    "time": 37.037000000000056,
                    "velocity": 0.7086614173228346,
                    "duration": 0.3703700000000012
                },
                {
                    "name": "F3",
                    "midi": 53,
                    "time": 37.037000000000056,
                    "velocity": 0.7086614173228346,
                    "duration": 0.3703700000000012
                },
                {
                    "name": "A3",
                    "midi": 57,
                    "time": 37.037000000000056,
                    "velocity": 0.7086614173228346,
                    "duration": 0.3703700000000012
                },
                {
                    "name": "C3",
                    "midi": 48,
                    "time": 37.40737000000006,
                    "velocity": 0.7165354330708661,
                    "duration": 0.3703700000000012
                },
                {
                    "name": "F3",
                    "midi": 53,
                    "time": 37.40737000000006,
                    "velocity": 0.7165354330708661,
                    "duration": 0.3703700000000012
                },
                {
                    "name": "A3",
                    "midi": 57,
                    "time": 37.40737000000006,
                    "velocity": 0.7165354330708661,
                    "duration": 0.3703700000000012
                },
                {
                    "name": "E3",
                    "midi": 52,
                    "time": 37.77774000000006,
                    "velocity": 0.7874015748031497,
                    "duration": 0.18518499999999705
                },
                {
                    "name": "G3",
                    "midi": 55,
                    "time": 37.77774000000006,
                    "velocity": 0.7874015748031497,
                    "duration": 0.18518499999999705
                },
                {
                    "name": "A#3",
                    "midi": 58,
                    "time": 37.77774000000006,
                    "velocity": 0.7874015748031497,
                    "duration": 0.18518499999999705
                },
                {
                    "name": "C3",
                    "midi": 48,
                    "time": 37.77774000000006,
                    "velocity": 0.6771653543307087,
                    "duration": 0.18518499999999705
                },
                {
                    "name": "F2",
                    "midi": 41,
                    "time": 38.888850000000055,
                    "velocity": 0.6929133858267716,
                    "duration": 1.1111100000000036
                },
                {
                    "name": "C3",
                    "midi": 48,
                    "time": 39.259220000000056,
                    "velocity": 0.6614173228346457,
                    "duration": 0.3703700000000012
                },
                {
                    "name": "F3",
                    "midi": 53,
                    "time": 39.259220000000056,
                    "velocity": 0.6614173228346457,
                    "duration": 0.3703700000000012
                },
                {
                    "name": "A3",
                    "midi": 57,
                    "time": 39.259220000000056,
                    "velocity": 0.6614173228346457,
                    "duration": 0.3703700000000012
                },
                {
                    "name": "C3",
                    "midi": 48,
                    "time": 39.62959000000006,
                    "velocity": 0.7480314960629921,
                    "duration": 0.3703700000000012
                },
                {
                    "name": "F3",
                    "midi": 53,
                    "time": 39.62959000000006,
                    "velocity": 0.7480314960629921,
                    "duration": 0.3703700000000012
                },
                {
                    "name": "A3",
                    "midi": 57,
                    "time": 39.62959000000006,
                    "velocity": 0.7480314960629921,
                    "duration": 0.3703700000000012
                },
                {
                    "name": "E3",
                    "midi": 52,
                    "time": 39.99996000000006,
                    "velocity": 0.7874015748031497,
                    "duration": 0.18518499999999705
                },
                {
                    "name": "G3",
                    "midi": 55,
                    "time": 39.99996000000006,
                    "velocity": 0.7874015748031497,
                    "duration": 0.18518499999999705
                },
                {
                    "name": "A#3",
                    "midi": 58,
                    "time": 39.99996000000006,
                    "velocity": 0.7874015748031497,
                    "duration": 0.18518499999999705
                },
                {
                    "name": "C3",
                    "midi": 48,
                    "time": 39.99996000000006,
                    "velocity": 0.8110236220472441,
                    "duration": 0.18518499999999705
                },
                {
                    "name": "F2",
                    "midi": 41,
                    "time": 41.111070000000055,
                    "velocity": 0.6929133858267716,
                    "duration": 1.1111100000000036
                },
                {
                    "name": "C3",
                    "midi": 48,
                    "time": 41.481440000000056,
                    "velocity": 0.7007874015748031,
                    "duration": 0.3703700000000012
                },
                {
                    "name": "F3",
                    "midi": 53,
                    "time": 41.481440000000056,
                    "velocity": 0.7007874015748031,
                    "duration": 0.3703700000000012
                },
                {
                    "name": "A3",
                    "midi": 57,
                    "time": 41.481440000000056,
                    "velocity": 0.7007874015748031,
                    "duration": 0.3703700000000012
                },
                {
                    "name": "C3",
                    "midi": 48,
                    "time": 41.85181000000006,
                    "velocity": 0.7637795275590551,
                    "duration": 0.3703700000000012
                },
                {
                    "name": "F3",
                    "midi": 53,
                    "time": 41.85181000000006,
                    "velocity": 0.7637795275590551,
                    "duration": 0.3703700000000012
                },
                {
                    "name": "A3",
                    "midi": 57,
                    "time": 41.85181000000006,
                    "velocity": 0.7637795275590551,
                    "duration": 0.3703700000000012
                },
                {
                    "name": "C2",
                    "midi": 36,
                    "time": 42.22218000000006,
                    "velocity": 0.7086614173228346,
                    "duration": 1.1111100000000036
                },
                {
                    "name": "C3",
                    "midi": 48,
                    "time": 42.59255000000006,
                    "velocity": 0.7007874015748031,
                    "duration": 0.3703700000000012
                },
                {
                    "name": "E3",
                    "midi": 52,
                    "time": 42.59255000000006,
                    "velocity": 0.7007874015748031,
                    "duration": 0.3703700000000012
                },
                {
                    "name": "A#3",
                    "midi": 58,
                    "time": 42.59255000000006,
                    "velocity": 0.7007874015748031,
                    "duration": 0.3703700000000012
                },
                {
                    "name": "C3",
                    "midi": 48,
                    "time": 42.96292000000006,
                    "velocity": 0.7559055118110236,
                    "duration": 0.3703700000000012
                },
                {
                    "name": "E3",
                    "midi": 52,
                    "time": 42.96292000000006,
                    "velocity": 0.7559055118110236,
                    "duration": 0.3703700000000012
                },
                {
                    "name": "A#3",
                    "midi": 58,
                    "time": 42.96292000000006,
                    "velocity": 0.7559055118110236,
                    "duration": 0.3703700000000012
                },
                {
                    "name": "F3",
                    "midi": 53,
                    "time": 43.33329000000006,
                    "velocity": 0.8740157480314961,
                    "duration": 0.3703700000000012
                },
                {
                    "name": "A3",
                    "midi": 57,
                    "time": 43.70366000000006,
                    "velocity": 0.6614173228346457,
                    "duration": 0.3703700000000012
                },
                {
                    "name": "C4",
                    "midi": 60,
                    "time": 43.70366000000006,
                    "velocity": 0.6614173228346457,
                    "duration": 0.3703700000000012
                },
                {
                    "name": "C3",
                    "midi": 48,
                    "time": 43.70366000000006,
                    "velocity": 0.7401574803149606,
                    "duration": 0.3703700000000012
                },
                {
                    "name": "A3",
                    "midi": 57,
                    "time": 44.074030000000064,
                    "velocity": 0.7480314960629921,
                    "duration": 0.3703700000000012
                },
                {
                    "name": "C4",
                    "midi": 60,
                    "time": 44.074030000000064,
                    "velocity": 0.7480314960629921,
                    "duration": 0.3703700000000012
                },
                {
                    "name": "A2",
                    "midi": 45,
                    "time": 44.074030000000064,
                    "velocity": 0.7244094488188977,
                    "duration": 0.3703700000000012
                },
                {
                    "name": "A3",
                    "midi": 57,
                    "time": 44.444400000000066,
                    "velocity": 0.8031496062992126,
                    "duration": 0.3703700000000012
                },
                {
                    "name": "C4",
                    "midi": 60,
                    "time": 44.444400000000066,
                    "velocity": 0.8031496062992126,
                    "duration": 0.3703700000000012
                },
                {
                    "name": "F2",
                    "midi": 41,
                    "time": 44.444400000000066,
                    "velocity": 0.7086614173228346,
                    "duration": 0.3703700000000012
                }
            ],
            "controlChanges": {
                "7": [
                    {
                        "number": 7,
                        "time": 0.7407400000000001,
                        "value": 0.5590551181102362
                    },
                    {
                        "number": 7,
                        "time": 0.7407400000000001,
                        "value": 0.5590551181102362
                    }
                ],
                "10": [
                    {
                        "number": 10,
                        "time": 0.7407400000000001,
                        "value": 0.4015748031496063
                    },
                    {
                        "number": 10,
                        "time": 0.7407400000000001,
                        "value": 0.4015748031496063
                    }
                ],
                "64": [
                    {
                        "number": 64,
                        "time": 0.7407400000000001,
                        "value": 0
                    },
                    {
                        "number": 64,
                        "time": 0.7407400000000001,
                        "value": 0
                    }
                ],
                "91": [
                    {
                        "number": 91,
                        "time": 0.7407400000000001,
                        "value": 0.3779527559055118
                    },
                    {
                        "number": 91,
                        "time": 0.7407400000000001,
                        "value": 0.3779527559055118
                    }
                ],
                "121": [
                    {
                        "number": 121,
                        "time": 0.7407400000000001,
                        "value": 0
                    },
                    {
                        "number": 121,
                        "time": 0.7407400000000001,
                        "value": 0
                    }
                ]
            }
        }
    ]
}