/**
 * Created by peal on 2017-02-23.
 */

var aviron = {
    "header": {
        "PPQ": 384,
        "timeSignature": [
            2,
            4
        ],
        "bpm": 100,
        "name": "Track 0"
    },
    "startTime": 0,
    "duration": 33.60000000000004,
    "tracks": [
        {
            "startTime": 0,
            "duration": 0,
            "length": 0,
            "id": 0,
            "name": "Track 0"
        },
        {
            "startTime": 0,
            "duration": 33.60000000000004,
            "length": 75,
            "id": 1,
            "channelNumber": 0,
            "isPercussion": false,
            "notes": [
                {
                    "name": "F#4",
                    "midi": 66,
                    "time": 0,
                    "velocity": 1,
                    "duration": 0.6
                },
                {
                    "name": "F#4",
                    "midi": 66,
                    "time": 0.6,
                    "velocity": 1,
                    "duration": 0.29999999999999993
                },
                {
                    "name": "E4",
                    "midi": 64,
                    "time": 0.8999999999999999,
                    "velocity": 1,
                    "duration": 0.30000000000000004
                },
                {
                    "name": "D4",
                    "midi": 62,
                    "time": 1.2,
                    "velocity": 1,
                    "duration": 0.8999999999999997
                },
                {
                    "name": "A4",
                    "midi": 69,
                    "time": 2.0999999999999996,
                    "velocity": 1,
                    "duration": 0.2999999999999998
                },
                {
                    "name": "A4",
                    "midi": 69,
                    "time": 2.3999999999999995,
                    "velocity": 1,
                    "duration": 0.2999999999999998
                },
                {
                    "name": "A4",
                    "midi": 69,
                    "time": 2.6999999999999993,
                    "velocity": 1,
                    "duration": 0.2999999999999998
                },
                {
                    "name": "A4",
                    "midi": 69,
                    "time": 2.999999999999999,
                    "velocity": 1,
                    "duration": 0.2999999999999998
                },
                {
                    "name": "A4",
                    "midi": 69,
                    "time": 3.299999999999999,
                    "velocity": 1,
                    "duration": 0.2999999999999998
                },
                {
                    "name": "B4",
                    "midi": 71,
                    "time": 3.5999999999999988,
                    "velocity": 1,
                    "duration": 0.5999999999999996
                },
                {
                    "name": "A4",
                    "midi": 69,
                    "time": 4.199999999999998,
                    "velocity": 1,
                    "duration": 0.5999999999999996
                },
                {
                    "name": "F#4",
                    "midi": 66,
                    "time": 4.799999999999998,
                    "velocity": 1,
                    "duration": 0.5999999999999996
                },
                {
                    "name": "F#4",
                    "midi": 66,
                    "time": 5.399999999999998,
                    "velocity": 1,
                    "duration": 0.2999999999999998
                },
                {
                    "name": "E4",
                    "midi": 64,
                    "time": 5.6999999999999975,
                    "velocity": 1,
                    "duration": 0.2999999999999998
                },
                {
                    "name": "D4",
                    "midi": 62,
                    "time": 5.999999999999997,
                    "velocity": 1,
                    "duration": 0.8999999999999995
                },
                {
                    "name": "A4",
                    "midi": 69,
                    "time": 6.899999999999997,
                    "velocity": 1,
                    "duration": 0.2999999999999998
                },
                {
                    "name": "A4",
                    "midi": 69,
                    "time": 7.199999999999997,
                    "velocity": 1,
                    "duration": 0.2999999999999998
                },
                {
                    "name": "A4",
                    "midi": 69,
                    "time": 7.4999999999999964,
                    "velocity": 1,
                    "duration": 0.2999999999999998
                },
                {
                    "name": "A4",
                    "midi": 69,
                    "time": 7.799999999999996,
                    "velocity": 1,
                    "duration": 0.2999999999999998
                },
                {
                    "name": "A4",
                    "midi": 69,
                    "time": 8.099999999999996,
                    "velocity": 1,
                    "duration": 0.3000000000000007
                },
                {
                    "name": "B4",
                    "midi": 71,
                    "time": 8.399999999999997,
                    "velocity": 1,
                    "duration": 0.5999999999999996
                },
                {
                    "name": "A4",
                    "midi": 69,
                    "time": 8.999999999999996,
                    "velocity": 1,
                    "duration": 0.5999999999999996
                },
                {
                    "name": "A4",
                    "midi": 69,
                    "time": 9.599999999999996,
                    "velocity": 1,
                    "duration": 0.5999999999999996
                },
                {
                    "name": "A4",
                    "midi": 69,
                    "time": 10.199999999999996,
                    "velocity": 1,
                    "duration": 0.3000000000000007
                },
                {
                    "name": "A4",
                    "midi": 69,
                    "time": 10.499999999999996,
                    "velocity": 1,
                    "duration": 0.3000000000000007
                },
                {
                    "name": "D5",
                    "midi": 74,
                    "time": 10.799999999999997,
                    "velocity": 1,
                    "duration": 0.9000000000000004
                },
                {
                    "name": "A4",
                    "midi": 69,
                    "time": 11.699999999999998,
                    "velocity": 1,
                    "duration": 0.3000000000000007
                },
                {
                    "name": "A4",
                    "midi": 69,
                    "time": 11.999999999999998,
                    "velocity": 1,
                    "duration": 0.3000000000000007
                },
                {
                    "name": "A4",
                    "midi": 69,
                    "time": 12.299999999999999,
                    "velocity": 1,
                    "duration": 0.3000000000000007
                },
                {
                    "name": "A4",
                    "midi": 69,
                    "time": 12.6,
                    "velocity": 1,
                    "duration": 0.3000000000000007
                },
                {
                    "name": "G4",
                    "midi": 67,
                    "time": 12.9,
                    "velocity": 1,
                    "duration": 0.3000000000000007
                },
                {
                    "name": "F#4",
                    "midi": 66,
                    "time": 13.200000000000001,
                    "velocity": 1,
                    "duration": 0.5999999999999996
                },
                {
                    "name": "E4",
                    "midi": 64,
                    "time": 13.8,
                    "velocity": 1,
                    "duration": 0.5999999999999996
                },
                {
                    "name": "D4",
                    "midi": 62,
                    "time": 14.4,
                    "velocity": 1,
                    "duration": 0.5999999999999996
                },
                {
                    "name": "D4",
                    "midi": 62,
                    "time": 15,
                    "velocity": 1,
                    "duration": 0.3000000000000007
                },
                {
                    "name": "E4",
                    "midi": 64,
                    "time": 15.3,
                    "velocity": 1,
                    "duration": 0.3000000000000007
                },
                {
                    "name": "F#4",
                    "midi": 66,
                    "time": 15.600000000000001,
                    "velocity": 1,
                    "duration": 0.6000000000000014
                },
                {
                    "name": "E4",
                    "midi": 64,
                    "time": 16.200000000000003,
                    "velocity": 1,
                    "duration": 0.3000000000000007
                },
                {
                    "name": "D4",
                    "midi": 62,
                    "time": 16.500000000000004,
                    "velocity": 1,
                    "duration": 0.3000000000000007
                },
                {
                    "name": "C#4",
                    "midi": 61,
                    "time": 16.800000000000004,
                    "velocity": 1,
                    "duration": 0.3000000000000007
                },
                {
                    "name": "D4",
                    "midi": 62,
                    "time": 17.100000000000005,
                    "velocity": 1,
                    "duration": 0.3000000000000007
                },
                {
                    "name": "E4",
                    "midi": 64,
                    "time": 17.400000000000006,
                    "velocity": 1,
                    "duration": 0.3000000000000007
                },
                {
                    "name": "F#4",
                    "midi": 66,
                    "time": 17.700000000000006,
                    "velocity": 1,
                    "duration": 0.3000000000000007
                },
                {
                    "name": "G4",
                    "midi": 67,
                    "time": 18.000000000000007,
                    "velocity": 1,
                    "duration": 0.6000000000000014
                },
                {
                    "name": "F#4",
                    "midi": 66,
                    "time": 18.60000000000001,
                    "velocity": 1,
                    "duration": 0.6000000000000014
                },
                {
                    "name": "D4",
                    "midi": 62,
                    "time": 19.20000000000001,
                    "velocity": 1,
                    "duration": 0.6000000000000014
                },
                {
                    "name": "D4",
                    "midi": 62,
                    "time": 19.80000000000001,
                    "velocity": 1,
                    "duration": 0.3000000000000007
                },
                {
                    "name": "E4",
                    "midi": 64,
                    "time": 20.100000000000012,
                    "velocity": 1,
                    "duration": 0.3000000000000007
                },
                {
                    "name": "F#4",
                    "midi": 66,
                    "time": 20.400000000000013,
                    "velocity": 1,
                    "duration": 0.6000000000000014
                },
                {
                    "name": "E4",
                    "midi": 64,
                    "time": 21.000000000000014,
                    "velocity": 1,
                    "duration": 0.3000000000000007
                },
                {
                    "name": "D4",
                    "midi": 62,
                    "time": 21.300000000000015,
                    "velocity": 1,
                    "duration": 0.3000000000000007
                },
                {
                    "name": "C#4",
                    "midi": 61,
                    "time": 21.600000000000016,
                    "velocity": 1,
                    "duration": 0.6000000000000014
                },
                {
                    "name": "E4",
                    "midi": 64,
                    "time": 22.200000000000017,
                    "velocity": 1,
                    "duration": 0.6000000000000014
                },
                {
                    "name": "D4",
                    "midi": 62,
                    "time": 22.80000000000002,
                    "velocity": 1,
                    "duration": 1.1999999999999993
                },
                {
                    "name": "D4",
                    "midi": 62,
                    "time": 24.000000000000018,
                    "velocity": 1,
                    "duration": 0.6000000000000014
                },
                {
                    "name": "D4",
                    "midi": 62,
                    "time": 24.60000000000002,
                    "velocity": 1,
                    "duration": 0.3000000000000007
                },
                {
                    "name": "E4",
                    "midi": 64,
                    "time": 24.90000000000002,
                    "velocity": 1,
                    "duration": 0.3000000000000007
                },
                {
                    "name": "F#4",
                    "midi": 66,
                    "time": 25.20000000000002,
                    "velocity": 1,
                    "duration": 0.6000000000000014
                },
                {
                    "name": "E4",
                    "midi": 64,
                    "time": 25.800000000000022,
                    "velocity": 1,
                    "duration": 0.3000000000000007
                },
                {
                    "name": "D4",
                    "midi": 62,
                    "time": 26.100000000000023,
                    "velocity": 1,
                    "duration": 0.3000000000000007
                },
                {
                    "name": "C#4",
                    "midi": 61,
                    "time": 26.400000000000023,
                    "velocity": 1,
                    "duration": 0.3000000000000007
                },
                {
                    "name": "D4",
                    "midi": 62,
                    "time": 26.700000000000024,
                    "velocity": 1,
                    "duration": 0.3000000000000007
                },
                {
                    "name": "E4",
                    "midi": 64,
                    "time": 27.000000000000025,
                    "velocity": 1,
                    "duration": 0.3000000000000007
                },
                {
                    "name": "F#4",
                    "midi": 66,
                    "time": 27.300000000000026,
                    "velocity": 1,
                    "duration": 0.3000000000000007
                },
                {
                    "name": "G4",
                    "midi": 67,
                    "time": 27.600000000000026,
                    "velocity": 1,
                    "duration": 0.6000000000000014
                },
                {
                    "name": "F#4",
                    "midi": 66,
                    "time": 28.200000000000028,
                    "velocity": 1,
                    "duration": 0.6000000000000014
                },
                {
                    "name": "D4",
                    "midi": 62,
                    "time": 28.80000000000003,
                    "velocity": 1,
                    "duration": 0.6000000000000014
                },
                {
                    "name": "D4",
                    "midi": 62,
                    "time": 29.40000000000003,
                    "velocity": 1,
                    "duration": 0.3000000000000007
                },
                {
                    "name": "E4",
                    "midi": 64,
                    "time": 29.70000000000003,
                    "velocity": 1,
                    "duration": 0.3000000000000007
                },
                {
                    "name": "F#4",
                    "midi": 66,
                    "time": 30.000000000000032,
                    "velocity": 1,
                    "duration": 0.6000000000000014
                },
                {
                    "name": "E4",
                    "midi": 64,
                    "time": 30.600000000000033,
                    "velocity": 1,
                    "duration": 0.3000000000000007
                },
                {
                    "name": "D4",
                    "midi": 62,
                    "time": 30.900000000000034,
                    "velocity": 1,
                    "duration": 0.3000000000000007
                },
                {
                    "name": "C#4",
                    "midi": 61,
                    "time": 31.200000000000035,
                    "velocity": 1,
                    "duration": 0.6000000000000014
                },
                {
                    "name": "E4",
                    "midi": 64,
                    "time": 31.800000000000036,
                    "velocity": 1,
                    "duration": 0.5999999999999979
                },
                {
                    "name": "D4",
                    "midi": 62,
                    "time": 32.400000000000034,
                    "velocity": 1,
                    "duration": 1.2000000000000028
                }
            ]
        },
        {
            "startTime": 0,
            "duration": 0,
            "length": 0,
            "id": 2
        }
    ]
}