/**
 * Created by pawelszymanski on 22.02.17.
 */

var ode_to_joy = {
  "header": {
  "PPQ": 256,
    "timeSignature": [
    4,
    4
  ],
    "bpm": 70.00007000007,
    "name": "Ode to Joy"
},
  "startTime": 0,
  "duration": 54.770034515625035,
  "tracks": [
  {
    "startTime": 0,
    "duration": 0,
    "length": 0,
    "id": 0,
    "name": "Ode to Joy"
  },
  {
    "startTime": 0,
    "duration": 54.770034515625035,
    "length": 61,
    "id": 1,
    "channelNumber": 0,
    "isPercussion": false,
    "notes": [
      {
        "name": "E4",
        "midi": 64,
        "time": 0,
        "velocity": 0.5196850393700787,
        "duration": 0.8571420000000001
      },
      {
        "name": "E4",
        "midi": 64,
        "time": 0.8571420000000001,
        "velocity": 0.5905511811023622,
        "duration": 0.8738830546875
      },
      {
        "name": "F4",
        "midi": 65,
        "time": 1.7142840000000001,
        "velocity": 0.6062992125984252,
        "duration": 0.8738830546875
      },
      {
        "name": "G4",
        "midi": 67,
        "time": 2.571426,
        "velocity": 0.6456692913385826,
        "duration": 0.8571420000000001
      },
      {
        "name": "G4",
        "midi": 67,
        "time": 3.4285680000000003,
        "velocity": 0.5748031496062992,
        "duration": 0.8738830546875
      },
      {
        "name": "F4",
        "midi": 65,
        "time": 4.28571,
        "velocity": 0.5433070866141733,
        "duration": 0.8738830546875009
      },
      {
        "name": "E4",
        "midi": 64,
        "time": 5.142852,
        "velocity": 0.5826771653543307,
        "duration": 0.8738830546875009
      },
      {
        "name": "D4",
        "midi": 62,
        "time": 5.999994000000001,
        "velocity": 0.5669291338582677,
        "duration": 0.8738830546875009
      },
      {
        "name": "C4",
        "midi": 60,
        "time": 6.8571360000000015,
        "velocity": 0.5826771653543307,
        "duration": 0.8571420000000005
      },
      {
        "name": "C4",
        "midi": 60,
        "time": 7.714278000000002,
        "velocity": 0.6299212598425197,
        "duration": 0.8738830546875
      },
      {
        "name": "D4",
        "midi": 62,
        "time": 8.571420000000002,
        "velocity": 0.6377952755905512,
        "duration": 0.8738830546875018
      },
      {
        "name": "E4",
        "midi": 64,
        "time": 9.428562000000003,
        "velocity": 0.6456692913385826,
        "duration": 0.8571419999999996
      },
      {
        "name": "E4",
        "midi": 64,
        "time": 10.285704000000003,
        "velocity": 0.6220472440944882,
        "duration": 1.3091504765624986
      },
      {
        "name": "D4",
        "midi": 62,
        "time": 11.571417000000002,
        "velocity": 0.6377952755905512,
        "duration": 0.4285709999999998
      },
      {
        "name": "D4",
        "midi": 62,
        "time": 11.999988000000002,
        "velocity": 0.5984251968503937,
        "duration": 1.6272305156249995
      },
      {
        "name": "E4",
        "midi": 64,
        "time": 13.714272000000001,
        "velocity": 0.6299212598425197,
        "duration": 0.8571419999999996
      },
      {
        "name": "E4",
        "midi": 64,
        "time": 14.571414,
        "velocity": 0.6220472440944882,
        "duration": 0.8738830546875
      },
      {
        "name": "F4",
        "midi": 65,
        "time": 15.428556,
        "velocity": 0.6535433070866141,
        "duration": 0.8738830546875
      },
      {
        "name": "G4",
        "midi": 67,
        "time": 16.285698,
        "velocity": 0.6220472440944882,
        "duration": 0.8571419999999996
      },
      {
        "name": "G4",
        "midi": 67,
        "time": 17.14284,
        "velocity": 0.6141732283464567,
        "duration": 0.8738830546875
      },
      {
        "name": "F4",
        "midi": 65,
        "time": 17.999982,
        "velocity": 0.6062992125984252,
        "duration": 0.8738830546875
      },
      {
        "name": "E4",
        "midi": 64,
        "time": 18.857124,
        "velocity": 0.5826771653543307,
        "duration": 0.8738830546875
      },
      {
        "name": "D4",
        "midi": 62,
        "time": 19.714266,
        "velocity": 0.5354330708661418,
        "duration": 0.8738830546875
      },
      {
        "name": "C4",
        "midi": 60,
        "time": 20.571407999999998,
        "velocity": 0.5433070866141733,
        "duration": 0.8571419999999996
      },
      {
        "name": "C4",
        "midi": 60,
        "time": 21.428549999999998,
        "velocity": 0.5669291338582677,
        "duration": 0.8738830546875
      },
      {
        "name": "D4",
        "midi": 62,
        "time": 22.285691999999997,
        "velocity": 0.6377952755905512,
        "duration": 0.8738830546875
      },
      {
        "name": "E4",
        "midi": 64,
        "time": 23.142833999999997,
        "velocity": 0.6220472440944882,
        "duration": 0.8738830546875
      },
      {
        "name": "D4",
        "midi": 62,
        "time": 23.999975999999997,
        "velocity": 0.6062992125984252,
        "duration": 1.3091504765625004
      },
      {
        "name": "C4",
        "midi": 60,
        "time": 25.285688999999998,
        "velocity": 0.5354330708661418,
        "duration": 0.42857099999999804
      },
      {
        "name": "C4",
        "midi": 60,
        "time": 25.714259999999996,
        "velocity": 0.6141732283464567,
        "duration": 1.6272305156250013
      },
      {
        "name": "D4",
        "midi": 62,
        "time": 27.428544,
        "velocity": 0.6456692913385826,
        "duration": 1.747766109375
      },
      {
        "name": "E4",
        "midi": 64,
        "time": 29.142827999999998,
        "velocity": 0.6771653543307087,
        "duration": 0.8738830546875
      },
      {
        "name": "C4",
        "midi": 60,
        "time": 29.999969999999998,
        "velocity": 0.5511811023622047,
        "duration": 0.8738830546875
      },
      {
        "name": "D4",
        "midi": 62,
        "time": 30.857111999999997,
        "velocity": 0.5826771653543307,
        "duration": 0.8738830546875
      },
      {
        "name": "E4",
        "midi": 64,
        "time": 31.714253999999997,
        "velocity": 0.6614173228346457,
        "duration": 0.4352674218749968
      },
      {
        "name": "F4",
        "midi": 65,
        "time": 32.142824999999995,
        "velocity": 0.7086614173228346,
        "duration": 0.4352674218749968
      },
      {
        "name": "E4",
        "midi": 64,
        "time": 32.57139599999999,
        "velocity": 0.5826771653543307,
        "duration": 0.8738830546874965
      },
      {
        "name": "C4",
        "midi": 60,
        "time": 33.42853799999999,
        "velocity": 0.5275590551181102,
        "duration": 0.8738830546875036
      },
      {
        "name": "D4",
        "midi": 62,
        "time": 34.28567999999999,
        "velocity": 0.6377952755905512,
        "duration": 0.8738830546875036
      },
      {
        "name": "E4",
        "midi": 64,
        "time": 35.142821999999995,
        "velocity": 0.6692913385826772,
        "duration": 0.4352674218749968
      },
      {
        "name": "F4",
        "midi": 65,
        "time": 35.57139299999999,
        "velocity": 0.6377952755905512,
        "duration": 0.4352674218749968
      },
      {
        "name": "E4",
        "midi": 64,
        "time": 35.99996399999999,
        "velocity": 0.6377952755905512,
        "duration": 0.8738830546874965
      },
      {
        "name": "D4",
        "midi": 62,
        "time": 36.85710599999999,
        "velocity": 0.5826771653543307,
        "duration": 0.8738830546875036
      },
      {
        "name": "C4",
        "midi": 60,
        "time": 37.71424799999999,
        "velocity": 0.5275590551181102,
        "duration": 0.8738830546875036
      },
      {
        "name": "D4",
        "midi": 62,
        "time": 38.571389999999994,
        "velocity": 0.6456692913385826,
        "duration": 0.8738830546875036
      },
      {
        "name": "G4",
        "midi": 67,
        "time": 39.428532,
        "velocity": 0.7559055118110236,
        "duration": 1.6272305156250013
      },
      {
        "name": "E4",
        "midi": 64,
        "time": 41.142815999999996,
        "velocity": 0.6929133858267716,
        "duration": 0.8571420000000032
      },
      {
        "name": "E4",
        "midi": 64,
        "time": 41.999958,
        "velocity": 0.7795275590551181,
        "duration": 0.8738830546875036
      },
      {
        "name": "F4",
        "midi": 65,
        "time": 42.8571,
        "velocity": 0.8188976377952756,
        "duration": 0.8738830546875036
      },
      {
        "name": "G4",
        "midi": 67,
        "time": 43.714242000000006,
        "velocity": 0.7952755905511811,
        "duration": 0.8571420000000032
      },
      {
        "name": "G4",
        "midi": 67,
        "time": 44.57138400000001,
        "velocity": 0.7637795275590551,
        "duration": 0.8738830546875036
      },
      {
        "name": "F4",
        "midi": 65,
        "time": 45.42852600000001,
        "velocity": 0.7165354330708661,
        "duration": 0.8738830546875036
      },
      {
        "name": "E4",
        "midi": 64,
        "time": 46.285668000000015,
        "velocity": 0.7007874015748031,
        "duration": 0.8738830546875036
      },
      {
        "name": "D4",
        "midi": 62,
        "time": 47.14281000000002,
        "velocity": 0.6299212598425197,
        "duration": 0.8738830546875036
      },
      {
        "name": "C4",
        "midi": 60,
        "time": 47.99995200000002,
        "velocity": 0.7007874015748031,
        "duration": 0.8571420000000032
      },
      {
        "name": "C4",
        "midi": 60,
        "time": 48.857094000000025,
        "velocity": 0.7795275590551181,
        "duration": 0.8738830546875036
      },
      {
        "name": "D4",
        "midi": 62,
        "time": 49.71423600000003,
        "velocity": 0.8267716535433071,
        "duration": 0.8738830546875036
      },
      {
        "name": "E4",
        "midi": 64,
        "time": 50.57137800000003,
        "velocity": 0.8031496062992126,
        "duration": 0.8738830546875036
      },
      {
        "name": "D4",
        "midi": 62,
        "time": 51.428520000000034,
        "velocity": 0.7480314960629921,
        "duration": 1.3091504765625004
      },
      {
        "name": "C4",
        "midi": 60,
        "time": 52.714233000000036,
        "velocity": 0.7086614173228346,
        "duration": 0.42857099999999804
      },
      {
        "name": "C4",
        "midi": 60,
        "time": 53.142804000000034,
        "velocity": 0.7795275590551181,
        "duration": 1.6272305156250013
      }
    ],
    "controlChanges": {
      "7": [
        {
          "number": 7,
          "time": 0,
          "value": 0.84251968503937
        }
      ],
      "10": [
        {
          "number": 10,
          "time": 0,
          "value": 0.3779527559055118
        }
      ],
      "64": [
        {
          "number": 64,
          "time": 0,
          "value": 0
        }
      ],
      "91": [
        {
          "number": 91,
          "time": 0,
          "value": 0.33858267716535434
        }
      ],
      "121": [
        {
          "number": 121,
          "time": 0,
          "value": 0
        }
      ]
    }
  }
]
}
