
var old_macdonald = {
    "header": {
        "PPQ": 960,
        "timeSignature": [
            4,
            4
        ],
        "bpm": 100,
        "name": "Old MacDonald (Trad. arranged"
    },
    "startTime": 0,
    "duration": 37.20000000000004,
    "tracks": [
        {
            "startTime": 0,
            "duration": 0,
            "length": 0,
            "id": 0,
            "name": "Old MacDonald (Trad. arranged"
        },
        {
            "startTime": 0,
            "duration": 37.20000000000004,
            "length": 59,
            "id": 1,
            "name": "Piano",
            "instrumentNumber": 0,
            "instrument": "acoustic grand piano",
            "instrumentFamily": "piano",
            "channelNumber": 0,
            "isPercussion": false,
            "notes": [
                {
                    "name": "G4",
                    "midi": 67,
                    "time": 0,
                    "velocity": 0.5196850393700787,
                    "duration": 0.6
                },
                {
                    "name": "G4",
                    "midi": 67,
                    "time": 0.6,
                    "velocity": 0.5905511811023622,
                    "duration": 0.6
                },
                {
                    "name": "G4",
                    "midi": 67,
                    "time": 1.2,
                    "velocity": 0.6141732283464567,
                    "duration": 0.5999999999999999
                },
                {
                    "name": "D4",
                    "midi": 62,
                    "time": 1.7999999999999998,
                    "velocity": 0.5196850393700787,
                    "duration": 0.6000000000000001
                },
                {
                    "name": "E4",
                    "midi": 64,
                    "time": 2.4,
                    "velocity": 0.5669291338582677,
                    "duration": 0.6000000000000001
                },
                {
                    "name": "E4",
                    "midi": 64,
                    "time": 3,
                    "velocity": 0.6141732283464567,
                    "duration": 0.6000000000000001
                },
                {
                    "name": "D4",
                    "midi": 62,
                    "time": 3.6,
                    "velocity": 0.6062992125984252,
                    "duration": 1.1999999999999997
                },
                {
                    "name": "B4",
                    "midi": 71,
                    "time": 4.8,
                    "velocity": 0.5354330708661418,
                    "duration": 0.5999999999999996
                },
                {
                    "name": "B4",
                    "midi": 71,
                    "time": 5.3999999999999995,
                    "velocity": 0.5984251968503937,
                    "duration": 0.5999999999999996
                },
                {
                    "name": "A4",
                    "midi": 69,
                    "time": 5.999999999999999,
                    "velocity": 0.5826771653543307,
                    "duration": 0.5999999999999996
                },
                {
                    "name": "A4",
                    "midi": 69,
                    "time": 6.599999999999999,
                    "velocity": 0.6062992125984252,
                    "duration": 0.5999999999999996
                },
                {
                    "name": "G4",
                    "midi": 67,
                    "time": 7.199999999999998,
                    "velocity": 0.5826771653543307,
                    "duration": 1.2000000000000002
                },
                {
                    "name": "D4",
                    "midi": 62,
                    "time": 8.999999999999998,
                    "velocity": 0.5433070866141733,
                    "duration": 0.5999999999999996
                },
                {
                    "name": "G4",
                    "midi": 67,
                    "time": 9.599999999999998,
                    "velocity": 0.5433070866141733,
                    "duration": 0.5999999999999996
                },
                {
                    "name": "G4",
                    "midi": 67,
                    "time": 10.199999999999998,
                    "velocity": 0.6141732283464567,
                    "duration": 0.5999999999999996
                },
                {
                    "name": "G4",
                    "midi": 67,
                    "time": 10.799999999999997,
                    "velocity": 0.5905511811023622,
                    "duration": 0.5999999999999996
                },
                {
                    "name": "D4",
                    "midi": 62,
                    "time": 11.399999999999997,
                    "velocity": 0.5669291338582677,
                    "duration": 0.5999999999999996
                },
                {
                    "name": "E4",
                    "midi": 64,
                    "time": 11.999999999999996,
                    "velocity": 0.6220472440944882,
                    "duration": 0.5999999999999996
                },
                {
                    "name": "E4",
                    "midi": 64,
                    "time": 12.599999999999996,
                    "velocity": 0.5590551181102362,
                    "duration": 0.5999999999999996
                },
                {
                    "name": "D4",
                    "midi": 62,
                    "time": 13.199999999999996,
                    "velocity": 0.5748031496062992,
                    "duration": 1.1999999999999993
                },
                {
                    "name": "B4",
                    "midi": 71,
                    "time": 14.399999999999995,
                    "velocity": 0.5511811023622047,
                    "duration": 0.5999999999999996
                },
                {
                    "name": "B4",
                    "midi": 71,
                    "time": 14.999999999999995,
                    "velocity": 0.5826771653543307,
                    "duration": 0.5999999999999996
                },
                {
                    "name": "A4",
                    "midi": 69,
                    "time": 15.599999999999994,
                    "velocity": 0.5433070866141733,
                    "duration": 0.6000000000000014
                },
                {
                    "name": "A4",
                    "midi": 69,
                    "time": 16.199999999999996,
                    "velocity": 0.5590551181102362,
                    "duration": 0.6000000000000014
                },
                {
                    "name": "G4",
                    "midi": 67,
                    "time": 16.799999999999997,
                    "velocity": 0.5669291338582677,
                    "duration": 1.1999999999999993
                },
                {
                    "name": "D4",
                    "midi": 62,
                    "time": 18.599999999999998,
                    "velocity": 0.5039370078740157,
                    "duration": 0.3000000000000007
                },
                {
                    "name": "D4",
                    "midi": 62,
                    "time": 18.9,
                    "velocity": 0.5905511811023622,
                    "duration": 0.3000000000000007
                },
                {
                    "name": "G4",
                    "midi": 67,
                    "time": 19.2,
                    "velocity": 0.5433070866141733,
                    "duration": 0.6000000000000014
                },
                {
                    "name": "G4",
                    "midi": 67,
                    "time": 19.8,
                    "velocity": 0.5905511811023622,
                    "duration": 0.6000000000000014
                },
                {
                    "name": "G4",
                    "midi": 67,
                    "time": 20.400000000000002,
                    "velocity": 0.6062992125984252,
                    "duration": 0.6000000000000014
                },
                {
                    "name": "D4",
                    "midi": 62,
                    "time": 21.000000000000004,
                    "velocity": 0.5511811023622047,
                    "duration": 0.3000000000000007
                },
                {
                    "name": "D4",
                    "midi": 62,
                    "time": 21.300000000000004,
                    "velocity": 0.5748031496062992,
                    "duration": 0.3000000000000007
                },
                {
                    "name": "G4",
                    "midi": 67,
                    "time": 21.600000000000005,
                    "velocity": 0.5118110236220472,
                    "duration": 0.6000000000000014
                },
                {
                    "name": "G4",
                    "midi": 67,
                    "time": 22.200000000000006,
                    "velocity": 0.5905511811023622,
                    "duration": 0.6000000000000014
                },
                {
                    "name": "G4",
                    "midi": 67,
                    "time": 22.800000000000008,
                    "velocity": 0.5984251968503937,
                    "duration": 1.1999999999999993
                },
                {
                    "name": "G4",
                    "midi": 67,
                    "time": 24.000000000000007,
                    "velocity": 0.6062992125984252,
                    "duration": 0.3000000000000007
                },
                {
                    "name": "G4",
                    "midi": 67,
                    "time": 24.300000000000008,
                    "velocity": 0.5826771653543307,
                    "duration": 0.3000000000000007
                },
                {
                    "name": "G4",
                    "midi": 67,
                    "time": 24.60000000000001,
                    "velocity": 0.5748031496062992,
                    "duration": 0.6000000000000014
                },
                {
                    "name": "G4",
                    "midi": 67,
                    "time": 25.20000000000001,
                    "velocity": 0.5669291338582677,
                    "duration": 0.3000000000000007
                },
                {
                    "name": "G4",
                    "midi": 67,
                    "time": 25.50000000000001,
                    "velocity": 0.5826771653543307,
                    "duration": 0.3000000000000007
                },
                {
                    "name": "G4",
                    "midi": 67,
                    "time": 25.80000000000001,
                    "velocity": 0.6141732283464567,
                    "duration": 0.6000000000000014
                },
                {
                    "name": "G4",
                    "midi": 67,
                    "time": 26.400000000000013,
                    "velocity": 0.6062992125984252,
                    "duration": 0.3000000000000007
                },
                {
                    "name": "G4",
                    "midi": 67,
                    "time": 26.700000000000014,
                    "velocity": 0.5748031496062992,
                    "duration": 0.3000000000000007
                },
                {
                    "name": "G4",
                    "midi": 67,
                    "time": 27.000000000000014,
                    "velocity": 0.6299212598425197,
                    "duration": 0.3000000000000007
                },
                {
                    "name": "G4",
                    "midi": 67,
                    "time": 27.300000000000015,
                    "velocity": 0.5826771653543307,
                    "duration": 0.3000000000000007
                },
                {
                    "name": "G4",
                    "midi": 67,
                    "time": 27.600000000000016,
                    "velocity": 0.6299212598425197,
                    "duration": 0.6000000000000014
                },
                {
                    "name": "G4",
                    "midi": 67,
                    "time": 28.200000000000017,
                    "velocity": 0.5905511811023622,
                    "duration": 0.6000000000000014
                },
                {
                    "name": "G4",
                    "midi": 67,
                    "time": 28.80000000000002,
                    "velocity": 0.6062992125984252,
                    "duration": 0.6000000000000014
                },
                {
                    "name": "G4",
                    "midi": 67,
                    "time": 29.40000000000002,
                    "velocity": 0.5826771653543307,
                    "duration": 0.6000000000000014
                },
                {
                    "name": "G4",
                    "midi": 67,
                    "time": 30.00000000000002,
                    "velocity": 0.5984251968503937,
                    "duration": 0.6000000000000014
                },
                {
                    "name": "D4",
                    "midi": 62,
                    "time": 30.600000000000023,
                    "velocity": 0.5196850393700787,
                    "duration": 0.6000000000000014
                },
                {
                    "name": "E4",
                    "midi": 64,
                    "time": 31.200000000000024,
                    "velocity": 0.6062992125984252,
                    "duration": 0.6000000000000014
                },
                {
                    "name": "E4",
                    "midi": 64,
                    "time": 31.800000000000026,
                    "velocity": 0.5748031496062992,
                    "duration": 0.6000000000000014
                },
                {
                    "name": "D4",
                    "midi": 62,
                    "time": 32.40000000000003,
                    "velocity": 0.5669291338582677,
                    "duration": 1.2000000000000028
                },
                {
                    "name": "B4",
                    "midi": 71,
                    "time": 33.60000000000003,
                    "velocity": 0.5118110236220472,
                    "duration": 0.6000000000000014
                },
                {
                    "name": "B4",
                    "midi": 71,
                    "time": 34.20000000000003,
                    "velocity": 0.5905511811023622,
                    "duration": 0.6000000000000014
                },
                {
                    "name": "A4",
                    "midi": 69,
                    "time": 34.80000000000003,
                    "velocity": 0.5669291338582677,
                    "duration": 0.6000000000000014
                },
                {
                    "name": "A4",
                    "midi": 69,
                    "time": 35.400000000000034,
                    "velocity": 0.5826771653543307,
                    "duration": 0.6000000000000014
                },
                {
                    "name": "G4",
                    "midi": 67,
                    "time": 36.000000000000036,
                    "velocity": 0.5433070866141733,
                    "duration": 1.2000000000000028
                }
            ],
            "controlChanges": {
                "7": [
                    {
                        "number": 7,
                        "time": 0,
                        "value": 0.7874015748031497
                    },
                    {
                        "number": 7,
                        "time": 0,
                        "value": 0.7874015748031497
                    }
                ],
                "10": [
                    {
                        "number": 10,
                        "time": 0,
                        "value": 0.4015748031496063
                    },
                    {
                        "number": 10,
                        "time": 0,
                        "value": 0.4015748031496063
                    }
                ],
                "64": [
                    {
                        "number": 64,
                        "time": 0,
                        "value": 0
                    },
                    {
                        "number": 64,
                        "time": 0,
                        "value": 0
                    }
                ],
                "91": [
                    {
                        "number": 91,
                        "time": 0,
                        "value": 0.3779527559055118
                    },
                    {
                        "number": 91,
                        "time": 0,
                        "value": 0.3779527559055118
                    }
                ],
                "121": [
                    {
                        "number": 121,
                        "time": 0,
                        "value": 0
                    },
                    {
                        "number": 121,
                        "time": 0,
                        "value": 0
                    }
                ]
            }
        }
    ]
}
