/**
 * Created by peal on 2017-02-23.
 */
var row_the_boat = {
    "header": {
        "PPQ": 384,
        "timeSignature": [
            4,
            4
        ],
        "bpm": 100,
        "name": "Track 0"
    },
    "startTime": 0,
    "duration": 19.2,
    "tracks": [
        {
            "startTime": 0,
            "duration": 0,
            "length": 0,
            "id": 0,
            "name": "Track 0"
        },
        {
            "startTime": 0,
            "duration": 19.2,
            "length": 23,
            "id": 1,
            "channelNumber": 0,
            "isPercussion": false,
            "notes": [
                {
                    "name": "D4",
                    "midi": 62,
                    "time": 0,
                    "velocity": 1,
                    "duration": 0.6
                },
                {
                    "name": "F#4",
                    "midi": 66,
                    "time": 0.6,
                    "velocity": 1,
                    "duration": 0.6
                },
                {
                    "name": "A4",
                    "midi": 69,
                    "time": 1.2,
                    "velocity": 1,
                    "duration": 0.8999999999999997
                },
                {
                    "name": "F#4",
                    "midi": 66,
                    "time": 2.0999999999999996,
                    "velocity": 1,
                    "duration": 0.2999999999999998
                },
                {
                    "name": "A4",
                    "midi": 69,
                    "time": 2.3999999999999995,
                    "velocity": 1,
                    "duration": 0.2999999999999998
                },
                {
                    "name": "B4",
                    "midi": 71,
                    "time": 2.6999999999999993,
                    "velocity": 1,
                    "duration": 0.8999999999999999
                },
                {
                    "name": "A4",
                    "midi": 69,
                    "time": 3.599999999999999,
                    "velocity": 1,
                    "duration": 1.1999999999999997
                },
                {
                    "name": "F#4",
                    "midi": 66,
                    "time": 4.799999999999999,
                    "velocity": 1,
                    "duration": 0.5999999999999996
                },
                {
                    "name": "A4",
                    "midi": 69,
                    "time": 5.399999999999999,
                    "velocity": 1,
                    "duration": 0.5999999999999996
                },
                {
                    "name": "B4",
                    "midi": 71,
                    "time": 5.999999999999998,
                    "velocity": 1,
                    "duration": 2.4000000000000004
                },
                {
                    "name": "A4",
                    "midi": 69,
                    "time": 8.399999999999999,
                    "velocity": 1,
                    "duration": 1.1999999999999993
                },
                {
                    "name": "F#4",
                    "midi": 66,
                    "time": 9.599999999999998,
                    "velocity": 1,
                    "duration": 0.5999999999999996
                },
                {
                    "name": "A4",
                    "midi": 69,
                    "time": 10.199999999999998,
                    "velocity": 1,
                    "duration": 0.5999999999999996
                },
                {
                    "name": "A4",
                    "midi": 69,
                    "time": 10.799999999999997,
                    "velocity": 1,
                    "duration": 0.9000000000000004
                },
                {
                    "name": "F#4",
                    "midi": 66,
                    "time": 11.699999999999998,
                    "velocity": 1,
                    "duration": 0.3000000000000007
                },
                {
                    "name": "G4",
                    "midi": 67,
                    "time": 11.999999999999998,
                    "velocity": 1,
                    "duration": 0.3000000000000007
                },
                {
                    "name": "F#4",
                    "midi": 66,
                    "time": 12.299999999999999,
                    "velocity": 1,
                    "duration": 0.9000000000000004
                },
                {
                    "name": "E4",
                    "midi": 64,
                    "time": 13.2,
                    "velocity": 1,
                    "duration": 1.1999999999999993
                },
                {
                    "name": "D4",
                    "midi": 62,
                    "time": 14.399999999999999,
                    "velocity": 1,
                    "duration": 0.5999999999999996
                },
                {
                    "name": "E4",
                    "midi": 64,
                    "time": 14.999999999999998,
                    "velocity": 1,
                    "duration": 0.5999999999999996
                },
                {
                    "name": "F#4",
                    "midi": 66,
                    "time": 15.599999999999998,
                    "velocity": 1,
                    "duration": 1.8000000000000007
                },
                {
                    "name": "E4",
                    "midi": 64,
                    "time": 17.4,
                    "velocity": 1,
                    "duration": 0.6000000000000014
                },
                {
                    "name": "D4",
                    "midi": 62,
                    "time": 18,
                    "velocity": 1,
                    "duration": 1.1999999999999993
                }
            ]
        },
        {
            "startTime": 0,
            "duration": 0,
            "length": 0,
            "id": 2
        }
    ]
}
